/* XPM */
static char *_631237943168[] = {
/* columns rows colors chars-per-pixel */
"32 32 65 1 ",
"  c #83A70F",
". c #86AB10",
"X c #86AA12",
"o c #87AB13",
"O c #88AD12",
"+ c #89AE13",
"@ c #88AC14",
"# c #89AD15",
"$ c #8AAF14",
"% c #8AAE16",
"& c #8BAF17",
"* c #8BB015",
"= c #8CB116",
"- c #8DB217",
"; c #8CB018",
": c #8DB119",
"> c #8EB318",
", c #8EB21A",
"< c #8FB31B",
"1 c #8FB419",
"2 c #90B51A",
"3 c #91B61B",
"4 c #90B41C",
"5 c #91B51D",
"6 c #92B71C",
"7 c #92B61E",
"8 c #93B71F",
"9 c #93B81D",
"0 c #94B91E",
"q c #95BA1F",
"w c #94B820",
"e c #95B921",
"r c #96BB20",
"t c #96BA22",
"y c #97BB23",
"u c #97BC21",
"i c #98BD22",
"p c #99BE23",
"a c #98BC24",
"s c #99BD25",
"d c #9ABF24",
"f c #9ABE26",
"g c #9BBF27",
"h c #9BC025",
"j c #9CC126",
"k c #9DC227",
"l c #9CC028",
"z c #9DC129",
"x c #9EC328",
"c c #9EC22A",
"v c #9FC32B",
"b c #9FC429",
"n c #A0C52A",
"m c #A1C62B",
"M c #A0C42C",
"N c #A1C52D",
"B c #A2C72C",
"V c #A2C62E",
"C c #A3C72F",
"Z c #A3C82D",
"A c #A4C92E",
"S c #A5CA2F",
"D c #A4C830",
"F c #A5C931",
"G c #A6CB30",
/* pixels */
"w,w4waaFqqq-qqq64,w4aaw4alwaawa4",
"a4w44wwabbxqh9qhw2a4w4waaawCa,44",
"4,4awww42pq>qqpZwwa4w4wa4ala,wl4",
"4awla4ww-qOOq12xawlwaw44www,&aFw",
"wFlll44aqh-9hqqhw4awClw4aX&4,4lF",
"aFl444wCjn2jjqpp4,44aCCaw,4a44wC",
"wwa,,4alnZuBqO11w,4,alla4wlw4w4w",
"w&w,&44&pjqZ2.qqw,w4wwwwa4wwww4w",
"w4444aa41-2wp9-Ow4a4,4l,pnjqhj9>",
"a,waaFlwhq9quq26awa,&4aw9pu6qqq9",
",&,waCllxq2qq26qall444a4wqpq129q",
",&4wwaCFp91qpq6palCwlww4p269-1q9",
"w,ww4w4apq9pxhun4aCwlwww2O-22qp6",
"w4ww4w& qq69hppn,wa4awllpq6ujxh9",
"aallaCw&6p91qq6p4ww4w4aaxBnjbbp2",
",wCaaFlwqxh6pu2644a44,4qqnxqhh91",
"2q6926p>uhbhpp2>quO9q-q2q4Ca,4&w",
"q6qjq-62qqxhup>-qu4pq1pqw4lwwa4w",
"qqpjq-q6qqhq9q-Oqqbxqqhuaw44ww4,",
"pnxp26u*2-622pqqqqBx6hjp44&4all4",
"nZjq2qq.q1q26hp9u1jp6jp64w,wwlFa",
"nhquqqp1p2qpujp>h2uq6hq14w4w,4lw",
"q2>qqpnpq-6qqBnpjq99qqqq,,w4,4lw",
"-qu92pnqZuq6>hh2xhqqq2quwwla,wl4",
"q>-O>p6222q*6qpppq99hbp-4lCaa44a",
"p2q22p6qq6j999qqO*2qqpbSaClw44,w",
"qqquqpph22njuppu2qqq>-qZllw4w444",
"qppqpxbjq1nnhjjqpqqq1*1pw4,waaa4",
"jxp2qnBpp1hnuhq-phhqqpu9w4,waal4",
"bnu2qhj>q-2p9p2-qjnxhjhq44&4awCa",
"jj99q9p1>-6p9u>q1qhjhpap44,ww4la",
"qq2qq-9q2qhbqq-u922qpq224awl4,a4"
};
