/* XPM */
static char *_1631238816[] = {
/* columns rows colors chars-per-pixel */
"32 32 218 2 ",
"   c #5F7803",
".  c #6B6C0D",
"X  c #666B06",
"o  c #6A7806",
"O  c #74770D",
"+  c #666C16",
"@  c #736E1A",
"#  c #6D7D12",
"$  c #74731A",
"%  c #787E1B",
"&  c #7E7820",
"*  c #837C1C",
"=  c #857617",
"-  c #8B7D24",
";  c #917B25",
":  c #748207",
">  c #75900D",
",  c #7A8C13",
"<  c #768919",
"1  c #7D9114",
"2  c #8B8C15",
"3  c #8B831F",
"4  c #84881A",
"5  c #93841B",
"6  c #948D1C",
"7  c #998C1B",
"8  c #98851C",
"9  c #869718",
"0  c #93961E",
"q  c #A2931E",
"w  c #85AA0D",
"e  c #85A70B",
"r  c #83B20F",
"t  c #8BBA0E",
"y  c #86AA13",
"u  c #8AAE16",
"i  c #8BA41E",
"p  c #8CAD1B",
"a  c #84AE1A",
"s  c #94AD1D",
"d  c #87B314",
"f  c #8CB315",
"g  c #8DB816",
"h  c #8EB31B",
"j  c #8DBB1B",
"k  c #87BA15",
"l  c #92B415",
"z  c #95BA16",
"x  c #92B51C",
"c  c #93BB1C",
"v  c #98BB1E",
"b  c #8C8D25",
"n  c #8A852B",
"m  c #898B2B",
"M  c #878B2D",
"N  c #948723",
"B  c #9B8D25",
"V  c #968428",
"C  c #948D2A",
"Z  c #9D8D2C",
"A  c #9B8520",
"S  c #8E9D20",
"D  c #899422",
"F  c #919A24",
"G  c #9C9D25",
"H  c #9B9229",
"J  c #9C9B2D",
"K  c #989126",
"L  c #8E8230",
"P  c #9C8E34",
"I  c #948833",
"U  c #839831",
"Y  c #959435",
"T  c #9A9730",
"R  c #A28D23",
"E  c #A28E2A",
"W  c #A18521",
"Q  c #A69526",
"!  c #A39C26",
"~  c #A4952A",
"^  c #AA952B",
"/  c #A49C2B",
"(  c #AA992D",
")  c #AA9625",
"_  c #B19D2E",
"`  c #A38E33",
"'  c #AB9634",
"]  c #AE9C32",
"[  c #A69B39",
"{  c #AC9C39",
"}  c #A49536",
"|  c #B39D33",
" . c #B39E3E",
".. c #8BA426",
"X. c #94AD24",
"o. c #9CAD2A",
"O. c #98A526",
"+. c #8EB321",
"@. c #94B423",
"#. c #9BB525",
"$. c #96BA22",
"%. c #9ABC25",
"&. c #94B32A",
"*. c #9CB42B",
"=. c #95BA2A",
"-. c #9BBC2B",
";. c #9DB331",
":. c #9DBB32",
">. c #9EB83D",
",. c #A7AE2C",
"<. c #A9AC2E",
"1. c #A1A22D",
"2. c #B1A02E",
"3. c #A2B12B",
"4. c #ABAD32",
"5. c #AFA33A",
"6. c #AAA235",
"7. c #B3A235",
"8. c #BAA335",
"9. c #B4A23B",
"0. c #BAA43C",
"q. c #B5AC3B",
"w. c #BBAC3D",
"e. c #BBAA36",
"r. c #A4B334",
"t. c #A8B336",
"y. c #A5BE35",
"u. c #AFBD39",
"i. c #BCB33A",
"p. c #B1B739",
"a. c #C1AD3C",
"s. c #C0B03F",
"d. c #96C11B",
"f. c #99C21E",
"g. c #95C123",
"h. c #9AC122",
"j. c #9CC824",
"k. c #9EC22A",
"l. c #9CC82B",
"z. c #A2C426",
"x. c #A2C42D",
"c. c #A2CA2C",
"v. c #A3C332",
"b. c #A9C333",
"n. c #A5C933",
"m. c #B0C039",
"M. c #BAA642",
"N. c #BDAB43",
"B. c #BDAC4A",
"V. c #B3A343",
"C. c #BDB248",
"Z. c #A9A345",
"A. c #C3A644",
"S. c #C1AC44",
"D. c #C1AE48",
"F. c #C2B443",
"G. c #C6B34A",
"H. c #CAB54C",
"J. c #CDBB4D",
"K. c #CAB645",
"L. c #D2BA4C",
"P. c #C5B551",
"I. c #CDBA54",
"U. c #CCBA5C",
"Y. c #CAB558",
"T. c #D1BD54",
"R. c #D3BE5A",
"E. c #D8BB5D",
"W. c #CEBB61",
"Q. c #D2BE61",
"!. c #D5BF6C",
"~. c #B6C840",
"^. c #C1C24A",
"/. c #D2C64D",
"(. c #CCC357",
"). c #D5C257",
"_. c #D4C35C",
"`. c #D9C65F",
"'. c #DBCA5D",
"]. c #D5C95B",
"[. c #D0D056",
"{. c #E1CD5D",
"}. c #CFCA62",
"|. c #D5C364",
" X c #D9C563",
".X c #DCCA64",
"XX c #DAC66B",
"oX c #DECB6A",
"OX c #D6C867",
"+X c #DECA74",
"@X c #DAC576",
"#X c #E2CE6C",
"$X c #E3C764",
"%X c #E2D064",
"&X c #EAD46E",
"*X c #E4D16C",
"=X c #E1CD72",
"-X c #E2CD7A",
";X c #E5D274",
":X c #E9D674",
">X c #EDDB75",
",X c #E5D27B",
"<X c #EAD57B",
"1X c #EDD97D",
"2X c #E1DA72",
"3X c #F0DD7E",
"4X c #E7D183",
"5X c #EBD684",
"6X c #EFDA86",
"7X c #EBD68A",
"8X c #EEDA8A",
"9X c #F2DD85",
"0X c #F2DD8B",
"qX c #F1DD96",
"wX c #F6E28C",
"eX c #F7E488",
"rX c #FBE69B",
"tX c #FEEA97",
/* pixels */
"$.x @.x @.%.%.n.$.$.$.h c l z z v w v l c %.@.h %.k.=.=.:.=.h k ",
"%.x v v x c $.%.x.z.z.x h.v $.v h h %.u x $.$.%.%.$.=.-.=.h h l ",
"x h x %.$.x $.x l c x f h.c =.n.=.k.=.h $.$.x x z v z.%.h $.g.f ",
"h %.$.%.%.v $.x g c l e #.X.@.y.;.;.*.;.=.@.h $.l l v x y %.c.=.",
"v n.-.%.%.x x v j h.x u u.p.! 2 b 6 0 o.*.y.=.a %.e w x f h -.n.",
"%.n.k.v $.p x -.v.*.*.p.[.F.| | | 9.7.! 2 O.;.y.-.p x x x h $.v.",
"v x %.x u h $.%.4.G / i.I.7.0.R.L.8._ 8.C.).q.J 9 :.v.@.x v v $.",
"$.u $.v y x x y R ^ G..X&X X X.XL.e.| A.w.0.A | o ..:.s v x u $.",
"X.p $.d l 3.t.2 9.w.'._.-XrX+XR.`.I.| ( ]  .^ E M.[ X >.=.d.g.+.",
"*.x c $.c.m.^.6._.>X`.;X0X4X0X.XoXoX`.J.0.G.0.= M.H X , =.h +.+.",
"p y h x #.,.0.a.P.:XoXW.@X8X8XXXeXXXB.I.K.] 5 8 R  .C o > h g.=.",
"+.d $.#.O.! | A.XX|.9X5X5XqX-XwX-X9X|.G.N.J.a.0.| E 3 b o i @.%.",
"g.h x o.,.w.H.$X_.=X0XtX7X-X0X9X6X-X!.I.D.`..XH.a.0.{ Y   ..v.f ",
"h h b.u.4.q. .M.B.,X8X8X!.XXtX+X6XXX!.>XR.9.9. XL.N.5.Y $ o &.d.",
"$.$.b.3.0 7.N.P.R.XX4X4XU.U.#X+X6X9X$X#X>X;XM.` 8.7.C . + < k.k ",
"k x b.t.O.U.}._.*X9X0X5XXX X1X,X1XXX X>XQ. .; ; q ! K n + U &.t ",
"d.j.+.O..XV.{ }.2XeX;X+X8X7XrXqX!.5XQ.R.>X).w.S.] 7 / [ Y # ..z ",
"d.1 &.t.6 0..X2X_.].P.oXW.,X,X4X<XXX .' ).).9.9.] 8.A * + < @.h.",
"d.g y.r.H &X*XP.J.i.w.].N.U.U.,X1X<XP.E w.%X0.5 / 5.5 % . 1 @.w ",
"z c.%.*.i.S.8 V.K.H.'.>X1X.XQ.>X;X#X_.T.H.H.| | F.q.B.Z.M < :.f ",
"z.c.h.X.<.Q 9.|.B.I. X:X:X=X;X5XE.Y.I.%XK.| 0.`.N.H P L < , n.h.",
"z.%.l.s ,.F.*XC.' B.B.;XY.<X=XQ.M.0.9./.e.Q ] D.^.B.I & O ;.-.j ",
"g d k c 3.! B C ).H.S.$X0.).H.).D.( Q s.8.Q 5 B 7 Z I @ o *.$.g.",
"d d.j j s 4.H U.K.) 7.K.a.8.2.{.T.G.7._ ( ).8.~ ! = - @ 4 *.-.j ",
"#.x r f u 0 T } N C _.].w.i.s./.G.(.5.9.B 7..XF.P P O o O.-.d g.",
"#.v g j x i F b N V.B.Z ] F.| | a.s.^ ] ^ B  .B.C T F D *.@.d j ",
"x %.v c c #.o.S 3 C N Z B. .' E.| 8.^ E { P - $ : , i X.@.+.+.j ",
"@.%.v j d.c.n.=.O.F F J B 3 ' I.E Z { * * n M $ +.@.#.k.-.-.%.h ",
"k.v.%.j d.j.c.g.k.=.-.#.9 2 o.G 4 O F , , ..:.&.$.c f h %.$.-.h ",
"k.x.$.h j $.h.f k r j l.%.x #.s y.*.b.k.z.j.d.t d x d h %.%.-.-.",
"%.%.@.$.#.x c x d f c c l c x x w %.%.h.c z d.z p x h $.$.x k.%.",
"g.$.x @.%.s v v $.x %.z.h.x u %.$.$.p x.#.$.#.X.@.=.@.-.x u %.g "
};
