/* XPM */
static char *C1631238816[] = {
/* columns rows colors chars-per-pixel */
"32 32 151 2 ",
"   c #2A3107",
".  c #343300",
"X  c #383700",
"o  c #3F3B02",
"O  c #3F3F09",
"+  c #2A3610",
"@  c #3E3F2D",
"#  c #422500",
"$  c #4A290A",
"%  c #413300",
"&  c #453A00",
"*  c #483A00",
"=  c #453013",
"-  c #403C17",
";  c #374200",
":  c #3C4500",
">  c #385400",
",  c #4B4E00",
"<  c #4A480B",
"1  c #544701",
"2  c #514D00",
"3  c #584A00",
"4  c #53430F",
"5  c #5A450E",
"6  c #4A5900",
"7  c #555603",
"8  c #515C00",
"9  c #5C5E00",
"0  c #57540F",
"q  c #4E4F13",
"w  c #534A11",
"e  c #5B4B10",
"r  c #665209",
"t  c #605E0B",
"y  c #605D10",
"u  c #647D07",
"i  c #637D18",
"p  c #7F7D18",
"a  c #7B7827",
"s  c #77752B",
"d  c #78732F",
"f  c #767E31",
"g  c #81691F",
"h  c #8A771B",
"j  c #847424",
"k  c #907820",
"l  c #768200",
"z  c #708E14",
"x  c #7A8F18",
"c  c #749314",
"v  c #728126",
"b  c #7B8721",
"n  c #778A21",
"m  c #7E9128",
"M  c #7F9B2C",
"N  c #93891A",
"B  c #9C961C",
"V  c #A4930F",
"C  c #84A70F",
"Z  c #85AD0E",
"A  c #8AAE0E",
"S  c #93A708",
"D  c #91AB0A",
"F  c #99AE0B",
"G  c #8CB50E",
"H  c #91BF05",
"J  c #91B50B",
"K  c #94BD0C",
"L  c #98BE09",
"P  c #81A511",
"I  c #86AA11",
"U  c #8AAE15",
"Y  c #83AE1D",
"T  c #8CAE1C",
"R  c #93AE11",
"E  c #87B314",
"W  c #8CB216",
"Q  c #8EB219",
"!  c #8BBD1E",
"~  c #91B317",
"^  c #93BD14",
"/  c #9FBC12",
"(  c #92B61D",
")  c #9CB41B",
"_  c #94B91E",
"`  c #99BC1E",
"'  c #829320",
"]  c #949520",
"[  c #9E952C",
"{  c #A49B24",
"}  c #B09E38",
"|  c #82A026",
" . c #87A825",
".. c #8CA32F",
"X. c #87AE2D",
"o. c #8BAC2A",
"O. c #99A127",
"+. c #9CA32F",
"@. c #95AF2A",
"#. c #8DB126",
"$. c #8EB32C",
"%. c #94B523",
"&. c #96BA21",
"*. c #99BD24",
"=. c #90B52F",
"-. c #95BA2B",
";. c #9DBC2A",
":. c #8FB730",
">. c #93B431",
",. c #93BE30",
"<. c #9ABB31",
"1. c #9EB63C",
"2. c #9ABA3B",
"3. c #A2BC23",
"4. c #A3B428",
"5. c #A6BB2D",
"6. c #AEBB2D",
"7. c #B6B42D",
"8. c #ABB633",
"9. c #A3BB34",
"0. c #A9B932",
"q. c #BFB93F",
"w. c #C6BB3D",
"e. c #91C403",
"r. c #95C30B",
"t. c #98C40F",
"y. c #94C417",
"u. c #9EC217",
"i. c #9BC61E",
"p. c #A2C00A",
"a. c #A0C017",
"s. c #AECC1E",
"d. c #BBC315",
"f. c #97C121",
"g. c #9CC126",
"h. c #9EC229",
"j. c #9EC331",
"k. c #A0C426",
"l. c #A1C52B",
"z. c #A3C82D",
"x. c #A5C735",
"c. c #A9C636",
"v. c #A6C931",
"b. c #BFC531",
"n. c #CCC630",
"m. c #D0C932",
"M. c #9F954D",
"N. c #BCBC40",
"B. c #BEBC4B",
"V. c #CBBA44",
"C. c #B2C748",
/* pixels */
"&.Q _ _ %.*.&.v.&._ &.Q f._ ( ( _ Q &.( ;.&.%.( *.h.*.%.&.%.*.( ",
"*.( %._ ( _ &.&.h.l.h._ g._ _ g._ Q *.Q _ _ ) *.*.*.*.h.*.~ ( ( ",
"( Q ( &.&.( &.( ~ &._ W _ _ g.z.&.( *.( _ T ( *.( *.;.*.~ %.;.~ ",
"Q *.%.;.;.%.&.( W _ E A _ Q ( h.&.%.h.&.*.%.( ( %.( _ Q U *.v.&.",
"%.v.3.;.*.( ( *._ g.W ( g._ &.g.&.( ;.` l.;.*.( ;.I U _ ( ( ;.v.",
"*.v.h._ ( ~ %.l.g.h.( h.h.&.&.*._ T %.~ h.l.h.*.&.U ( &.( T &.l.",
"&.&.*.T U ( *.3.l.z.*.l._ E ~ ~ _ T _ T &.;.;.*.( %.;._ ( &._ %.",
"%.U &.( I ( _ T *.h._ z.Q Z _ _ _ T &.~ &._ _ ` &._ &._ %.&.~ &.",
"&.( %.~ ( *.&.~ R ( Q ,.e.=.J ..0.S 4.=.Z E ;.F &.l.g._ g.h._ W ",
"&.~ %.*.;.v.h.%.3.u.o.y.i.>.D 8 < t t b o.Y j.^ ( *.&._ _ _ _ _ ",
"( I Q _ *.l.l.;.l.Q ^ o.~ ) 8 B.b.q.N 9 n X.f.E ` *.&._ Q ~ _ _ ",
"( U _ %._ ;.h.v.;.^ T %.s., 7.r X * j [ ; z g.=.&.~ _ _ Q Q _ _ ",
"_ T ` _ T &.&.*.K ,.i.` 5.0 n.# ' s * M.. m W ) ~ U E ( _ _ &._ ",
"&.~ &.( ( &.U C -.r.Y h.) 2 [ k   - w a > c 5.0.*._ _ f.g.g.g._ ",
"*.&.l.;.;.l.&.U -._ e.X.*.6.4 w.{ ] p : l M ;.3.h.z.h.h.h.h.&._ ",
"( %.l.;.&.z.3.%.-.g.f.^ ` w d.j = . * f -.M $.` _ h.h.&.g.f._ Q ",
"( _ ( _ Q _ *.W y.%.x.8.3 V.e % i M c -.k.A _ ~ ) _ v.*.Q ( I *.",
"i._ _ g._ W ( _ ^ -.1.7 m.V { d > ' <.h.( G k.( &.~ *.&.%.*.( &.",
"( _ _ h._ Q _ ~ _ 2.6 N.g $ 1 : c <.x.g._ ` l.%.*.%.~ ( &.&.( U ",
"f.h.h.g.( ( *.E -.I o , } k o v T ( h.h.` ` k.;.( ( T Q &.;.;.( ",
"l.l.h._ Q _ _ Z %.%./ . e B l + W ~ h.` ~ *.&.~ ( _ Q _ &.;.v.*.",
"h.g._ &._ _ g.Q r.>.-.9.[ : @ c ;.~ _ ~ ` z.;.( ( _ ( %.~ ( l.%.",
"_ ~ ! _ _ g.l.*.a.P :.J 3.p.k.j.*.( &.;.&.%.( ` U T ( _ U %.;._ ",
"Q _ ` _ Q g.l._ C.K y.! W <./ #.l.;.*.%.%.&._ ` &.&.h.;.~ &.*.~ ",
"&.Q Q E W *.( ( ( ^ _ U ! _ g.*.f._ _ _ g.h.f.Q %.3.l.;.` ( ( *.",
"&.( _ Q _ &.( _ _ ( g._ ( _ _ _ U W ( _ _ g.h.v.h.l.;.&.( Q Q %.",
"_ ( i.&.&.&.i.g.( ( h.h.` *.*._ ( _ _ _ Q W &.l.*.*.%._ _ %.~ ( ",
"&.g.&.&.g.h.h.g._ Q h.l.*.h.h._ g._ &._ Q W Q f.%._ ~ %.*.*.&.( ",
"g.h.f.Q _ z.z._ g.Q g.k.&.g.&.Q _ g.g._ _ &.&._ %.( T &.*.*.;.( ",
"h.l.&.Q _ g.h.Q _ W ! ` _ ` ! W &.h.h.h.g.g.g._ ( _ U ) &.&.l.*.",
"h.g._ _ _ ( _ ( Q W ( g._ _ Q _ Q _ g.g.g.g.*.&.~ %.U &.%.( l.*.",
"&._ Q _ i.Q _ _ ( _ g.h.&._ W &._ Q Q i.*._ ~ ( ~ &._ ;._ U *.T "
};
