/* XPM */
static char *_631237966507[] = {
/* columns rows colors chars-per-pixel */
"32 32 202 2 ",
"   c #1F1D1E",
".  c #2B341E",
"X  c #323B17",
"o  c #1F1D22",
"O  c #231E22",
"+  c #252325",
"@  c #282526",
"#  c #262529",
"$  c #2A2629",
"%  c #2C2B2D",
"&  c #2A2A28",
"*  c #332F2C",
"=  c #2E3429",
"-  c #333628",
";  c #2D2E32",
":  c #282A36",
">  c #312E32",
",  c #352E3E",
"<  c #2E3133",
"1  c #333335",
"2  c #3A3632",
"3  c #3C3A35",
"4  c #35353A",
"5  c #3A373B",
"6  c #353A3A",
"7  c #3B3A3D",
"8  c #413D3C",
"9  c #384112",
"0  c #3B4526",
"q  c #3F4334",
"w  c #5F7B0D",
"e  c #58691B",
"r  c #627E0C",
"t  c #647B14",
"y  c #657C1A",
"u  c #525D29",
"i  c #43423E",
"p  c #424B36",
"a  c #4D5438",
"s  c #58652A",
"d  c #5D6939",
"f  c #6C7E32",
"g  c #3A3543",
"h  c #3D3C43",
"j  c #383846",
"k  c #37314E",
"l  c #413F44",
"z  c #423F48",
"x  c #413C52",
"c  c #424244",
"v  c #494544",
"b  c #4A4946",
"n  c #46444A",
"m  c #4B4B4D",
"M  c #47494B",
"N  c #514D4D",
"B  c #4D524A",
"V  c #4D5347",
"C  c #56554C",
"Z  c #4B4554",
"A  c #474A53",
"S  c #4E4D54",
"D  c #4C4D59",
"F  c #484657",
"G  c #514E53",
"H  c #554E5E",
"J  c #4E5253",
"K  c #4E515C",
"L  c #535256",
"P  c #54545B",
"I  c #595559",
"U  c #595859",
"Y  c #65615E",
"T  c #6A6C59",
"R  c #4E4B6A",
"E  c #5A5863",
"W  c #605F65",
"Q  c #665F6F",
"!  c #636264",
"~  c #696564",
"^  c #6B6965",
"/  c #67666C",
"(  c #6A666C",
")  c #6D696C",
"_  c #67686D",
"`  c #716D6C",
"'  c #707066",
"]  c #6A6572",
"[  c #6D6B72",
"{  c #6D6A7A",
"}  c #676577",
"|  c #706E75",
" . c #716B79",
".. c #73727A",
"X. c #66830D",
"o. c #68850F",
"O. c #6D8A0A",
"+. c #698314",
"@. c #6C8619",
"#. c #698515",
"$. c #72891D",
"%. c #70871B",
"&. c #7B9516",
"*. c #7E971A",
"=. c #7A9415",
"-. c #6E8421",
";. c #6E8922",
":. c #738A23",
">. c #718725",
",. c #7F9A27",
"<. c #819B1C",
"1. c #8CAF0B",
"2. c #84A50A",
"3. c #8DB50D",
"4. c #93BD0C",
"5. c #95BA08",
"6. c #87AE12",
"7. c #8CAE13",
"8. c #8AAE19",
"9. c #87A417",
"0. c #8CB214",
"q. c #8EB31A",
"w. c #91B315",
"e. c #94BC15",
"r. c #93B51C",
"t. c #98B71C",
"y. c #95BB1D",
"u. c #9AB91E",
"i. c #869F22",
"p. c #84972E",
"a. c #869834",
"s. c #89A525",
"d. c #82A02A",
"f. c #8AA428",
"g. c #92AF2F",
"h. c #8EB221",
"j. c #8FB629",
"k. c #93B623",
"l. c #95BA22",
"z. c #9BBD22",
"x. c #93B52B",
"c. c #94B829",
"v. c #99BD2B",
"b. c #94B535",
"n. c #99B432",
"m. c #98BB35",
"M. c #93AB33",
"N. c #A0BE34",
"B. c #9BC01B",
"V. c #9BC416",
"C. c #98C10D",
"Z. c #A3C91C",
"A. c #9DC325",
"S. c #9FC22D",
"D. c #9FCA26",
"F. c #A1C225",
"G. c #A3C52D",
"H. c #A0C82A",
"J. c #A1C435",
"K. c #A7CD34",
"L. c #A9CC34",
"P. c #A8D039",
"I. c #98AB5A",
"U. c #A6BB51",
"Y. c #ABC449",
"T. c #6F6A81",
"R. c #7F7E8A",
"E. c #7B7B83",
"W. c #7F7C91",
"Q. c #807E84",
"!. c #837F8A",
"~. c #817E93",
"^. c #847FA7",
"/. c #848584",
"(. c #878986",
"). c #85838B",
"_. c #89868D",
"`. c #8C8A8C",
"'. c #848295",
"]. c #8C8B93",
"[. c #88859B",
"{. c #8C8898",
"}. c #918D9B",
"|. c #96949A",
" X c #9D999B",
".X c #979799",
"XX c #A19D9E",
"oX c #A0A199",
"OX c #9997A1",
"+X c #9D9BA3",
"@X c #9D9AAB",
"#X c #9593A0",
"$X c #9E99B3",
"%X c #A19EA5",
"&X c #A19DAB",
"*X c #A39EBA",
"=X c #A29FB2",
"-X c #9FA0A5",
";X c #A4A1A5",
":X c #A4A2AA",
">X c #A9A8AC",
",X c #A7A2B2",
/* pixels */
"e.e.b.v.q.Z.M.Y.t.u.u.7.z.z.t.t.z.2.A.w.z.t.u.t.U.n.5.Z.w.b.A.q.",
"j.y.8.V.x.i.s a L G m 1 L m m J L 1 L c J L m 6 a u M.m.Z.7.3.y.",
"m.6.3.3.U.u &X^.~.{.~. .&X}.[.'.W.{ @X[.~.[.~.{ !.).d I.6.A.3.q.",
"6.C.e.J.V OX*X*X%XXX`.W ;X X;XXX`.) ;XXXXXXX_.( >XQ./.p b.j.D.S.",
"A.F.L.n.A ,X-XoX&X&X}.] =X&X,X@X).] &X=X&X%X!. ..X>XR.U g.q.K.J.",
"k.L.w.m.B _ ^ ' 1 1 l > ) ) ~ I G 5 ( | W I v G =X,X'.V 2.V.q.J.",
"y.c.y.t.V -X(.).S 1 z 1 N I L J G 5 S G I G z L $X-X'.m 2.2.v.y.",
"C.8.t.m.M =X X[.P # 4 ; 5 1 ; 1 > ; 1 ; 5 > ; L ^ ^ ..: +.O.b.0.",
"k.r.z.u.J -X:X).L @ 2 4 7 c 1 / ( G S I 1 / n I :X-X(.K $.#.k.q.",
"l.0.q.w.K :X-XR.L @ > 1 7 h > b I M G I 4 I g L +X@X(.A +.+.k.l.",
"8.7.k.l.P +XOX].G $ $ @ & 1 % 1 g % 7 7 + 1 > G +X$X`.K @.X.l.l.",
"k.w.k.z.A ..[ [ 8 O $ > 1 6 7 c h 5 W ) E G z I :X:X(.A t w l.y.",
"r.8.w.z.E |.].).z $ > 5 * > 5 l l 1 m I S n l G -X@X(.D @.#.c.y.",
"z.y.l.t.P :X+X/.I $ O % $ O $ 1 4 ; > 1 > 4 4 m _ { ! j +.@.c.r.",
"k.z.S.z.D -X-X).G $ O * > 1 ; 1 n v h z > h c P ;X@X(.K :.%.z.y.",
"k.q.S.F.P -X@X).G $ $ $ > 5 > 4 > z z n 1 c l L  X@X(.K %.#.c.q.",
"l.0.z.w.P -X@XQ.N & @ & O & & + > 1 1 > > 4 > I %X@X_.J y #.h.y.",
"l.0.k.z.A | { [ 5   + * * 1 1 * 5 1 1 1 > 4 > L %X+X].J #.w h.l.",
"t.A.l.A.E -X@X).b 1 % @ + @ @ * # O % ; O % > n :XOX_.m :.o.k.7.",
"v.A.l.z.J -X-X+X7 m m N L m 4 G G G I H 7 G Z G ) ] ] 6 ;.#.J.r.",
"G.A.z.u.D :X-X:X| |.`.).`.Q.] %X_._.).Q.| |.|._.E.].].M -.X.J.l.",
"G.z.l.7.j |.,X@X) >X:X X%X).] %X+X&X+X`. .%X%X+X:X+XE.h t X.J.y.",
"l.0.r.u.j _ #X&X/ &X:X%X+X).[ @X%X:X+X'.( +X%X&X+XR.G ; t o.v.0.",
"8.A.z.w.4 / }.[ n [ [ / P G z [ [ / P G z  .| [ I A 4 6 y o.c.l.",
"e.h.n.f.; n T V ; P S P S K 1 P P S G S j J S S C k 2 : @.y 0.c.",
"y.k.3.t.= { c z b 8 i i i m 8 7 c 1 m b 1 v c i 7 k i 4 $.X.3.l.",
"z.q.4.u.- _ }.T.Y I N * ~ ~ Y ` N 3 Y ` ^ ^ N * ^ F p = #.#.w.k.",
"k.k.L.s.6 D ! m E Z H g ] [ E H H g ] Q P H Z , B g - . y ;.c.b.",
"l.K.6.Y.. M z M 3 v b 2 i i 2 v i & N i 3 i b - x j 0 0 >.,.S.j.",
"P.e.0.y.f X } R 4 _ ! P P L 7 _ [ S G v n W _ L R j 0 s ,.v.V.4.",
"D.B.l.B.n.$.X - 1 < < 6 & < 1 < 1 < 1 6 < 6 < < . 9 e ,.A.V.D.V.",
"A.q.b.7.l.3.f.a.=.,.9.s.s.&.<.*.&.<.=.<.*.*.*.*.,.*.,.A.q.*.A.j."
};
