/* XPM */
static char *_631237976192[] = {
/* columns rows colors chars-per-pixel */
"32 32 226 2 ",
"   c #091214",
".  c #0D1711",
"X  c #2D1913",
"o  c #1C2517",
"O  c #1A3515",
"+  c #142608",
"@  c #313219",
"#  c #0C1727",
"$  c #0D3127",
"%  c #022A38",
"&  c #102C2B",
"*  c #2A352A",
"=  c #282F32",
"-  c #2B3836",
";  c #323D3D",
":  c #212E27",
">  c #482D1B",
",  c #4F3938",
"<  c #145811",
"1  c #2A4602",
"2  c #3A5415",
"3  c #354F10",
"4  c #296505",
"5  c #374729",
"6  c #3A4638",
"7  c #2D4D33",
"8  c #30742B",
"9  c #445A18",
"0  c #485210",
"q  c #4B6617",
"w  c #536D14",
"e  c #4F720E",
"r  c #647F18",
"t  c #44432A",
"y  c #465824",
"u  c #435735",
"i  c #514F29",
"p  c #63503F",
"a  c #4B6524",
"s  c #546927",
"d  c #5C7326",
"f  c #526D36",
"g  c #677D2E",
"h  c #032949",
"j  c #033547",
"k  c #093754",
"l  c #333A4B",
"z  c #243C5E",
"x  c #00336B",
"c  c #114555",
"v  c #3E5355",
"b  c #324D4B",
"n  c #0A5F7E",
"m  c #276854",
"M  c #425355",
"N  c #42555B",
"B  c #504E51",
"V  c #72524A",
"C  c #7F644F",
"Z  c #425B60",
"A  c #75747A",
"S  c #686F71",
"D  c #8B653E",
"F  c #815F55",
"G  c #9D684B",
"H  c #897251",
"J  c #A7755D",
"K  c #B26F57",
"L  c #886C66",
"P  c #85697F",
"I  c #B67973",
"U  c #329D3D",
"Y  c #5A801D",
"T  c #66861E",
"R  c #769612",
"E  c #4A8A32",
"W  c #6C8429",
"Q  c #769326",
"!  c #799634",
"~  c #6F8831",
"^  c #79A029",
"/  c #32AB67",
"(  c #6F8640",
")  c #42A855",
"_  c #658669",
"`  c #778373",
"'  c #6DA862",
"]  c #4B8471",
"[  c #88AD0D",
"{  c #8AB30C",
"}  c #94B80C",
"|  c #89AD14",
" . c #8AAE1B",
".. c #85A916",
"X. c #8DB313",
"o. c #8EB21C",
"O. c #8AB91C",
"+. c #91B716",
"@. c #95BB15",
"#. c #98BE16",
"$. c #91B61C",
"%. c #95BA1C",
"&. c #99BF1C",
"*. c #9EB21F",
"=. c #A3B219",
"-. c #819C2E",
";. c #8AAB24",
":. c #88AA2B",
">. c #94AD2B",
",. c #8EB222",
"<. c #8AB428",
"1. c #92B622",
"2. c #95BA23",
"3. c #99BD24",
"4. c #94B52B",
"5. c #96BA29",
"6. c #9ABD2B",
"7. c #9AB228",
"8. c #8AAB34",
"9. c #8EB535",
"0. c #99B932",
"q. c #99B938",
"w. c #A7B725",
"e. c #88C107",
"r. c #85C018",
"t. c #9CC31C",
"y. c #A1C917",
"u. c #8AC327",
"i. c #9DC323",
"p. c #9DC229",
"a. c #98C426",
"s. c #9EC233",
"d. c #A2C924",
"f. c #A2C42C",
"g. c #A4C829",
"h. c #A2C534",
"j. c #A5C932",
"k. c #A3C439",
"l. c #A5D33C",
"z. c #998258",
"x. c #A3815C",
"c. c #818974",
"v. c #B68A73",
"b. c #B88B69",
"n. c #D7825D",
"m. c #F0925C",
"M. c #D49778",
"N. c #C49067",
"B. c #EA9A69",
"V. c #F69C68",
"C. c #E79D74",
"Z. c #F69A74",
"A. c #F5A66C",
"S. c #E9A576",
"D. c #F8A676",
"F. c #A3C241",
"G. c #FFC07C",
"H. c #0C489A",
"J. c #015A9C",
"K. c #2D719E",
"L. c #0556B8",
"P. c #1151AF",
"I. c #0B70B7",
"U. c #0D739B",
"Y. c #735D8C",
"T. c #767B89",
"R. c #6E788B",
"E. c #0362C1",
"W. c #117EDB",
"Q. c #1150C2",
"!. c #817D8C",
"~. c #8672AD",
"^. c #1D8C9D",
"/. c #138BB2",
"(. c #278ABA",
"). c #2598B7",
"_. c #2C8C9A",
"`. c #7E8588",
"'. c #53B293",
"]. c #60C09A",
"[. c #088ECA",
"{. c #0486E9",
"}. c #0092F1",
"|. c #848A9A",
" X c #898C8C",
".X c #93BC80",
"XX c #97A0A7",
"oX c #A2B0B5",
"OX c #C39981",
"+X c #CBA588",
"@X c #E9A784",
"#X c #E9B486",
"$X c #FAB28A",
"%X c #ECB799",
"&X c #F0AF87",
"*X c #F9BDAA",
"=X c #A7D49D",
"-X c #B4C1B0",
";X c #F8C394",
":X c #CFC2AB",
">X c #F2C8AC",
",X c #AEB4C2",
"<X c #BDC3D1",
"1X c #C2CADE",
"2X c #D8D9DC",
"3X c #D1D0D2",
"4X c #F6DCCA",
"5X c #E8DBCB",
"6X c #F9E7CD",
"7X c #FFEDD5",
"8X c #FBE3D4",
"9X c #FFF2DB",
"0X c #D2DAE6",
"qX c #CFD7E2",
"wX c #DBE2ED",
"eX c #FEE9E5",
"rX c #FCFAEB",
"tX c #F9EAF7",
"yX c #EDFAFE",
"uX c #FFF6F3",
"iX c #F4FDF5",
"pX c #FEFBF3",
"aX c #F3FDFD",
"sX c #FCFDFE",
"dX c #F6F5FB",
"fX c #E4ECEA",
/* pixels */
"5.3.$.o.%.%.&.g.1.%.$.o.3.{ $.q.%.|  .6.1.$.1.5.3.p.2.2.3.%.2.$.",
"5.1.$.$.$.+.%.%.d.3.h.+.#.y.$.5.$.$.d.[ ,.o.p.@.3.3.3.p.2.o.$.$.",
"$.o.$.1.%.+.$.+.%.2.s.;.1.@.&.f.1.1.6. .5.[ +.d.,.a.3.3.$.$.6.$.",
"o.%.3.3.3.$.$.$...2.R s g R #.6.#.q.~ d R w.+. .$.1.1.o.| 2.j.2.",
"2.f.f.3.3.1.o.6.7.-.s l 6 w ;.F...g u 6 y Q 4.1.3.| | $.$.$.6.j.",
"3.p.p.1.1.1.5.h.:.3 `.wXqXA q R d y -X0XoX5 r w.3.| $.2.$. .2.f.",
"%.$.1.$.o.$.5.$.-.: |.aXaXT.  @ o 6 fXaX1X; s q.$.1.3.2.$.1.$.2.",
"2.X.$.1. .o.o.R s S <XiXiX,XS S Y.|.fXyX0Xc.s r 3.$.2.$.2.1.$.%.",
"o.1.+.2.1.%.6.2 v 2XuXuXyXaXaXiXsXyXiXiXaXyXXXB ( :.y.@.6.3.%.{ ",
"1.1.+.2.4.y.0.9 N 2XpXiXiXuXuXrXdXpXuXrXrXrXrXoX5 r 3.%.5.5.%.&.",
"o.| X.%.6.d.h.9 v 2XsXiXrX4X*X>X*X>X:X*X%X>XrX3Xl s 6.%.1.$.X.%.",
",. .+.a.1.&.6.a v 2XsXpX4X%X@X@XC.S.S.A.Z.&X>X+Xl s 4.$.o.2.+.3.",
"1.1.%.%.,.#.1.9 M qXsX8X%XC.S.b.N.A.V.V.M.v.+XN.- q $.@.+.&.%.5.",
"5.o.+.$.o.#.1.2 M qXdX4X$XZ.K > C S.D.D.v., L b.- w +.} &.p.%.1.",
"5.1.i.i.5.i.5.2 M qXsX6X$XB.G X V @X;X$XJ X V K 5 d 1.%.f.f.p.$.",
" .1.g.f.5.d.6.9 M 0XsX6XS.B.I P b.&XD.A.M.G K K = g s.p.p.5.%.o.",
"} 1.q.O.{ +.q.9 N 2XsXtX>XA.A.D.D.V.B.Z.Z.A.;XM.; q p.%.o.3.| +.",
"%.5.$.t.2.6.! 2 B 5XrXpXrX>X$X$X%X#X#X#X&X%X7X3X; q s.t.o.2.o.5.",
"5.4.} y.9.! 2 + N 2XpXiXaXsXtXeX7X6X9X9X6X9XsX1X5 d :.1.%.%.$.>.",
"5.k.t.t.q f ( _ _ A A `.R.A L  Xc.T.R.R.T. X XS s Q ;.o.3.&.i.<.",
"d.h.} 5.O b .X=X] c h x x b 7 j j x c c b #   o 8.4.1.;.5.i.d.%.",
"y.0.} 0.: b ' E c K.(./.U.'.].I.I.W.[.'.' $ o t Q  .%.,.1.2.d.#.",
"%.>.@.1.: - E < -  X:X`.m 8 ) ).}.}.[./ E 3 V J y r $.+.o.$.+.+.",
"o.8.y.$.+ 7 E < , M.G.n.> 1 U /.[.}.[./ 4 @ !.B.l a 3.%.$.5.2.5.",
"3...0.:.e 2 7 7 y L I F z n ^.(.{.{.{._.m $ B G 3 Q q.i.@.@.X.3.",
"$.&.$...:.~ 4 2 8 :   % P.E.J.Q.L.L.P.L.J.h @ u 8.s.h.%.+.$. .4.",
"&.{ #.p.5.9.:.e O $ # x P.H.k % % $ h H.P.k q 9.3.f.$.$.2.o.1.0.",
"+.&.%.t.t.a.p.O.Y T * l  XB o w ~ q o Y.~.= w 6.{ %.[ %.3.1.5.1.",
"5.l.2.X.a.a.a.%.8...0 p b.H ; ! 7.W 3 H z.9 g 7.%.3...o.p.2.i.{ ",
"h.5.1.6. .1.j.| <. .3.0.>.,.o.{ } i.6.l.a.*.w.w.o.3.| $.2.&.d.t.",
"p.a.1.1.1.$.$.%.a.O.{ r.u.u.O.+.O.@.y.a.O.j.d.X. .1.1.2.$.$.3.3.",
"%.$.$.$.3.$.X.i.,.} w.h.2.<.>.=.4.o.+.w.7.u.^ e.1.1.$.%.%.$.2.1."
};
