/* XPM */
static char *C_1[] = {
/* columns rows colors chars-per-pixel */
"32 32 185 2 ",
"   c #0C0C00",
".  c #1B0400",
"X  c #0E1800",
"o  c #1C1100",
"O  c #1A1E00",
"+  c #161B00",
"@  c #2E0F00",
"#  c #220200",
"$  c #241200",
"%  c #2D1B00",
"&  c #351400",
"*  c #311C00",
"=  c #3D1A00",
"-  c #2B2500",
";  c #352400",
":  c #3B2300",
">  c #362800",
",  c #3A3600",
"<  c #472B00",
"1  c #433700",
"2  c #9F7101",
"3  c #9F7A07",
"4  c #A87601",
"5  c #BC7C10",
"6  c #9E7827",
"7  c #C67D00",
"8  c #D57000",
"9  c #D37900",
"0  c #BA8604",
"q  c #AF821D",
"w  c #BB8B13",
"e  c #B98A16",
"r  c #BD921F",
"t  c #B1912A",
"y  c #BA9938",
"u  c #AAB63C",
"i  c #B5AA2A",
"p  c #D18F07",
"a  c #D98C00",
"s  c #DC8400",
"d  c #D7970E",
"f  c #D69814",
"g  c #C79910",
"h  c #E68200",
"j  c #E79700",
"k  c #E99801",
"l  c #F59900",
"z  c #FB9E07",
"x  c #F79C18",
"c  c #CEA903",
"v  c #D5A400",
"b  c #D1A800",
"n  c #D2A808",
"m  c #D9B104",
"M  c #CFAE13",
"N  c #CFB518",
"B  c #E3A603",
"V  c #FEA20F",
"C  c #E3B400",
"Z  c #EBB800",
"A  c #E2BC0D",
"S  c #EBA715",
"D  c #F0AD1E",
"F  c #FFB014",
"G  c #F6B71E",
"H  c #FFB51C",
"J  c #C09721",
"K  c #D09328",
"L  c #C1873D",
"P  c #C59C33",
"I  c #DB9830",
"U  c #C5A12F",
"Y  c #E9A929",
"T  c #F7AF25",
"R  c #F8AD20",
"E  c #E7B224",
"W  c #F7B527",
"Q  c #EEA031",
"!  c #E7B232",
"~  c #FDBC33",
"^  c #F0D73C",
"/  c #B49B47",
"(  c #B78850",
")  c #B9B256",
"_  c #B9B96B",
"`  c #CA9749",
"'  c #DAAF46",
"]  c #C0B94E",
"[  c #CDA158",
"{  c #C3BB59",
"}  c #D3BE51",
"|  c #E9AA43",
" . c #C0B36D",
".. c #DEBC63",
"X. c #D5A865",
"o. c #B3C54D",
"O. c #BAC64A",
"+. c #BCCE54",
"@. c #BDC55C",
"#. c #B5CE59",
"$. c #BDDA55",
"%. c #BFD75D",
"&. c #B6DC5E",
"*. c #BCD95C",
"=. c #BED455",
"-. c #BFCB65",
";. c #BED663",
":. c #BDD669",
">. c #BCD861",
",. c #B9C573",
"<. c #D6CE4F",
"1. c #C6D74E",
"2. c #CAD54F",
"3. c #C3D84D",
"4. c #CDCD5D",
"5. c #C2CA59",
"6. c #D2CF55",
"7. c #D4C35C",
"8. c #D2CE5C",
"9. c #D9C65F",
"0. c #C4D654",
"q. c #CAD355",
"w. c #C1D853",
"e. c #C4D55B",
"r. c #CAD25B",
"t. c #CED85B",
"y. c #D0D154",
"u. c #D0D058",
"i. c #FFC645",
"p. c #F0D44C",
"a. c #FFDD59",
"s. c #D1E15D",
"d. c #FEE148",
"f. c #FFEC59",
"g. c #FDE55D",
"h. c #FFF458",
"j. c #FFFC58",
"k. c #C0C567",
"l. c #CDCF64",
"z. c #C6C16C",
"x. c #CCC56C",
"c. c #CBCE6B",
"v. c #D5CC63",
"b. c #D2CB6B",
"n. c #DCCB63",
"m. c #C4D463",
"M. c #C9D162",
"N. c #C5D26A",
"B. c #C9D069",
"V. c #CADC6A",
"C. c #D4D36A",
"Z. c #D1D564",
"A. c #C7CA77",
"S. c #D0CF73",
"D. c #C4D173",
"F. c #CCD17B",
"G. c #D2D372",
"H. c #D4D37D",
"J. c #FFDF66",
"K. c #F5D26A",
"L. c #EBDB79",
"P. c #D7E36A",
"I. c #CFE17D",
"U. c #D7E576",
"Y. c #FAF36A",
"T. c #E4EC7F",
"R. c #FFF474",
"E. c #CDD588",
"W. c #D6E483",
"Q. c #FFEB81",
"!. c #FFFE8D",
"~. c #F8F288",
"^. c #FFE292",
"/. c #FFF697",
"(. c #FFFF93",
"). c #FFF598",
"_. c #FFFF9C",
"`. c #FFE2A2",
"'. c #FFF0A1",
"]. c #FFF9A5",
"[. c #FFF6AB",
"{. c #FFFDAC",
"}. c #FFFFB5",
"|. c #FFF9BD",
" X c #FFFCC6",
/* pixels */
"c.c.;.>.&.&.>.>.M.N.B.D.N.B.M.r.e.e.r.r.v.B.M.m.w.0.r.B.D.N.*.$.",
"l.M.>.*.&.*.e.m.M.M.B.N.N.B.M.r.m.m.r.l.4.c.m.m.0.e.m.N.N.N.%.$.",
"q.0.w.$.*.e.e.r.8.M.l.M.c.M.l.l.B.N.M.M.l.m.m.m.m.e.M.M.m.m.e.$.",
"1.3.w.w.e.e.r.8.8.8.M.M.M.r.r.M.c.B.M.M.m.e.m.m.m.m.M.M.m.e.e.$.",
"3.w.e.m.e.r.4.6.6.y.r.r.e.e.r.r.l.c.m.m.e.e.0.e.m.M.M.e.e.0.w.0.",
"0.e.e.m.l.r.y.y.q.q.e.e.e.e.0.r.v.M.m.m.%.$.0.e.M.M.M.r.q.0.0.0.",
"m.m.B.B.l.r.2.2.0.w.*.>.>.e.e.r.q.6.l.m.%.$.w.0.r.M.r.r.0.1.0.%.",
"m.m.N.B.4.q.2.2.e.>.>.>.e.e.r.q.<.6.l.N.m.e.w.0.q.r.q.q.0.w.e.e.",
"m.m.M.M.q.q.1.$.#.;.V.V.u q.- o $ $ x.H.D.m.o.Z.q.q.r.0.0.w.e.r.",
"e.m.m.r.q.0.3.e.N.I.@.M., % g.R.R.Q.% ; _ F.T.O.0.q.q.q.q.e.r.e.",
"e.e.m.r.0.0.e.m.D.-.v.- ^ j.b g U ..`. X*  .G.M.r.0.r.q.r.r.e.e.",
"m.m.M.r.q.e.m.N.F.) > f.m b B E ' '.|.(  X= ) c.m.e.q.r.r.r.r.e.",
"m.M.M.M.r.m.N.c.z.; p.c C Z B a.).{.y [.` 6 : c.;.m.r.r.4.r.r.e.",
"m.r.M.l.r.r.N.c.x.; f.A C v Y.(.[.` ).I ! 6 : c.N.m.e.r.r.4.r.m.",
"r.q.r.r.r.r.m.l.b.% a.A b h.~.[.[ [.I R j w % B.:.:.e.r.8.8.M.m.",
"q.q.r.q.q.r.m.l.C.$ f.M M R.{.X.[.7 R k S 0 $ S.:.:.e.r.u.r.M.e.",
"0.0.0.q.r.q.r.e.0.X Y.i (._.^.].Q 9 F j W g . H.B.m.e.2.q.q.0.r.",
"0.w.0.0.0.0.e.e.e.X ~._.(.y _.K x 8 z F p w %  .D.m.0.w.w.q.e.e.",
"e.$.w.w.w.e.;.N.F.+ }.{.t !.a.D z h l H f t % S.N.m.e.e.e.e.*.*.",
"e.e.w.$.w.e.N.D.E.  }./ _.g S 7 s V k a i.3 $ G.m.>.e.$.m.m.>.>.",
"N.m.e.w.3.w.>.:.,.A., {.P ! G B a S ~ Y g @ 7.5.e.*.e.m.m.:.>.>.",
"N.m.e.w.0.3.e.m.W._ z.* K.J.d W ~ f 4 w & } 4.P.e.e.$.m.m.m.m.m.",
"M.M.M.r.0.0.0.=.o.U.@.v.= = 2 g 4 t = @ 9.v.Z.u w.w.0.e.m.M.r.r.",
"M.r.r.q.r.e.0.$.$.+.Z.4.) n.< # = $ 9.L.{ b.5.P.w.w.e.e.r.r.r.r.",
"1.0.q.q.r.r.e.e.%.e.w.e.m.v.b.b.9.9.b.S.S.M.r.0.2.w.0.e.M.r.r.r.",
"3.3.w.e.r.M.M.m.e.e.$.e.m.m.c.l.r.8.c.c.c.m.e.0.2.w.e.e.m.M.M.r.",
"$.$.$.e.e.r.e.e.e.$.%.%.e.e.m.r.u.8.l.c.c.m.q.0.2.0.e.m.m.m.B.B.",
"&.*.$.e.e.e.r.e.e.%.%.*.e.e.e.q.y.r.c.c.m.m.q.q.r.0.e.>.>.m.N.N.",
":.:.m.e.e.e.0.0.e.$.e.e.e.e.r.q.q.q.M.N.m.e.r.q.r.r.e.*.*.>.N.N.",
":.m.m.e.q.0.0.0.$.e.>.e.e.r.u.q.q.q.m.m.m.e.r.q.r.r.e.e.e.e.N.N.",
"r.r.r.r.r.r.e.m.*.>.*.e.r.r.u.u.e.e.:.:.m.m.r.r.r.r.q.w.3.w.M.B.",
"r.r.r.r.r.r.m.>.>.>.>.e.e.q.u.q.e.*.:.:.>.e.r.r.v.u.q.2.1.q.M.l."
};
