/* XPM */
static char *C_3[] = {
/* columns rows colors chars-per-pixel */
"32 32 151 2 ",
"   c #140B00",
".  c #1F0E00",
"X  c #1D1200",
"o  c #220E00",
"O  c #251400",
"+  c #2A1600",
"@  c #291F00",
"#  c #2C2300",
"$  c #2C2900",
"%  c #332200",
"&  c #3C2500",
"*  c #312F00",
"=  c #3C2C00",
"-  c #3C3200",
";  c #422C00",
":  c #454200",
">  c #9F7D12",
",  c #A97601",
"<  c #B07D00",
"1  c #A67818",
"2  c #B07E1B",
"3  c #A2860B",
"4  c #B08D00",
"5  c #B6890A",
"6  c #A3811C",
"7  c #AD841B",
"8  c #AA891E",
"9  c #B08618",
"0  c #A8951D",
"q  c #9B8923",
"w  c #A99127",
"e  c #A8922F",
"r  c #A6AB35",
"t  c #A0B83E",
"y  c #C28C0E",
"u  c #C6921A",
"i  c #CAA500",
"p  c #C6AC0D",
"a  c #D5B100",
"s  c #DBB71B",
"d  c #E6BE0F",
"f  c #C19220",
"g  c #C09634",
"h  c #CC9C36",
"j  c #C7A82B",
"k  c #CFA92C",
"l  c #C3A739",
"z  c #E3C41B",
"x  c #F4DA2B",
"c  c #EFDA31",
"v  c #EDDD3F",
"b  c #FFEE3A",
"n  c #A7BD4E",
"m  c #B1B141",
"M  c #BCB944",
"N  c #B5B14D",
"B  c #BDBB4D",
"V  c #B0B656",
"C  c #BEB455",
"Z  c #B5BE55",
"A  c #C3BC48",
"S  c #A5C347",
"D  c #ACC445",
"F  c #AFC944",
"G  c #AECE4F",
"H  c #B7C647",
"J  c #B3C449",
"K  c #BDC04D",
"L  c #B4CC4C",
"P  c #BDCB4C",
"I  c #BCD34F",
"U  c #ACC45D",
"Y  c #B0C252",
"T  c #BAC252",
"R  c #B5CC53",
"E  c #BCCD55",
"W  c #BFCD5C",
"Q  c #BBD354",
"!  c #BFD954",
"~  c #BFD75D",
"^  c #BED85A",
"/  c #BAC964",
"(  c #B7D261",
")  c #BED662",
"_  c #BEDD61",
"`  c #BED86B",
"'  c #BCCB70",
"]  c #C1C34B",
"[  c #C5D54F",
"{  c #C8D64E",
"}  c #C3C453",
"|  c #C2CE51",
" . c #C3CC5B",
".. c #C5D655",
"X. c #CAD355",
"o. c #C2D955",
"O. c #C4D55C",
"+. c #C9D25B",
"@. c #C4DB5C",
"#. c #C9DA5C",
"$. c #D7D157",
"%. c #D0D15C",
"&. c #D1DD5F",
"*. c #C7E15C",
"=. c #FEEA57",
"-. c #FFEC5B",
";. c #FFF153",
":. c #FFFF52",
">. c #C0C066",
",. c #CECC64",
"<. c #CCCF68",
"1. c #D1CB6C",
"2. c #C4D462",
"3. c #C9D162",
"4. c #C4DB62",
"5. c #CBDC62",
"6. c #C5D16A",
"7. c #C8D96F",
"8. c #D2D262",
"9. c #DED560",
"0. c #D3DC65",
"q. c #D4DC6C",
"w. c #C6CC74",
"e. c #CBCC72",
"r. c #D2CA72",
"t. c #CFD774",
"y. c #C5DA7B",
"u. c #CCDC79",
"i. c #DCD273",
"p. c #DBDD72",
"a. c #D2D97C",
"s. c #CBE464",
"d. c #C7E76A",
"f. c #CBE26D",
"g. c #D0E365",
"h. c #D8E164",
"j. c #D2E26D",
"k. c #DCE16B",
"l. c #D4EB6C",
"z. c #D8E86E",
"x. c #DCE675",
"c. c #D3EB72",
"v. c #D8EE70",
"b. c #D1E67D",
"n. c #DAF072",
"m. c #FFFF63",
"M. c #E2ED73",
"N. c #E6F87E",
"B. c #FFFF7B",
"V. c #D2E981",
"C. c #E5ED86",
/* pixels */
"~ ~ 2.` 2.) O.O.,.2.w.6.2.+.[ ..+.O.+.X.X.+.+.,.2.O.+.....o.O.6.",
"O.2.` 2.2.O.O.O.2.6.6.6.2.+.....O.O.+.X.X.+.+.<.3.+.+.X...+.O.) ",
"~ 2.) 2.2.2.O.O.2.2.6.6.2.O.+.o.2.O.+.X.X.+.O.2.2.2.+.....O.O.2.",
"2.O.2.O.O.O.3.O.O.2.2.2.O.2.O.O.O.O.+.o.o.+.O.2.2.+.+...X.O.O.2.",
"O.2.+.+.+.O.O.O.O.2.O.O.2.2.2.O.2.O.o.! O.O.O.2.2.O.+...o.o.O.O.",
"3.+.+.X.+.+.3.2.O.O.~ O.O.2.<.2.2.O.O.^ ^ ! ~ ) O.2...+.+.+. .2.",
"3.+.X.X.+.+.+.2.O.! o.^ ~ 6.6.6.,.O.O.^ ^ ^ ^ ~ O.O...O...O.+.+.",
"3.+.X.X.X.+.3.O.o.o.! O.O.2.3.<.+.O.O.^ ^ ^ ^ ~ O.O.O.O.O.O.+.+.",
"3.+.X.X.X.+.3.2.! #.F l. . .+.$ $ r N.Q d.G ^ @.O.+.O.O.O.O.+.+.",
"2.+.X.X.%.+.3.3.o.Q l.L  .p.* $.$.: J n _ _ Q Q ..+.O.O.2.O.X.+.",
"2.+.X.X.+.,.3.O.s.F O.f.<.8.  B.w X 8.c.) S l.X.+.X.O.O.O.O...+.",
"2.+.X.X.+.3.2.2.! o.4. .p.A # =.3 = } R R c.L +.+.+.O.2.2.O.+.+.",
"2.2...+.3.3.2.O.Q s.J C.N - v p k 8 # T f.R 5.| X.+.O.2.) O.+...",
") ~ O.O.3.3.2.O.L @.7.V ,.% c z 5 7 O q.W 4...h.X.%.O.O.2.@.O.X.",
") ) O.O.6.6.O.2.o.Q / w.i.o :.i < h o 8.W R M.B $.%.O.6.2.) +...",
") ) ~ O.2.<.,...*.*.u.w.r.O b a y 2 & B q.2.| X.X.X.O.2.) O.O...",
"6.2.! O.6.3.3.+...L V.' / = x d u 1 % B 4.s.J 0.X.X.X.~ ~ ) ~ O.",
"3.2.O.O.O.3.3.X.{ Q U y.a.  m.i , g . k.! Q g.P %.X.O.^ ~ ~ 2.2.",
"+.2.O.! O.2.+.X.| #.7.U t.  ;.s f 6   0.Q s.P &.X.X.+.^ ~ O.2.2.",
"+.+.O.O.O.O.X.X.[ I ( b.Z # -.4 9 6 # 3.@.L @.&.X.X.+.o.~ O.2.2.",
"+.O.O.O.....+.X...L f.n x.B ; j 1 = B E D l.J #.+.X.+...O.O.,.2.",
"+.+.O.O.....X.X.#...R 7.j.A + l w O } z.^ L l.H X.+.....O.O.3.3.",
"..+.O.O...........j.4.R ..%.= e q - O.O.4.! Q #.X.X.+.+.O.+.,.+.",
"+...) O.X.{ { X...2.D n.| 3.C + # m x.R ^ G @...X.X.+.+.+.+.3.,.",
"....O.O...{ { ..O.2.~ ^ ..+.e.r.,.%.O.^ ^ ^ @...+.X.+.X.+.3.3.3.",
"O...2.2.....{ ..O.2.O.O...3.e.r.<.3.2.~ O.^ ^ ..X.X.+.+.+.+.3.3.",
"..O.2.O.X...{ ..O.2.~ O...O.e.e.<.2.~ O.^ O.o.....+...+.+.+.+.,.",
"O.2.2.3.....{ ..2.O.6.O.O.6.6.6.6.O.O.O.O.o.O.........O.O.O.3.2.",
"O.O.2.3.........O.2.6.~ 2.2.2.6.2.O.2.O.O.O.........O...O.O.2.2.",
"2.O.3.2.2.+.....^ 2.6.6.2.2.) ~ 2.O.O.O.O.............o.2.O.2.2.",
"2.2.3.2.O.+...O.O.6.6.6.` 6.~ O.O.2.2.+.O.+.....O.O.O.O.O.@.) ) ",
"2.2.2.2.3.O.O...O.) 6.6.6.) ^ ^ ~ O.O.O.O...+...o.o.^ O.O.~ ~ ) "
};
