/* XPM */
static char *C_5[] = {
/* columns rows colors chars-per-pixel */
"32 32 189 2 ",
"   c #0F0700",
".  c #1C0200",
"X  c #120B00",
"o  c #1C0F00",
"O  c #1E1300",
"+  c #141200",
"@  c #2A0800",
"#  c #250500",
"$  c #211600",
"%  c #2B1600",
"&  c #261D00",
"*  c #2D1D00",
"=  c #341200",
"-  c #1D2400",
";  c #282200",
":  c #252D00",
">  c #322100",
",  c #362A00",
"<  c #2D3200",
"1  c #393600",
"2  c #442D00",
"3  c #9D7612",
"4  c #9F7E17",
"5  c #AC7B14",
"6  c #A37623",
"7  c #BB8B1F",
"8  c #BE8E20",
"9  c #B4912B",
"0  c #CD870E",
"q  c #C89800",
"w  c #D79E00",
"e  c #D19300",
"r  c #CF8919",
"t  c #C39815",
"y  c #E99600",
"u  c #E29508",
"i  c #EF9F14",
"p  c #E0961D",
"a  c #C9A300",
"s  c #DBA300",
"d  c #D2A208",
"f  c #DCB505",
"g  c #DCA01E",
"h  c #EFA500",
"j  c #EEAE00",
"k  c #EDAF0E",
"l  c #F6A200",
"z  c #EEBC0F",
"x  c #F0B900",
"c  c #E2A018",
"v  c #F9AC10",
"b  c #E7B311",
"n  c #C8942F",
"m  c #DA9A27",
"M  c #C78E37",
"N  c #C39739",
"B  c #D89634",
"V  c #D6A42B",
"C  c #C9B43F",
"Z  c #EFA427",
"A  c #ECAD22",
"S  c #E7B020",
"D  c #EFB820",
"F  c #E9A23A",
"G  c #F9AB39",
"H  c #E3BF35",
"J  c #FCB43E",
"K  c #FFC407",
"L  c #FFD613",
"P  c #EEC928",
"I  c #F5C22B",
"U  c #EED33C",
"Y  c #FFEE38",
"T  c #FFE23D",
"R  c #9C8C51",
"E  c #B6944C",
"W  c #B3BD4A",
"Q  c #ACB353",
"!  c #B0BD53",
"~  c #B69E68",
"^  c #C6A748",
"/  c #DFA448",
"(  c #D2A145",
")  c #C9BC56",
"_  c #E8AF46",
"`  c #E2A647",
"'  c #EDB443",
"]  c #E0A353",
"[  c #E7BA53",
"{  c #DCB069",
"}  c #CCB774",
"|  c #B8C84B",
" . c #BDD54E",
".. c #B7C856",
"X. c #BACD52",
"o. c #BECA59",
"O. c #B5C658",
"+. c #BDD955",
"@. c #BFD75E",
"#. c #BDD95A",
"$. c #AFC86A",
"%. c #AFC064",
"&. c #B4C962",
"*. c #BED662",
"=. c #BCD861",
"-. c #BDD569",
";. c #BBCE74",
":. c #BCD573",
">. c #BFD978",
",. c #D2CB49",
"<. c #C6D74C",
"1. c #CAD44E",
"2. c #C3D84E",
"3. c #CECE54",
"4. c #C5CF5F",
"5. c #CFCF5F",
"6. c #C7C658",
"7. c #D1CE5D",
"8. c #C4D654",
"9. c #CAD354",
"0. c #C1D854",
"q. c #C4D55B",
"w. c #CAD25B",
"e. c #C5D95C",
"r. c #D0D056",
"t. c #CBC549",
"y. c #FFDE41",
"u. c #FBD544",
"i. c #FFDE5C",
"p. c #FFE84E",
"a. c #FFE444",
"s. c #FFEF5E",
"d. c #FFE655",
"f. c #FFF35A",
"g. c #CCCE64",
"h. c #CBCD69",
"j. c #CFC063",
"k. c #DAC760",
"l. c #D0CC63",
"z. c #DBCE6C",
"x. c #D4CB67",
"c. c #C4D462",
"v. c #C9D163",
"b. c #C4D26A",
"n. c #CAD269",
"m. c #C8DB66",
"M. c #D3D364",
"N. c #DAD462",
"B. c #D4D56D",
"V. c #D2DD6A",
"C. c #C6CF72",
"Z. c #C6CE78",
"A. c #C9CD76",
"S. c #D4CF71",
"D. c #C3D172",
"F. c #CDD374",
"G. c #CADD74",
"H. c #D4DC75",
"J. c #D5D472",
"K. c #E6C96D",
"L. c #FFD660",
"P. c #FFD86B",
"I. c #E0D677",
"U. c #E3D568",
"Y. c #C9E169",
"T. c #D4E366",
"R. c #CEE571",
"E. c #DCED7D",
"W. c #FFE565",
"Q. c #FFFB67",
"!. c #FFF069",
"~. c #F0E772",
"^. c #FFFB7A",
"/. c #C3DA80",
"(. c #F4DA8D",
"). c #DBED87",
"_. c #FFE181",
"`. c #FFF081",
"'. c #FFF984",
"]. c #F9EA97",
"[. c #FFF49C",
"{. c #FFFC9B",
"}. c #EADFA7",
"|. c #FFEFAB",
" X c #FFFFA5",
".X c #FFF5A8",
"XX c #FFFCBA",
"oX c #FFFEC8",
"OX c #FFFDC5",
/* pixels */
"q.q.8.8.q.w.c.v.b.c.@.#.+.#.=.*.q.0.q.#.#.#.#.#.w.w.w.w.w.w.w.w.",
"c.q.q.0.q.q.c.v.v.c.q.q.q.#.@.c.q.q.q.0.+.#.#.*.q.c.w.w.w.w.w.w.",
"=.*.@.@.@.q.c.c.c.w.q.q.8.8.q.q.9.9.9.8.#.@.=.*.c.v.c.v.v.v.v.v.",
"=.=.=.*.*.*.c.q.w.q.q.q.q.w.q.3.3.r.9.q.#.@.=.*.-.c.v.v.v.v.v.c.",
"@.=.=.*.@.q.@.q.q.q.e.w.w.w.w.w.r.w.w.q.@.*.@.*.c.c.c.v.g.v.b.b.",
"q.q.q.q.q.@.q.#.q.q.c.c.v.v.v.w.w.w.e.=.*.@.@.q.8.q.w.v.v.b.b.b.",
"8.9.9.q.q.q.0.0.q.@.c.v.v.h.g.c.c.c.c.-.*.@.0.0.9.9.9.w.c.b.c.-.",
"1.1.9.8.q.q.0.0.0.q.c.v.g.v.l.g.v.w.c.c.c.#.0.8.<.1.9.w.c.c.c.-.",
",.1.1.9.0.q.0.@.e.X.V.7.6.N.o % O ; M.6.o.w.T.| <.<.9.w.w.c.c.c.",
"9.9.9.w.q.q.q.q.m.T.r.t.* % ^.W.W.W.% U.M.c.+. .8.2.q.e.w.v.w.w.",
"w.w.8.e.@.@.*.c.W 9.,.> d.u.d b A g V @ x.h.o.m.#.q.q.v.g.w.5.3.",
"c.c.q.q.q.*.-.b.M.3.> U P b b u i Z m N = S.H.O.@.@.c.c.v.v.7.3.",
"v.c.e.q.@.*.b.D.B.X !.P d e h a.u F ` .X(.& F.b.@.@.c.v.v.g.w.7.",
"g.c.8.8.#.c.D.C.h.O Q.a s K Y y 0 / .X|.} X Q E.q.q.c.v.v.v.w.w.",
"v.w.9.<.8.c.C.A.h., d.f x L l v 5 ].oX~ }.1 F.| 8.8.8.e.c.c.c.c.",
"l.w.r.1.8.c.D.Z.j.O p.f s j T c .XXX~ oXR   F.w.1.1.9.q.0.c.c.c.",
"g.w.1.<.8.c.:.:.g., a.z w D i.{.].] |.{ E . H.7.9.9.9.<.w.w.v.v.",
"v.w.9.<.0.-.:.:.w.$ s.q I V [..XB P.( M 6 = } B.w.9.8.8.9.w.v.g.",
"q.e.9.9.9.q.-.-.V.+ !.H t '.{.( P.G F ` N # z.h.c.0.0.+.0.w.w.w.",
"*.q.q.9.w.w.c.c.o.- ~.C ^.{.^ {.J G r _ 3 2 h.b.=.#.#.+.0.8.8.w.",
"*.c.q.w.9.5.w.w.b.! < ]. XK.[.n m p B 7 # ) H.O.=.#.+.+.+.8.q.w.",
"@.q.w.w.7.9.9.w.*.).%.: ].[.^ [ ' m t = k.6.o.R.#.+.+.+.0.q.w.w.",
"q.@.@.w.w.9.9.9.c.$.>.;.: $ W 4 3 9 # z.x.n...Y.#.+.+.0.w.w.g.l.",
"c.w.@.q.w.9.9.w.c.G.>.$.;.h.@ % % * z.J.h.n.c.X.+.+.0.9.w.v.l.l.",
"w.w.q.0.q.0.w.w.v.c.=.-.=.c.5.l.g.b.b.b.v.c.c.8.+.+.9.9.w.w.x.h.",
"5.5.q.q.+.q.q.w.c.w.q.@.#.q.w.c.c.c.c.c.c.q.e.q.9.8.9.w.w.g.v.l.",
"5.3.q.+.+.#.w.w.w.w.1.2.+.8.0.q.+.0.0.q.q.q.w.w.w.w.9.9.w.3.w.w.",
"7.5.q.+.+.#.q.c.w.q.1.<.2.0.q.+.+. .2.8.8.q.w.w.w.w.w.q.q.q.e.e.",
"g.w.q.0.+.q.q.w.q.9.9.8.8.0.8.0.2.2.0.8.8.9.w.w.9.w.w.q.q.q.@.q.",
"v.5.q.q.0.q.q.q.w.w.w.9.8.8.0.q.8.q.8.8.9.8.9.8.q.w.9.q.e.w.q.c.",
"c.w.w.q.q.8.9.w.w.v.v.v.w.q.8.q.v.b.v.v.q.q.8.8.8.9.q.w.w.c.g.v.",
"c.c.w.w.w.9.9.w.w.c.v.v.w.q.q.e.b.D.D.b.c.q.8.0.<.8.8.q.v.v.g.h."
};
