/* XPM */
static char *E_1[] = {
/* columns rows colors chars-per-pixel */
"32 32 236 2 ",
"   c #3B0804",
".  c #4A0500",
"X  c #5D0E00",
"o  c #591414",
"O  c #561508",
"+  c #691508",
"@  c #751408",
"#  c #542614",
"$  c #45221C",
"%  c #67281D",
"&  c #6A351D",
"*  c #7C231B",
"=  c #513321",
"-  c #6E3427",
";  c #535635",
":  c #605F2B",
">  c #764939",
",  c #775B3A",
"<  c #6A4C31",
"1  c #5F6026",
"2  c #636428",
"3  c #6C742D",
"4  c #696635",
"5  c #746436",
"6  c #777A38",
"7  c #73752A",
"8  c #575547",
"9  c #5F5651",
"0  c #645848",
"q  c #79584A",
"w  c #645C54",
"e  c #6A5C57",
"r  c #785954",
"t  c #5F6052",
"y  c #6B6748",
"u  c #756B49",
"i  c #797345",
"p  c #737A4C",
"a  c #7B794B",
"s  c #6D6D5C",
"d  c #696655",
"f  c #756453",
"g  c #736B55",
"h  c #72665C",
"j  c #7A6B5B",
"k  c #776A56",
"l  c #7C7953",
"z  c #7A735B",
"x  c #77775A",
"c  c #6E725B",
"v  c #726C63",
"b  c #7B6D64",
"n  c #76686A",
"m  c #6E7363",
"M  c #737465",
"N  c #7C7465",
"B  c #75736B",
"V  c #7C736A",
"C  c #7D7C6F",
"Z  c #787A6A",
"A  c #796D72",
"S  c #7B7873",
"D  c #6C6763",
"F  c #891A10",
"G  c #BD1318",
"H  c #B30D0F",
"J  c #992418",
"K  c #B81E24",
"L  c #9A2C2B",
"P  c #83342F",
"I  c #A82A24",
"U  c #B92824",
"Y  c #A82E30",
"T  c #B73939",
"R  c #AF3435",
"E  c #C73432",
"W  c #D83A37",
"Q  c #D12D2B",
"!  c #8D4235",
"~  c #83793E",
"^  c #D6433B",
"/  c #994749",
"(  c #815245",
")  c #825552",
"_  c #92564D",
"`  c #A94545",
"'  c #B5514F",
"]  c #857C47",
"[  c #846457",
"{  c #877958",
"}  c #946F53",
"|  c #876C66",
" . c #837262",
".. c #8C7965",
"X. c #837C6C",
"o. c #867A68",
"O. c #8A7E7D",
"+. c #857875",
"@. c #937F78",
"#. c #9C7B68",
"$. c #BD6867",
"%. c #A37865",
"&. c #AA726D",
"*. c #D6494A",
"=. c #C95758",
"-. c #C84A4C",
";. c #CA7A76",
":. c #D36E6D",
">. c #EB7274",
",. c #7C884D",
"<. c #7C8B50",
"1. c #7F8173",
"2. c #77806D",
"3. c #868F3E",
"4. c #818346",
"5. c #85854C",
"6. c #978C4A",
"7. c #8C9245",
"8. c #87924A",
"9. c #96994B",
"0. c #888758",
"q. c #969856",
"w. c #8F8D56",
"e. c #A09552",
"r. c #99A05A",
"t. c #A2AA5C",
"y. c #A4A857",
"u. c #B1B85D",
"i. c #ACAF50",
"p. c #8C8A63",
"a. c #878467",
"s. c #91856B",
"d. c #938966",
"f. c #959968",
"g. c #858375",
"h. c #8C8474",
"j. c #8B817D",
"k. c #88877C",
"l. c #93877A",
"z. c #999579",
"x. c #8C9168",
"c. c #A1996B",
"v. c #9CA866",
"b. c #A7AB64",
"n. c #ACB364",
"m. c #B6BA65",
"M. c #AAAE7A",
"N. c #C6BF7B",
"B. c #B2C64A",
"V. c #BDC84B",
"C. c #BCD94F",
"Z. c #B9CA57",
"A. c #BCD356",
"S. c #BEDA54",
"D. c #BED45A",
"F. c #BDDB5D",
"G. c #B3DA5D",
"H. c #BAC163",
"J. c #B7C36E",
"K. c #BCC36D",
"L. c #BECD6B",
"P. c #B8C866",
"I. c #BDD463",
"U. c #BCD765",
"Y. c #BBCA73",
"T. c #BAE763",
"R. c #C5CF4C",
"E. c #C3D54C",
"W. c #C9D44E",
"Q. c #C4D84C",
"!. c #C7D444",
"~. c #C3CD54",
"^. c #CBCC56",
"/. c #C4CD5C",
"(. c #CACC5B",
"). c #C0C75F",
"_. c #D6CC57",
"`. c #C6D353",
"'. c #CBD254",
"]. c #CDDB55",
"[. c #C3D35C",
"{. c #CBD25C",
"}. c #C4D95D",
"|. c #CBDC5B",
" X c #C4DC55",
".X c #D3D35A",
"XX c #D5D456",
"oX c #D2DE4A",
"OX c #C7E358",
"+X c #D4E352",
"@X c #C4CE63",
"#X c #CBCF61",
"$X c #C2CB6B",
"%X c #CACE69",
"&X c #C4D362",
"*X c #CBD464",
"=X c #C6DB63",
"-X c #CBDB63",
";X c #C5D26B",
":X c #CBD36B",
">X c #CBDB6B",
",X c #C7D868",
"<X c #D4D465",
"1X c #D2D969",
"2X c #C5CC72",
"3X c #C6D072",
"4X c #CCDA74",
"5X c #CBD675",
"6X c #D7DB78",
"7X c #D0CA6F",
"8X c #CEE36A",
"9X c #D6E564",
"0X c #D2E176",
"qX c #887A82",
"wX c #8B8781",
"eX c #948985",
"rX c #8E9083",
"tX c #949288",
"yX c #A39186",
"uX c #D48D8B",
"iX c #EB8788",
"pX c #F69598",
"aX c #F59094",
"sX c #C4BD89",
"dX c #FF9EA0",
"fX c #E39CA2",
"gX c #FFA7A9",
"hX c #F3B5B5",
"jX c #BAC284",
"kX c #D3DE87",
"lX c #C1CA8D",
"zX c #CEE281",
"xX c #FFB8C2",
"cX c #FFCCCB",
"vX c #FFD0D2",
"bX c #FFE0DA",
/* pixels */
"[.|.-X|.*X/.#X*X*X,XF.C.S.OXoX!.'.|.8XA.D.-X1X{.&XU.I.&X%X%X5X4X",
"[.&X=X=X&X/.#X<X~.{.=X XC.C.W.W.^./.A.F.=X*X(.~.[.I.&X:X:X;X;X;X",
" X}.}.U.U.I.@X{..X'.E.V.`.=X&X).@X~.&X8X-XV.~.-XA.A.=X=X:X:X;X;X",
"'.}.F.U.U.I.&X(..XXX'.^./.L.L.Y.7X$X;X,X,X`.{.9XA.A.F.[.*X:X;X;X",
"_.{.{.&XI.I.@X/.V.^.9X1XH.b.M.lXN.m.n.m.:X1X^.B.D.S.A.{.(.#X&X,X",
"_._.^.).&XI.D./.=X=X:X$Xn.w.] i , ] 6.y.i.N.)./.F.A.A.Z.~.`.{.|.",
"_._._.(.*X*XI.P.0XY.t.q.] , - # # # ! 6.e.e.u.6XL.I.[.`.`.W.Q.Q.",
"XX_.^.^.#X;XL.Y.<.5.4.5 & & ! ' &.( > [ } ~ 3.7.Y.L.$X&X'.Q.!.!.",
"XXR.~.~.5XJ.<.<.p a , ( ! ;.R ` / fXcX&.} } q.4 6 8.t.5X*X'.E.+X",
"Q.].-X@XJ.v.,.2.x ..) - ' Y Y =.pXxXpX:._ # ..{ p ,.,.b.Z.:X~.E.",
"+X].6XJ.q.<.c k.qX&.o :.T L ' dXvXaXiX` P # q z.2.x u w.r.2X%X>X",
"9X~.H.r.p s B eXyX) o $.` ' gXxXdX>.-.R P O | h.h.C g l 5.b.K.6X",
"6Xi.e.5.u v S qX| r o / / pXvXaX>.*.K T L . [ f V +.V z y 8.r.m.",
"7X3.5.{ k g.g.B 9 r   uXc.vXgXiX*.H Q E J X > k b +.+.h.x 0.8.f.",
"sX} 0.{ z h.g.M w 8 $ hXcXiXaX:.K G G W I . %.q N l.l.l.0.x.x.q.",
"sXd.d.#.k o.k.2.8 V $ bXaX:.>.L K G W E F + } f h O.O.h.s 2.p.f.",
"jX<.p.l.qXwXS Z ; d { %.;.=.R U H Q ^ I @ - [ b n qXqXqXeXl.x.c.",
"jXw.x.l.qXtXwXm t x h.#._ ` -.*.W U J @ % ) | e A n +.eX@...d.M.",
"Y.3 4 g d A +.S m m h...> % * @ F @ + % q ..S w A +.A h j k l p.",
"U.7 1 u j n n tX1.m Z N r > & O X % > f f d v m qXwXe e p.a 4 r.",
"0Xi.9.5.s.V w S tXrXZ s N  .f [ f [  .N c s S tXwXf 0 ..c.] 7.kX",
"I.4Xm.,.{ o.w e S rXk.S X.z z h.X.o.v M wXrXwXj.h 0 f ] 6 9.3X5X",
"&X8X5Xr.a 0.a.X.d N k.k.g.2.g.k.n X.V V wXk.D w w [ { 5 7 u.>XB.",
"=XZ.0X2X8.,.p.p.0.y 8 y d C rXk.+.eXeXV s t 9 d o.s.4 7 H.,XB.8X",
"*X-X:X5XK.r.5.3 0.0.{ y y g.z.wX@.qX@.e d x p.p.4 i w.n.$X>X}.C.",
"{.(.&X:X$Xm.t.q.6 4.] i l p.l.h...l.l.{ y i 4 2 w.e.m.$X&X[.S.OX",
"#X#X#X#X:X%X$XK.9.7.7 2 2 4 y x | j y : 2 6 4.9.H.L.4X4X,XI.}.=X",
"1X<X#X(.#X*X:X:X6X;Xu.y.7.3 1 : y , 4 6 7.y.Z.,X>X>X>X,X>X8X=X=X",
"*X-X{.`.^.^./.@X:X@XP.>X;Xu.n.n.v.f.t.K.;X&X@X&X=X&X@XD.&X&X=X=X",
"D.D.{.`.`.~./.{.>X[.[.[.[.D.P.;X6X3X$X@X*X/.^.{./.{.*X@XA.Z.A.8X",
"G.F.F. X`.`.{.*X/.{.OX9X9XOX[./.{./.~.{.{.^.^.(.^.%X1X*XD.B.C.OX",
"T.T.OX X`.`.{.<X1X-X}.Q.E.Q.].|.|.].].'._._.<X<X<X%X:X-X-XOXOXOX"
};
