/* XPM */
static char *E_2[] = {
/* columns rows colors chars-per-pixel */
"32 32 237 2 ",
"   c #3F2818",
".  c #540200",
"X  c #570801",
"o  c #5F1308",
"O  c #520C08",
"+  c #7C140D",
"@  c #6C160D",
"#  c #4A2711",
"$  c #68281D",
"%  c #7E221C",
"&  c #5A3322",
"*  c #6B2D28",
"=  c #613C2A",
"-  c #773A2F",
";  c #58543E",
":  c #504D37",
">  c #625C28",
",  c #684E36",
"<  c #744D32",
"1  c #5D6229",
"2  c #66642B",
"3  c #6B722B",
"4  c #72772C",
"5  c #686737",
"6  c #787838",
"7  c #72673A",
"8  c #555441",
"9  c #5C5747",
"0  c #645747",
"q  c #7D5449",
"w  c #655D54",
"e  c #685E55",
"r  c #775651",
"t  c #7A4D48",
"y  c #5F6052",
"u  c #66614E",
"i  c #6A6947",
"p  c #726E4C",
"a  c #726D45",
"s  c #6F7547",
"d  c #7C7C4E",
"f  c #777746",
"g  c #66645D",
"h  c #6C6B5C",
"j  c #6A6955",
"k  c #736D5D",
"l  c #7B6C5C",
"z  c #736A56",
"x  c #6F7257",
"c  c #747354",
"v  c #7C7A54",
"b  c #7A735C",
"n  c #7B795C",
"m  c #777359",
"M  c #6D6B63",
"N  c #6B6966",
"B  c #746E69",
"V  c #766D65",
"C  c #747264",
"Z  c #7C7C65",
"A  c #7B756C",
"S  c #7C7A6B",
"D  c #757668",
"F  c #7B7471",
"G  c #7D7C74",
"H  c #831B18",
"J  c #B8140D",
"K  c #BC1519",
"L  c #AA0E12",
"P  c #902015",
"I  c #A32A1F",
"U  c #BE1824",
"Y  c #8B3830",
"T  c #A42B26",
"R  c #B93B34",
"E  c #B32C2D",
"W  c #C6393C",
"Q  c #DB3B34",
"!  c #C92D30",
"~  c #94453C",
"^  c #864E3A",
"/  c #B94037",
"(  c #82713E",
")  c #CB413C",
"_  c #835A4A",
"`  c #875A52",
"'  c #935846",
"]  c #BB524A",
"[  c #B64E4B",
"{  c #857D47",
"}  c #886557",
"|  c #81785D",
" . c #936D57",
".. c #AE6A5D",
"X. c #846C67",
"o. c #837C6C",
"O. c #877866",
"+. c #827C74",
"@. c #837D79",
"#. c #8C7C71",
"$. c #947369",
"%. c #A27162",
"&. c #C05350",
"*. c #CD4F4C",
"=. c #EB5151",
"-. c #CD756A",
";. c #E87572",
":. c #7C8344",
">. c #7D8157",
",. c #7A816B",
"<. c #7E8261",
"1. c #7F8572",
"2. c #828446",
"3. c #898C4C",
"4. c #87864B",
"5. c #8D934C",
"6. c #8A9244",
"7. c #94994B",
"8. c #838252",
"9. c #8A8A5D",
"0. c #878756",
"q. c #8C9355",
"w. c #9B9D5C",
"e. c #949A56",
"r. c #938C4D",
"t. c #A09D5A",
"y. c #99A15A",
"u. c #A6A959",
"i. c #ABB658",
"p. c #B3B35E",
"a. c #848463",
"s. c #85836D",
"d. c #8B836C",
"f. c #8C896B",
"g. c #8B8864",
"h. c #8D9267",
"j. c #989968",
"k. c #858474",
"l. c #8A8374",
"z. c #848B74",
"x. c #8B8D75",
"c. c #87827D",
"v. c #848B79",
"b. c #8B8A7B",
"n. c #8B8379",
"m. c #938777",
"M. c #8D907F",
"N. c #939577",
"B. c #978669",
"V. c #A08677",
"C. c #9CA168",
"Z. c #A4A966",
"A. c #AEB461",
"S. c #AFB867",
"D. c #B3BB64",
"F. c #B8BB68",
"G. c #BCBF74",
"H. c #C1BF74",
"J. c #BEC84E",
"K. c #BDCB53",
"L. c #BAC657",
"P. c #BDD45B",
"I. c #B9D75A",
"U. c #B9D04E",
"Y. c #BEE65F",
"T. c #BDCC64",
"R. c #BCC36C",
"E. c #BBC463",
"W. c #BAC075",
"Q. c #BEC679",
"!. c #B9D461",
"~. c #BAE663",
"^. c #C7CC4D",
"/. c #C4D34E",
"(. c #CBD14F",
"). c #C3DA4E",
"_. c #C5CD55",
"`. c #CACE55",
"'. c #C4CE5C",
"]. c #CCCA59",
"[. c #C3D454",
"{. c #CBD254",
"}. c #C5DB56",
"|. c #C4D45C",
" X c #CBD35C",
".X c #C4DA5C",
"XX c #CCDB5C",
"oX c #CBDA56",
"OX c #D4D555",
"+X c #D2D35B",
"@X c #D4DC59",
"#X c #D2CD57",
"$X c #C7E25B",
"%X c #D5E157",
"&X c #C3CC64",
"*X c #CACF63",
"=X c #C4CB6C",
"-X c #CBCE6B",
";X c #C5D464",
":X c #CBD363",
">X c #CBDA64",
",X c #C6D36B",
"<X c #CAD36B",
"1X c #C4DC6C",
"2X c #CADA6B",
"3X c #C5D963",
"4X c #D1D364",
"5X c #D4DC65",
"6X c #D0D46D",
"7X c #D3DB6B",
"8X c #D9D862",
"9X c #C4C975",
"0X c #C5D173",
"qX c #CBD775",
"wX c #D2DA73",
"eX c #D4DC7B",
"rX c #D2D474",
"tX c #E0DF60",
"yX c #D7E465",
"uX c #DEE676",
"iX c #C97C82",
"pX c #8B8683",
"aX c #948C89",
"sX c #959288",
"dX c #92938B",
"fX c #B68889",
"gX c #DC9798",
"hX c #CC968F",
"jX c #EC8A8C",
"kX c #C1BE89",
"lX c #F0A497",
"zX c #E6B0B1",
"xX c #BFC084",
"cX c #C7C88A",
"vX c #D7DC88",
"bX c #D9D691",
"nX c #D2E081",
/* pixels */
" X X3X.X|.P.{.+X].#X].].4X2X>X.X`.OX@X@XXX5X2X'.:X:X|.|.[.{.OXOX",
" X XXX.XP.[.{.OX#X+X+X8X>X:X;X;X`.OXXXoXK.K.'.5X'.;X|..X.X X XOX",
" X XXX.X[.U.(.{.tXOX^.J._.;X>X:X7X|.K..X>X.X_.[._._.;X3X3X:X:X X",
"+X X.X|.).).(.(.^.^.`. X:X<X,X&X&X&X,X2X2X|. X5X`.{.|..X;X,X;X:X",
" X{.|.[.[.)././.{.yXuX7X'.p.p.F.H.F.A.i.T.wX:XJ. X_._.|.|.;X,X,X",
"+X{._.[.[.P.[._.;XT.D.D.Z.t.{ a { { 3.7.S.qX,XL.:X{._.K.P.|.;X1X",
"+X{.[.[.P.;X&X&XeXW.Z.C.j. .0 # O <  .r.6.5.D.eX=X&X'.|.|.[.|.[.",
"+X`._.'.;X0X9XQ.e.8.f p | V.hXzXhX..^ 7 7 s :.5.9X=X=X:X.X[.[./.",
"+X].'.E.qXG.3.>.>.i x s.0 fXzXiXjXY o < B.B.8.5 f 3.u.qX;X X/.@X",
"4X:XwX9XG.Z.v <.x z.sXk.r fXgXjX*.T + $ $.m.l.Z c d 2.A.L.:X_.(.",
"rXrXvXG.w.>.p z.k.b.Z 0  .gX-.;.U ! P o } $.@.pXk.n i 3.t.=X X5X",
"bX9XH.w.f p m x.b.M ;   %.lX[ *.J ) I X ` X.B G n.o.z d 2.u.=XeX",
"bXZ.j.8.a c Z k.x 8 ; # ' -.E =.J Q I X } } w B A +.b m 7 4.y.G.",
"cXr.{ d p O.d.C 9 : b = ^ &.W =.J Q T X  .l N g B @.o.f.v g.9.q.",
"kX{ 0.0.v g.l.k 8 u O.= ~ &.W =.U ! T . } l A u A n.m.m.a.h.h.h.",
"cX9.B.d.z o.x.o.8 b o.& ~ ] ) Q U E T . q V k.y k l.l.l.h <.h.N.",
"cX0.a.x.@.pX+.A 8 n | , Y [ W L U R H o r +.M B N +.c.k.b.N.h.j.",
"cXq.h.N.c.aXpXB 8 j l , - Y *.*.W R % * X.+.e N B M A n.f.>.j.Z.",
"R.3 5 j g F +.F C D o.| q - H + + + * ` #.@.g N A o.A j m s f q.",
"T.4 1 i k V B aXk.D D O.O.q $ X o * r X.F g g F @.l.w i a.s 1 y.",
"2Xi.5.>.f.A w +.pXG C h k | } _ ` } V V N B pXsXm.j ; >.C.:.:.nX",
"P.wXE.:.v O.w w l.aXsXk.C k O.l.#.o.B B c.dXaX@.z 0 p 8.6 e.~.eX",
"XX7XqXy.d 9.O.o.m o.k.v.,.S S ,.D Z S 1.pXpXB 9 w m v 5 4 D.nXL.",
">XK.eXQ.5.4.9.f.0.; : 9 D 1.v.z.,.z.1.D N g w M o.g.5 3 R.<Xi.yX",
" X4X6XrXR.u.2.7 8.9.8.i j s.sXv.,.x.d.p u C f.f.5 6 5.A.-X6X4X+X",
"'.:X*X-X=XD.u.e.6 2.{ f v g.b.v.Z x.f.| a a 5 1 3.w.D.=X-X&X*X4X",
":X:X'.*X:X-XT.R.7.6.( 2 > 2 a m m p 2 > 2 6 6.7.F.=XwXwX<X*X<XrX",
"4X:X:X X'.:X2X0XeX;Xp.u.6.4 > > 5 2 2 ( 7.u.E.<X2X2X:X4X7XwXrXqX",
"3X3X X{.'.`._.;X<X&X&X<X-XD.A.S.Z.w.u.H.-X<X&X;X<X X|.{. X:X1X0X",
"I.I.|.{.`.`._.;X2X|.|.{.'.'.T.,XnX0X&X_.'.'.'.;XP. X+X{.^.L.!.1X",
"I.~.}.oX{.`. X:XP.P.XXyXyXXXP.U.[.P./.[.oX|.!.T.&X*X4X+X[.U.I.~.",
"~.~.$XOX{.`. X>X5X>X).)./.).}.Y.$X$X}.)..X X2X<X,X*X4X X%X$X~.~."
};
