/* XPM */
static char *M_0[] = {
/* columns rows colors chars-per-pixel */
"32 32 100 2 ",
"   c #191709",
".  c #1C1A0E",
"X  c #1E1B12",
"o  c #201E0F",
"O  c #211E14",
"+  c #221E1B",
"@  c #1E2100",
"#  c #222303",
"$  c #232309",
"%  c #272808",
"&  c #2A2B0C",
"*  c #32340D",
"=  c #242214",
"-  c #2C2C13",
";  c #26231B",
":  c #29261B",
">  c #2C2B1C",
",  c #2F3011",
"<  c #323215",
"1  c #373816",
"2  c #34341B",
"3  c #373818",
"4  c #3B3C1B",
"5  c #272320",
"6  c #2A2622",
"7  c #2E2B23",
"8  c #2E292D",
"9  c #312F25",
"0  c #312E29",
"q  c #343324",
"w  c #383724",
"e  c #3A3A23",
"r  c #35322B",
"t  c #39372B",
"y  c #3C3A2B",
"u  c #332E32",
"i  c #363231",
"p  c #393631",
"a  c #3E3B33",
"s  c #3E3A3A",
"d  c #403F2D",
"f  c #413E34",
"g  c #423E3B",
"h  c #3F411A",
"j  c #3F4021",
"k  c #43451C",
"l  c #46491E",
"z  c #434422",
"x  c #464823",
"c  c #4B4D26",
"v  c #43422D",
"b  c #4D4F29",
"n  c #4D5025",
"m  c #4F512C",
"M  c #505326",
"N  c #585D25",
"B  c #52552B",
"V  c #55582A",
"C  c #5A5E2B",
"Z  c #454333",
"A  c #484734",
"S  c #4A4935",
"D  c #46423C",
"F  c #49463D",
"G  c #4B493D",
"H  c #535433",
"J  c #5B5D35",
"K  c #5B5C39",
"L  c #5E6424",
"P  c #5E632B",
"I  c #5F6233",
"U  c #5F613A",
"Y  c #606726",
"T  c #646B25",
"R  c #61662C",
"E  c #656B2C",
"W  c #686E2D",
"Q  c #6A712E",
"!  c #626634",
"~  c #656A33",
"^  c #686E34",
"/  c #63653A",
"(  c #66693A",
")  c #696D3A",
"_  c #6B7132",
"`  c #6E7339",
"'  c #464243",
"]  c #494542",
"[  c #4D4A45",
"{  c #474248",
"}  c #4A454A",
"|  c #4E494B",
" . c #514E43",
".. c #504C49",
"X. c #5C5C40",
"o. c #555249",
"O. c #606044",
"+. c #676944",
"@. c #686B40",
"#. c #6B6C4D",
/* pixels */
"E _ Q T T W Q E ~ ~ ! / ( ! ! ~ ! / ( ( / / ( ) ~ ` L Y _ R R R ",
"E ^ _ R L T W R I ! / K / / ! ! J I / K K K K J C ` P E _ P R ! ",
"! ( ~ R P ~ ~ J * < 2 3 2 1 1 1 < 1 2 2 - - & & M ( ! ~ ( P ~ ! ",
"/ ( ~ I ! ! / K 3 y y d d Z d v v v Z d q 2 < , k / ! ~ ( P ~ / ",
"/ ( ! I ! +.U H w y a g D F D D F S G A y q 2 < 4 / ~ ~ ~ P ( ( ",
"/ ( ! ! ! ( K H w t s D ] ] F F F [ [ D f r 2 < 4 / ~ R ~ R ~ ! ",
"~ ) ~ R ~ ) / b 2 q a g ' ' ' F Z F F D t 9 - - h ~ ! R T R _ R ",
"W W T Y W ) I m 3 y f ] [ .. .[ D ] [ ' f r > & k ) W R T T _ E ",
"T Y T T L W ! n , e A D D ] [ ] g D ' ' g t > & k ~ E T Q L T Q ",
"W Y T T L W ! n < y F D D ' D D ] ] | ] ' a w - z ( ~ ~ ^ L W T ",
"W R T T Y ~ ! b 3 Z  .[ D D ' D ..| } | | ] a w z / ~ ~ ^ L ~ ~ ",
"W R E E L ) ! b e S o.| ] ' ] ' ' { { { | [ A v z +.! ~ ) Y ~ ~ ",
"~ R ~ R R ~ / m 2 y F g s g g g g s s s g g y y z +.~ ~ ^ P ~ ~ ",
") R E R R ~ / b & q q 7 6 0 r 9 a p i r 9 9 2 > z ( ~ ~ ^ L ~ ~ ",
"~ R E E P ~ / b - > : O + : : = > > 7 > = = - < k ! E W ^ L ~ W ",
"W R E R R E ! n 3 2 : . O : > O   O = ; O = , 4 k ~ ~ T W L W T ",
"T T T T T T ~ ( +.O.- : 9   : : ; ; 6 X 0 : A #.@.) R L W E L E ",
"Q T T T T Y R ! B H = : 2 . = ; X O 5 + r > v X.U ) ~ R T E L W ",
"Q T E E E R ! / e v O ; 7 + : ; 5 6 7 5 r ; > 2 H / ~ R E R P ~ ",
") ^ R E ~ ~ I U 3 y ; 5 7 ; 7 : 7 7 7 6 7 ; $ % x I ( R R R P ) ",
"~ ~ ! R ~ ~ I J e v > ; 7 6 9 9 ; ; ; ; ; 7 > - 4 I ( R R R ! ) ",
") ~ ! R ~ ~ J H v S r ; 7 7 0 r 7 > ; : X q w < k ! ) P R E E ) ",
"W R Y E ^ ~ P B j S r > 7 9 0 t q q 7 r X q w < k ! ~ L L W E W ",
"Q T Y T T E C M 3 v y : 7 r 9 r 7 0 9 r X y y 4 l ! W L Y W W W ",
"T T T T T Q R V 4 v S y 7 6 : ; 5 + + 6 p f v e c ! ~ Y T T R T ",
"T T T T T Q P V 3 v S s r r 0 q u u 8 u s g f e x ! ) R W R R ^ ",
"Y T T Y R E P B 4 S  .F D ] G ] | } { { | [ F v z U ) ~ ~ R P ^ ",
"W ^ ^ Y Y R P B & 2 y q 9 q t r s p u i p r 9 2 e J ) ! ! ! ! ~ ",
"~ ^ W P R R ! V & 1 2 q 2 w 4 3 w q 9 2 q 9 2 - k I ) ! ~ ! I ~ ",
"~ ~ ~ Y R W ! C @ # & # # % #   # # @ o $ $ @ @ n ! ) R ~ ~ ! ( ",
"~ ) ~ R T _ ^ R C / ! J J ! ! N P R P ! / I I R N ^ E L E ^ R ! ",
"~ ~ ~ R T _ _ R P ! ( ! ! ^ ^ L ^ W ) ( ( ~ ( ~ R Q Y L W _ ! ~ "
};
