/* XPM */
static char *M_1[] = {
/* columns rows colors chars-per-pixel */
"32 32 168 2 ",
"   c #020201",
".  c #0A0700",
"X  c #060A00",
"o  c #0A0C03",
"O  c #05030A",
"+  c #0C0C0B",
"@  c #110F00",
"#  c #0C1100",
"$  c #131502",
"%  c #151A00",
"&  c #1C1E01",
"*  c #16130B",
"=  c #1A1E0D",
"-  c #0F0915",
";  c #110F1A",
":  c #151311",
">  c #1F1C13",
",  c #1B191C",
"<  c #1E2500",
"1  c #212603",
"2  c #292B06",
"3  c #222508",
"4  c #262B0C",
"5  c #292D08",
"6  c #2C320D",
"7  c #31380F",
"8  c #272A17",
"9  c #2B2D14",
"0  c #25261C",
"q  c #282B18",
"w  c #2D3213",
"e  c #303610",
"r  c #33351B",
"t  c #3B3F1C",
"y  c #161221",
"u  c #1E1A23",
"i  c #1F1B2A",
"p  c #261F2F",
"a  c #231E24",
"s  c #242322",
"d  c #2A292C",
"f  c #312F20",
"g  c #2E3120",
"h  c #313423",
"j  c #383722",
"k  c #363A26",
"l  c #393C26",
"z  c #3C3D2D",
"x  c #2E2E34",
"c  c #2B2436",
"v  c #332F30",
"b  c #353132",
"n  c #383530",
"m  c #3A343E",
"M  c #3D3D3C",
"N  c #403F2A",
"B  c #3D4322",
"V  c #3F403B",
"C  c #525D1E",
"Z  c #44482F",
"A  c #4C5423",
"S  c #545E21",
"D  c #595F24",
"F  c #50572D",
"G  c #555D2D",
"H  c #595D2B",
"J  c #414431",
"K  c #454837",
"L  c #515230",
"P  c #565D32",
"I  c #595E33",
"U  c #565B3C",
"Y  c #5B6324",
"T  c #5D6824",
"R  c #57602B",
"E  c #5B632C",
"W  c #5E682B",
"Q  c #5D6433",
"!  c #5E6439",
"~  c #636C25",
"^  c #61662D",
"/  c #636B2C",
"(  c #66712D",
")  c #69742E",
"_  c #6D792D",
"`  c #606335",
"'  c #646B33",
"]  c #696E34",
"[  c #60643A",
"{  c #646B3B",
"}  c #696D3D",
"|  c #6B7334",
" . c #6B723C",
".. c #73783E",
"X. c #3D3A45",
"o. c #423C48",
"O. c #454544",
"+. c #494947",
"@. c #474749",
"#. c #4A4A49",
"$. c #5B5B41",
"%. c #575755",
"&. c #5E6346",
"*. c #606547",
"=. c #656B42",
"-. c #696C42",
";. c #606449",
":. c #686949",
">. c #6B7342",
",. c #6C7349",
"<. c #70724A",
"1. c #696D52",
"2. c #62625F",
"3. c #6D7254",
"4. c #656565",
"5. c #676863",
"6. c #6C6C67",
"7. c #666669",
"8. c #6B6C6A",
"9. c #706F6A",
"0. c #72716C",
"q. c #6E6E70",
"w. c #757672",
"e. c #747378",
"r. c #7D7E78",
"t. c #7B7C74",
"y. c #81817F",
"u. c #848485",
"i. c #8D8E8B",
"p. c #92938C",
"a. c #8D8C92",
"s. c #949493",
"d. c #989996",
"f. c #969698",
"g. c gray61",
"h. c #A2A39E",
"j. c #9E9EA0",
"k. c #A3A3A3",
"l. c #A7A8A3",
"z. c #B9B6B1",
"x. c #B9BBB0",
"c. c #B4B4B4",
"v. c #CCCDC7",
"b. c #CCCCCB",
"n. c #D0CCCA",
"m. c #D1D0CE",
"M. c #D6D3D3",
"N. c #D8D4D3",
"B. c #DCDCD6",
"V. c #E1DDDC",
"C. c #E5E2DD",
"Z. c #E8E5DE",
"A. c #DEDBE1",
"S. c #E5E6E3",
"D. c #EBEBE5",
"F. c #ECECEB",
"G. c #F0EDE8",
"H. c #EFF1E6",
"J. c #F3F3EE",
"K. c #EFEEF2",
"L. c #F0EFF4",
"P. c #F5F5F4",
"I. c #F8F3F4",
"U. c #F7F8F3",
"Y. c #FBFBF6",
"T. c #F7F5FA",
"R. c #FAF6FC",
"E. c #FEFEFD",
/* pixels */
"/ ( T ) ( W  .E >.R Q Q ' ' >.R ! ! ! W Q Q Q ! } ! Q {  .! { >.",
"S Y T | W C Q ! P Q ! R Q R Q =.Q ! &.Q I { ! R F { ,.! ! ! ! G ",
" .| W ( ' { ,.&.w B 6 4 7 7 < r w 9 w 4 9 4 8 w &.&.&.! &.3.1.&.",
"R E Q E  .=.e #   X   # < V J K h $ X X     X q h =     X     X ",
" .! { R Q 6   X       <   0 O.O.  o +     o       X X X X     o ",
" .R Q { &.< $ x.E.Y.U.M.o : x d   u.Y.E.E.U.8.  + i.F.E.Y.E.E.E.",
"Q E { >.,.X   B.T.E.E.F.  - x x   s.E.J.E.E.e.    i.Y.E.E.E.E.Y.",
"' { W A =.<   b.E.E.T.A.  O ; O   u.E.E.E.Y.5.  g.P.E.E.E.E.T.E.",
"( W ' Q ! < X b.E.T.E.E.E.  O O c.U.E.E.E.E.6.  d.E.E.U.E.Z.E.E.",
"( T ( W ! %   b.T.E.K.T.S.s O - b.E.E.E.E.E.7.  i.P.E.P.S.+.+   ",
"( T ( W ! < X v.E.T.E.E.E.U.O.b.F.E.T.Y.E.U.4.  l.E.E.E.R.@.o   ",
"~ T ( W ! % X v.E.T.E.Y.B.E.#.b.E.E.T.E.E.T.4.O k.R.E.E.E.O.    ",
"~ T ( Q { %   b.K.E.S.E.E.E.Z.E.E.E.P.E.E.R.7.  f.T.E.E.E.@.    ",
"~ T ) W { % X b.R.E.P.E.Y.H.Y.Y.E.E.T.E.E.E.8.  k.E.E.Y.T.O.    ",
"( T ( Q &.% X b.E.R.E.J.Y.Y.Y.E.E.E.Y.E.E.E.8.  d.Y.E.E.E.O.    ",
"W T ( Q { % X b.E.E.E.P.Y.Y.Y.E.E.E.Y.E.Y.Y.6.  l.E.U.Y.E.M   + ",
"~ ~ / ' [ &   n.R.E.E.n.o E.Y.E.p.p.U.Y.Y.E.w.  d.E.E.E.E.M o   ",
"~ ~ ~ ] ` &   n.R.R.E.E.. C.E.I.9.p.E.E.U.U.2.  h.E.E.E.Y.M     ",
"/ ~ / ] ` &   n.E.E.Y.V.  * C.9.8 t.Y.Y.E.Y.6.o i.E.E.E.E.+.    ",
"/ ~ / ] [ &   n.T.E.I.G.>   V.9.  y.Y.U.E.E.5.X h.E.Y.E.E.+.  + ",
"/ ^ / ] [ & . n.E.E.E.J.    . o   i.E.P.E.Y.4.  s.Y.P.E.E.#.    ",
"/ / ` ] [ & . n.R.E.E.G.  :   :   i.E.P.E.E.8.O k.E.E.E.F.%.    ",
"] ^ ^ ] [ &   n.R.E.P.N.:   v ,   a.E.R.E.T.8.  g.R.Y.E.E.P.L.E.",
"] ^ ^ } [ &   n.E.R.R.I.  + m u   a.E.R.E.L.7.O j.E.E.P.R.E.E.E.",
"^ H ^ ] <.@ . V.T.T.R.A.O O p y O a.E.E.E.E.e.    f.E.E.U.E.E.Y.",
"..] ..` ` 3 @ z.E.R.E.M.a - c p ; u.T.E.E.T.q.+ O y.D.E.E.E.Y.E.",
"^ H ] ^ } t . *       :   a o.o.O   O       X X   X X     X   X ",
"..D ^ ^ } -.9 @ . .   . @ b v d s + o     o X q l 9 X   X X X   ",
"] ^ | ] H -.:.$.9 N j f 9 j r z z q g l B g w B t Q =.&.=.=.! { ",
"D Y ] ] H H ` L & 6 2 1 1 & $ & 3 % < 5 < < < < B {  .R W Q W ' ",
"] ] D Y ] ] -.` [ H H H ] { ` G { P ! Q F G Q R T W Y C ~ _ ~ T ",
"^ ..] ] ] ^ } } } ` ] ] ^ ^  .{ =.! { =.' '  .Q ) | ( ( _ ~ ~ _ "
};
