/* XPM */
static char *M_2[] = {
/* columns rows colors chars-per-pixel */
"32 32 158 2 ",
"   c #010201",
".  c #060801",
"X  c #0A0B03",
"o  c #050409",
"O  c #08070C",
"+  c #0C0C0A",
"@  c #0F1201",
"#  c #0B120A",
"$  c #121506",
"%  c #171900",
"&  c #1A1D02",
"*  c #12130E",
"=  c #1A1C0E",
"-  c #0C0B10",
";  c #141414",
":  c #171813",
">  c #1A1B15",
",  c #1C1C1C",
"<  c #1C2103",
"1  c #1E220C",
"2  c #1F201A",
"3  c #222503",
"4  c #2A2C05",
"5  c #23250A",
"6  c #262B0C",
"7  c #222414",
"8  c #272A12",
"9  c #2A2E13",
"0  c #25261E",
"q  c #27291C",
"w  c #292B1B",
"e  c #2E3314",
"r  c #2E321E",
"t  c #32351B",
"y  c #35391E",
"u  c #3B3C1D",
"i  c #1C1B23",
"p  c #232321",
"a  c #2A2A2A",
"s  c #353624",
"d  c #353827",
"f  c #3B3C25",
"g  c #33352A",
"h  c #37392C",
"j  c #333332",
"k  c #383933",
"l  c #3B3B3B",
"z  c #3F4231",
"x  c #44471A",
"c  c #5F671C",
"v  c #5F6B1F",
"b  c #616E1E",
"n  c #63701E",
"m  c #4B5324",
"M  c #4A502E",
"N  c #545C26",
"B  c #51572C",
"V  c #555D2A",
"C  c #5A5F29",
"Z  c #4C4C30",
"A  c #45473C",
"S  c #525532",
"D  c #555C32",
"F  c #585D34",
"G  c #565B3C",
"H  c #595E3A",
"J  c #5C6425",
"K  c #5E6A22",
"L  c #5A622D",
"P  c #5C6432",
"I  c #5E643B",
"U  c #606724",
"Y  c #626C24",
"T  c #626B2E",
"R  c #677421",
"E  c #67722E",
"W  c #6A722B",
"Q  c #626535",
"!  c #626B34",
"~  c #61663B",
"^  c #646B3B",
"/  c #696D3B",
"(  c #6C7335",
")  c #67703B",
"_  c #68713C",
"`  c #717834",
"'  c #434644",
"]  c #434943",
"[  c #4B4C46",
"{  c #464648",
"}  c #4D4E48",
"|  c #5C5E46",
" . c #565752",
".. c #5C5D55",
"X. c #5A5A58",
"o. c #5D6342",
"O. c #5F6251",
"+. c #5F6058",
"@. c #656644",
"#. c #656A42",
"$. c #686F44",
"%. c #61654A",
"&. c #64694B",
"*. c #6F7543",
"=. c #6C734A",
"-. c #717946",
";. c #757A4E",
":. c #62635B",
">. c #71755A",
",. c #5B5A60",
"<. c #6C6D67",
"1. c #6A6A68",
"2. c #70716B",
"3. c #7C7D78",
"4. c #81817F",
"5. c #86858B",
"6. c #8D8D8B",
"7. c #8D938F",
"8. c #959595",
"9. c #939995",
"0. c #9A9D9B",
"q. c #9E9EA0",
"w. c #A3A3A1",
"e. c #AAAAAC",
"r. c #ABAAB0",
"t. c #B3B5B3",
"y. c #BCBCBB",
"u. c #C1C1BE",
"i. c #C6C6C6",
"p. c #C5CAC6",
"a. c #CDCDCB",
"s. c #CAD1CA",
"d. c #D1D3CE",
"f. c #CECED1",
"g. c #CFD1D2",
"h. c #D3D3D3",
"j. c #D4DBD4",
"k. c #D9DBD4",
"l. c #D5D4DC",
"z. c #DBDBDB",
"x. c #DFE4DD",
"c. c #E0E1DC",
"v. c #E5E5E3",
"b. c #E3EBE1",
"n. c #EBEDE4",
"m. c #E6E5EB",
"M. c #ECECEC",
"N. c #EDF3EC",
"B. c #F3F4EE",
"V. c #EDECF0",
"C. c #F0EFF5",
"Z. c #F4F5F3",
"A. c #F5FAF4",
"S. c #FBFCF6",
"D. c #F5F5FA",
"F. c #F8F7FF",
"G. c #F7FCF9",
"H. c #FDFEFD",
/* pixels */
"^ ^ m P -.L P ) N ^ _ P ^ P -.P _ P _ V ^ ! L ) ! P T T T E P E ",
"I ^ I -.P I $.I =.^ D L I D I P I D P I ~ m B V ^ ! ^ P I ! ! P ",
"o.o.&.| G O.>.| t t t t 6 r e t r y r y & < t z o.o.o.o.o.o.o.o.",
".   .   s z s @ X     X 1 O.w .       . = A $   . . .   . . . . ",
"      +   +   # . X . X   ,   *     O o   ,   -                 ",
"H.H.S.H.  # ; u.Z.H.H.k.; * o y.F.D.H.l.i o - r.H.H.H.H.H.H.H.H.",
"Z.H.Z.Z.*     v.H.S.S.z.      h.H.D.H.M.o   a r.H.H.H.H.H.H.H.H.",
"H.S.H.H.H.X.  a.H.H.H.v.o *   d.H.H.H.F.  O t.H.H.H.S.H.H.S.H.S.",
"M.H.Z.H.S.k   d.H.B.H.S.  *   a.H.H.H.v.    d.S.B.S.S.n.S.S.S.B.",
"t.Z.B.H.H.l   h.S.H.A.c.      a.S.H.H.v..   a.S.H.S.k.w .     % ",
"8.Z.S.H.F.l   a.Z.H.H.M.o + O h.H.H.H.v.    s.H.H.S.k.    X     ",
"w.H.H.H.D.l   a.H.H.H.M.  o o a.H.H.H.v.    a.H.S.S.c.. 2 ..:.+.",
"q.H.H.H.H.{ O h.H.D.H.v.o o   z.H.H.H.m.    f.H.H.H.H.    . 2 } ",
"8.F.Z.H.H.{   a.D.H.H.z.;     h.H.H.H.m.o o f.F.H.D.h.:   *   + ",
"0.H.S.H.H.l   i.Z.H.Z.v.    p y.H.H.H.m.o   f.H.G.H.H.M.H.H.1.  ",
"0.H.S.H.H.k   k.H.H.B.H.  : y.H.H.H.F.m.o   f.H.D.H.H.S.H.S.1.  ",
"0.G.D.H.G.]   p.H.G.S.A.    x.H.H.D.H.v.:   k.H.D.H.H.S.B.H.2.  ",
"0.H.G.G.G.]   s.A.S.H.x.# B.S.N.H.D.H.6.o   z.H.S.H.H.B.H.S.<.  ",
"9.G.H.G.G.z   j.H.G.A.d.* H.c.H.H.Z.a.,     k.H.H.H.c.>       * ",
"7.G.H.G.G.]   j.H.N.G.G.x.G.N.A.Z.c.3.  .   a.Z.S.H.B.. . . a  .",
"9.G.G.H.G.]   j.H.G.A.N.H.H.H.H.A.u.>     . a.H.H.H.v.  +       ",
"t.D.G.H.H.]   g.G.H.H.G.D.H.D.H.S.w.  > .   a.H.H.H.l.; o   o O ",
"v.H.H.H.H.'   g.H.C.H.F.D.H.C.H.4.X   , * o d.H.D.H.H.D.H.H.H.H.",
"H.H.H.H.F.'   g.H.H.H.H.H.D.H.H.8.  a a +   h.H.H.H.V.H.C.H.F.H.",
"H.H.S.H.      a.H.F.F.H.H.H.F.,.    i , i     p.H.H.H.H.H.H.H.H.",
"n.H.H.b.    ; u.H.H.F.H.D.F.D.5.o , l j l , ; 9.H.H.H.H.H.H.H.H.",
"X   . 1   0           o     ;   ; g [ [ } p . #   X X .       . ",
"      X 5 o.f X             + X p k h g h w $ X     . .       . ",
"Q Q ;.F B I @.S u Z f u s t s s w w 7 8 t t y 9 M P o.$.~ I ^ ^ ",
"Q U Q C *./ Q x % 4 3 & 3 5 3 % 5 1 5 6 6 < < < m L P T T ! P E ",
"` W U U ( T / U Q / ~ Q / @.~ H &.I H S D P L ) L J J K K n b b ",
"b W Y W W U ` / W ! Q Q Q Q ~ ^ I o.=.I $.=.V P E E E b n n n n "
};
