/* XPM */
static char *M_3[] = {
/* columns rows colors chars-per-pixel */
"32 32 176 2 ",
"   c #020201",
".  c #090503",
"X  c #050900",
"o  c #0C0B03",
"O  c #03010B",
"+  c #0A050C",
"@  c #0C0B0A",
"#  c #110E05",
"$  c #120E0D",
"%  c #0E1202",
"&  c #121401",
"*  c #161A02",
"=  c #191B01",
"-  c #13100A",
";  c #181609",
":  c #17190C",
">  c #1C1B0B",
",  c #0E0A12",
"<  c #110C13",
"1  c #161312",
"2  c #1A1614",
"3  c #1D1917",
"4  c #16141A",
"5  c #1D1B1A",
"6  c #1B161A",
"7  c #1D2203",
"8  c #1E2209",
"9  c #202502",
"0  c #24240A",
"q  c #272C0C",
"w  c #2C2D0D",
"e  c #2E3102",
"r  c #2E300B",
"t  c #30310F",
"y  c #282715",
"u  c #2B2B11",
"i  c #25231B",
"p  c #2D2C1B",
"a  c #302F1D",
"s  c #2F3415",
"d  c #2F321D",
"f  c #333413",
"g  c #333814",
"h  c #32351C",
"j  c #3C3D1D",
"k  c #3B3D16",
"l  c #231D2B",
"z  c #262424",
"x  c #2A2626",
"c  c #2C2924",
"v  c #312E29",
"b  c #3C3E21",
"n  c #36322C",
"m  c #39362D",
"M  c #3C3D2B",
"N  c #363231",
"B  c #393631",
"V  c #3B3B39",
"C  c #403E32",
"Z  c #423F3A",
"A  c #3E4325",
"S  c #454E14",
"D  c #41421E",
"F  c #464B1D",
"G  c #4A4E1E",
"H  c #495316",
"J  c #4E551A",
"K  c #575D1F",
"L  c #5B621C",
"P  c #424423",
"I  c #464823",
"U  c #43442A",
"Y  c #4D4F2A",
"T  c #4C5520",
"R  c #4E552C",
"E  c #535725",
"W  c #535D23",
"Q  c #595E26",
"!  c #50522D",
"~  c #545A2C",
"^  c #5A5E2C",
"/  c #46433C",
"(  c #4F5533",
")  c #505132",
"_  c #555B33",
"`  c #595D33",
"'  c #535838",
"]  c #5A5E3A",
"[  c #55553B",
"{  c #566024",
"}  c #5D6425",
"|  c #576029",
" . c #5D642B",
".. c #5E682C",
"X. c #5C6333",
"o. c #5C623B",
"O. c #606724",
"+. c #646B25",
"@. c #61662C",
"#. c #646A2C",
"$. c #686F2D",
"%. c #6A712E",
"&. c #616533",
"*. c #646A33",
"=. c #686E33",
"-. c #62653B",
";. c #636A3B",
":. c #696C3C",
">. c #667033",
",. c #6B7134",
"<. c #6B723B",
"1. c #707733",
"2. c #71763C",
"3. c #4A4740",
"4. c #494947",
"5. c #524E4B",
"6. c #5A5F41",
"7. c #51514F",
"8. c #5A5651",
"9. c #5A5954",
"0. c #5B6040",
"q. c #616741",
"w. c #656943",
"e. c #686C43",
"r. c #606449",
"t. c #676D49",
"y. c #6A7243",
"u. c #747748",
"i. c #757C51",
"p. c #85827C",
"a. c #88857E",
"s. c #8F8D80",
"d. c #928F86",
"f. c #999691",
"g. c #A29F96",
"h. c #AFB0AB",
"j. c #B0B1A9",
"k. c #B7B5B7",
"l. c #BFC0BA",
"z. c #C2C3BF",
"x. c #CACCBF",
"c. c #BEBDC2",
"v. c #C4C4C4",
"b. c #CAC6C5",
"n. c #C7C1CB",
"m. c #C8C7CD",
"M. c #CECECC",
"N. c #CFD1C4",
"B. c #D6D8CA",
"V. c #CDCCD1",
"C. c #D4D3D3",
"Z. c #DBD7D6",
"A. c #D7D8D2",
"S. c #DADBD3",
"D. c #D6D5D9",
"F. c #DBD9D9",
"G. c #E0DCDD",
"H. c #E6E2DF",
"J. c #E4DEEC",
"K. c #E6E5E4",
"L. c #E9E5E2",
"P. c #EDE9E7",
"I. c #E6E1E8",
"U. c #E9E3EF",
"Y. c #EBEBEC",
"T. c #F2EEED",
"R. c #EFF0EA",
"E. c #F6F2EF",
"W. c #F3EEF5",
"Q. c #F5EEFE",
"!. c #F4F4F3",
"~. c #FAF6F3",
"^. c #FCFCF4",
"/. c #F7F6FB",
"(. c #FAF6FE",
"). c #FEFEFD",
/* pixels */
";. .<.H >.>...<.o.;.0.y.0.y.o.>.| 2.*.u.] :.` :.&.,.@.L $.,.#.#.",
"o.y.>.;...<.| <.X.o.0.0.o.o.o.X.:.X.I ` ` w.] ] &.2.=.} $.$.#.=.",
"o.t.R y.X.y.( q.g h h h d d g h g t f b u u u g ! :.=.@.#.#.#.=.",
"  X X h ' A 7 X         X   X     o ; : o       t ` :.@.@.#.@.$.",
"    o   d   X                     $ O   +   $ o # I &.&.#.@.@.#.",
").!.S.      h.)./.).).).).^.^.).).n., l (.).(.p.. j -.&.&.#.@.#.",
"!.).).    z k./.).).).).).).).).).J.O O Q.(.).f.. j -.&.@.&.&.@.",
"!.).D.  4 c.).).).).).).).).).).).(.O O ).(.).s.. P :.&.^ #.#.$.",
").^.z.x   D.).)./.)./.).).!.!.).).D.O < U.).T.d.. P -.&.@.} =.@.",
"  X :     C./.).).m.4       O .   2   O +   o . # ! :.&.@.@.=.#.",
"    * o o M.T.).).Y.    + .         x 3     # . w -.:.&.@.@.=.#.",
"y.] 0.8   A.).)./.!.  6 V 4.7.9.8./ Z N 8.9./ a b :.:.@.+.+.=.+.",
"<.o.q.7 X B.).).).K.    X .     . i Z 3.5.m C U C :.*.#.$.+.+.+.",
"....o.7 X N.!./.).D.4         . #   1 N l > C u D -.&.@.=.O.#.O.",
"J { | 7 X N.!.).).).T.).).)./.).b.$ + x l v v 0 I :.@.#.$.L +.+.",
"S *.;.%   B.^.).).T.).).).)./.).G.    1 6 i > U Y :.@.+.+.L +.$.",
"H X._ A     l./.!.).).).).^.^.).E.P.<   v > [ e.&.1.+.L +.+.+.$.",
"T X.o.0.8 X j.)./.).).).Y.).).E.~.L.. . m p ) ~ @.=.+.L +.+.+.$.",
"W y.i.i.U   X   O     O , v.).).^.H.. # i & w t E =.$.+.+.+.O.+.",
">.X._ ] 0.A i   O   O   O D.)./.).J.  o c p a 0 D &.,.#.#.#.#.+.",
"% X % q M %   @     O O   D.).!.E.P..   .   . . w ` 2.#.#.*.@.#.",
"X X 8     %       O     $ z.).).~.T.$   6   o   & ! e.*.@.#.#.*.",
"^.^.x.  @ l.).W./.).).).P.).^.R.^.G.  < J.).~.g.. C :.&.@.#.#.#.",
"^.).K.    V.)././.).).).).^.^.^.).G.  + (.).~.a.. k -.&.@.O.#.$.",
"/.).Y.    D.).).).).).).).^.^.).C.. O O (.).E.d.. b :.&.#.$.+.+.",
").^.C..   m.).).).).).).).^.^.).k.<   $ W.).T.a.. k &.@.O.+.+.+.",
"    %     %                     3 . 3   1 . o . & F @.O.+.+.+.$.",
"X X % A A *     X   X X       X   # n $     . & f @.=.#.+.$.+.$.",
"o.w.X.X.o.o.w.( g s s g d h p h M y y a a C r r G =.,.+.+.#.#.$.",
"| <.X.<.<.o.o.F 7 7 7 7 9 7 0 0 9 0 = w & 0 = e J @.+.K +.=.*.=.",
"<.>.{ >.>.{ >.>.....X.X.X.X.&.` -.-.-.w.` ` ^ =.K +.} K #.=.*.*.",
"| <.>.....>.<.} #...>...#.*.&.&.-.-.w.-.-.:.*.=.$.1.$.O.,.,.-.-."
};
