/* XPM */
static char *M_H[] = {
/* columns rows colors chars-per-pixel */
"32 32 247 2 ",
"   c #0B0B00",
".  c #070400",
"X  c #130500",
"o  c #190D00",
"O  c #180800",
"+  c #0C1400",
"@  c #1A1502",
"#  c #181804",
"$  c #1D1D13",
"%  c #220D00",
"&  c #2B0F00",
"*  c #260500",
"=  c #2A1501",
"-  c #241A00",
";  c #221806",
":  c #311200",
">  c #371702",
",  c #301A12",
"<  c #1C2500",
"1  c #1D2B00",
"2  c #1F2211",
"3  c #232302",
"4  c #2B2400",
"5  c #252E0C",
"6  c #27260B",
"7  c #332202",
"8  c #342B09",
"9  c #362707",
"0  c #373905",
"q  c #272314",
"w  c #272B15",
"e  c #372D17",
"r  c #2B3318",
"t  c #333314",
"y  c #38381C",
"u  c #2C3A00",
"i  c #2E2C27",
"p  c #362D25",
"a  c #2D3529",
"s  c #3A3A27",
"d  c #373634",
"f  c #432D00",
"g  c #492E03",
"h  c #443904",
"j  c #5B3A01",
"k  c #553605",
"l  c #433914",
"z  c #413728",
"x  c #3B4413",
"c  c #3B4423",
"v  c #425106",
"b  c #474918",
"n  c #46521A",
"m  c #5E581F",
"M  c #43420C",
"N  c #6C4F0D",
"B  c #5C661A",
"V  c #5D721C",
"C  c #59720D",
"Z  c #797100",
"A  c #626B1E",
"S  c #63651E",
"D  c #6D6E10",
"F  c #474A27",
"G  c #544728",
"H  c #555C2B",
"J  c #595A29",
"K  c #474736",
"L  c #5B5634",
"P  c #5B5B33",
"I  c #585B37",
"U  c #4C5A2F",
"Y  c #645D34",
"T  c #5D6523",
"R  c #5D6924",
"E  c #55652B",
"W  c #5D642A",
"Q  c #5D6A2B",
"!  c #566528",
"~  c #5E7225",
"^  c #5A7225",
"/  c #5C6533",
"(  c #5D6B34",
")  c #5B653A",
"_  c #5D6C3A",
"`  c #566A31",
"'  c #5E7238",
"]  c #636522",
"[  c #636B24",
"{  c #6A6C26",
"}  c #62652B",
"|  c #636B2C",
" . c #696C2C",
".. c #696629",
"X. c #766927",
"o. c #6A712C",
"O. c #67722A",
"+. c #72732D",
"@. c #636533",
"#. c #636B33",
"$. c #696D34",
"%. c #63653D",
"&. c #636C3C",
"*. c #696C3D",
"=. c #6B6032",
"-. c #726C36",
";. c #637134",
":. c #6A7234",
">. c #64713B",
",. c #6C743B",
"<. c #737636",
"1. c #695E4C",
"2. c #4F6040",
"3. c #576848",
"4. c #646543",
"5. c #656B41",
"6. c #6B6B42",
"7. c #686948",
"8. c #6D7142",
"9. c #687248",
"0. c #717249",
"q. c #787B42",
"w. c #756846",
"e. c #786060",
"r. c #855A01",
"t. c #955C07",
"y. c #8A5A14",
"u. c #8B550C",
"i. c #896104",
"p. c #867E14",
"a. c #9F741E",
"s. c #906112",
"d. c #B1720B",
"f. c #C87A00",
"g. c #D57400",
"h. c #AA970E",
"j. c #B3B717",
"k. c #B8882A",
"l. c #B58C38",
"z. c #CC8807",
"x. c #D58405",
"c. c #D99706",
"v. c #CF8814",
"b. c #D58C17",
"n. c #D69917",
"m. c #CF921D",
"M. c #E68E00",
"N. c #EB8B00",
"B. c #E39300",
"V. c #E99805",
"C. c #F49C01",
"Z. c #FD9C01",
"A. c #F89805",
"S. c #E08E10",
"D. c #E89812",
"F. c #F08B00",
"G. c #D7A61B",
"H. c #DEA500",
"J. c #EFA202",
"K. c #EBA506",
"L. c #F4A302",
"P. c #FDA401",
"I. c #F2AB02",
"U. c #FEAB01",
"Y. c #FEAA0A",
"T. c #FBA60B",
"R. c #E6B707",
"E. c #F5B105",
"W. c #EEA514",
"Q. c #F3AB13",
"!. c #FEAD16",
"~. c #FBA417",
"^. c #FCB512",
"/. c #EAB41A",
"(. c #DE932A",
"). c #D69631",
"_. c #CD8D2B",
"`. c #C2A63D",
"'. c #D0B02D",
"]. c #E9AA26",
"[. c #E0B020",
"{. c #F7B427",
"}. c #F6B539",
"|. c #F3AB32",
" X c #BDC227",
".X c #C3C314",
"XX c #F6CB0E",
"oX c #FDE516",
"OX c #C6C52B",
"+X c #FEC638",
"@X c #F7C72D",
"#X c #FBEB24",
"$X c #F3E933",
"%X c #B5955A",
"&X c #9F8C6E",
"*X c #DAAA59",
"=X c #C5A552",
"-X c #ECB658",
";X c #F3BC4F",
":X c #DAB76B",
">X c #CFA776",
",X c #E9B86C",
"<X c #D0C959",
"1X c #E6C54A",
"2X c #FCC94F",
"3X c #FDD845",
"4X c #FBC957",
"5X c #FFD655",
"6X c #EAC054",
"7X c #FFE645",
"8X c #FFE25D",
"9X c #F5F257",
"0X c #DDC762",
"qX c #F4C368",
"wX c #F8D46B",
"eX c #EDC478",
"rX c #F7C677",
"tX c #FDD877",
"yX c #E4C666",
"uX c #FFE964",
"iX c #FBEA76",
"pX c #FFF677",
"aX c #FFF36A",
"sX c #AF918E",
"dX c #BDAF95",
"fX c #D1BBA3",
"gX c #D3AC85",
"hX c #CFC180",
"jX c #D7C295",
"kX c #FED981",
"lX c #FFDD93",
"zX c #EBC98F",
"xX c #FEE883",
"cX c #FCE79D",
"vX c #FFFF9E",
"bX c #FFF999",
"nX c #FFF38B",
"mX c #FAD9AA",
"MX c #FFE6A6",
"NX c #FFFBA7",
"BX c #FFFDBD",
"VX c #FFFBB3",
"CX c #FFEEB1",
"ZX c #FFEAC3",
"AX c #FFFAC8",
"SX c #FFFAD4",
"DX c #FFEAE0",
/* pixels */
"4.%.| ^ ~ V [ | V A } Y 7.0.;.Q *.7.6.6.&./ ( _ ( 9.' _ >.( ! ~ ",
"=...#.~ ~ ~ ~ | R Q 6.7.I L H ( P H L Y %.P E ` ` ' _ ( >.( ` ;.",
"C A | Q ( #._ ) c r 2 w r y c c y e r e 6 # 1 0 m R | Q #.( / >.",
"C V | #.#.&.( I w d K K t 3 + .     @ e K K t < n ! [ R | ( Q _ ",
"V ~ | [ { o.Q U a d i 6 h D p.Z Z p.X.M @ ; e s b W | T [ [ Q ( ",
"` ' o.S [  .! n w ; O o Z 1XaX$X7XaX0Xm o . ; q y P $.[ Q | R [ ",
"` ;.{ S @.>.! x # D =X'.G.XXXXR.R.@X1X:XjXdX1.  y ) *./ Q | R [ ",
"' >.{ ] 4.9.^ v h h.3X3X^.L.I.E.K.[.-XxXAXZX&Xe l %.8.( #.;.R S ",
"5.! B { 3.U u x 9X{.J.U.U.I.L.K.m.tXMXAXmX>XzXzXf f J 0.@.H |  .",
"_ ' [ R c x Z h.@X!.Z.Z.I.K.E.+XrXmXAXMXzXgX,XkXy.j f G P %.$.| ",
"` >.O.R 1 1 j.$XQ.~.Z.C.K./.+XiXCXSXZX>X*XrX4X(._.N : 7 Y 9.$.[ ",
"Q ;.T Q 1 # .X#XL.A.Z.C./.+XpXNXAXmX%X,XtX|.{.D.(.t.: 7 4.5.} [ ",
"V [ T 8.w + .XXXL.P.L.^.3XpXvXVXcXzX`.wX5XV.T.A.x.t.> 8 4.) ] { ",
"{ [ ..0.a   .XoXU.P.I.+XpXvXNXMX=XkXnX1XV.^.P.Z.b.t.= 5 3.3.| +.",
"w.Y X.-.r   OX#XE.K.|.tXVXVXlXeXrX-X;X}.A.Z.A.U.n.i.o w 3.2.$.+.",
"w.Y ....w   j.#XR.n.-XcXBXVXeX*XkX;Xd.S.!.A.U.V.n.r.# r 3.2.%...",
"$.@.6.@.r + j.$X'.yXAXAXbXnXiXnX].c.f.D.T.C.Z.L.z.i.@ 5 3.3.3._ ",
"| W *.7.5 + `.9X<XcXSXmXwXpXxX4XQ.B.f.S.~.P.P.C.m.s.% 6 9.3._ _ ",
"| Q W 8.8 . <XiXnXNXMX:X1XuX2Xn.Q.B.f.M.T.P.P.C.v.s.& 8 9.3.I 8.",
":.| T ,.8 X hXNXVXtX,X,XuXuX}.].W.V.f.V.P.P.P.A.v.t.: 9 0./ J q.",
"#.:.S o.4 o fXSXcX,X-X2X5X3X!.V.M.M.x.C.P.P.P.~.(.t.: 4 @.#.m +.",
"R :.[ ] - - sXDX>XrX5X/.W.!.N.g.g.M.M.Z.P.Z.T.~.(.y.= 7 } #.B S ",
"R | O.] M l e.sXgXeX2XK.B.Y.Z.F.F.A.A.P.U.C.D.(.t.N h M Q ' R R ",
"@.R ] | ..L q 9 mX*XG.K.V.V.C.U.P.P.C.T.Q.S.m.d.: g m ,.;.Q #.$.",
"| #.@.@.[  .Y z g l.5X7X@XU.E.P.C.C.J.x.v.).u.: g m $.( >._ ) %.",
"] $.@.%.| o.=.G = X.=X'.G.G.D.c.D.].].d.t.y.j > k L &.( &._ ) 6.",
"] | 6.4.$.o.$.L e 9 % & j a.k.a._.l.a.k * % 9 s F / &.W #.@.=.-.",
"A  .4.4.#.o.| L p p e > 9 j N N j k k 7 = q i s F I | R | ....-.",
"S ..6.%.#.#.} L $ p z z , % O X O o ; e d p i r x ! ] T | ....{ ",
"[ $.6.%.} } W H s q # # 3 6 q q 5 3 @ # $ $ 2 2 b T [ W $.$.] { ",
"} &.*.%.%.$.} W n P *.8.$.J ! / ) _ / 5.4.I 5.#.B  . .W 4.4.@.$.",
"} *.*.%.%.*.$.#.q.$.T R ~ B R ' E ' ( >.%.) #.R { <.<.@.4.7.&.&."
};
