/* XPM */
static char *M_H2[] = {
/* columns rows colors chars-per-pixel */
"32 32 233 2 ",
"   c #160600",
".  c #1C1703",
"X  c #040500",
"o  c #2A0E02",
"O  c #280405",
"+  c #320A05",
"@  c #3B0B00",
"#  c #370503",
"$  c #251301",
"%  c #2C1202",
"&  c #2B1D03",
"*  c #27180C",
"=  c #361000",
"-  c #391404",
";  c #281A10",
":  c #351B16",
">  c #1E2603",
",  c #2B2302",
"<  c #2C220A",
"1  c #272707",
"2  c #372705",
"3  c #2C300F",
"4  c #2C2E19",
"5  c #2B2715",
"6  c #372918",
"7  c #2D3317",
"8  c #34321C",
"9  c #393919",
"0  c #382A22",
"q  c #333221",
"w  c #3B3A29",
"e  c #470703",
"r  c #5A0401",
"t  c #411400",
"y  c #471B06",
"u  c #591607",
"i  c #491418",
"p  c #561B12",
"a  c #560B10",
"s  c #620200",
"d  c #660503",
"f  c #7A0B0B",
"g  c #631204",
"h  c #781017",
"j  c #572716",
"k  c #493F1E",
"l  c #4A2C12",
"z  c #633A19",
"x  c #632814",
"c  c #433628",
"v  c #573928",
"b  c #443936",
"n  c #4A2929",
"m  c #73372C",
"M  c #742E2E",
"N  c #3E4223",
"B  c #434219",
"V  c #53451C",
"C  c #5C6A1C",
"Z  c #636A1C",
"A  c #4C4826",
"S  c #524C2C",
"D  c #5A492E",
"F  c #4C5B2F",
"G  c #57592A",
"H  c #484137",
"J  c #4D5431",
"K  c #595434",
"L  c #555C35",
"P  c #5D5D34",
"I  c #525635",
"U  c #594431",
"Y  c #625C24",
"T  c #615C2C",
"R  c #64552C",
"E  c #645E32",
"W  c #695C37",
"Q  c #624823",
"!  c #5D6423",
"~  c #5D6B24",
"^  c #536629",
"/  c #5D642C",
"(  c #556A2B",
")  c #5C6D2C",
"_  c #566A25",
"`  c #5C722C",
"'  c #57772E",
"]  c #5C6333",
"[  c #556A33",
"{  c #5D6D33",
"}  c #5B6939",
"|  c #5A653A",
" . c #5B7232",
".. c #5D713A",
"X. c #4E6E26",
"o. c #636224",
"O. c #666D24",
"+. c #64652C",
"@. c #6A662B",
"#. c #636A2C",
"$. c #6A6A2B",
"%. c #686326",
"&. c #63722D",
"*. c #677428",
"=. c #646533",
"-. c #6A6532",
";. c #636B33",
":. c #6A6B32",
">. c #65643C",
",. c #6A643C",
"<. c #646B3A",
"1. c #6A6A3A",
"2. c #726E37",
"3. c #647133",
"4. c #6A7233",
"5. c #66733C",
"6. c #737238",
"7. c #736D2D",
"8. c #72584F",
"9. c #5E6D43",
"0. c #6B6542",
"q. c #6D6B43",
"w. c #656642",
"e. c #716D45",
"r. c #6B7242",
"t. c #564F49",
"y. c #8D0000",
"u. c #981A0F",
"i. c #820D16",
"p. c #8A1811",
"a. c #9D1415",
"s. c #930E0D",
"d. c #A70604",
"f. c #B80B0B",
"g. c #A8181B",
"h. c #BD1A1B",
"j. c #9A271A",
"k. c #B42619",
"l. c #9B1D29",
"z. c #B81D23",
"x. c #8B2A28",
"c. c #90312E",
"v. c #A52828",
"b. c #B82A26",
"n. c #B73937",
"m. c #B13627",
"M. c #C51A1D",
"N. c #C41616",
"B. c #CC1812",
"V. c #C9251C",
"C. c #D42419",
"Z. c #C61C27",
"A. c #D41C26",
"S. c #C92A2A",
"D. c #D72828",
"F. c #C6342B",
"G. c #D7352C",
"H. c #D72A34",
"J. c #CC3234",
"K. c #C9363B",
"L. c #DA3639",
"P. c #CC2B31",
"I. c #E3282C",
"U. c #E52A36",
"Y. c #E42836",
"T. c #E23236",
"R. c #E9312F",
"E. c #8C4139",
"W. c #BC413A",
"Q. c #DF402D",
"!. c #C7453B",
"~. c #D6423C",
"^. c #9F3E47",
"/. c #D03742",
"(. c #E53343",
"). c #8D4649",
"_. c #914B4A",
"`. c #B64B49",
"'. c #B8544A",
"]. c #AA565B",
"[. c #8E685A",
"{. c #BC625E",
"}. c #AD625D",
"|. c #976460",
" X c #AA6463",
".X c #B9676B",
"XX c #AD7569",
"oX c #B66E72",
"OX c #B47374",
"+X c #CC4547",
"@X c #D44546",
"#X c #DA5A59",
"$X c #C95354",
"%X c #E14F54",
"&X c #D3635F",
"*X c #DC5D6E",
"=X c #C76A68",
"-X c #D76965",
";X c #D67468",
":X c #D67B79",
">X c #CE7774",
",X c #E97A77",
"<X c #ED6D6C",
"1X c #A88772",
"2X c #D9847A",
"3X c #CD8B7D",
"4X c #D07E80",
"5X c #CB7985",
"6X c #B98685",
"7X c #DD9A95",
"8X c #D38B8B",
"9X c #F7888A",
"0X c #E98F92",
"qX c #D7A491",
"wX c #EEAC9D",
"eX c #F39EA5",
"rX c #DDACA5",
"tX c #FEA6A6",
"yX c #FDBBB8",
"uX c #FFB1B3",
"iX c #FFC3B5",
"pX c #FFC4C4",
"aX c #FCD6C9",
"sX c #FFDBD9",
"dX c #FFD7D6",
"fX c #FFE6DD",
"gX c #FFF3DA",
"hX c #FFE6CF",
"jX c #FFDFE2",
"kX c #FFE3E4",
"lX c #FFECEA",
"zX c #FFE9E4",
"xX c #FFF5E8",
/* pixels */
"<.<.3.` C *.$.$.1.1.>.e.q.=.G #.} 9.9.9.{ #.Y 7.@.7.o.@.4.+.+.+.",
"} 5.3.~ C O.$.%.>.P K K W ,.=.] } w.L L G 1.+.Y Y 2.+.$.:.o.#.+.",
"{  .#.o.o.$.@.=.q 7 0 0 q q 8 9 4 q 4 7 1 3 , , Q 2.%.@.:.! @.+.",
"( ;.#.o.%.@.=.K q w w t.b 5 % : ; * . H w 9 1 3 B @.+.@.$.o.@.@.",
"~ ) $.Y @.-.-.I w w w b n : + O # # * 0 0 w w w 9 ;.#.#.#.C @.@.",
"` ` @.%.@.,.W J ; 0 : O i _. X X XoX_.n   . . 1 9 } ) ) &.! $.@.",
"` ` #.@.;.r.| J 5 v M x.c.`.&X&X$X=X X|.8.8.b & B ;.) _ ` ~ 7.$.",
"` &.#.+.<.w.| S O x =X4X<XK.b.m.n.x.).yXlXkX[.  V 1.#.X.~ ` 4.+.",
"*.` *.+.r.} S - E.'.+XJ.G.~.G.F.j.=XuXkXpXOX XOXt Q Y 6.~ ( ) 4.",
"&._ #.=.<.A v m '.+XJ.D.P.F.F.!.$XtXdXpX0XoX5X8Xu x k :.` '  .` ",
"&._ / 1.>.2 j {.+XH.A.H.P.b.!.,XzXlXlX X].uX*Xl.f g y G  . . .( ",
"&.! / 1.>.$ p ,X/.H.Y.H.b.`.,XyXlXpXoX0X4X$X%X/.a.s # R <. .` ` ",
"4.#.=.,.0.$ p :X/.(.L.J.`.2XiXkXdX5Xc.eXtXJ.Z.Z.g.d e W 5.[ ) ) ",
":.#.=.w.w.% p ;X/.H.F.!.:XaXzXfX).:XdX;Xk.~.N.H.g.d - ,.} [ { ;.",
":.+.>.w.w.% j >XK.b.m.;XiXgXaX7X=X2X,X!.k.C.D.N.a.s - w.9.} 1.#.",
"@.! =.q.>.  j :X'.v.'.wXgXhX8XE.iX#Xs.k.Q.C.C.G.u.r @ w...} 5./ ",
"O.C ` 3.1.% p 5X^..XsXlXxX1X7XpX@Xb.d.V.G.C.A.S.g.r @ W ] ^  .^ ",
"Z C _ ` P O p oX5XeXkXsXrXwXtX2X@XM.d.M.U.I.I.H.a.s e W { ^  .` ",
"7.*.#./ G   l 6XkXjXjXoX_.dX9XK./.h.d.M.U.Y.Y.P.a.s e ,.;.^ { 4.",
"%.o.G ;.q.. S fXkXpX].0XtX9X-Xb.H.Z.d.A.Y.I.Y.P.a.s @ E <./ #.7.",
"6.6.+.=.e.  A xXdX7X`.4XtX@X~.~.h.M.N.A.I.I.T.P.p.r @ T ;./ #.@.",
"/ ;.G ] q., A aX|.}.tX%XJ.L.d.y.f.N.B.C.I.A.T.b.f g 2 P ;./ @.%.",
"3.;.1.T ;.B B P 1X8X-X%XS.k.Q.C.N.C.B.D.I.S.b.u.r x V ;.{ ( / #.",
"( ! 6.+.=.1.F X 1XqXc.n.b.~.F.G.C.R.D.G.P.b.j.d t z T r.^ ^ { 4.",
"-.:.$.#.;.<.[ F . D XX:X#X~.F.D.H.L.J.g.j.p.r # z -.1./ { { ) 3.",
"+.1.1.+.;.;.| F 3 0 v m x.j.g.z.g.z.v.h r e y l V W 1.{ { ) ( 3.",
"=.;.1.+.] ;.| J N 8 ; + e a f i.i.i.h a + o 8 U k E q.=.;./ / 3.",
"<.<.<./ +.+.] J 8 0 6 6 + # e e r e e i : 5 7 w 9 P 1.=.:.#.o.4.",
"....{ ! +.#.=.K < 6 c c 6 & $ $ t # % 0 w q 4 7 N P 1.-.@.+.+.:.",
" . .#.o.o.$.@.R , , ; < 1 1 > . & & , 6 7 5 > 1 A =.1.+.:.:.#.;.",
";.&.O.Z Z *.*.+.P K D K P ] ^ X.( / ] ] L I L >.G ;.#.o.;.:.;.;.",
"#.#.O.Z Z *.*.) 1.1.0.1.1.<.' ' ' `  .;.1.1.>.=./ 4.#.o.;.4.;.;."
};
