/* XPM */
static char *MS_0[] = {
/* columns rows colors chars-per-pixel */
"32 32 140 2 ",
"   c #020200",
".  c #090600",
"X  c #060900",
"o  c #0C0B01",
"O  c #0A0509",
"+  c #0C0A0B",
"@  c #100F00",
"#  c #120F08",
"$  c #0E1200",
"%  c #0F100A",
"&  c #131301",
"*  c #131800",
"=  c #1C1E03",
"-  c #14140B",
";  c #19160F",
":  c #17190D",
">  c #19190D",
",  c #110F10",
"<  c #171614",
"1  c #181712",
"2  c #1A1A1B",
"3  c #201F0A",
"4  c #1F2302",
"5  c #1E220B",
"6  c #1E2012",
"7  c #222401",
"8  c #232904",
"9  c #282907",
"0  c #23260C",
"q  c #24290A",
"w  c #292C0A",
"e  c #2F320C",
"r  c #222514",
"t  c #262A12",
"y  c #292D14",
"u  c #27271F",
"i  c #2D3311",
"p  c #313411",
"a  c #343A16",
"s  c #393B17",
"d  c #34371C",
"f  c #3B3C1C",
"g  c #2E3120",
"h  c #343425",
"j  c #373A27",
"k  c #3F3F25",
"l  c #3E3D28",
"z  c #3B4218",
"x  c #3D4126",
"c  c #424226",
"v  c #42442D",
"b  c #4B4C2A",
"n  c #4B5322",
"m  c #545826",
"M  c #52542C",
"N  c #555B2A",
"B  c #595C2C",
"V  c #464530",
"C  c #464934",
"Z  c #494A35",
"A  c #535337",
"S  c #555C34",
"D  c #585A35",
"F  c #51543F",
"G  c #565C3A",
"H  c #5A5C3B",
"J  c #576027",
"K  c #5C6326",
"L  c #5C632C",
"P  c #5E682A",
"I  c #5E6333",
"U  c #5E6539",
"Y  c #606725",
"T  c #636A23",
"R  c #61672C",
"E  c #636B2C",
"W  c #686E2E",
"Q  c #626535",
"!  c #636B33",
"~  c #686E34",
"^  c #61643C",
"/  c #636B3C",
"(  c #696D3B",
")  c #677034",
"_  c #6B7233",
"`  c #67703A",
"'  c #6C733B",
"]  c #71763C",
"[  c #73793B",
"{  c #646644",
"}  c #646A44",
"|  c #6B6F44",
" . c #6B6F49",
".. c #6C7442",
"X. c #6B7249",
"o. c #707444",
"O. c #777C46",
"+. c #70774B",
"@. c #707849",
"#. c #696E50",
"$. c #87847F",
"%. c #898681",
"&. c #8C8983",
"*. c #8B8788",
"=. c #8D888F",
"-. c #918D8A",
";. c #98958E",
":. c #938F93",
">. c #949091",
",. c #9A9695",
"<. c #A29F96",
"1. c #A29F98",
"2. c #A9AAA2",
"3. c #B8BAAF",
"4. c #B8B9B3",
"5. c #B8B7BC",
"6. c #B8B8B9",
"7. c #C4C5BF",
"8. c #CCCEC1",
"9. c #CDCDCC",
"0. c #CED0C5",
"q. c #D3D5CD",
"w. c #D5D5D3",
"e. c #D6D6D8",
"r. c #D9D9DB",
"t. c #DFDEE4",
"y. c #EBECE7",
"u. c #EDEAED",
"i. c #F1EEE9",
"p. c #F3F3EB",
"a. c #F8FAEF",
"s. c #EBEAF0",
"d. c #F2EDF1",
"f. c #F5F4F4",
"g. c #F8F4F3",
"h. c #F7F8F2",
"j. c #FDFBF5",
"k. c #F6F4FD",
"l. c #FAF5FD",
"z. c #FEFDFE",
/* pixels */
"E ~ ~ ~ Q Q ~ ( Q ( Q Q ] ' R ~ B ' L / I | / } U ` ` E P ) ` / ",
"~ R R ~ ] ~ R Q Q Q B m B m m Q I ! Q / M } U F U ` ! P ) ! U U ",
"~ R K ! ( Q I ^ e e e s s p s f i w i e * q t a U / L P ) ! J / ",
"T E E R Q Q ^ H f f f V V l V V Z C F Z j g 6 h x } U J ) ) U ..",
"Y W W L Q  .H k @ &         .                 1 r } @.J P ) ! ..",
"Y R R W o. .c @   #         O     O     + + 2   : G @.! P P P ! ",
"W Y R ( ( b 3   1.g.z.z.z.z.z.z.l.z.z.z.k.f.t.2 X x S ) ) P L ! ",
"W W ~ | M 7     %.j.z.l.z.l.z.z.z.k.l.z.s.z.z.  X $ z ) ` ! P ) ",
"T T E R /     a.j.z.z.z.l.l.j.z.z.j.j.z.z.k.z.z.3.X 8 ) P P E ) ",
"W W Q L { .   j.j.z.j.z.z.z.p.z.j.p.j.j.z.z.z.z.3.  8 P P P P ! ",
"T W W B { .   j.j.z.z.j.i.*.1   X 6 3.a.z.z.z.z.3.  8 ) ! P E ! ",
"W E Q Q {     j.z.z.z.z.j.%.        7.j.z.z.k.l.4.  8 U P P P ) ",
"T W Q Q { .   j.z.z.l.z.z.-.# u - X q.z.z.z.z.z.6.  8 ! P P ! ) ",
"E E Q I {     z.l.z.z.z.z.*.  < X   0.z.z.z.z.k.6.X 8 / ! P ! P ",
"T R Q I {     l.z.z.z.l.l.=.O 2 < X 9.l.z.k.z.z.6.  q / ! P P ) ",
"W W W I { O   z.z.l.z.l.z.:.  , O   9.z.z.k.z.z.6.  q U ! P E E ",
"T T W Q ^     j.z.l.z.z.l.:.# # +   9.z.z.z.k.z.5.  t U U P E E ",
"T T W Q ^     j.z.z.z.z.j.=.. - O   w.z.k.z.k.z.5.  0 / ! P T E ",
"T T ~ Q ^     j.z.z.l.g.g.%.  - +   w.z.h.k.z.z.6.  0 } ! P E E ",
"T T ~ Q ^     j.j.z.z.z.z.;.  > X   0.j.h.z.z.f.6.  q U P T E E ",
"T T ~ Q ^     j.z.z.z.j.j.&.  - o o 0.j.p.j.z.z.6.X 8 / ! P P E ",
"W T ~ Q ^     j.j.g.z.z.g.&.      X 0.j.a.a.l.h.4.X 8 / ! P P E ",
"E Y ~ Q ^     j.l.l.z.z.d.:.+     % 8.h.z.j.z.h.3.  8 / E P E E ",
"E R ( ( ^     j.z.g.l.k.z.z.s.z.z.e.z.f.h.z.z.z.4.X 8 ` E P E E ",
"E ] Q | {   ; i.z.z.l.l.z.l.l.z.z.z.k.z.z.l.z.z.2.$ i ..J E E E ",
"K K L ( ^ @   h ,.u.z.l.z.z.z.l.z.k.l.z.f.z.r.  :   z U L P P P ",
"W K Q (  .H 3   1.g.z.z.z.z.z.l.z.z.z.z.y.z.y.%   x #.U ) ) ! ) ",
"[ R W Q Q  .A &   @                         % X $ #.X.m P P ) P ",
"W R Q Q I ^ D f o .     o             X $ X X 5 t } S J U P ) J ",
"Y R Y ( o.Q Q ^ = 9 7 7 9 7 w 4 0 0 w q 8 4 5 $ S } U / ) J ` ` ",
"Q ~ K R Q B Q B B ( Q D B B / J U U ` J n / X.S G U J J P P U ' ",
"E [ ~ ~ W ~ O.~ ! ( K ~ ~ K ) L | ` L U ` U U X./ @.` L ` ' L L "
};
