/* XPM */
static char *MS_1[] = {
/* columns rows colors chars-per-pixel */
"32 32 127 2 ",
"   c #040101",
".  c #090502",
"X  c #0C0A00",
"o  c #0B060D",
"O  c #0D0909",
"+  c #151305",
"@  c #1D1D03",
"#  c #14100F",
"$  c #1B190C",
"%  c #110C10",
"&  c #161114",
"*  c #191511",
"=  c #1E1B14",
"-  c #161118",
";  c #18131A",
":  c #1F1B1A",
">  c #211F12",
",  c #221E1A",
"<  c #1F2100",
"1  c #232306",
"2  c #262803",
"3  c #2D2F07",
"4  c #27270F",
"5  c #272809",
"6  c #2A2A0D",
"7  c #242314",
"8  c #282713",
"9  c #2D2D13",
"0  c #25211B",
"q  c #2A271E",
"w  c #2D2C1D",
"e  c #302E1D",
"r  c #2F3010",
"t  c #313214",
"y  c #363810",
"u  c #34341B",
"i  c #3A3B1D",
"p  c #1D1721",
"a  c #252024",
"s  c #292622",
"d  c #2D2927",
"f  c #312F24",
"g  c #302C29",
"h  c #353323",
"j  c #383724",
"k  c #3B3B23",
"l  c #35322B",
"z  c #39372B",
"x  c #3E3C2C",
"c  c #3A3733",
"v  c #3D3A34",
"b  c #403E2F",
"n  c #413F32",
"m  c #423E3D",
"M  c #3F4217",
"N  c #3F411C",
"B  c #3F4020",
"V  c #43451C",
"C  c #434423",
"Z  c #464822",
"A  c #4D4F27",
"S  c #43432D",
"D  c #4D4E29",
"F  c #4D5024",
"G  c #4F502E",
"H  c #585D27",
"J  c #53552D",
"K  c #56592C",
"L  c #5A5E2D",
"P  c #444234",
"I  c #484735",
"U  c #4B4A36",
"Y  c #444139",
"T  c #49473B",
"R  c #4C4B3A",
"E  c #504E3F",
"W  c #4F5030",
"Q  c #545531",
"!  c #5A5D33",
"~  c #56563C",
"^  c #5A5C3A",
"/  c #5E6424",
"(  c #5E632B",
")  c #5E6232",
"_  c #5F613A",
"`  c #616726",
"'  c #636B25",
"]  c #61662B",
"[  c #656B2C",
"{  c #686E2D",
"}  c #69702D",
"|  c #626634",
" . c #656A32",
".. c #686E33",
"X. c #62653C",
"o. c #66693B",
"O. c #696C3D",
"+. c #6B7134",
"@. c #454140",
"#. c #4D4A41",
"$. c #514F42",
"%. c #535145",
"&. c #585742",
"*. c #636540",
"=. c #676941",
"-. c #6A6C42",
";. c #686949",
":. c #6F7244",
">. c #6F6F57",
",. c #847E88",
"<. c #8E8B85",
"1. c #8B868C",
"2. c #8F8A8B",
"3. c #918E87",
"4. c #908C8B",
"5. c #8F8991",
"6. c #918C92",
"7. c #E3DDE7",
"8. c #E7E2E6",
"9. c #FAF7EE",
"0. c #F4EFF4",
"q. c #F5F0F4",
"w. c #F9F5F6",
"e. c #FEFBF5",
"r. c #F7F1FB",
"t. c #FBF6FD",
"y. c #FFFDFD",
/* pixels */
" .....] ] { +.[  .-.-._ :.| H  . .| o.-.;.-.o. .o.+./ ' +.( [ ) ",
" .O.+.] ' [ [ | o.o.! Q _ _ ) O.:.) K Q _ _ ! L ( +./ ] +./ | [ ",
"[ .. .` /  . .! 3 i r k k u t r r u u 9 9 5 2 y F  .] [ ..H `  .",
"]  .[ / ` [ | L u S x %.T P I R B I #.P P j 4 t V  .[ ..[ / [ [ ",
"[ [ ] / ]  .) Q 9 v v v & o     .   . o a Y d < i |  . .[ / [ [ ",
"[ [ [ / [ o.) Q l B v %   -     o   -     g v u i | | [ [ ( ..[ ",
"[ [ [ '  .+.) W h Y m   p 7.y.y.y.t.y.5.% : l 8 N o. .' [ ' } ] ",
"[ } [ ] [ O.) W 8 Y @.  o t.y.q.t.t.y.1.  & l 9 C O. ./ [ ' +.] ",
"{ ' ] [ /  .| D u n v o   y.y.y.y.y.y.1.  s l 1 C o.[ [ ../ [ [ ",
"{ ] ' ' /  . .A t P v     y.y.y.y.y.y.<.  q j 1 V  . .[ { / [ [ ",
"[ ` [ ' / .. .F r U I .   y.e.e.e.e.y.<.  w B r V  . .[ } / } [ ",
"{ ' ] ' `  .| F y R T .   e.e.9.9.9.e.<.. h I i V  .[ [ } / [ [ ",
"[ ] [ ' ` [ | F t I n     y.y.e.e.e.y.<.. q S k V o.[ [ } / ' ' ",
"[ ' ' ] `  .| A 5 j h     y.y.y.y.y.y.3.  = u t V  . .[ } / [ } ",
"{ ` ' [ (  .o.A 9 w s     y.y.y.y.y.y.2.  * w 9 V o. .[ } / [ [ ",
"{ ` ' ' ` [ | A k h 0     t.0.t.y.t.t.1.  * h u C o.[ [ } / [ { ",
"' ' ' ' ' ]  .o.;.&.q   X y.y.y.y.t.y.5.  : %.>.;.-.[ / [ [ / [ ",
"' ' ' ' ' ]  .X.^ T 8   . e.y.y.y.t.y.5.  * B &._ O. .] [ ] / [ ",
"} } [ [ [ [ | X.S x ,     y.y.y.y.e.y.2.  + w i J o.[ / ' ` / [ ",
"{ { ]  . .| o.&.h x ,     y.y.y.y.e.y.<.  + 8 1 Z ) ../ ' ` / } ",
".. .| |  .o._ ^ j P s     y.y.e.e.e.e.3.  $ 8 5 M ( ..` ' ' / } ",
".. .] [  . .! Q k T l .   y.y.w.e.y.y.3.  7 u r M ( ../ ' [ ] ..",
"{ ' ` ` {  .L J k R c     y.y.w.e.y.y.2.  7 z i V | ../ ` } [ [ ",
"{ ` ` [ [  .H J u U z     y.y.y.e.y.y.1.  0 x k Z o.[ / ` } [ } ",
"' ' } ' ' } ] K C P #.    y.w.y.y.t.t.1.. d &.h D X...( [ ' / [ ",
"' ' ' ` ' [ ) J i $.#.    y.y.q.t.r.y.1.  : T P S ) O.` [ ' ' [ ",
"' { ' ' `  .( J 4 P c o O 8.y.y.y.y.t.5.a d n S V ) ..[ [ ' / ..",
"[ } [ ' ( [ ! J u x l ;   * .       %     , h i N ! O.[ [ ] ( [ ",
" ...[ ( `  .| K 5 e e B + .         X X = z u r V ( ..] [ ] / ..",
" ... .( `  .| ! 2 5 < @ + @ 1 1 1 @ < @ 1 6 2 < A [ ..' [  .( [ ",
" ...[ ] ] +...) ) _ _ ^ o.-.o.K _ ) =.X.^ _ X.| H ..[ / [ ..| [ ",
" . . .` [ +.+. .o.) -._ o.)  .O. .o.:.:.X.o.=.( ( +.] / [ +.|  ."
};
