/* XPM */
static char *MS_2[] = {
/* columns rows colors chars-per-pixel */
"32 32 137 2 ",
"   c #030201",
".  c #090504",
"X  c #0B0B01",
"o  c #030009",
"O  c #0A050A",
"+  c #0C0A0B",
"@  c #110F04",
"#  c #110D0C",
"$  c #131401",
"%  c #131800",
"&  c #1A1A03",
"*  c #17160A",
"=  c #17190D",
"-  c #1C1A0C",
";  c #110C12",
":  c #181413",
">  c #1B1B1A",
",  c #1F2200",
"<  c #242503",
"1  c #232A03",
"2  c #2A2C07",
"3  c #24250A",
"4  c #25290C",
"5  c #292F0D",
"6  c #2D330F",
"7  c #33350E",
"8  c #232313",
"9  c #262A12",
"0  c #282619",
"q  c #323313",
"w  c #32371A",
"e  c #3B3C1C",
"r  c #2E3120",
"t  c #343722",
"y  c #373A27",
"u  c #383629",
"i  c #3E3D28",
"p  c #3D3A33",
"a  c #3F3B3B",
"s  c #403C3B",
"d  c #3E4114",
"f  c #3B4218",
"g  c #3D4126",
"h  c #51561E",
"j  c #545A1C",
"k  c #585F1C",
"l  c #404025",
"z  c #43422B",
"x  c #4D5025",
"c  c #4E502B",
"v  c #515620",
"b  c #565B24",
"n  c #595F22",
"m  c #50522B",
"M  c #555A2A",
"N  c #5A5E2D",
"B  c #444332",
"V  c #464934",
"C  c #494B36",
"Z  c #42423A",
"A  c #575E34",
"S  c #5A5C34",
"D  c #51543F",
"F  c #565C3A",
"G  c #5B5D3A",
"H  c #5C6324",
"J  c #5D632C",
"K  c #5E682B",
"L  c #5D6333",
"P  c #5F6738",
"I  c #636A25",
"U  c #61662C",
"Y  c #636B2D",
"T  c #686E2D",
"R  c #687027",
"E  c #6A712D",
"W  c #626534",
"Q  c #646B33",
"!  c #696E33",
"~  c #62653B",
"^  c #656A3B",
"/  c #696D3B",
"(  c #677035",
")  c #6C7234",
"_  c #6C723B",
"`  c #737A37",
"'  c #747A3C",
"]  c #5C5C44",
"[  c #616444",
"{  c #646945",
"}  c #696C43",
"|  c #626248",
" . c #68694B",
".. c #6D7341",
"X. c #717542",
"o. c #747942",
"O. c #787D45",
"+. c #717549",
"@. c #747A49",
"#. c #767851",
"$. c #7B7E51",
"%. c #8B8784",
"&. c #8C8984",
"*. c #94928D",
"=. c #989491",
"-. c #A09E91",
";. c #A6A39A",
":. c #ADAB9F",
">. c #B3AFAE",
",. c #B8BAAF",
"<. c #B9B9B3",
"1. c #B9B7BA",
"2. c #B8B8BA",
"3. c #C2C4B7",
"4. c #CDCAC1",
"5. c #CFCFCD",
"6. c #D2D3CB",
"7. c #D7D9CB",
"8. c #E2DEDB",
"9. c #E4E2DC",
"0. c #DFDEE4",
"q. c #EFECE5",
"w. c #E8E2EC",
"e. c #EDEAEC",
"r. c #F2EEEC",
"t. c #EFF0E8",
"y. c #F5F3E7",
"u. c #F4F2EC",
"i. c #EBEAF0",
"p. c #F2EEF1",
"a. c #F2EFFA",
"s. c #F4F2F3",
"d. c #FAF5F5",
"f. c #FCFBF5",
"g. c #F6F5FB",
"h. c #FAF6FC",
"j. c #FFFDFE",
/* pixels */
"^ W ! ! H k I T ! Q / W W W U J J _ J ^ L { P { P ^ ( ( K ( { ^ ",
"/ J U ! ! ! / U W W ~ ~ W W W W L W P ^ M [ L F { ^ K K ( K P P ",
"W N _ ! b U W M 7 7 q q q q q 7 6 5 6 5 % 9 9 w A ^ K K ( P A ( ",
"Q J _ U h ~ ^ S l l s s B B B V C V D C y r 8 t g { ^ M ( ( K ..",
"Q U ! Q / S $       o . . . . .               = 9 { @.K K ( K ..",
"U ! / Q ^ 2   *     o o                 + + >   = F +.P K K K ( ",
"U ! J M S $ - q.j.j.j.j.j.j.j.j.j.j.j.j.g.a.0.> X f F ( ( K K P ",
"U U H / } .   f.j.j.h.h.j.h.h.h.j.g.g.j.i.j.j.    X f ( ( K K ( ",
"U ) / / } .   f.j.j.j.j.j.j.j.u.f.j.f.t.j.g.j.g.,.. 1 ( K K K ( ",
"' W U / ~   X y.j.h.h.h.h.j.j.f.f.t.j.j.j.j.j.j.,.. , ( K K K ( ",
"U U W W ~ <   8 .   o o     .     X 3.y.j.j.g.g.,.  1 P K K K ( ",
"/ Q / N W S &       . +       .     7.f.s.j.g.j.,.  1 ( K K K ( ",
"@.b W / W L W ] u p s s s s a Z =   6.f.h.j.g.j.2.  1 ( Y K K ( ",
"/ M ^ _ W ~ N s @ @ o   o O       X 7.g.g.j.h.j.2.  1 P Y K K ( ",
"/ / / J W @.c .   @ #   o O o     > 5.j.j.j.h.g.2.  4 ^ P K K ( ",
"! U N W W x 3 . -.9.j.j.h.j.j.j.j.i.j.s.j.j.j.j.2.  , { Y K Y P ",
"E H H Y W ,   - =.u.f.j.j.u.h.r.j.j.s.j.j.a.j.j.>.* < ^ ^ Q M ^ ",
"I R E ' W . - 9.h.j.j.j.f.y.j.j.d.j.j.j.p.j.w.  X   e } W / ~ / ",
"I E k W P     j.j.j.h.j.j.f.u.j.j.d.j.j.e.j.e.#   i  .W J U ! X.",
"U ) b L #.X   s.j.h.j.f.t.&.X   #     X o   ;   0 ] ~ M / ! U U ",
"U ! Q ! } X X j.j.j.h.h.f.=.      X     .   O : 0 | ~ b T T H I ",
"Y U W W L     j.h.j.d.d.f.*.  .   . . .   . O   @ z } T n H I T ",
"T I U ! +.. . j.h.j.j.j.d.&.#   O           O   @   e ! I T U ! ",
"I ' ) b ^ X   f.j.j.r.f.j.h.h.j.j.j.h.d.j.j.h.j.:.$ < U T T N ! ",
"Y U T U } .   f.j.j.j.j.j.j.h.j.j.j.j.j.j.j.j.j.<.  < _ I ! U U ",
"T n Q / W     f.j.j.j.j.j.j.j.j.j.j.j.j.j.j.j.j.3.. $ / W U N X.",
"o.N U ! S X & 9.j.j.j.j.j.j.j.j.j.j.j.f.j.j.j.j.:.& 2 / Q I M / ",
"/ W / ~ L <   -                                 @   7 M J / / ..",
"J W U U ~ m $     . .   . .     .   .   . . .   . e / Q U ! J N ",
"/ Q J N J ~ } [ 3 < < < < < 3 < < < 1 1 3 8 8 8 s [ / Q / T Q _ ",
") _ T T I b W N S N N H H M M J N N N S G G ] ] N W h j I H H T ",
"Y ! H I T ) O.U ^ ! ! T E T ! ! / ! / / ~  . . .} $.T I ` ) ! U "
};
