/* XPM */
static char *MS_3[] = {
/* columns rows colors chars-per-pixel */
"32 32 158 2 ",
"   c #030100",
".  c #090601",
"X  c #060900",
"o  c #0C0B02",
"O  c #04010B",
"+  c #0C0B0C",
"@  c #100F00",
"#  c #120E0B",
"$  c #131302",
"%  c #181705",
"&  c #141A00",
"*  c #191804",
"=  c #16130B",
"-  c #18160C",
";  c #17190E",
":  c #1D1C0A",
">  c #100E11",
",  c #100E1B",
"<  c #161410",
"1  c #181511",
"2  c #1D1912",
"3  c #1B161D",
"4  c #1A1A1A",
"5  c #201F0D",
"6  c #221F14",
"7  c #201D18",
"8  c #232503",
"9  c #272904",
"0  c #292C05",
"q  c #24230B",
"w  c #262B0C",
"e  c #292F0D",
"r  c #2E320D",
"t  c #30320D",
"y  c #252613",
"u  c #262A10",
"i  c #2C2C10",
"p  c #242618",
"a  c #323414",
"s  c #373914",
"d  c #3A3C17",
"f  c #33341C",
"g  c #38381C",
"h  c #302E23",
"j  c #2E3120",
"k  c #343421",
"l  c #373A27",
"z  c #35322B",
"x  c #39362D",
"c  c #3D3B2C",
"v  c #403D36",
"b  c #3E451B",
"n  c #3D4126",
"m  c #3F4328",
"M  c #52571F",
"N  c #515B1E",
"B  c #585F1C",
"V  c #5A611E",
"C  c #404026",
"Z  c #43422D",
"A  c #4A4B2B",
"S  c #4E5122",
"D  c #4E502B",
"F  c #525723",
"G  c #565B23",
"H  c #595E24",
"J  c #52542D",
"K  c #555A2A",
"L  c #5A5E2C",
"P  c #444333",
"I  c #464934",
"U  c #4A4C34",
"Y  c #464739",
"T  c #48453E",
"R  c #545437",
"E  c #555832",
"W  c #5A5D32",
"Q  c #54563C",
"!  c #555A3A",
"~  c #5A5F3A",
"^  c #576126",
"/  c #5C6325",
"(  c #5D632B",
")  c #5F692C",
"_  c #5D6332",
"`  c #5F6831",
"'  c #5F633A",
"]  c #616727",
"[  c #646C26",
"{  c #61662D",
"}  c #636A2D",
"|  c #696F2F",
" . c #6A712E",
".. c #616534",
"X. c #646B33",
"o. c #686E34",
"O. c #62653B",
"+. c #656B3B",
"@. c #696D3A",
"#. c #667032",
"$. c #6B7235",
"%. c #6C723B",
"&. c #6F793B",
"*. c #747B35",
"=. c #71763D",
"-. c #72783A",
";. c #5D5D43",
":. c #5C6240",
">. c #636643",
",. c #656C42",
"<. c #696D44",
"1. c #6C6E4C",
"2. c #6D7142",
"3. c #6F714A",
"4. c #787C4A",
"5. c #7F8176",
"6. c #999691",
"7. c #9A9A9B",
"8. c #A49FA3",
"9. c #ACABA5",
"0. c #AEAAA9",
"q. c #B4B1AC",
"w. c #B7B9AE",
"e. c #B5B3B3",
"r. c #BEBAB7",
"t. c #BAB5BB",
"y. c #BCBCBA",
"u. c #BFC1B6",
"i. c #C4C2B6",
"p. c #C3C0BB",
"a. c #CBCDC3",
"s. c #CFCFCD",
"d. c #D2D0C4",
"f. c #D6D3CA",
"g. c #D7D9CB",
"h. c #D9D5D2",
"j. c #E3E0D7",
"k. c #E5E6DE",
"l. c #F0EEDF",
"z. c #D5D3E0",
"x. c #DCD6E2",
"c. c #DFDEE4",
"v. c #EFECE3",
"b. c #EBE6EB",
"n. c #EDEAEC",
"m. c #F7F5E9",
"M. c #F8F5EC",
"N. c #F7F9EE",
"B. c #E5E0F4",
"V. c #EDE7F3",
"C. c #EDEBF1",
"Z. c #F3EEF4",
"A. c #F5F5F4",
"S. c #F9F6F5",
"D. c #FEFDF5",
"F. c #F6F4FB",
"G. c #FAF5FE",
"H. c #FFFCFE",
/* pixels */
"+...@.o./ B ] o.o.o.X.....@...{ ( %.^ +._ ,.:.,.,.` ) #.#.#.+.,.",
"@.( ] o.| o.@.{ ..X.O.O.......( _ +.' +.K :.' ! +.+.` ) ` ` ` ` ",
"O.L %.@.G ] ..K 0 t a a a a a s a u r e & u u a ! ,.` ^ #.` _ +.",
"X.( %.] F O.+.W v v v v v P Z Z I m ;.U n j p k m ' ` ^ #.` ^ ,.",
"@.] @...@.W *         . .   . .               ; j :.,.` #.#.^ ,.",
"{ } $.X.O.0   %   O . O O         O     + + 4   p ! ,.#.#.) ^ ` ",
"] | ( H W $ 5 v.H.H.H.H.H.H.H.H.H.H.H.H.F.Z.c.4 X m ,.#.) ) ` ) ",
"] { / @.@.    D.H.H.G.H.G.H.H.H.H.F.F.H.C.H.H.O X e ! #.) ) &.` ",
"[ $.] X.O..   D.H.F.H.G.H.S.D.D.D.A.H.A.H.H.F.7.5.X b #.^ ) ) ) ",
"| o.} H K $ 8 l.D.H.H.F.H.D.D.D.D.k.D.H.F.F.H.A.w.X e ` #.) ) ) ",
"| | o.@.@.0 . *   . .   .   . X   $ a.D.H.H.H.H.u.  8 ` #.#.#.#.",
"%.( ] o.@.K $     o             X o g.N.N.H.H.H.9.X a %.) ) ` ^ ",
"o.H o.] G ..O.R k v x v v v x Y $   a.H.H.H.F.C.e.X w ` ) ) #.#.",
"o.H o.o.H { W A w f h h 7 7         a.H.F.F.H.H.s.X & _ #.` ) &.",
"$.H H } o.=.@.W f k 6 #   . +     < y.H.F.H.H.z.7.o a ` #.^ N ) ",
"} o.| ] { } ..W s f 6 # 7 8.G.H.H.n.H.H.F.H.B., > X U +.^ #.#.&.",
"=.o.] } } o...' >.;.5 2   t.H.Z.H.D.H.H.H.H.G.O   Y >.G =.] H $.",
"L @.@.{ { @.....' R * %   e.H.H.D.D.D.S.H.H.G.O . v 1.( o.[ [ ] ",
"H ] { ( ..@...W t g @ 6 2 0.b.H.D.m.D.H.H.H.V.3 =   d K ] [ -.| ",
"=.} } ..L L O.O.A R y -   # .     % i.D.H.H.H.b.6.@ e @.@.H [ { ",
"o.] o.@.K W O.A f Z h h = -         d.D.S.H.b.H.p.  5 @...] =.=.",
"] H ] ....J 8                 . .   f.S.H.H.V.H.q.. 0 ( M H } H ",
"$.$.] X.<.8   %               +   < h.H.H.H.G.H.q.  s O.} o.@.@.",
"V | G @.O.  $ M.H.D.H.H.H.D.H.S.H.b.H.H.H.V.H.G.r.  8 ..@.@.K =.",
"[ [ } ..<..   D.H.H.H.H.H.H.H.H.G.H.G.H.H.G.H.H.9.@ t %.( o...X.",
"[ V } 2.O.    D.H.H.H.H.H.H.H.H.H.G.G.H.F.G.x.. 1   s ..( ......",
"*.V [ X.W . - j.D.H.H.H.H.H.H.H.H.H.H.H.V.H.Z.#   Z 1.@.o.o...@.",
" .[ o.X.~ 9   :                   .         # . @ 1.<.G { { @.X.",
"V { } ] O.J $     .   .     .     .   . @ . . 5 i O.L G } ( o.W ",
"| [ L ( ..O.<.>.8 8 8 8 9 8 9 9 8 9 9 9 5 9 q @ E @.( | o./ o.@.",
"$.-.o.o...K ..L W W W L L L L L { ..X.L S O.3.E ..../ V ] ] o.2.",
"] | / { @.=.4.L @.@.@.o.@.@.o.@.o.} { X.@.....3...=. .V | $.L .."
};
