/* XPM */
static char *MS_4[] = {
/* columns rows colors chars-per-pixel */
"32 32 164 2 ",
"   c #020200",
".  c #080600",
"X  c #070B00",
"o  c #0A0B02",
"O  c #03010A",
"+  c #0D0C0B",
"@  c #100C0B",
"#  c #0E1100",
"$  c #121300",
"%  c #171B02",
"&  c #1E1F03",
"*  c #15140C",
"=  c #1C1C0D",
"-  c #0A0712",
";  c #0D0913",
":  c #0F0B19",
">  c #120F16",
",  c #100E19",
"<  c #141314",
"1  c #1A1613",
"2  c #1B1B13",
"3  c #17141B",
"4  c #18181B",
"5  c #1D2201",
"6  c #222603",
"7  c #232906",
"8  c #23270D",
"9  c #25290A",
"0  c #2B2D0B",
"q  c #2C320C",
"w  c #31330F",
"e  c #252318",
"r  c #28261C",
"t  c #2B291D",
"y  c #2D3113",
"u  c #2D311A",
"i  c #353616",
"p  c #323910",
"a  c #34341D",
"s  c #363C1A",
"d  c #3B3B1F",
"f  c #252321",
"g  c #292724",
"h  c #2E2C25",
"j  c #23202B",
"k  c #2D2C2D",
"l  c #312E23",
"z  c #332F2C",
"x  c #343323",
"c  c #383725",
"v  c #3A3B24",
"b  c #35342B",
"n  c #39372A",
"m  c #3A382C",
"M  c #282432",
"N  c #3D3A33",
"B  c #38353E",
"V  c #413F30",
"C  c #3F4523",
"Z  c #515B1E",
"A  c #5C631D",
"S  c #404620",
"D  c #404028",
"F  c #454A2C",
"G  c #4E5624",
"H  c #515425",
"J  c #515A21",
"K  c #585D25",
"L  c #52532E",
"P  c #555B2A",
"I  c #5A5E2D",
"U  c #444433",
"Y  c #494A34",
"T  c #46433D",
"R  c #49473C",
"E  c #47483A",
"W  c #4B4B3A",
"Q  c #504F3D",
"!  c #4D5138",
"~  c #545532",
"^  c #565B32",
"/  c #5B5D36",
"(  c #5A5C3A",
")  c #576026",
"_  c #5D6425",
"`  c #5D642C",
"'  c #5E6829",
"]  c #5D6233",
"[  c #5F6832",
"{  c #5C633B",
"}  c #616727",
"|  c #646B25",
" . c #60662A",
".. c #636B2B",
"X. c #696F2F",
"o. c #6B722C",
"O. c #626536",
"+. c #636A33",
"@. c #686D34",
"#. c #63663A",
"$. c #636A3C",
"%. c #696D3A",
"&. c #677034",
"*. c #6A7134",
"=. c #67703B",
"-. c #6B723A",
";. c #6F793B",
":. c #727B3D",
">. c #464541",
",. c #494641",
"<. c #4B494A",
"1. c #504D44",
"2. c #575654",
"3. c #646741",
"4. c #646941",
"5. c #696E42",
"6. c #656B49",
"7. c #696A48",
"8. c #6C7344",
"9. c #6C7248",
"0. c #707942",
"q. c #72794F",
"w. c #788051",
"e. c #8C8984",
"r. c #8F8B8C",
"t. c #928F88",
"y. c #95928D",
"u. c #8C8694",
"i. c #918B99",
"p. c #9E9B94",
"a. c #979299",
"s. c #9E9A99",
"d. c #A3A599",
"f. c #B8B9B2",
"g. c #B8B7BD",
"h. c #B9B9BA",
"j. c #C1C2B9",
"k. c #C4C4C2",
"l. c #CCCEC3",
"z. c #CED0C3",
"x. c #D2D3CB",
"c. c #D6D8CB",
"v. c #D0CFD4",
"b. c #D2D1D6",
"n. c #D6D5DA",
"m. c #DFDFDD",
"M. c #E6E3DA",
"N. c #E3E3E5",
"B. c #EFECE3",
"V. c #EAE5EB",
"C. c #EEEAE9",
"Z. c #F3EFEC",
"A. c #EFF0E8",
"S. c #F1F1E5",
"D. c #F2F2EE",
"F. c #F7F9ED",
"G. c #F8FAEF",
"H. c #F0EFF7",
"J. c #F5F4F4",
"K. c #F9F5F5",
"L. c #FDFCF5",
"P. c #F6F4F9",
"I. c #FBF6FC",
"U. c #FEFDFD",
/* pixels */
"..+.@.@. .K  .%.O.-.@.O.*.*. .%.%.%.+.0.] 8.$.4.q.8.[ =.;.=.w.Z ",
"@._  .@.%.%.%.O.O.%.] P I ] I I ^ / P O.G { { { { 9.$.[ ) ) =.=.",
"..K -.%.K O.#.~ w 0 0 6 0 i w w u i 5 q 5 5 0 0 C { [ [ &.+.' [ ",
".._ -. .H #.3./ d d U U R Q V Q E U v Y C C v u ! 6.9.[ [ ;.[ =.",
".. .@.%.3.^ $ . .       . 1 f 2.<.f + X         X y 9.=.' &.' &.",
"} +.@.#.7.0 . *       O ; O O B j   < +         X X C $.` =.' Z ",
"+.X. .^ ( $ = B.U.U.U.U.I.u.: M : , g.U.U.U.U.U.d.# q [ ) ;.;.&.",
"}  .I %.7.    L.U.I.I.I.U.i.O j - - n.U.J.U.I.U.j.  5 9.' ' ' ' ",
"X.@.O.O.3..   L.U.U.U.I.U.a.  k , + j.U.U.U.U.U.f.  7 $.[ ' ....",
"} ..O.I 3..   L.K.U.U.I.U.r.  g + X x.L.U.L.P.L.f.  7 $.[ ' ....",
"| ..X.O.3.    L.K.U.U.U.U.e.  b 2   x.L.F.U.U.U.f.  7 $...' ....",
"| | +.I 3..   L.Z.U.U.L.U.t.  h *   z.L.F.U.L.H.f.  7 { [ ' ....",
"| | .. .3..   L.U.U.U.K.U.y.. e 2   x.L.J.U.U.U.g.X 7 $.[ ' ....",
"o.| +./ 3..   L.K.I.I.I.K.e.      X x.U.J.U.I.I.g.X 8 4.[ ' ....",
"| | |  .#..   L.K.U.U.U.K.y.1     4 k.U.U.U.U.I.g.  8 4.&.' ' o.",
"| | X. .3..   L.U.U.I.P.U.U.D.U.U.N.U.U.P.H.U.U.g.  8 =.' ' ' ' ",
"| :.@.@.#.. $ M.K.U.U.I.U.U.K.U.I.U.U.J.U.U.I.U.g.  8 4.[ ' ....",
"_ _  .@.O.$ . r s.V.U.U.U.U.U.F.L.P.U.P.U.U.U.U.g.  8 4.[ ' ....",
"} K ..%.%.^ &   s.Z.U.I.K.U.L.S.U.A.U.L.J.K.U.U.h.  8 { [ ' ....",
"X.| @. .I 5.~ $   @ @       . .   * j.G.U.U.U.P.f.  8 $.[ ' ..| ",
"} | o...} O./ d # .   . .     .   o c.L.L.U.U.U.f.X 7 $.' ' ..&.",
"Z o.} X.%.%.#.( a V n t l c a x     z.G.L.U.U.K.f.X 7 4.[ ' ' ..",
"| o.A A } K / L d R V e r x x x 2   x.A.L.U.U.U.f.  7 [ ' ' ....",
"A o.| A _ @.%.L V V l f l l l n +   m.K.U.U.D.U.f.  7 =.&.' ....",
"| | o.} ..@.O.~ V U R N g g g f > O b.U.H.U.U.L.f.  5 9.` +...' ",
"| o.| } } @.] ~ a V R V z z z z O O v.U.U.U.U.U.l.X % [ [ ' ) ;.",
"} ..| } } O.I ~ V Y 1.,.V ,.,.,.3 4 k.D.U.U.I.L.d.% 7 =.&.' Z &.",
"X.@.X. .}  . .L 0 a n x z m m z <   *     X     #   p P ' &.+.;.",
"O.@.X.} } X.I P 0 i a a a c c x U 2 #   X X   # X s 4.[ ` [ ' ) ",
"O.O.X.} } @.X.I & 6 9 6 6 7 6 5 5 5 7 7 7 5 5 5 C { =.&.=.&.&.=.",
"%.%.O. ...@.O. .I #.O./ / O.] ) { 5.{ +.[ ] { { ^ 4.G Z ' ' ` [ ",
"#.%.O. .X.@.*.X. .+.#.O.O.%.@.] [ 8.) [ [ [ 4.{ 4.w.[ ' w.=.=.{ "
};
