/* XPM */
static char *MS_5[] = {
/* columns rows colors chars-per-pixel */
"32 32 147 2 ",
"   c #030201",
".  c #090503",
"X  c #060801",
"o  c #0B0A01",
"O  c #050009",
"+  c #080309",
"@  c #0D0A0A",
"#  c #110E05",
"$  c #120F0B",
"%  c #0E1200",
"&  c #0F100A",
"*  c #131201",
"=  c #131800",
"-  c #1B1C00",
";  c #13140B",
":  c #19170A",
">  c #1B1B0D",
",  c #100B11",
"<  c #1A1915",
"1  c #1E2304",
"2  c #1E220B",
"3  c #232503",
"4  c #242905",
"5  c #2B2D05",
"6  c #24240C",
"7  c #252A0A",
"8  c #2B2B0B",
"9  c #2D3005",
"0  c #2F320E",
"q  c #30310F",
"w  c #232114",
"e  c #292D14",
"r  c #2F2E1A",
"t  c #2E3411",
"y  c #313513",
"u  c #343A16",
"i  c #33331C",
"p  c #302C29",
"a  c #373525",
"s  c #363A21",
"d  c #3B3A26",
"f  c #353229",
"g  c #393532",
"h  c #3F3C36",
"j  c #403F2B",
"k  c #433F3C",
"l  c #3E4224",
"z  c #3F432B",
"x  c #434619",
"c  c #484B1E",
"v  c #555C1E",
"b  c #5D641D",
"n  c #60681D",
"m  c #41442E",
"M  c #4D5524",
"N  c #4D512E",
"B  c #565D24",
"V  c #585E25",
"C  c #50522D",
"Z  c #555D2B",
"A  c #5B5E2D",
"S  c #444633",
"D  c #4A4934",
"F  c #555634",
"G  c #555B34",
"H  c #5A5D34",
"J  c #555B39",
"K  c #5A5D39",
"L  c #576024",
"P  c #5D6424",
"I  c #5D6826",
"U  c #5C642B",
"Y  c #5F692A",
"T  c #5D6433",
"R  c #5E6339",
"E  c #606626",
"W  c #636D25",
"Q  c #61662B",
"!  c #626B2C",
"~  c #686F2D",
"^  c #6C7427",
"/  c #66712F",
"(  c #6B732C",
")  c #626634",
"_  c #646B33",
"`  c #686D35",
"'  c #61653A",
"]  c #646B3B",
"[  c #686C3D",
"{  c #677134",
"}  c #6C7333",
"|  c #6D7836",
" . c #677039",
".. c #6C723B",
"X. c #6F7A38",
"o. c #717737",
"O. c #727936",
"+. c #71763B",
"@. c #74793D",
"#. c #4F4C47",
"$. c #575641",
"%. c #626544",
"&. c #636A41",
"*. c #696A45",
"=. c #666C48",
"-. c #6A6E49",
";. c #6C7343",
":. c #6B7249",
">. c #727742",
",. c #727942",
"<. c #787B4E",
"1. c #696E50",
"2. c #82837D",
"3. c #878880",
"4. c #8C8D88",
"5. c #91928A",
"6. c #9E9A97",
"7. c #9B9A9F",
"8. c #A29E9B",
"9. c #A6A39E",
"0. c #ABA99D",
"q. c #A9AAA2",
"w. c #AFAFAD",
"e. c #B6B7AF",
"r. c #B6B7B1",
"t. c #BCBDB4",
"y. c #C4C2BC",
"u. c #C7C9BE",
"i. c #C0C0C0",
"p. c #CBCDC2",
"a. c #DDDFD2",
"s. c #DCDADA",
"d. c #E3E0DB",
"f. c #E5E6E1",
"g. c #EAE6E5",
"h. c #EBECE5",
"j. c #EFEEEB",
"k. c #F1EDEC",
"l. c #F0F2E7",
"z. c #F7F9EE",
"x. c #EDEBF5",
"c. c #F5F5F4",
"v. c #FAF6F4",
"b. c #FCFCF5",
"n. c #F6F6FB",
"m. c #FAF7FC",
"M. c #FEFDFE",
/* pixels */
"! _ { { U L T  . .{ T { / T ! T / T _ _ _ _ ` ) @.} n ^ ^ } @.V ",
"{ L U { _  . .T R T T R T T R R U G H U A ) ) ) Q } ^ W n v ` +.",
"! L .. .Z T R U 0 t t t t u u u y y 0 8 8 4 3 3 c A E n ~ W Q Q ",
"Y I  .U M &.&.J l z z z z z z z D D S j d a i i C [ o.E W O.Q } ",
"/ U { T &.G = X             X X         . . . . . q ..~ E ~ E ~ ",
"Y /  .R &.7   ;       O O O O O                 o . x ) E } E v ",
"Y / U T R % 2 h.M.M.M.M.M.M.M.M.M.M.M.M.M.M.m.m.8.* 5 Q V o.} ~ ",
"Y Y U R =.    b.M.M.M.M.M.m.m.m.m.m.M.m.m.M.M.M.y.. 3 +.E W E ~ ",
"! ! ] T &.    b.b.n.M.M.m.M.M.M.m.M.M.m.m.M.M.m.y.  - ..A E E E ",
"! ! T T &.X   b.M.M.M.n.M.M.c.M.M.v.v.M.M.M.M.M.0.* 9 Q E O.o.o.",
"/ ! Y T =.X   b.z.M.M.M.h.2.    $   . $     . . * . x ` E ` P ! ",
"I ! Y T R X   b.M.M.M.M.M.2.  X       .     . . o q ` ! E W V ` ",
"W W Y T &.X   b.c.M.n.M.M.5.X ; g k p k #.k j f D -...v } @.P ` ",
"W W Y U &.X   b.M.M.b.n.c.2.      ,   . .   o w 8 ' ` V o.o.Q ) ",
"W I W U &.X X b.c.M.M.M.c.4.&   O O . ,     #   # ) +.Q E Q ` >.",
"W / / I &.X   b.M.M.n.n.M.M.j.M.M.M.m.M.m.M.s.:   C [ Q E Q o.A ",
"` ! Q A H o * v.b.M.b.v.M.v.k.M.m.c.M.M.M.M.x., <   l ] _ Y b U ",
"Q v _ +.) 6   ; 8.g.M.b.b.b.M.m.M.n.M.n.c.n.M.x.7.; s R T Y I / ",
"+.P ~ [ ] F 6 . 8.k.M.b.b.M.M.m.M.d.M.z.M.n.x.M.i.X 1 G  .{ / | ",
"~ +.` ! [ %.D w   . .         @   ; p.l.M.M.m.M.w.  1 &. .I I b ",
"P ~ E Q ] *.$.p #       .           a.b.h.b.n.b.r.  t :.U L I / ",
"~ v P Q Q K r       . . . + + O ;   p.b.z.M.M.M.r.X 1 T L Y | X.",
"o.P } +.H -   .   + .       O O   . i.b.M.h.v.b.t.  1 T / Y I Y ",
"_ Q Q ) ) # # v.M.m.m.M.M.m.M.m.M.c.M.b.M.b.M.M.t.X 1  .;.! I X.",
"` ) ) ) *.. . v.M.M.M.M.M.M.M.M.M.M.n.M.M.n.M.M.q.% t ;.U ! ! ! ",
"_ V ) ..' .   M.M.M.M.M.M.M.M.M.M.n.n.M.c.M.s.  ;   u T U ! U ! ",
">.A Q [ H . : d.M.M.b.M.M.M.M.M.M.m.M.M.h.M.l.&   z :.R { / ! / ",
"..) ` ' ) 4   >                   .         & X % 1.:.Z T T { ! ",
"P E Q A ) C *       . .   X       X   X % X X 2 e &.G Z ! U ! U ",
"~ ~ E b A ` *.%.6 6 3 3 3 4 4 3 2 7 7 4 4 4 7 % J &.T  .{ Z  . .",
"} o.~ ~ E B ' K K K H A U A U G R R ] U l  .:.G R R Z L U U ] ;.",
"E ^ n E ~ +.<.K *.*.[ ` ` `  . .;.] U T  .] T :.&.:. .U  .| Z U "
};
