/* XPM */
static char *MS_6[] = {
/* columns rows colors chars-per-pixel */
"32 32 153 2 ",
"   c #030200",
".  c #080500",
"X  c #060801",
"o  c #0C0B02",
"O  c #04000A",
"+  c #0A0509",
"@  c #0D0A0C",
"#  c #100F03",
"$  c #120F09",
"%  c #0E1200",
"&  c #0F100A",
"*  c #131201",
"=  c #1C1D02",
"-  c #14140B",
";  c #19190F",
":  c #100B11",
">  c #171314",
",  c #1A1915",
"<  c #201F0B",
"1  c #1E2304",
"2  c #1E220B",
"3  c #222401",
"4  c #242905",
"5  c #2A2C04",
"6  c #212409",
"7  c #242A09",
"8  c #2A2B0B",
"9  c #2D3005",
"0  c #2F310B",
"q  c #30310F",
"w  c #232112",
"e  c #292D14",
"r  c #2E3312",
"t  c #323312",
"y  c #343A16",
"u  c #393B17",
"i  c #34341D",
"p  c #3B3C1C",
"a  c #302C29",
"s  c #373525",
"d  c #363A21",
"f  c #3C3C24",
"g  c #33302B",
"h  c #3E3D28",
"j  c #393534",
"k  c #3F3C36",
"l  c #403F2B",
"z  c #433F3C",
"x  c #3E4221",
"c  c #434619",
"v  c #484B1E",
"b  c #555E1F",
"n  c #5D641E",
"m  c #60681D",
"M  c #424226",
"N  c #43442E",
"B  c #4B4C2A",
"V  c #4B5322",
"C  c #4D512E",
"Z  c #565B24",
"A  c #595E25",
"S  c #51522E",
"D  c #565B2A",
"F  c #595D2D",
"G  c #474632",
"H  c #4A4934",
"J  c #555C33",
"K  c #595C34",
"L  c #535339",
"P  c #5B5C3B",
"I  c #576024",
"U  c #5D6424",
"Y  c #5D6826",
"T  c #5C632B",
"R  c #5E6929",
"E  c #5E6333",
"W  c #5D6339",
"Q  c #606725",
"!  c #636A25",
"~  c #61662C",
"^  c #646B2C",
"/  c #696F2E",
"(  c #6C7427",
")  c #66712F",
"_  c #6B742E",
"`  c #616534",
"'  c #646A32",
"]  c #686E33",
"[  c #61643A",
"{  c #656B3B",
"}  c #696D3B",
"|  c #677134",
" . c #6C7333",
".. c #6D7836",
"X. c #67703A",
"o. c #6D723B",
"O. c #6F7A38",
"+. c #717737",
"@. c #727936",
"#. c #71763C",
"$. c #74793D",
"%. c #4F4C47",
"&. c #656645",
"*. c #666C43",
"=. c #6C6F44",
"-. c #6C6F49",
";. c #6B7443",
":. c #6B7249",
">. c #717543",
",. c #727940",
"<. c #777B49",
"1. c #696E50",
"2. c #83807B",
"3. c #8B897D",
"4. c #868283",
"5. c #8A8782",
"6. c #8E8B84",
"7. c #938F8E",
"8. c #94908D",
"9. c #8F8A91",
"0. c #9A9599",
"q. c #9B9A9F",
"w. c #A29F96",
"e. c #A29E9D",
"r. c #A6A39E",
"t. c #ABA99D",
"y. c #A9AAA2",
"u. c #AFAFAD",
"i. c #B6B7AF",
"p. c #B6B7B1",
"a. c #BCBDB4",
"s. c #C4C2BC",
"d. c #C7C9BE",
"f. c #C0C0C0",
"g. c #CBCDC2",
"h. c #DDDFD2",
"j. c #DCDADA",
"k. c #E5E6E1",
"l. c #EBEBE5",
"z. c #EEEBED",
"x. c #F1EEE5",
"c. c #F2EEED",
"v. c #F0F2E7",
"b. c #F4F0EC",
"n. c #F7F9EE",
"m. c #EDEBF5",
"M. c #F2EDF2",
"N. c #F5F5F5",
"B. c #F9F5F4",
"V. c #FDFBF5",
"C. c #F6F4FC",
"Z. c #FAF5FC",
"A. c #FFFCFE",
/* pixels */
"^ ] ] ' ' ] } } ` } ' ' o.} ! ' ' ` ` / ` ] ' ` $.@.m ( (  .$.Z ",
"] ~ ~ ] o.] ` ` ` ` D D F Z F ` K K F F F E ` ` ~  .! ! m m  .o.",
"] ~ U ' } ` E ` 0 0 q u u q u p t t t 0 8 4 3 3 v T Q m ! ! ~ ~ ",
"! ^ ~ ~ ` ` [ P p p p N G l G l H G G l f s s i S } #.Q ! +.^ ] ",
"Q / ' ~ ` -.P l * #         .   .         . . . . q o.] ! / Q ] ",
"Q ! ~ ' >.-.l #   $         +           O       o . c ^ Q  .Q A ",
"^ ! ~ } { B <   w.B.A.A.A.A.A.A.A.A.A.A.A.A.A.Z.e.# 5 Q A $. ./ ",
"+.! ] o.S 3     3.Z.A.Z.A.Z.A.A.Z.A.Z.A.A.Z.A.A.s.. < $.U ! ! ! ",
"! ^ / F &..   n.V.V.A.A.Z.A.A.A.Z.A.A.Z.Z.A.A.Z.s.  = #.A ! Q Q ",
"! ^ ~ ` {     V.V.V.A.Z.A.A.b.A.A.B.B.A.A.A.A.A.t.* 9 ~ U +.+. .",
"^ ^ / E &..   V.B.A.A.V.l.2..   -   . $     .   *   c ] ! ] Q ' ",
"^ ^ ~ E &..   V.A.A.A.A.V.5.  .       .     #   o t } ^ Q ! Z ] ",
"! / ` ` &..   V.B.A.Z.A.A.7.. > j z a k %.z z s H -.} A ] +.~ ] ",
"^ ^ ` E &..   A.A.A.Z.Z.Z.4.      :   @ .   . w 8 [ ] A +.+.~ ` ",
"! / ` ` &.    Z.C.A.A.A.C.9.: O O O   :     $   * E #.~ Q ~ } >.",
"! / ` ` &..   A.A.Z.Z.Z.A.A.M.A.A.A.Z.A.Z.V.j.;   C } A Q ^ +.T ",
"! Q ] ` [     A.A.A.A.A.A.A.A.A.A.C.A.A.A.A.m.@ ,   x W | Y b R ",
"! Q _ ^ `     Z.A.Z.A.A.V.V.V.N.A.N.A.N.N.C.A.m.q.- d J E ) Y ) ",
"! ! / ~ `     V.A.A.A.A.V.V.b.V.A.k.V.N.A.N.m.A.f.X 2 E X.| | ..",
"! ! / ` [     V.Z.A.V.V.v.6.$ .   - g.v.V.A.Z.A.u.  1 *.X.Y Y n ",
"/ ~ ] ' `     V.B.A.B.V.V.6.        h.V.l.V.Z.Z.p.X r ;.Y I R ) ",
"^ ~ ] ' [     V.A.A.B.B.V.6.  o &   g.V.n.V.V.A.i.X 7 E I R ....",
"' ~ ] ` [     Z.M.A.A.A.c.7.> O   X f.V.A.l.N.A.p.X 1 E E Y Y R ",
"~ ~ ] ' [     V.A.A.A.A.B.A.A.Z.A.N.A.V.A.V.A.A.a.X 1 *.,.) R ..",
"' #.~ } [ . - c.A.A.Z.Z.A.Z.Z.A.A.A.C.A.A.C.A.A.y.% r ;.Y ) R R ",
"F A ~ } [ * . g 0.z.A.A.A.A.A.C.A.C.C.A.N.A.j.  -   y W T ' R R ",
"} T ^ o.=.P <   e.B.A.A.A.A.A.Z.A.A.A.A.l.A.v.&   x 1.W { | ' | ",
"$.~ ~ ` ~ =.L #   o             O           & X % 1.:.I R R ) ' ",
"] ~ ~ ~ ` [ L p . . .   o         X   X % X X 2 e *.J I E R { I ",
"~ ~ ~ ] #.` [ &.= 8 3 3 5 3 7 1 2 7 7 4 1 1 7 % J *.W | | I X.X.",
"' ] A Q / F ` K D { ~ F I D { T W *.X.T V { :.J J W J I R R { X.",
"' #.] / / ] <.` } { T ] ] T X.W X.W T E X.W W :.*.:.X.T X.X.T E "
};
