/* XPM */
static char *MS_7[] = {
/* columns rows colors chars-per-pixel */
"32 32 178 2 ",
"   c #030201",
".  c #080500",
"X  c #0C0B02",
"o  c #01000A",
"O  c #0D0E08",
"+  c #100E02",
"@  c #110C0D",
"#  c #0F1002",
"$  c #141401",
"%  c #151806",
"&  c #1B1B02",
"*  c #15130C",
"=  c #1A170E",
"-  c #1C1B0B",
";  c #171216",
":  c #181416",
">  c #1D1A11",
",  c #1E2101",
"<  c #212303",
"1  c #262803",
"2  c #292C03",
"3  c #23250A",
"4  c #262C0B",
"5  c #2A2C0D",
"6  c #293007",
"7  c #2D330B",
"8  c #31330C",
"9  c #272611",
"0  c #2D2C14",
"q  c #25221A",
"w  c #2B291B",
"e  c #302F1A",
"r  c #2C3017",
"t  c #323313",
"y  c #34331C",
"u  c #3D3E1E",
"i  c #241F23",
"p  c #262223",
"a  c #282327",
"s  c #2C2825",
"d  c #2E2A2C",
"f  c #312E25",
"g  c #312E2B",
"h  c #2F3221",
"j  c #353524",
"k  c #363822",
"l  c #3B3A25",
"z  c #34312A",
"x  c #39372B",
"c  c #3B3C28",
"v  c #312C32",
"b  c #353034",
"n  c #3A3734",
"m  c #3B3832",
"M  c #394016",
"N  c #3F411A",
"B  c #3D412A",
"V  c #43461C",
"C  c #51571B",
"Z  c #585E1D",
"A  c #565C1C",
"S  c #414424",
"D  c #464923",
"F  c #4B4E21",
"G  c #43432E",
"H  c #44482F",
"J  c #4B4C2D",
"K  c #4D5223",
"L  c #4F512B",
"P  c #515620",
"I  c #565C23",
"U  c #595E25",
"Y  c #52542A",
"T  c #565B2A",
"R  c #595D2A",
"E  c #444233",
"W  c #474931",
"Q  c #494835",
"!  c #46423D",
"~  c #49473A",
"^  c #4C4A39",
"/  c #4E513A",
"(  c #545535",
")  c #565831",
"_  c #595B32",
"`  c #57573F",
"'  c #5C5D3B",
"]  c #576125",
"[  c #5C6325",
"{  c #5D6826",
"}  c #57602B",
"|  c #5D642B",
" . c #5F692D",
".. c #5D6333",
"X. c #5F6832",
"o. c #5E623A",
"O. c #616727",
"+. c #636A27",
"@. c #61662B",
"#. c #636A2D",
"$. c #696F2D",
"%. c #69742F",
"&. c #626634",
"*. c #656B33",
"=. c #686E34",
"-. c #626539",
";. c #656B3A",
":. c #696D3C",
">. c #667035",
",. c #6B7234",
"<. c #67703B",
"1. c #6C733B",
"2. c #6F793A",
"3. c #72773E",
"4. c #727A3E",
"5. c #787F3B",
"6. c #464243",
"7. c #4B464A",
"8. c #504E42",
"9. c #514E49",
"0. c #555249",
"q. c #656B47",
"w. c #6A6E42",
"e. c #6A6C4C",
"r. c #6D7445",
"t. c #6A704C",
"y. c #717A44",
"u. c #67645B",
"i. c #69665F",
"p. c #676662",
"a. c #707264",
"s. c #7C7877",
"d. c #86837E",
"f. c #868686",
"g. c #8D8D8B",
"h. c #929186",
"j. c #93918B",
"k. c #98988C",
"l. c #8F8A91",
"z. c #959193",
"x. c #A09C99",
"c. c #A2A093",
"v. c #A3A3A5",
"b. c #B9B7AB",
"n. c #BCBAAD",
"m. c #B5B5B7",
"M. c #BBBBB3",
"N. c #BEBCBB",
"B. c #C2BEBD",
"V. c #BFC0BA",
"C. c #C0BFC4",
"Z. c #D5D1CE",
"A. c #D0D0D0",
"S. c #D9D5D4",
"D. c #DFDFDD",
"F. c #DDDAD5",
"G. c #E4E3D6",
"H. c #EEECDF",
"J. c #F0EEDF",
"K. c #EAE6E5",
"L. c #EFECE3",
"P. c #EFECEB",
"I. c #F1EDEB",
"U. c #EEF0E5",
"Y. c #F2F2E6",
"T. c #F8F7E5",
"R. c #F4F2ED",
"E. c #F9F6ED",
"W. c #FCFAEE",
"Q. c #EFEAF0",
"!. c #F0EFF4",
"~. c #F5EFFB",
"^. c #F6F4F4",
"/. c #F9F6F2",
"(. c #FDFDF5",
"). c #F6F3FA",
"_. c #FAF5FE",
"`. c #FFFDFD",
/* pixels */
";.&.=.=.O.Z O.=.=.;.;.-.;.&.&.#.#.&.#.#.X.<.;.q.y.<.{ %.%.%.y.} ",
":.| @.=.*.=.:.#.&.&.&.-.-.&.&.@.R R } } X.o.o.o.X.<.%. .{ ] <.<.",
"-.| 1.=.I @.&.T 8 t t y t t t t t 7 7 7 4 , 3 3 B X. .{  . . .X.",
"&.| :.@.P -.;._ l G E E E E G G W W B B c k z h / q.r.{ %.2.X.>.",
"*.@.=.&.:._ $             . . .                 X r t.<.{  .{ >.",
"#.*.=.=.;.2   *     o o o                 o o o X X B o.] 2. .] ",
"@.#.@.U _ $ < L.`.`._.`.`.`.`.`.`.`.`.`.`.`._._.v.# 4 X.] 2.>.%.",
"+.@.U :.:.    (.`.`.`.`._.`._.(.`._.`.`.`.`.`.`.C.  , y. . . .X.",
"#.=.#.*.:.    (./.`._.~.`.`.(.(.(.(.`.`.`.`.).`.m.  , X.X.>.2.X.",
"$.,.#.U R + < J.`.`.`.`.`.I.W.(.(.`.`.^.!.`.`.`.V.  4 <.X.] {  .",
"=.#.=.=.:.2   &           = X   h.U.(.`.`.).`.`.V.  , <.>. . .<.",
"3.[ #.*.:.T $     X           + k.(.(.`.`.).`.`.V.  6 X.>.X.] X.",
"=.U *.@.A &.-.( l Q f 0.m   + Y.R.`./.R.(.`.`.g.a.X M } X.>.{ X.",
"=.Z =.,.[ @...L 3 Q q g X   X `.`.R.`.`.P.`.D.O % # K X.>. .<.<.",
",.[ [ +.=.3.w.) < G = * . s.z.`.`.!.`.`.).A.g.# % B <. .X.] X...",
"*.*.+.@.@.@.&.) y w   .   B.I.`.`.`._.^.`.f.O   k t.w.] 2.] w.<.",
",.$.@.[ [ =.1.-.e.Q   ! z.Z.W.`.`.`.`.P.z.p.  / e.w.&.O.*.#.@.&.",
"C @.,.$.#.@.| -.W . + i./.`.(.`.`.`.`.S.*   + ` ' ;.&.@.#.+.@.*.",
"=.:.#.@.=.:.&.' 3   h.N.`.`.I.(./.W.M.d.    l y ) &.*.@.#.@.O.*.",
"&.*.*.R &.:.J &   + F.W./.`.`.(.(.(.u.O   w 9 < D ..=.@.@.O.@.*.",
"U #.3.&.R w.(   0.j.K.`./.`.W.E.G.c.z   - j 3 u N | *.@.@.+.@.=.",
"=.=.*.*.-.Y 4   j.`.`.`./.R.T.(.n.    - * w e < N &.*.O.+.#.@.=.",
"O.+.U ,.r.& . - h./.`.`.`.W.(.J.b.  * z q z ^ 3 V &.=.@.+.$.#.=.",
"Z ,.[ #.|   & T./.^.`.^.`.(.(.+ .   g p s w ^ J D -.=.U @.=.*.$.",
"+.+.#.@.:.X   W.I.`.`.`.Q.`.I.@ . ; i i g 6.^ l J &.:.@.*.*.O.*.",
"$.Z +.1.&.    (.`.`.~.`._.z.:   ; a v d b 6.! l S -.;.@.#.@.O.*.",
"3.U @.;.R X & G.`.`._._._.l.  a n 7.7.6.6.9.^ Q S ..:.@.*.@.O.=.",
":.=.:.&.' 1   -     @ .   @   q f n n z z x j 0 N ..:.&.&.@.@.*.",
"| &.&...&.Y $ . & . . . . . e y e y l y y y e 5 V @.=.&.#.@.@.-.",
":.&.@.@.@.&.;.-.& 3 < 0 3 & t + < < < < < < < < F &.$.@.#.=.&.-.",
"w.3.*.=.O.Z O.U R :.) F Y | :.I @.| ..' &.' ' @.R =.#.@.$.=.&.=.",
"&.:.[ +.%.%.5.[ 3.| @.1.3.*.O.$.-.=.=.-.:.-.-.-.@.:.#.U =.:.&.&."
};
