/* XPM */
static char *MS_8[] = {
/* columns rows colors chars-per-pixel */
"32 32 164 2 ",
"   c #030101",
".  c #090602",
"X  c #0C0C01",
"o  c #05020A",
"O  c #0A040E",
"+  c #0B0B0A",
"@  c #100F00",
"#  c #120E0C",
"$  c #131302",
"%  c #151901",
"&  c #191C00",
"*  c #14120B",
"=  c #19170A",
"-  c #171A09",
";  c #1E1D0B",
":  c #191612",
">  c #1B1B12",
",  c #1B161D",
"<  c #1B1B19",
"1  c #201F0B",
"2  c #1C2400",
"3  c #232402",
"4  c #262B03",
"5  c #282A04",
"6  c #24230B",
"7  c #262B0C",
"8  c #2A2D0C",
"9  c #2F320D",
"0  c #30320E",
"q  c #222310",
"w  c #2C2C10",
"e  c #24201D",
"r  c #2D3212",
"t  c #2E311C",
"y  c #313413",
"u  c #373914",
"i  c #383917",
"p  c #34381A",
"a  c #3A3D1A",
"s  c #232228",
"d  c #373621",
"f  c #373A25",
"g  c #3B3B21",
"h  c #33302B",
"j  c #39372B",
"k  c #3F3E2B",
"l  c #3B4216",
"z  c #3D4321",
"x  c #3E4130",
"c  c #4B520E",
"v  c #575D1C",
"b  c #5B621D",
"n  c #43422C",
"m  c #4B4B2F",
"M  c #4E5122",
"N  c #515427",
"B  c #555B24",
"V  c #595E26",
"C  c #555A2B",
"Z  c #5A5D2C",
"A  c #444431",
"S  c #494A37",
"D  c #46483A",
"F  c #48493B",
"G  c #525331",
"H  c #565C32",
"J  c #585C37",
"K  c #535339",
"L  c #555B39",
"P  c #5A5B3D",
"I  c #5D6325",
"U  c #5F6827",
"Y  c #57602B",
"T  c #5D632B",
"R  c #5F682C",
"E  c #5D6332",
"W  c #5F6833",
"Q  c #5F643A",
"!  c #606626",
"~  c #646B23",
"^  c #61662C",
"/  c #646A2D",
"(  c #696F2F",
")  c #697126",
"_  c #6B732D",
"`  c #616533",
"'  c #646B33",
"]  c #696E34",
"[  c #62653B",
"{  c #656B3B",
"}  c #696D3A",
"|  c #677135",
" . c #6C7234",
".. c #67703B",
"X. c #6C723B",
"o. c #707636",
"O. c #727936",
"+. c #70753C",
"@. c #777D3D",
"#. c #515441",
"$. c #616240",
"%. c #646942",
"&. c #6A6D44",
"*. c #66664A",
"=. c #6C6E4B",
"-. c #6D7243",
";. c #6F714A",
":. c #717445",
">. c #717944",
",. c #7A7F45",
"<. c #70724B",
"1. c #777B49",
"2. c #606151",
"3. c #6F7350",
"4. c #8B897D",
"5. c #868185",
"6. c #8A8684",
"7. c #8D8A83",
"8. c #88838A",
"9. c #8D8988",
"0. c #918E88",
"q. c #98968A",
"w. c #938E95",
"e. c #969195",
"r. c #9A9599",
"t. c #A19E9B",
"y. c #A5A69E",
"u. c #ABAD9F",
"i. c #A8A4A5",
"p. c #ACA8A5",
"a. c #B2AEAB",
"s. c #AEB1A0",
"d. c #B3B0AB",
"f. c #B8BBAA",
"g. c #BDBAB5",
"h. c #C4C2B6",
"j. c #C7CAB9",
"k. c #C4C5C0",
"l. c #CDCDC4",
"z. c #D2D0C4",
"x. c #D5D5CB",
"c. c #D9D5D2",
"v. c #D6D6D8",
"b. c #E6E2DF",
"n. c #DCD6E2",
"m. c #DFDFE1",
"M. c #EBE7E6",
"N. c #ECE9E2",
"B. c #EBE6ED",
"V. c #EDEBEE",
"C. c #F1EEE5",
"Z. c #F3EFED",
"A. c #F6F3EB",
"S. c #EDE7F3",
"D. c #EFEAF1",
"F. c #EDEBF8",
"G. c #F3EEF3",
"H. c #F1EFFA",
"J. c #F5F3F4",
"K. c #F9F6F3",
"L. c #FDFBF5",
"P. c #F7F3FC",
"I. c #FAF5FD",
"U. c #FFFDFE",
/* pixels */
"/ ] ' ' ' ' ] } [ } ` ' +. .^ ' Z } E ' E -.Q ..W W | | R | ..%.",
"] ^ ^ ] +.] ` ` ` ` Z N Z N Z ` ` %.Q %.C Q E L { ..R R R | Q Q ",
"( U I ' } ` E P 0 0 0 a i y i g t 7 r 9 % 7 7 y L { R I | W L ..",
"/ / ` ` ` [ [ P g g p A A k S A F D #.S f t q p z { W Y | W W 3.",
"! ( / E [ ;.#.n $ @         .                 - q %.>.R W | W >.",
"^ / ` [ <.=.n @   #   o o o O o o o o   + + <   - L >.W R W W W ",
"( ^ ` } &.m 1 . t.I.U.U.U.I.U.I.I.U.U.U.I.J.m.> X l Y ..| R W W ",
" ./ ] -.G 1     8.I.U.I.U.I.U.U.U.I.I.U.V.U.U.    X l | ..W W ..",
"] V ^ [ $.    U.U.U.U.I.U.U.U.U.U.U.J.L.U.J.U.L.j.. 2 | R R W R ",
"! / ` ^ %..   A.K.J.G.I.U.U.J.U.U.J.U.J.U.U.U.L.s.X 4 W R | | { ",
"! o.' Z &.X . L.U.U.U.U.A.6..     > l.L.L.U.V.U.f.% 9 W R W ..-.",
"c ~ ^ ` &.    L.U.L.U.U.L.7.        l.L.L.U.V.U.u.  2 | | R R Y ",
"_ _ / } [   . L.L.U.U.U.L.0..   *   x.U.J.U.U.U.l.X 2 ..| B | R ",
") b v ` [ @ 1 N.M.U.U.U.K.0.*       j.U.U.U.U.v.y.X 2 | | R -...",
"~ ~ ( +.$.%   e i.I.P.J.U.L.L.L.U.J.U.U.U.F.F.s + + l L >.W R Y ",
") ~ ~ Z [ K =   5.U.U.U.U.J.U.U.P.U.U.J.U.U.U.o   x 3.Y | | R | ",
"_ v ( ] ` *.j   8.U.U.U.U.A.L.K.U.L.U.U.U.U.I.o   2.=.Z ' ! / ! ",
"~ ~ o.] { P >   w.U.U.L.L.K.U.U.L.L.U.L.U.U.I.o   k [ } ' ! ! / ",
"! ~ / V N %   e e.B.K.K.U.L.C.U.L.A.L.U.U.U.S., :   8 Z U / / o.",
") b ! +.-.$ = b.G.U.L.K.C.4.. .   % h.L.U.U.U.B.t.@ 0 ] I / v I ",
"@.] / ` [ .   U.U.U.L.L.L.q.  X     z.L.K.I.B.U.l.  3 } ^ +./ ] ",
"/ / / ` [     U.U.J.Z.L.U.7.    .   x.K.U.U.D.U.g.. 3 } B ^ V ' ",
"' I / ` &.X . J.U.U.U.U.K.9.O     : c.U.U.U.I.U.a.. 9 +.^ ] ] +.",
",.Z ^ +.[     U.U.U.U.I.U.U.B.U.U.B.U.U.U.S.U.I.a.@ 1 ` Z ' ` E ",
"^ +.^ } [ . = Z.U.U.I.U.U.P.I.U.I.U.I.U.U.I.U.U.p.@ 0 -.Z ' ' ` ",
"^ Z E } [ @   h r.S.U.U.U.U.I.I.I.I.I.U.H.U.n.o :   u ` ^ ' ` ` ",
"] I / +.&.P 1   t.K.U.U.U.U.U.I.U.U.U.U.D.U.G.#   n &.[ ] ] ` } ",
":.^ ^ ^ E -.K @   X           o   .         # . @ =.-.V ^ / } ` ",
"' ^ ^ ^ ^ [ P a X . . . X     .   .   . @ . . 1 w [ V V ' Z } E ",
"^ / ! ] +.` $.$.& 7 1 3 5 3 8 3 3 5 5 5 1 5 6 @ J [ ^ ( ( I ] } ",
"` ] I ! ( Z ` J Z } ^ Z V B [ Z ` ` { Z M [ <.G E ` I b ! ! ] +.",
"/ +.] ( / ] 1.` } [ ^ ' ' T ] ` ] / ^ / } ` ` :.[ +.( b ( +.Z Z "
};
