/* XPM */
static char *MS_9[] = {
/* columns rows colors chars-per-pixel */
"32 32 157 2 ",
"   c #020200",
".  c #080500",
"X  c #070B00",
"o  c #0A0B00",
"O  c #02010A",
"+  c #0A0509",
"@  c #0B0B0B",
"#  c #100F00",
"$  c #110E0A",
"%  c #0E1100",
"&  c #121301",
"*  c #151A01",
"=  c #1E1F04",
"-  c #15150C",
";  c #17190D",
":  c #1A1C0E",
">  c #110D14",
",  c #141311",
"<  c #1B1B13",
"1  c #17141B",
"2  c #1A1A1B",
"3  c #1D2101",
"4  c #222503",
"5  c #232A05",
"6  c #23270D",
"7  c #24280A",
"8  c #292D0B",
"9  c #2F320C",
"0  c #222514",
"q  c #262A12",
"w  c #252219",
"e  c #28261C",
"r  c #2B291D",
"t  c #323413",
"y  c #323910",
"u  c #393B17",
"i  c #34351D",
"p  c #363C1A",
"a  c #3B3C1D",
"s  c #252420",
"d  c #2A2722",
"f  c #2E2A27",
"g  c #2F2E2C",
"h  c #312E23",
"j  c #332F2C",
"k  c #2E3120",
"l  c #343323",
"z  c #383725",
"x  c #373A27",
"c  c #3C3C23",
"v  c #35342A",
"b  c #39372A",
"n  c #3C3B2A",
"m  c #3D3A33",
"M  c #413F30",
"N  c #3B4218",
"B  c #3E4325",
"V  c #515B1E",
"C  c #5C631D",
"Z  c #424226",
"A  c #42432C",
"S  c #4B4C2A",
"D  c #4E5623",
"F  c #525924",
"G  c #51532D",
"H  c #555B2A",
"J  c #595D2B",
"K  c #444333",
"L  c #464934",
"P  c #494A35",
"I  c #46433D",
"U  c #49473C",
"Y  c #4B4A38",
"T  c #545532",
"R  c #575C33",
"E  c #5C5E37",
"W  c #51543F",
"Q  c #565C3A",
"!  c #5B5D3C",
"~  c #576027",
"^  c #5C6425",
"/  c #5C632C",
"(  c #5E682A",
")  c #5D6233",
"_  c #5F6833",
"`  c #5E653A",
"'  c #606725",
"]  c #636A25",
"[  c #60662B",
"{  c #636B2C",
"}  c #696F2F",
"|  c #6B722C",
" . c #616535",
".. c #636B33",
"X. c #686E34",
"o. c #63653B",
"O. c #636A3C",
"+. c #696D39",
"@. c #677035",
"#. c #6A7234",
"$. c #67703B",
"%. c #6B733B",
"&. c #6E7839",
"*. c #70753D",
"=. c #727B3F",
"-. c #464541",
";. c #494641",
":. c #504D44",
">. c #646644",
",. c #646A43",
"<. c #6A6F44",
"1. c #6D6F4A",
"2. c #6C7342",
"3. c #707346",
"4. c #70774B",
"5. c #707849",
"6. c #788051",
"7. c #83807B",
"8. c #868283",
"9. c #8A8782",
"0. c #94908D",
"q. c #8F8A91",
"w. c #9E9B94",
"e. c #9E9A99",
"r. c #A29F96",
"t. c #A3A598",
"y. c #B8BAAF",
"u. c #B8B9B3",
"i. c #B8B7BC",
"p. c #B8B8B9",
"a. c #C2C4B7",
"s. c #C1C3B8",
"d. c #C3C3C3",
"f. c #CCCEC3",
"g. c #CFCFCD",
"h. c #D2D4CC",
"j. c #D7D9CB",
"k. c #D0CFD4",
"l. c #D2D1D6",
"z. c #DFDFDD",
"x. c #E6E3DE",
"c. c #DFDEE4",
"v. c #ECE8E5",
"b. c #EAE5EB",
"n. c #ECEBEA",
"m. c #EFF0E8",
"M. c #F1F1E5",
"N. c #F2F2ED",
"B. c #F7F9EC",
"V. c #EBEAF0",
"C. c #F1ECF2",
"Z. c #F4F3F4",
"A. c #F9F5F5",
"S. c #FCFCF5",
"D. c #F6F4FB",
"F. c #FAF6FD",
"G. c #FEFDFE",
/* pixels */
"{ X.X.X. ...X.+. .+.[  .*.+.[ } J %./ ../ <.,.,.` O.@.@.( @.$.O.",
"X.[ [ X.*.X. . . . .J H J J J  .) O._ O.G ,.) Q O.O.@.( .._ _ _ ",
"X.[ ^ ..+. .) E 9 9 9 u u 9 u a y 8 t 8 * 6 q i Q O._ ~ @._ / ` ",
"] { { [  . .o.! a a a K M M S M L L :.P x k 0 l B ,._ ~ @.@._ 2.",
"' } ..[  .3.! M & # .       .                 ; q ,.6.~ ( @._ 2.",
"' [ [ ..3.1.M # . $         +   O O     @ @ 2   ; W 2._ ( ( ( @.",
"} ] [ +.+.S =   r.A.G.G.G.G.G.G.G.G.G.G.F.C.c.2 X p Q @.@.( / _ ",
"| ] ..*.G = .   7.F.G.F.G.D.G.G.G.D.D.G.V.G.G.  X % N @.&.{ ( $.",
"] } { / o..   S.S.A.G.G.F.G.G.G.G.G.S.n.G.D.G.D.y.  5 @.( ( ..@.",
"} ] { ) >.    S.S.G.G.S.G.G.N.G.S.m.S.G.G.G.G.G.y.  5 _ ( ( ( { ",
"] }  .[ >..   S.A.G.G.G.v.7..     o a.B.G.G.D.D.y.X 3 _ ( ( ....",
"} [ } E >..   S.G.G.G.G.G.9.  .     j.S.Z.G.D.G.u.  5 @.( ( ..{ ",
"] { X.E >..   S.A.G.F.G.G.0.. - ;   h.S.F.G.F.G.p.X 5 O...( { @.",
"] }  .) >..   G.G.G.F.F.F.8.    . X g.S.D.G.F.G.p.X 5 O._ ( ( { ",
"[ }  .) >..   G.D.G.F.F.D.q.>     2 g.G.G.G.F.D.p.  5 ` _ ( ....",
"} [ X.E >..   F.G.F.F.F.G.G.C.G.G.n.G.Z.G.G.G.G.i.  5 $._ ( { { ",
"} =.X.X.o.. & x.F.G.G.F.G.G.A.G.G.G.G.Z.G.G.G.G.i.  6 ,._ ( { { ",
"J [ [  . .& . e e.b.G.G.G.G.G.B.F.Z.G.D.G.G.G.G.i.  6 ,._ ^ ] { ",
"] V } X.+.T = . w.n.G.F.A.G.S.M.G.m.G.S.Z.Z.G.G.p.  6 O.( ( { { ",
"} ] X.[ J 3.T #   $ $         o   ; a.B.G.G.G.D.p.  7 ` _ ( { { ",
"' ] | { [  .E c # o .   .     .   o j.S.G.G.G.G.p.X 5 O.( ( { { ",
"V | ] } &. . .! i M b r h z i l     f.B.S.S.G.S.u.X 5 _ ..( { { ",
"] | C C [ J E G c U M w e l l l <   l.m.S.G.G.G.u.  5 O.( ( ( | ",
"C | ] ' ^ [ *.G M M h s h h h v @   z.B.G.G.N.G.y.  5 O.@.( ( { ",
"] ] ] ] } X. .T M M U m f d s s , O l.G.Z.G.G.D.u.X 3 2./ ..( ( ",
"] | } ] ] ..E T i M U M j f j j O O k.G.G.G.G.G.f.  * @._ ( ^ &.",
"] } } ] ] X.E G M Y :.;.M ;.;.;.1 1 d.N.G.S.S.S.t.* 5 ,.@.( V @.",
"[ } [ ] [ [ [ G 8 i b l j b M j ,   ,     X O X %   y ~ ( @...&.",
" .X.{ [ [ [ [ G 8 t a i i l z i I : %   X     % X N O._ / _ ( ~ ",
"X.X.X.' [ } { J = 4 7 4 4 5 4 3 3 3 7 5 5 3 3 3 B ` $.@.$.@.@.$.",
"o.+.X.J } #.} [ J o.o.E E  ._ J ` <.` _ _ ) ` ` Q ` D D _ ~ ~ _ ",
"o.o.X.'  .#.#. .[ ..o. . .+...) _ 2.~ _ _ _ ,.` ,.6.@._ =.$.2._ "
};
