/* XPM */
static char *_[] = {
/* columns rows colors chars-per-pixel */
"32 32 29 1 ",
"  c #C5D457",
". c #C5D358",
"X c #C4D259",
"o c #C5D35A",
"O c #C6D558",
"+ c #C6D459",
"@ c #C7D659",
"# c #C7D55A",
"$ c #C6D45B",
"% c #C4D15D",
"& c #C5D25C",
"* c #C6D35D",
"= c #C5D25E",
"- c #C6D35F",
"; c #C7D55C",
": c #C7D45E",
"> c #C8D65B",
", c #C8D65D",
"< c #C8D55F",
"1 c #C7D462",
"2 c #C8D561",
"3 c #C9D660",
"4 c #CAD761",
"5 c #C9D662",
"6 c #CAD763",
"7 c #C9D664",
"8 c #CBD862",
"9 c #CBD866",
"0 c #CDDA68",
/* pixels */
"09756843555555555555555534865790",
"71-=*:*$2222222222222222$*:*=-17",
"1-%%&&oX****************Xo&&%%-1",
"52-*:;;$****************$;;:*-25",
"63::,,>#;;;;;;;;;;;;;;;;#>,,::36",
"<:&o$#+.;;;;;;;;;;;;;;;;.+#$o&:<",
"<*oo+++ ;;;;;;;;;;;;;;;; +++oo*<",
"3,$$#>@O++++++++++++++++O@>#$$,3",
"52**;;;+$$$$$$$$$$$$$$$$+;;;**25",
"52**;;;+$$$$$$$$$$$$$$$$+;;;**25",
"52**;;;+$$$$$$$$$$$$$$$$+;;;**25",
"52**;;;+$$$$$$$$$$$$$$$$+;;;**25",
"52**;;;+$$$$$$$$$$$$$$$$+;;;**25",
"52**;;;+$$$$$$$$$$$$$$$$+;;;**25",
"52**;;;+$$$$$$$$$$$$$$$$+;;;**25",
"52**;;;+$$$$$$$$$$$$$$$$+;;;**25",
"52**;;;+$$$$$$$$$$$$$$$$+;;;**25",
"52**;;;+$$$$$$$$$$$$$$$$+;;;**25",
"52**;;;+$$$$$$$$$$$$$$$$+;;;**25",
"52**;;;+$$$$$$$$$$$$$$$$+;;;**25",
"52**;;;+$$$$$$$$$$$$$$$$+;;;**25",
"52**;;;+$$$$$$$$$$$$$$$$+;;;**25",
"52**;;;+$$$$$$$$$$$$$$$$+;;;**25",
"52**;;;+$$$$$$$$$$$$$$$$+;;;**25",
"3,$$#>@O++++++++++++++++O@>#$$,3",
"<*oo+++ ;;;;;;;;;;;;;;;; +++oo*<",
"3:&o$#+.;;;;;;;;;;;;;;;;.+#$o&:3",
"63::,,>#;;;;;;;;;;;;;;;;#>,,::36",
"52-*:;;$****************$;;:*-25",
"1-%%&&oX****************Xo&&%%-1",
"71-=*:*$2222222222222222$*:*=-17",
"09756843555555555555555534865790"
};
