/* XPM */
static char *_[] = {
/* columns rows colors chars-per-pixel */
"32 32 197 2 ",
"   c #492F16",
".  c #413118",
"X  c #4D3419",
"o  c #4C381E",
"O  c #4C3A14",
"+  c #503616",
"@  c #50361D",
"#  c #513B1A",
"$  c #4C3D22",
"%  c #47302A",
"&  c #4D372A",
"*  c #4D3E2C",
"=  c #513C23",
"-  c #513C2D",
";  c #503E30",
":  c #55461F",
">  c #514314",
",  c #5C521D",
"<  c #4B4024",
"1  c #4C412B",
"2  c #524425",
"3  c #584824",
"4  c #54432C",
"5  c #5B442F",
"6  c #554F2F",
"7  c #57512F",
"8  c #564534",
"9  c #5B4534",
"0  c #544934",
"q  c #5C4A35",
"w  c #534538",
"e  c #5B4539",
"r  c #55493B",
"t  c #5B4A3B",
"y  c #575131",
"u  c #5B5533",
"i  c #624237",
"p  c #694F34",
"a  c #64463B",
"s  c #604F3F",
"d  c #684E3F",
"f  c #6B5732",
"g  c #67563E",
"h  c #6B573F",
"j  c #615C3F",
"k  c #68583E",
"l  c #785C35",
"z  c #60603E",
"x  c #69633F",
"c  c #70673C",
"v  c #767439",
"b  c #564440",
"n  c #5A4741",
"m  c #5D4E40",
"M  c #5E4E4E",
"N  c #5D5842",
"B  c #5E5448",
"V  c #5F5B4A",
"C  c #5D5143",
"Z  c #5F5450",
"A  c #624E41",
"S  c #635243",
"D  c #6A5445",
"F  c #625C42",
"G  c #695F44",
"H  c #64554B",
"J  c #645D4D",
"K  c #6B5C4D",
"L  c #715B49",
"P  c #645553",
"I  c #645A54",
"U  c #6A5C53",
"Y  c #665B58",
"T  c #6B5C5A",
"R  c #6C5251",
"E  c #725E5C",
"W  c #656344",
"Q  c #686240",
"!  c #64624D",
"~  c #6B644B",
"^  c #7E6B43",
"/  c #646451",
"(  c #6B6253",
")  c #6D635A",
"_  c #6F6E5C",
"`  c #736757",
"'  c #7C6455",
"]  c #726C54",
"[  c #7D675A",
"{  c #726B5C",
"}  c #7F6F5F",
"|  c #75645A",
" . c #787155",
".. c #7E7856",
"X. c #7C765E",
"o. c #6B6160",
"O. c #6E6965",
"+. c #6F666A",
"@. c #746761",
"#. c #756F62",
"$. c #7E6664",
"%. c #767464",
"&. c #767863",
"*. c #7F7966",
"=. c #7B756B",
"-. c #7A7361",
";. c #777775",
":. c #7D7676",
">. c #7D7976",
",. c #7B7778",
"<. c #7D7A7A",
"1. c #85683E",
"2. c #80736D",
"3. c #837C6D",
"4. c #807771",
"5. c #847C75",
"6. c #807D7A",
"7. c #838724",
"8. c #858628",
"9. c #868B2F",
"0. c #8A8B2D",
"q. c #8D9027",
"w. c #8A912A",
"e. c #8A8736",
"r. c #8A8B34",
"t. c #8C8B3A",
"y. c #858231",
"u. c #929431",
"i. c #A2AA3D",
"p. c #9D9A49",
"a. c #A6AE42",
"s. c #A7B045",
"d. c #ABB245",
"f. c #ADB649",
"g. c #A9A25E",
"h. c #88806D",
"j. c #868373",
"k. c #898674",
"l. c #8B8B76",
"z. c #88837A",
"x. c #8C8B7C",
"c. c #938F74",
"v. c #918B7B",
"b. c #918575",
"n. c #8C907D",
"m. c #98917E",
"M. c #AFAB61",
"N. c #BDB960",
"B. c #BBC255",
"V. c #BFCF55",
"C. c #BDC45A",
"Z. c #C1D24E",
"A. c #C2C557",
"S. c #C2C759",
"D. c #C5CD5C",
"F. c #C9CE5D",
"G. c #C3CC57",
"H. c #C5D355",
"J. c #CAD553",
"K. c #C7D951",
"L. c #C8D957",
"P. c #C5D35B",
"I. c #C9D45C",
"U. c #C9D85D",
"Y. c #C7CD61",
"T. c #C9CE63",
"R. c #C6C568",
"E. c #CACD6A",
"W. c #C6D462",
"Q. c #CBD463",
"!. c #C7D865",
"~. c #CCD965",
"^. c #CDD46C",
"/. c #CDDA6A",
"(. c #D0D763",
"). c #D1DA66",
"_. c #D1D76D",
"`. c #D2DB6A",
"'. c #CDD471",
"]. c #D6D970",
"[. c #878684",
"{. c #8E8682",
"}. c #8E8B83",
"|. c #8D878A",
" X c #8D8C8A",
".X c #918A82",
"XX c #938F8C",
"oX c #988D89",
"OX c #8E9283",
"+X c #8E938C",
"@X c #959384",
"#X c #94948B",
"$X c #98958C",
"%X c #95998D",
"&X c #9C9A8C",
"*X c #959190",
"=X c #999593",
/* pixels */
"/.I.U.).U.I.I._.).Q.^.^.^./.^.!.^._.T._.^.~.F._.(.(.Q.`.W././.~.",
"!.P.P.U.I.(.Q.T.I.C.C.N.C.C.C.B.B.C.N.C.B.B.B.D.F.).Q.!.W.W.I.F.",
"I.P.I.P.I.I.F.B.x Q j F ~ ~ W z F j j z 7 y 7 y d.(.F.W.P.W.Q.Q.",
"W.W.I.P.D.I.D.d.` 3.4.5.|.}.x.z..Xx.v.v.@.( U H q.S.Q.P.P.P.I.(.",
"Q.~.P.I.P.I.F.i.N X.*.5.v.x.l.l.l.j.l.v.] ] K g 7.T.~.U.U.V.U.!.",
"U.I.P.P.P.I.T.a.I 5.>.<.|.|..X|.|.[.|.}.o.Y T P 0.E.Q.P.H.P.I.~.",
"W.I.H.I.F.I.Q.a.J 3.=.=.}.|.x.x.OXn.}.x._ ) ( H r.^.D.H.H.J.~.Q.",
"~.W.H.I.G.F.Q.i.! 5.%.=.@X$X$Xx.OXOX@X@X#.| ( S 9.^.!.U.K.H.I.T.",
"~.P.I.P.I.F.F.a.R =.4..X[.}.v.v.x.}.}.[.{.@.U C e.T.J.I.V.V.I.!.",
"~.P.P.P.I.I.Q.a.C 3.z..Xx.x.v.v.n.x.x.}.oX3.` 0 e.F.J.P.!.U.P.~.",
"~.P.U.J.I.Q.Q.a.J x.x.OXx.x.l.l.n.n.OXx.$Xm.h.N t.F.J.P.!.U.P.~.",
"~.P.P.P.I.I.T.i.{ &X%X+X+X%X%X@X%X+X%X}.#X%X$X%.t.(.J.P.W.H.P.~.",
"~.P.P.I.I.I.Y.i.( }.6.>.,.<.6.:.>.,.<.,.:.:.z.%.e.T.K.P.P.V.I.!.",
"~.P.P.P.I.P.D.i.e | I Y Z Y I Y J H Y Y Y Z T B y.D.K.I.W.P.I.~.",
"~.P.I.P.I.F.I.a.f D q s C S S D D A D A s 9 g k t.(.K.P.Q.P.U.W.",
"~.D.U.P.I.I.(.f.1.l # # $ o @ X + + +   X X f 1.p._.K.V.W.U.U.W.",
"~.J.I.U.J.D.T.~.J.E.> 9 - 4 9 t e r t % A O N.J.I.Q.G.I.P.I.I.W.",
"I.F.J.I.P.I.I.W.T.M.3 ' e - t w t 8 - & L 3 g.R.D.(.F.I.F.P.P.W.",
"Q.F.J.P.P.I.W.B.v c . [ D 9 8 * < 5 5 g ' & 3 , d.~.I.P.P.I.W./.",
"~.W.I.I.P.I.Y.d.2.b.t S A A C H g S i - a 9 u q w.Y.Q.P.P.I.P./.",
"~.Q.I.I.H.I.Y.a.@.oXH ; e m w w b n e e & h K t 7.E.~.J.L.P.P.!.",
"Q.I.F.I.P.Q.Q.a.+.{.` 9 S T ) ) T P U K = g K n 9.^.Q.G.J.J.P.^.",
"~.Q.G.I.P.Q.^.s.#.k. .0 H Y T ( ( I Y K $ Q -.) t.'.I.H.H.P.!.].",
"_.~.I.I.D.W.!.a._ c...4 H ) Y _ W ( ( J * ] v.<.e.'.F.H.J.H.W.!.",
"W.I.I.P.U.I.T.d.] m.h.-.e a i i a a 9 t H 3.x.&.t.'.H.K.L.P.I.~.",
"W.P.I.J.I.I.T.a._ @Xk.3.( K H H A H J ) { k.n.%.t.E.H.K.L.P.D.~.",
"~.D.I.P.I.Q.Q.i.O.XXXX=XXX=X=X=X=X=X*X*X#X+X+X;.e.!.G.V.U.P.P.(.",
"~.P.U.P.I.I.Q.i.r ` ( ~ J ! ! ! / I V ! J I ( H r.^.I.H.U.Q.I.~.",
"!.P.I.P.I.I.F.i.R 2.E E ) ) Y ( Y Y Y ) ) E E U 8.F.U.H.P.^.W.~.",
"W.P.I.H.P.F.D.d.X = @ @ $ < $ $ $ < $ * < o & o u.D.P.H.P.!.~.I.",
"~.I.I.H.I.F.Q.S.A.A.S.S.A.S.S.B.S.S.A.A.C.A.D.S.C.~.P.U.Y.!.D.D.",
"/.(.~.J.).~._.`.~.Q.~.!.I.~.(.~.~.`.~.!./.!./.W.].(.H.Q.!./.~.(."
};
