/* XPM */
static char *C[] = {
/* columns rows colors chars-per-pixel */
"32 32 151 2 ",
"   c #1A191F",
".  c #2B190F",
"X  c #321F11",
"o  c #332E10",
"O  c #382C12",
"+  c #2D3B1A",
"@  c #3F1926",
"#  c #2F2B20",
"$  c #27212B",
"%  c #3C2B21",
"&  c #3D302A",
"*  c #42290A",
"=  c #483002",
"-  c #6D2F1A",
";  c #6D241E",
":  c #581B2D",
">  c #531C2F",
",  c #551B31",
"<  c #5E2925",
"1  c #5F2029",
"2  c #542A2B",
"3  c #4C2333",
"4  c #52223A",
"5  c #5B3937",
"6  c #6D242B",
"7  c #63262D",
"8  c #782A2A",
"9  c #7D203D",
"0  c #7C2335",
"q  c #3C4C28",
"w  c #4D492C",
"e  c #5D4934",
"r  c #584D3B",
"t  c #5B4132",
"y  c #624229",
"u  c #725837",
"i  c #696935",
"p  c #5C164A",
"a  c #621F52",
"s  c #784E42",
"d  c #6A5D4D",
"f  c #694C50",
"g  c #744559",
"h  c #6C7441",
"j  c #727548",
"k  c #B73738",
"l  c #BB3B38",
"z  c #C33A28",
"x  c #DA3A3A",
"c  c #EC3E33",
"v  c #F74C1E",
"b  c #C24830",
"n  c #EC4B2E",
"m  c #F04438",
"M  c #F44C3F",
"N  c #E85438",
"B  c #A02F4D",
"V  c #A83A47",
"C  c #A43442",
"Z  c #A43652",
"A  c #AF3655",
"S  c #C43B45",
"D  c #E43F4F",
"F  c #A64A4B",
"G  c #B1455C",
"H  c #807E4B",
"J  c #C25649",
"K  c #D65957",
"L  c #E24C4E",
"P  c #FE4247",
"I  c #F35647",
"U  c #E74051",
"Y  c #E55151",
"T  c #EF684B",
"R  c #E1675C",
"E  c #ED6359",
"W  c #7B823F",
"Q  c #7C8346",
"!  c #7A914B",
"~  c #78875C",
"^  c #83803B",
"/  c #BFD63D",
"(  c #868245",
")  c #8F924F",
"_  c #989E54",
"`  c #9CB149",
"'  c #9EA15C",
"]  c #A5B85E",
"[  c #919960",
"{  c #FF825F",
"}  c #E38B71",
"|  c #BCCE4C",
" . c #BDCB53",
".. c #BDD355",
"X. c #BCD45C",
"o. c #BCDD5F",
"O. c #B4DE54",
"+. c #B7D446",
"@. c #BACD65",
"#. c #B4CA69",
"$. c #B4D065",
"%. c #BBD364",
"&. c #BCD869",
"*. c #BBD873",
"=. c #C4CC4E",
"-. c #CACB4C",
";. c #C0D647",
":. c #C2D847",
">. c #C4D54B",
",. c #CFD54F",
"<. c #C8D94C",
"1. c #D4D44C",
"2. c #C8CB54",
"3. c #C4CC5B",
"4. c #C2C655",
"5. c #D0CA50",
"6. c #C4D354",
"7. c #C8D056",
"8. c #C4DA54",
"9. c #C6D45C",
"0. c #C9D55C",
"q. c #C3DA5B",
"w. c #CCDB5B",
"e. c #CCDB55",
"r. c #D7D753",
"t. c #D2D55D",
"y. c #D6DB5B",
"u. c #CEE058",
"i. c #CEC661",
"p. c #C2CE61",
"a. c #CBC964",
"s. c #C0CF68",
"d. c #C9CD6C",
"f. c #D9CC66",
"g. c #C7D561",
"h. c #C9D662",
"j. c #C5DB63",
"k. c #CAD964",
"l. c #C5D56D",
"z. c #C3DD69",
"x. c #CDDB69",
"c. c #D3D664",
"v. c #D6D964",
"b. c #D4CF73",
"n. c #C4D774",
"m. c #CFD676",
"M. c #CEDE74",
"N. c #C2D47A",
"B. c #CFE26C",
"V. c #CCE071",
"C. c #C1D580",
/* pixels */
"x.x.g.g.g.k.k.0.k.g.g.g.l.k.k.g.k.g.k.k.g.h.h.h.g.w.g.g.h.h.k.x.",
"k.g.3.g.0.g.0.0.g.g.g.g.g.k.g.g.g.g.g.g.g.g.g.g.g.0.9.9.9.9.g.h.",
"g.g.9.9.0.9.9.3.9.9.9.9.0.9.9.9.3.g.0.p.g.g.g.9.0.9.9.6.9.%.g.g.",
"g.9.9.g.g.0.9.0.6.9.9.q.3.9.9.9.9.0.g.0.9.g.0.9.9.9.9.9.9.g.g.g.",
"h.h.9.9.0.0.0.0.9.0.0.0.9.9.9.9.g.0.0.w.9.9.9.9.0.6.0.9.9.9.g.k.",
"w.g.9.6.9.9.9.0.6.0.9.0.0.6.9.7.w.0.0.9.9.9.0.9.0.0.0.0.9.3.g.g.",
"g.9.9.9.9.6.0.0.9.9.9.9.9.9.9.9.9.9.9.0.9.6.6.6.7.0.0.7.7.9.9.g.",
"h.9.0.9.0.0.6.0.0.0.0.0.0.0.9.9.0.0.0.0.0.0.0.0.0.7.6.0.9.0.g.g.",
"k.k.9.9.9.6.w.0.9.g.0.c.| j.w.2.:.g.0.b.i.1.%.%.0.6.9.9.9.g.g.h.",
"k.g.9.9.9.9.9.0.j.9. .6...8.8.e.9.g./ 8.0.e.%.>.0.0.9.w.9.g.g.h.",
"g.g.9.9.9.9.0.0.7.w.w.X.&.%.$.*.h.n.X.%.&.o.g.r.0.6.w.9.9.9.9.k.",
"h.g.9.9.9.0.0.0.8.+.o.] ( = * d ` i & & i ` w.-.7.0.9.9.g.g.g.h.",
"l.g.9.9.9.9.0.0.w.| l.H s ; 6 g j 5 p a f Q M.6.0.9.w.9.9.g.g.g.",
"k.g.9.3.9.9.9.0.%.j.N.O 6 K R F , 6 A Z > # #.8.0.9.9.9.9.g.g.g.",
"k.g.9.9.0.0.9.0.g.3.N.X 0 E { } G z x k : $ N.>.7.w.0.9.0.g.g.h.",
"k.g.9.0.w.9.9.9.e.;.n.. 9 Y T } N v P S ,   n.1.9.9.0.9.9.g.g.h.",
"g.g.g.9.9.0.0.0.6.X.N.o < J I P n c U Z 3 + #.<.0.0.0.9.g.9.h.k.",
"k.k.g.9.9.6.0.0.q.g.m.^ u 8 l M m L C 7 e H M.0.0.0.0.9.9.g.g.h.",
"g.g.9.9.9.0.0.0.o.3.c.4.' t 8 b D V 2 w _ d.c. .0.0.0.9.9.g.g.h.",
"g.g.9.9.9.9.6.0.h.3.y...X.[ y - B 7 w ! @.t.=.w.0.0.9.0.9.0.h.h.",
"k.h.g.0.9.w.9.0.2.6.8...k.M.) r @ e _ s.p.k.>.8.9.9.0.9.9.9.g.k.",
"h.g.g.9.9.9.6.0.w.y...z.>.>.@.~ q j i.t.7.k.q.6.0.0.9.9.9.g.g.g.",
"k.g.g.9.9.9.0.0...9.3.k.| +.B.#.*.l.v.=.6...6.9.0.0.9.9.g.9.g.g.",
"k.g.9.9.9.9.0.0.O.p.f.5.8.&.9.1.<.>.0.6.u.>.9.d.0.9.9.9.9.0.g.h.",
"g.9.9.9.9.w.9.6.0.0.q.9.9.9.9.9.9.9.9.9.0.7.0.0.0.0.0.9.w.9.9.9.",
"g.9.3.9.9.6.9.7.0.9.9.9.9.q.9.9.9.9.9.9.0.0.0.0.0.8.6.9.9.9.g.9.",
"k.0.9.9.9.6.6.6.9.0.9.9.9.9.0.w.6.9.9.7.0.0.0.0.0.6.0.9.9.g.g.g.",
"g.g.g.9.0.0.9.0.g.9.9.9.9.9.9.0.9.9.9.9.0.0.0.0.0.6.0.9.9.w.h.h.",
"g.g.p.9.9.9.9.0.9.3.g.9.9.3.9.9.9.9.9.9.9.9.9.9.0.9.9.9.9.g.g.g.",
"g.g.9.g.9.9.9.0.9.9.9.9.9.9.g.9.q.9.9.9.g.3.3.9.0.9.9.9.9.p.g.g.",
"g.g.g.0.0.g.9.0.h.h.h.h.h.h.h.h.h.g.h.h.g.g.g.g.0.9.0.9.g.g.g.h.",
"x.g.k.g.g.g.w.0.h.x.h.h.h.h.h.k.k.h.h.g.h.h.k.g.0.0.g.g.g.h.x.x."
};
