/* XPM */
static char *C[] = {
/* columns rows colors chars-per-pixel */
"32 32 157 2 ",
"   c #251B0F",
".  c #2C210D",
"X  c #332D0D",
"o  c #2F2C1D",
"O  c #3F2B10",
"+  c #3A291F",
"@  c #3C361C",
"#  c #1C1B21",
"$  c #272226",
"%  c #372C26",
"&  c #452C04",
"*  c #6B2E1B",
"=  c #441D2F",
"-  c #561D2D",
";  c #571D33",
":  c #711C21",
">  c #5E2129",
",  c #572B2A",
"<  c #4B2436",
"1  c #502135",
"2  c #5D3B3A",
"3  c #602D2A",
"4  c #6F282C",
"5  c #74232C",
"6  c #792D29",
"7  c #662931",
"8  c #7A2437",
"9  c #32401F",
"0  c #3C4A29",
"q  c #4E4B2A",
"w  c #504D2C",
"e  c #5A4031",
"r  c #524A37",
"t  c #5D4833",
"y  c #64462E",
"u  c #614C37",
"i  c #705537",
"p  c #797F3F",
"a  c #676735",
"s  c #5D174B",
"d  c #5D1D51",
"f  c #703F55",
"g  c #774F45",
"h  c #664B50",
"j  c #61604E",
"k  c #6F7746",
"l  c #787C49",
"z  c #73754D",
"x  c #B53834",
"c  c #BD3C37",
"v  c #C43B28",
"b  c #DB3C39",
"n  c #E93B30",
"m  c #96463D",
"M  c #C24831",
"N  c #F64B20",
"B  c #F04D2E",
"V  c #F14338",
"C  c #E8543A",
"Z  c #9B294A",
"A  c #9D354C",
"S  c #A83949",
"D  c #A33444",
"F  c #AF3953",
"G  c #A43253",
"H  c #C03844",
"J  c #DF3A4B",
"K  c #F83F45",
"L  c #B14555",
"P  c #827D43",
"I  c #C15548",
"U  c #D75555",
"Y  c #E04A4C",
"T  c #FF4142",
"R  c #F74D40",
"E  c #E64152",
"W  c #F14E53",
"Q  c #F55B53",
"!  c #F65648",
"~  c #E2665A",
"^  c #778049",
"/  c #7D8343",
"(  c #78895C",
")  c #C1D63B",
"_  c #878441",
"`  c #829A4E",
"'  c #8F9150",
"]  c #9C9F58",
"[  c #989C54",
"{  c #9BAF4C",
"}  c #A0B550",
"|  c #929A61",
" . c #A7BA61",
".. c #E38C6A",
"X. c #FF8067",
"o. c #FF8B69",
"O. c #BCCF4C",
"+. c #BDD24C",
"@. c #BECE52",
"#. c #BFC05A",
"$. c #BDCF5F",
"%. c #BDD455",
"&. c #BFDA52",
"*. c #BDD45A",
"=. c #BED85B",
"-. c #B2E252",
";. c #B8C665",
":. c #BCCE65",
">. c #B3CC6B",
",. c #BAD163",
"<. c #B8DA61",
"1. c #B9D368",
"2. c #BFCC70",
"3. c #BFD276",
"4. c #BBD578",
"5. c #CBCB4F",
"6. c #C4D84B",
"7. c #CBDA4D",
"8. c #C4D34A",
"9. c #D2D34D",
"0. c #D5D849",
"q. c #CEC752",
"w. c #C4CC53",
"e. c #CACE54",
"r. c #C4CE5B",
"t. c #C9CC59",
"y. c #C5D454",
"u. c #CCD356",
"i. c #C5DA53",
"p. c #CADA54",
"a. c #C6D45C",
"s. c #C9D55C",
"d. c #C5DA5B",
"f. c #CBDC5A",
"g. c #D4D657",
"h. c #D3D35E",
"j. c #CEE05A",
"k. c #C9C762",
"l. c #CEC965",
"z. c #C9CD6C",
"x. c #D7CB65",
"c. c #C6D462",
"v. c #C9D662",
"b. c #C6DB64",
"n. c #CCD864",
"m. c #C5D36C",
"M. c #C9D66D",
"N. c #C2DB6B",
"B. c #CDDB69",
"V. c #D4D764",
"C. c #D7DA67",
"Z. c #D3CE72",
"A. c #C4D670",
"S. c #CBDD71",
"D. c #C4D27A",
"F. c #C9D879",
"G. c #CAD171",
/* pixels */
"B.n.c.c.n.v.v.v.c.v.n.v.v.v.n.c.v.v.v.v.n.c.v.v.v.v.v.n.c.v.M.n.",
"n.c.c.a.a.c.s.s.n.c.c.c.v.v.c.v.c.v.c.v.v.c.v.c.s.a.c.a.a.c.c.n.",
"c.c.r.c.a.a.a.w.a.a.a.a.a.a.c.a.a.r.a.a.a.a.a.a.a.a.y.a.a.r.c.c.",
"v.c.a.a.a.a.a.a.a.a.c.a.a.a.r.a.c.a.c.a.a.c.a.c.a.a.a.a.c.a.c.c.",
"v.c.a.c.s.s.a.s.a.a.a.s.a.a.y.s.a.s.s.s.s.y.a.a.y.a.s.s.a.a.v.n.",
"c.c.a.a.a.a.y.s.d.a.a.a.a.a.a.s.a.s.s.a.a.a.a.a.s.s.a.a.a.r.a.v.",
"s.a.a.y.y.y.s.y.a.a.a.a.a.a.s.a.s.s.s.s.a.a.a.a.y.a.s.y.a.a.a.c.",
"v.s.a.a.a.s.s.y.s.y.s.y.s.s.a.a.a.y.a.a.s.y.s.y.s.y.a.y.a.s.s.v.",
"v.v.a.a.a.a.a.s.a.c.r.h.w.c.c.e.6.c.a.Z.l.u.1.=.y.a.s.s.a.a.c.n.",
"v.v.c.a.a.a.a.a.n.s.@.i.i.i.&.i.a.c.) 6.s.i.c.y.s.a.d.a.a.a.c.v.",
"v.c.a.a.y.a.s.a.y.y.f.*.1.1.1.A.c.A.y.,.1.i.a.9.s.a.a.s.c.a.c.v.",
"v.c.a.a.s.s.s.y.p.+.b. ._ & & j { a % % k } n.5.y.a.a.a.a.a.v.v.",
"n.c.a.c.a.a.s.s.d.O.A.l g : 4 h z 2 s d h l S.y.a.s.s.s.a.c.c.v.",
"v.c.a.r.a.s.a.a.*.B.D.X 4 U ~ L 1 5 F A - o >.i.a.a.s.a.r.a.v.v.",
"v.v.a.c.s.a.s.y.$.s.D.. 8 Q o...L v b x - $ 3.8.a.s.a.s.a.a.c.v.",
"v.c.a.a.s.s.a.a.f.8.m.  8 W ~ ..C N T H ; # F.9.y.s.a.a.a.a.v.v.",
"n.c.a.a.a.y.s.a.y.*.4.& , I ! T B n E G < @ >.6.a.a.s.a.a.c.v.v.",
"v.c.a.c.a.s.s.y.d.c.F.P i 6 c R V Y D > u / S.y.s.a.a.s.a.a.v.v.",
"v.c.a.a.a.a.a.s.=.r.h.w.[ e 6 M E S , q ] t.V.r.s.a.a.d.a.a.c.v.",
"v.v.a.c.a.a.a.y.c.r.g.p.1.| y * Z 3 w ( :.u.w.s.y.a.a.a.a.a.v.v.",
"v.v.a.a.c.d.s.s.r.u.6.%.b.B.' r = t [ m.a.s.y.i.a.a.a.s.c.a.v.n.",
"v.v.c.a.a.a.a.s.h.f.%.N.O.6.1.( 0 p r.u.%.a.d.y.a.s.s.s.r.a.c.c.",
"n.c.a.r.a.a.s.y.%.a.r.n.@.+.B.;.1.M.C.w.y.y.%.a.y.s.a.a.a.a.c.v.",
"v.v.a.a.a.y.s.s.-.r.x.q.f.N.%.0.7.y.a.w.f.y.a.z.s.a.a.a.c.a.v.v.",
"c.s.a.a.y.s.s.y.a.a.a.a.y.a.y.s.y.a.s.s.a.y.a.a.y.s.c.s.s.a.a.c.",
"c.a.a.a.a.y.a.y.s.s.a.a.a.a.s.a.c.y.s.a.s.s.s.s.s.y.y.y.y.a.a.c.",
"v.s.a.a.a.a.a.y.s.a.a.a.a.s.a.s.a.a.a.a.a.s.s.a.y.y.s.s.a.a.a.v.",
"v.v.a.c.a.s.a.a.s.a.s.a.a.a.s.s.d.a.a.a.y.s.s.a.s.s.a.a.a.a.v.n.",
"c.c.c.a.s.a.s.a.r.c.a.a.a.r.a.a.a.a.a.a.a.a.a.a.a.a.a.a.a.c.c.c.",
"c.c.r.a.a.a.y.a.a.a.a.a.a.c.a.a.a.c.c.a.a.a.r.c.y.a.a.a.a.r.c.c.",
"n.c.c.r.a.s.a.a.v.v.v.c.v.c.v.v.c.v.c.c.v.c.v.c.a.c.a.c.r.c.c.n.",
"n.M.n.v.n.v.v.c.v.v.v.v.v.n.v.v.v.v.v.c.v.v.v.v.v.v.v.n.c.n.n.B."
};
