/* XPM */
static char *E[] = {
/* columns rows colors chars-per-pixel */
"32 32 178 2 ",
"   c #5F5B2E",
".  c #544B3C",
"X  c #605D28",
"o  c #615E35",
"O  c #615C3C",
"+  c #676A27",
"@  c #6A692D",
"#  c #727727",
"$  c #636033",
"%  c #6D6B35",
"&  c #64603B",
"*  c #6A673C",
"=  c #746E3F",
"-  c #777635",
";  c #7B7831",
":  c #7B7B3C",
">  c #584F40",
",  c #545044",
"<  c #5C5445",
"1  c #5C5649",
"2  c #5D594A",
"3  c #5E5550",
"4  c #60574E",
"5  c #645D4D",
"6  c #645E52",
"7  c #685F50",
"8  c #645C59",
"9  c #676141",
"0  c #6A6643",
"q  c #6E6A47",
"w  c #67624F",
"e  c #68624C",
"r  c #716C44",
"t  c #726C48",
"y  c #747243",
"u  c #787444",
"i  c #7D7D42",
"p  c #77744E",
"a  c #7D7B4A",
"s  c #666151",
"d  c #6B6455",
"f  c #6F6A57",
"g  c #6D655B",
"h  c #6E6A5B",
"j  c #736E54",
"k  c #72655B",
"l  c #736C5D",
"z  c #786F5E",
"x  c #797552",
"c  c #7D7B54",
"v  c #73705D",
"b  c #7B735C",
"n  c #7D795C",
"m  c #6A6461",
"M  c #6F6862",
"N  c #746D62",
"B  c #786F60",
"V  c #746D6A",
"C  c #796F6D",
"Z  c #767162",
"A  c #7A7464",
"S  c #777866",
"D  c #7F7863",
"F  c #777068",
"G  c #7C756B",
"H  c #7D796A",
"J  c #776D78",
"K  c #7C7472",
"L  c #7F7870",
"P  c #817D5A",
"I  c #827C64",
"U  c #827B6C",
"Y  c #807774",
"T  c #847D73",
"R  c #887F70",
"E  c #877E7C",
"W  c #8A7E7F",
"Q  c #808237",
"!  c #82813E",
"~  c #8B8C44",
"^  c #81804A",
"/  c #898C4A",
"(  c #959847",
")  c #92924A",
"_  c #97984A",
"`  c #989B4F",
"'  c #858451",
"]  c #898556",
"[  c #8C8C54",
"{  c #8D8B5A",
"}  c #949456",
"|  c #9B9B55",
" . c #97965D",
".. c #9C9D5C",
"X. c #9DA14B",
"o. c #9FA052",
"O. c #9DA05B",
"+. c #B2B94F",
"@. c #A3A553",
"#. c #A6AB57",
"$. c #A9AD57",
"%. c #A3A45A",
"&. c #A6A95A",
"*. c #ABAD5B",
"=. c #AEB557",
"-. c #ADB25A",
";. c #B2BA54",
":. c #B2B75A",
">. c #B5BB5B",
",. c #858062",
"<. c #898462",
"1. c #8D8966",
"2. c #87816D",
"3. c #89826D",
"4. c #938D6D",
"5. c #979562",
"6. c #9D9D63",
"7. c #95906A",
"8. c #9C9C6A",
"9. c #858172",
"0. c #8B8474",
"q. c #8F8876",
"w. c #87827F",
"e. c #8B837A",
"r. c #8E887A",
"t. c #918A77",
"y. c #938C7C",
"u. c #959073",
"i. c #95907C",
"p. c #A09965",
"a. c #AAAD60",
"s. c #A2A16B",
"d. c #A9A46A",
"f. c #AFB265",
"g. c #B7BC62",
"h. c #B9BD61",
"j. c #BEBC69",
"k. c #BFCB4B",
"l. c #BCC657",
"z. c #BDCA55",
"x. c #BBC35A",
"c. c #BDC364",
"v. c #C4D14E",
"b. c #CEDD4E",
"n. c #C2CD54",
"m. c #C3CE5B",
"M. c #C6D255",
"N. c #C9D454",
"B. c #C9D953",
"V. c #C6D25C",
"C. c #C9D55C",
"Z. c #CDD95C",
"A. c #D1DD5D",
"S. c #C1C662",
"D. c #C5CD61",
"F. c #C3CA6C",
"G. c #C8CF68",
"H. c #C6D262",
"J. c #CAD563",
"K. c #CCD964",
"L. c #C6D16B",
"P. c #CAD46B",
"I. c #CEDA6A",
"U. c #D1DB65",
"Y. c #D0D668",
"T. c #D2DB6C",
"R. c #C5CB73",
"E. c #C6CB79",
"W. c #C8CE78",
"Q. c #CCD671",
"!. c #CDDA70",
"~. c #D1D973",
"^. c #D3DA7A",
"/. c #8C8885",
"(. c #928A82",
"). c #928A88",
"_. c #9C9585",
"`. c #9F9A87",
/* pixels */
"K.K.K.J.V.V.V.K.L.H.P.Q.L.L.J.B.H.U.K.I.P.P.Q.L.J.J.z.K.J.K.K.I.",
"J.J.J.J.C.V.V.K.N.N.C.J.H.J.J.J.L.J.H.H.C.C.C.C.K.H.C.V.K.V.J.Z.",
"C.V.V.V.J.V.V.H.N.M.v.N.B.M.V.H.n.V.M.V.C.M.M.M.C.C.J.V.K.z.V.V.",
"C.C.V.V.V.C.V.V.T.C.M.N.B.B.M.C.Z.B.V.B.Z.C.C.J.V.L.C.J.V.K.H.K.",
"K.K.H.V.V.V.K.V.M.C.A.J.m.>.-.*.:.=.=.x.J.J.M.M.z.J.z.K.z.K.V.K.",
"K.K.V.V.V.V.V.V.N.N.J.S.&.{ <.I I ,.{ | g.G.M.B.K.K.K.z.V.z.J.H.",
"Z.V.z.V.V.V.z.z.P.h.a. .P I q.e.K E U c [ #.>.G.J.V.K.K.K.J.K.K.",
"K.J.V.V.K.K.K.z.p.' p j j R y.3.T (.t.x 0 r a 5.z.z.z.K.z.K.z.H.",
"J.K.c.Z.M.x...3.S h v r.U U y.y.y.r.e.T U 0.U h i } f.P.M.B.C.!.",
"J.z.B.Z.c.6.P I v 9.y.y.N h A B A G H U 0.y.e.H p a ^ #.z.Z.M.I.",
"K.B.b.z.8.G l I 0.r.9.f < . < < 2 2 2 s F H T 0.9.H f [ $.D.M.B.",
"!.V.z.` D J K q.i.v 2 . O 4 5 d h l s s h h N U w.Y S S ^ *.D.U.",
"!.=.O.x g F T E A < . 7 k z Z S Z A l h Z l d N Y K C Y j ] @.h.",
"L./ ,.S A S I C < < s z d d d f l g g h B N h d j 0.U T Y R ] %.",
"c.' 9.w.9.3.3.G , d I h 5 d h v Z Z N N h N Z h k q.0.T W y.1.p.",
"W.] 9.L N 9.y.U 2 v U 5 h S S Z A Z U Z 6 l G l N 0.0.e.C Y <.s.",
"W.] 0.).r.U r.H , G w.M M L L G S H H Z h v A v k R 0.9./.y.4.6.",
"F.[ `.E w.t.H F 2 h G B M S L H A H 2.S A U Z 5 k A Y T w.e.4.d.",
"c.+ n V 8 Z 9.H S Z D H S Z D B S S S Z Z G N d z U C m V v u ) ",
"~.# $ A M 8 e.i.q.S A A Z S Z A H Z N Z N l N I t.0.8 M U r @ o.",
"T.c./ c r.M s H q.q.U v k l b D G Z l N Z Z T (.i.8 4 T u.i _ !.",
"H.I.c.: n 0.s s H t.i.9.I b A U U Z N N R y.r.R d < M I = _ Q.!.",
"K.m.K.X.y 3.e.D j A 3.0.R R 0.0.U R U U 0.R z 5 2 A U r ; >.T.l.",
"I.M.N.L.6.j e.(.U 7 5 d j R y.0.U q.0.D h 5 5 d T r.e = j.U.z.I.",
"I.V.M.U.m.` ! r W W Y k 7 W _.R 3.y.y.k 4 G W W j * ! +.A.N.v.A.",
"L.H.M.Z.C.S.*.` j P P P z R (.E e.E R z j I t O i %.F.J.M.M.C.J.",
"m.P.K.m.V.K.J.z.@.~ - % O 7 k C g N z O o @ ! | x.D.J.C.C.J.J.P.",
"V.J.Y.V.M.N.Z.N.T.m.>.*.~ % o o t o X - o.g.m.G.A.N.M.Z.J.m.C.P.",
"A.Z.C.J.J.C.C.N.M.M.C.Y.x.;.;.>.@.$.:.S.L.V.N.Z.v.B.Z.Z.n.J.Z.Z.",
"N.N.N.C.C.J.V.V.Z.C.N.N.C.N.M.k.U.Z.n.N.Z.M.N.N.B.J.C.z.n.M.B.V.",
"m.G.J.J.m.m.J.J.N.C.C.J.C.C.Z.C.C.M.n.C.J.V.K.C.P.z.H.K.K.z.V.L.",
"^.Y.Y.J.J.J.J.J.C.J.J.H.P.P.P.P.P.P.J.Y.I.z.I.I.P.I.K.K.K.I.!.I."
};
