/* XPM */
static char *E[] = {
/* columns rows colors chars-per-pixel */
"32 32 190 2 ",
"   c #5D592A",
".  c #55493B",
"X  c #584C3E",
"o  c #5F5B36",
"O  c #645E2C",
"+  c #625F34",
"@  c #625D3C",
"#  c #737828",
"$  c #656136",
"%  c #686633",
"&  c #6D6C33",
"*  c #66623F",
"=  c #6B673A",
"-  c #746E3C",
";  c #737432",
":  c #7D7932",
">  c #7A7938",
",  c #666926",
"<  c #5B4F41",
"1  c #555145",
"2  c #5C5143",
"3  c #595846",
"4  c #5C554B",
"5  c #5F594B",
"6  c #615748",
"7  c #625B4D",
"8  c #625C52",
"9  c #6B5F51",
"0  c #645F5C",
"q  c #6C6643",
"w  c #63604F",
"e  c #6E6B48",
"r  c #716743",
"t  c #716F42",
"y  c #746E4A",
"u  c #767344",
"i  c #787041",
"p  c #7D7D41",
"a  c #76734E",
"s  c #78754C",
"d  c #7D7B4A",
"f  c #666152",
"g  c #6B6454",
"h  c #6C655A",
"j  c #6E695B",
"k  c #716557",
"l  c #746D54",
"z  c #72655C",
"x  c #736C5D",
"c  c #786E5E",
"v  c #6F705E",
"b  c #777154",
"n  c #7A7551",
"m  c #76715D",
"M  c #7C745D",
"N  c #7F795E",
"B  c #7C7A54",
"V  c #6E6664",
"C  c #746E62",
"Z  c #746D69",
"A  c #786F6A",
"S  c #757263",
"D  c #7A7465",
"F  c #777866",
"G  c #7E7963",
"H  c #7B756A",
"J  c #7D7A6B",
"K  c #776D76",
"L  c #7D7473",
"P  c #7E7B74",
"I  c #807F47",
"U  c #817F4C",
"Y  c #807C56",
"T  c #817C5F",
"R  c #827D66",
"E  c #837C6D",
"W  c #827776",
"Q  c #847C72",
"!  c #897F75",
"~  c #877D7A",
"^  c #887E7D",
"/  c #818137",
"(  c #81803D",
")  c #8A8C47",
"_  c #82824C",
"`  c #8C8F4C",
"'  c #928F4A",
"]  c #8E9140",
"[  c #94974E",
"{  c #989B4B",
"}  c #969B4B",
"|  c #878654",
" . c #888754",
".. c #8A8B50",
"X. c #83815C",
"o. c #8E8C5A",
"O. c #999A56",
"+. c #98975E",
"@. c #97985F",
"#. c #9C9D5D",
"$. c #949456",
"%. c #A19F52",
"&. c #9BA147",
"*. c #9DA34B",
"=. c #9EA15C",
"-. c #A0A44F",
";. c #A8A755",
":. c #A7AB57",
">. c #A8AC57",
",. c #A3A45B",
"<. c #A5A859",
"1. c #ABAE5B",
"2. c #ADB357",
"3. c #ADB25A",
"4. c #B0B654",
"5. c #B1B951",
"6. c #B4B558",
"7. c #B3B959",
"8. c #B9BF5D",
"9. c #868165",
"0. c #888461",
"q. c #8D8966",
"w. c #85816B",
"e. c #89826E",
"r. c #918C66",
"t. c #938D6F",
"y. c #979660",
"u. c #9B9C60",
"i. c #9D9D69",
"p. c #838071",
"a. c #8A8374",
"s. c #8D8976",
"d. c #87837A",
"f. c #8B857A",
"g. c #8E8A7B",
"h. c #938C7D",
"j. c #A09965",
"k. c #A0A062",
"l. c #A4A26F",
"z. c #A8A268",
"x. c #B0B366",
"c. c #B7BD62",
"v. c #BDBB68",
"b. c #BCBC62",
"n. c #B9C452",
"m. c #BECA53",
"M. c #BCC35A",
"N. c #BCCA58",
"B. c #BAC163",
"V. c #C1CE4A",
"C. c #C4D24E",
"Z. c #CEDD4E",
"A. c #C3CE54",
"S. c #C3CE5B",
"D. c #C9CE5A",
"F. c #C6D355",
"G. c #C9D554",
"H. c #CBD856",
"J. c #C6D35C",
"K. c #C9D55D",
"L. c #CCD95C",
"P. c #D0D65A",
"I. c #D1DD5B",
"U. c #C3C663",
"Y. c #C5CD63",
"T. c #C4CA6B",
"R. c #C6D364",
"E. c #CAD562",
"W. c #C7D866",
"Q. c #CCD963",
"!. c #C7D26A",
"~. c #CAD36B",
"^. c #CDDB6A",
"/. c #D1DB62",
"(. c #D1DB6D",
"). c #C8CE74",
"_. c #C7CC7C",
"`. c #C5CB73",
"'. c #CED671",
"]. c #CCD972",
"[. c #D2DB70",
"{. c #D5DC7C",
"}. c #897C83",
"|. c #8A8282",
" X c #8A8984",
".X c #948B82",
"XX c #90878A",
"oX c #969080",
"OX c #9B9381",
"+X c #9C9688",
/* pixels */
"Q.Q.Q.K.R.R.K.Q.R.!.~.~.~.W.Q.H.K.^.Q.Q.~.!.].~.R.L.R.R.Q.Q.Q.^.",
"E.K.E.Q.K.K.J.K.H.J.K.E.R.R.R.E.R.W.R.E.J.J.L.J.E.J.J.J.L.J.J.L.",
"J.J.J.J.J.K.J.J.G.F.C.F.F.H.J.J.m.J.m.K.L.F.G.C.J.J.R.K.K.J.J.J.",
"E.J.J.J.J.J.R.J./.J.C.C.H.G.F.J.L.L.J.L.K.J.G.E.J.E.K.K.J.K.K.R.",
"Q.R.J.J.J.K.R.K.J.G.K./.S.5.3.3.4.4.4.M.R.Q.D.F.N.J.J.J.N.J.J.Q.",
"Q.L.J.J.J.J.J.J.G.G.~.U.,.o.0.9.G X.o.O.c.E.F.G.Q.J.L.N.K.J.K.R.",
"Q.K.J.N.J.K.J.N.~.8.1.+.Y R f.^ P ~ E B ..<.6.!.J.J.Q.Q.L.K.K.Q.",
"Q.J.R.J.L.K.J.N.k._ a l l ! h.e.Q .Xh.b q t d y.m.N.J.J.R.J.J.R.",
"R.R.R.J.J.M.#.w.F v v s.E E h.h.h.h.f.Q Q p.R j p $.x.!.G.G.E.'.",
"Q.H.H.J.B.u.Y R v p.g.g.D x D c D D H J f.h.a.J n s I :.S.H.A./.",
"J.G.Z.n.i.H C R a.h.w.j < . 2 2 4 7 5 f S E Q f.P J l  .>.D.D.P.",
"(.J.A.} G K L s.h.m 3 X 2 6 f k j j 9 f h j x Q |.P A N U 1.T./.",
"(.2.=.s h A Q f.D < . 9 z c m M D S x x D j f c W H A H l  .,.B.",
"T.` w.A D G J A 6 2 g c g k g j x h h j C C x f C ! Q Q W R o.%.",
"`._ a.~ p.w.w.H X g D x w j j v D C C x h S D h g s.a.Q ~ .Xe.j.",
"_._ a.H A Q h.Q 6 m R 8 j F F v S D E S f x D x c a.a.! L J 0.l.",
").| f.XXg.R s.L 1 H P C C J J H J D F D j S D v z E a.d. X Xt.j.",
"T...+X|.d.g.R Z 4 C F C V A J J D J p.J S D v f z H E P |.a.y.z.",
"T., M A 0 A p.E S D F J S S H S H F D S S H D h l E A 0 Z l u ' ",
"^.# $ D V 8 p.h.f.J D F S D D D H S C S C x C D h.! h V Q e & *.",
"^.c.) B g.C 8 E s.a.E m k c D D H S C C D C Q h.OX8 6 Q t.d { '.",
"Y.[.B.> N ! 8 g J h.h.a.R c D R H D C C ! h.h.a.f 4 V T - } !.W.",
"~.F.Q.&.u w.a.D l D w.a.E ! a.a.R ! E E a.a.C 7 3 H R r : 8.[.N.",
"(.A.G.~.+.m f.h.E f 7 g b ! h.a.Q f.a.D k 7 7 k p.f.k - v.E.m.^.",
"^.A.G.I.S.*.> u }.^ W z 9 a.OXe.e.h..Xx 6 A a.^ l = ( 4.P.C.C./.",
"~.W.J.J.Y.U.1.} y Y T M c ! .X^ ! ! Q c l R n @ p ,.T./.D.F.K.K.",
"Y.~./.A.J.E.W.M.1.( : % @ g C V j C l @ O % ( { M.Y.E.K.J.E.E.~.",
"J.E.E.D.D.J.H.H./.S.M.3.) & + + r @ O > %.b.U.~.I.G.F.K.J.S.D.(.",
"/.H.F.E.K.K.G.G.D.F.K.E.M.4.4.7.;.1.6.U.~.D.F.P.C.H.L.L.J.J.K.Q.",
"F.G.K.K.E.E.E.J.P.J.F.F.G.H.G.V./.K.V.D.H.F.F.G.G.K.J.N.J.K.L.F.",
"D.R.E.E.Y.D.Y.E.J.K.E.H.J.J.J.G.K.J.S.K.L.J.Q.J.R.D.J.Q.Q.N.N.Q.",
"{.'.~.E.E.E.E.E.K.K.~.E.~.~.'.].W.Q.R.^.R.R.^.Q.~.W.Q.Q.W.^.^.]."
};
