/* XPM */
static char *E_A[] = {
/* columns rows colors chars-per-pixel */
"32 32 244 2 ",
"   c #1A133F",
".  c #311233",
"X  c #232939",
"o  c #35353B",
"O  c #302C36",
"+  c #10263B",
"@  c #46393A",
"#  c #673636",
"$  c #3F4939",
"%  c #3C5731",
"&  c #5C6419",
"*  c #494738",
"=  c #575B3A",
"-  c #50473E",
";  c #5A6432",
":  c #696A3F",
">  c #6E783B",
",  c #674D34",
"<  c #372B47",
"1  c #293A47",
"2  c #3B344D",
"3  c #363A4A",
"4  c #383956",
"5  c #2B2D46",
"6  c #3D3765",
"7  c #433947",
"8  c #583D48",
"9  c #433D54",
"0  c #463655",
"q  c #563A55",
"w  c #683E4C",
"e  c #433D63",
"r  c #27494B",
"t  c #2B4456",
"y  c #354858",
"u  c #374F4E",
"i  c #35674F",
"p  c #295B71",
"a  c #2F4C69",
"s  c #1A6A75",
"d  c #1B616D",
"f  c #376867",
"g  c #266878",
"h  c #356778",
"j  c #277877",
"k  c #377876",
"l  c #326E63",
"z  c #1D576B",
"x  c #4B4849",
"c  c #584648",
"v  c #475148",
"b  c #474659",
"n  c #564655",
"m  c #525453",
"M  c #62424B",
"N  c #634854",
"B  c #6D5559",
"V  c #744251",
"C  c #43655B",
"Z  c #4E7255",
"A  c #727158",
"S  c #4C4267",
"D  c #564864",
"F  c #415465",
"G  c #485777",
"H  c #595A6B",
"J  c #745461",
"K  c #664764",
"L  c #49636B",
"P  c #466976",
"I  c #4D736F",
"U  c #67667B",
"Y  c #6E736E",
"T  c #C93F3D",
"R  c #835658",
"E  c #837256",
"W  c #A27B5A",
"Q  c #966C62",
"!  c #8F767A",
"~  c #A65544",
"^  c #DE765B",
"/  c #E86D50",
"(  c #278779",
")  c #378C6D",
"_  c #56975F",
"`  c #7E8B49",
"'  c #778B58",
"]  c #709545",
"[  c #458269",
"{  c #458578",
"}  c #4C9776",
"|  c #5A8A74",
" . c #6C8A75",
".. c #4AAC7D",
"X. c #3BC276",
"o. c #80943B",
"O. c #8B9649",
"+. c #979C47",
"@. c #898B5B",
"#. c #988C5C",
"$. c #899455",
"%. c #92975E",
"&. c #83804D",
"*. c #A48556",
"=. c #A8A756",
"-. c #A9B85A",
";. c #B3BA5A",
":. c #858B64",
">. c #949B69",
",. c #938E72",
"<. c #9BA865",
"1. c #A9B968",
"2. c #B5BB6A",
"3. c #ACAF77",
"4. c #A0A162",
"5. c #D48955",
"6. c #FA8956",
"7. c #EF9056",
"8. c #FC8263",
"9. c #FF9566",
"0. c #D8A77A",
"q. c #CDBB70",
"w. c #F2BB79",
"e. c #EBB171",
"r. c #BAD54C",
"t. c #BDCC5B",
"y. c #BBC859",
"u. c #BED355",
"i. c #BED55B",
"p. c #BADA55",
"a. c #BECF4B",
"s. c #BDCB64",
"d. c #BCCC6A",
"f. c #BAC664",
"g. c #BDD567",
"h. c #C3CF4D",
"j. c #C4D24D",
"k. c #C9D74A",
"l. c #C4CD5D",
"z. c #C8CD56",
"x. c #C4D454",
"c. c #C9D553",
"v. c #C4DA54",
"b. c #C4D45B",
"n. c #CBD35C",
"m. c #C4DA5A",
"M. c #CADA5C",
"N. c #CADA56",
"B. c #D1D459",
"V. c #CEE559",
"C. c #C3CC64",
"Z. c #C7CA69",
"A. c #D3C86E",
"S. c #C4D462",
"D. c #CAD463",
"F. c #C5D964",
"G. c #CBDB63",
"H. c #C5D46A",
"J. c #CBD46B",
"K. c #CCDA6A",
"L. c #C4DC6C",
"P. c #D2DA64",
"I. c #D3D96B",
"U. c #D2D566",
"Y. c #C7C878",
"T. c #C7D675",
"R. c #D3D474",
"E. c #D6CE75",
"W. c #F6C77C",
"Q. c #D3E268",
"!. c #CAE166",
"~. c #277882",
"^. c #367388",
"/. c #337A91",
"(. c #2C6C8B",
"). c #5C5E85",
"_. c #5A7989",
"`. c #656E85",
"'. c #75788E",
"]. c #1E8E8C",
"[. c #248884",
"{. c #2A9385",
"}. c #299793",
"|. c #37968E",
" X c #37BB8A",
".X c #28A898",
"XX c #37A496",
"oX c #3BB298",
"OX c #26AD94",
"+X c #3781A4",
"@X c #33B6A5",
"#X c #5A8A83",
"$X c #509290",
"%X c #679B84",
"&X c #758B8B",
"*X c #44B68B",
"=X c #44A792",
"-X c #49BC99",
";X c #55B998",
":X c #4BA98B",
">X c #7B95A1",
",X c #42AFA9",
"<X c #3CC88A",
"1X c #39C899",
"2X c #35D99D",
"3X c #37E1A2",
"4X c #3CD4AD",
"5X c #47C889",
"6X c #46C796",
"7X c #56C896",
"8X c #53CC8E",
"9X c #62D98C",
"0X c #72D298",
"qX c #63E594",
"wX c #56C6AD",
"eX c #79F7A6",
"rX c #4CCFC1",
"tX c #9C9BA7",
"yX c #9998B0",
"uX c #8892A4",
"iX c #8BA6B3",
"pX c #A8A9B3",
"aX c #AC9281",
"sX c #F1B980",
"dX c #C7B2BB",
"fX c #83F89F",
"gX c #8CF1AE",
"hX c #E9C784",
"jX c #EDC798",
"kX c #F8D28A",
"lX c #F5ECAC",
"zX c #F8D7AC",
"xX c #B9B7C2",
"cX c #C2B6C4",
"vX c #B7C5D3",
"bX c #B6D0D6",
"nX c #CACED5",
"mX c #FFFCCC",
"MX c #CADDE1",
"NX c #ECD6E7",
"BX c #E2FBFB",
"VX c #F8FEFA",
"CX c #E1F0ED",
"ZX c #F0D1D7",
/* pixels */
"K.M.S.T.D.v.N.M.!.H.d.Q.x.F.L.g.P.i.g.g.I.n.n.H.m.n.D.G.v.b.J.D.",
"b.b.b.H.b.x.N.S.s.k.V.y.I.M.c.H.hXi.v.t.T.L.x.v.Y.P.h.x.L.D.D.S.",
"G.b.S.C.b.v.b.2.b O.1.$ 6 2 @ q ` v.k.> b 2 7 7 , ;.h.u.C.t.c.b.",
"b.b.b.C.b.M.;.%.B A %.Y U R R V A <.<.A J V V w # #.f.b.D.N.c.n.",
"S.b.G.l.b.x.O.= q.Q J zXkXhXw.e.R o 3 ,.sX6.7.5.~ M ' r.c.n.c.U.",
"b.x.b.l.x.b.$.x zX! x mX3.M R e.W .   ,.sX6.8.8.^ q ' v.k.c.u.D.",
"G.x.G.u.x.b.@.n lXd.+.lX,.N E hX0.Q R 0.W.7.9.6./ w ' r.z.D.m.C.",
"b.x.G.x.N.S.:.D hXzXhXzXjXW.e.w.hXe.7.e.e.5.5./ T w ] v.E.C.v.I.",
"K.t.x.M.S.G.+.5 m m M @ v c J v c n M N N q n n 7 0 :.g.T.u.k.J.",
"C.G.F.y.H.$.,.pX4 a >XpXuXL 5 `.&X#XP 2 4 P P a U H A $.g.v.c.J.",
"D.G.y.K.L.* yXnXD U cXNXbX'.0 uXxXiX>XS b '._.'.`.`.H = y.x.b.J.",
"b.u.S.b.b.= n b 0 2 b D b 2 7 4 9 e 9 1 4 b 9 2 4 y 9 x d.v.D.D.",
"M.S.c.a.K.-.; < a g d p d s ^.h (.h z (.^.z h p a 1 < = f.u.C.z.",
"N.S.G.Z.O.t.1.S ~.~.( .X@X}.(.|.}..X@X( j oXOX{.h r m E f.b.G.G.",
"J.b.d.@.= >.>.7 XXf f |.wX#Xy {.1X1X;Xi i ;X6X X/.u @.q.I.i.x.C.",
"T.N.& '.nXY o x ,Xh X 3 y 2 5 |.4X=Xr tXpXL :X X/.r O.B.S.b.v.D.",
"m.D.2 '.VXcXK 5 f #X,.| i I %XI G L  .ZXNXX $X-Xj t #.C.c.n.l.G.",
"m.J.9 U CXVXxXt O %XgXgX9XqX0Xm + I CXVXcXx ) <X+X1 #.U.h.C.R.a.",
"p.C.7 Y MXVXMX>X0 o C 8X9X} m O G xXVXBXyX3 { 1X(.r @.D.z.l.J.p.",
"b.D.@.' Y bXxXL e y ( 2X3X XP y K uXbXiXL l *X<XoX|.Z ` C.I.b.L.",
"F.G.D.=.3 _.).O < h $X} } :X{ y . 0 '.F l -X<X5X5X5X) C %.s.S.H.",
"F.u.j.=.3 t 4 q e 0 0 7 7 7 2 y 4 < 4 k *X6X5X5X<X<X7X#Xv $.S.x.",
"G.C.n.+.$ I _.< a h ~.s s g g s j h k =X6X5X5X*X;XoXwX$Xu $.F.c.",
"N.T.Z.;.Y _ I 3 s {.].}.XXXXXXXXXX.XOX6X5XX.5X..k ( ]._.Z -.x.J.",
"S.D.x.c.Z.: 3 y [.{.{.oX6X6X8X5X5X8X8X5X6X<X7X) < 0 o > f.N.x.S.",
"n.F.m.c.A.= f $X X6X<X5X5XqXeX9XqXfXgX9X5X6X;Xj * 3.2.;.n.c.j.x.",
"B.b.m.z.A.= k rXwX$X) [ I | %X[ _  . .| ) oX@X].v @.f.j.c.x.x.m.",
"c.b.b.n.E.= l =X$XP u x * - c x c # M x f k /.(.a 3 ` Y.U.n.D.F.",
"p.D.l.z.d.; % $ % ] 1.d.Z.y.s.f.d.f.f.2.@.$ u 4 t o :.Y.z.h.M.d.",
"i.S.b.b.F.<.#.*.o.;.H.l.h.k.j.r.p.r.x.K.s.O.%.>.` $.2.D.h.k.x.T.",
"S.H.i.x.x.H.J.A.R.R.J.Z.J.J.D.S.R.D.t.i.F.i.F.g.!.m.x.h.c.c.b.J.",
"I.H.F.N.j.P.p.p.c.c.G.M.i.b.F.m.n.S.!.x.M.M.B.B.n.n.N.M.D.T.H.G."
};
