/* XPM */
static char *E_D[] = {
/* columns rows colors chars-per-pixel */
"32 32 243 2 ",
"   c #1A133F",
".  c #311233",
"X  c #232939",
"o  c #35353B",
"O  c #312C36",
"+  c #10263B",
"@  c #46393A",
"#  c #673636",
"$  c #3E4A39",
"%  c #3C5731",
"&  c #5C6419",
"*  c #494738",
"=  c #575B3A",
"-  c #50473E",
";  c #5A6432",
":  c #696A3F",
">  c #6E783B",
",  c #664C33",
"<  c #372B47",
"1  c #2A3B49",
"2  c #3B344D",
"3  c #36394A",
"4  c #383956",
"5  c #2B2D46",
"6  c #3D3765",
"7  c #433947",
"8  c #593D48",
"9  c #433D54",
"0  c #463655",
"q  c #563A55",
"w  c #693E4D",
"e  c #433D63",
"r  c #27494C",
"t  c #294557",
"y  c #344957",
"u  c #364E4C",
"i  c #35674F",
"p  c #295B71",
"a  c #2F4C69",
"s  c #1A6A76",
"d  c #1B616D",
"f  c #376967",
"g  c #266878",
"h  c #366877",
"j  c #277877",
"k  c #387876",
"l  c #326E63",
"z  c #1D576B",
"x  c #4B4849",
"c  c #584648",
"v  c #475248",
"b  c #464659",
"n  c #564655",
"m  c #525453",
"M  c #62424B",
"N  c #634854",
"B  c #734255",
"V  c #71494F",
"C  c #43655B",
"Z  c #4E7255",
"A  c #727158",
"S  c #4C4267",
"D  c #564864",
"F  c #5A5A68",
"G  c #485777",
"H  c #485769",
"J  c #745461",
"K  c #684D63",
"L  c #49636B",
"P  c #466877",
"I  c #50736E",
"U  c #67657A",
"Y  c #6E736E",
"T  c #C93F3D",
"R  c #835758",
"E  c #837156",
"W  c #A27B5A",
"Q  c #966C62",
"!  c #8F767A",
"~  c #A65544",
"^  c #DE765B",
"/  c #E86D50",
"(  c #278779",
")  c #368B71",
"_  c #388C69",
"`  c #56975F",
"'  c #7E8B49",
"]  c #778B58",
"[  c #709545",
"{  c #458269",
"}  c #448678",
"|  c #4C9776",
" . c #5A8973",
".. c #6C8A75",
"X. c #4AAC7D",
"o. c #3BC276",
"O. c #80943B",
"+. c #8B9649",
"@. c #979C47",
"#. c #898B5B",
"$. c #988C5C",
"%. c #899455",
"&. c #92975D",
"*. c #82804D",
"=. c #A48556",
"-. c #A8A756",
";. c #A9B85A",
":. c #B3BA5A",
">. c #858B64",
",. c #949B69",
"<. c #938E72",
"1. c #9BA864",
"2. c #A9B868",
"3. c #B0B471",
"4. c #A0A162",
"5. c #D48955",
"6. c #FA8956",
"7. c #EF9157",
"8. c #FC8263",
"9. c #FF9566",
"0. c #D8A77A",
"q. c #CDBB70",
"w. c #F2BB79",
"e. c #EBB171",
"r. c #B9D54C",
"t. c #BDCC5B",
"y. c #BBC859",
"u. c #BED456",
"i. c #BFD45A",
"p. c #BADA55",
"a. c #BECF4B",
"s. c #BDCB65",
"d. c #BCCC6A",
"f. c #B9C565",
"g. c #BCD666",
"h. c #C3CF4D",
"j. c #C4D24D",
"k. c #C9D74A",
"l. c #C4CD5D",
"z. c #C8CD56",
"x. c #C3D454",
"c. c #CAD553",
"v. c #C4DA54",
"b. c #C4D45B",
"n. c #CBD35C",
"m. c #C4DA5A",
"M. c #CADA5C",
"N. c #CADA56",
"B. c #D1D55A",
"V. c #CEE559",
"C. c #C3CC64",
"Z. c #C6C96A",
"A. c #D3C86E",
"S. c #C4D462",
"D. c #CAD463",
"F. c #C4DA65",
"G. c #CBDB63",
"H. c #C5D46A",
"J. c #CBD46B",
"K. c #CCDA6A",
"L. c #C5DC6E",
"P. c #D2DA64",
"I. c #D3DA6B",
"U. c #D2D566",
"Y. c #C7C878",
"T. c #C7D675",
"R. c #D2D474",
"E. c #D6CE75",
"W. c #F6C77C",
"Q. c #CAE166",
"!. c #D3E268",
"~. c #277882",
"^. c #367589",
"/. c #2E6F8C",
"(. c #5C5E85",
"). c #5A7989",
"_. c #676E84",
"`. c #75788E",
"'. c #1E8E8D",
"]. c #248884",
"[. c #2A9386",
"{. c #299793",
"}. c #37968E",
"|. c #37BB8A",
" X c #28A898",
".X c #37A496",
"XX c #3BB298",
"oX c #26AD94",
"OX c #3781A4",
"+X c #33B6A5",
"@X c #5A8A83",
"#X c #509290",
"$X c #679B84",
"%X c #758B8B",
"&X c #43B58A",
"*X c #43A892",
"=X c #49BC99",
"-X c #55B998",
";X c #4FA98A",
":X c #7B95A1",
">X c #42AFA9",
",X c #3CC88A",
"<X c #39C899",
"1X c #35D99D",
"2X c #37E1A2",
"3X c #3CD4AD",
"4X c #4ACB8B",
"5X c #46C789",
"6X c #46C796",
"7X c #56C896",
"8X c #53CC8E",
"9X c #62D98C",
"0X c #72D298",
"qX c #63E694",
"wX c #56C6AD",
"eX c #79F7A6",
"rX c #4CCFC1",
"tX c #9C9BA7",
"yX c #9998B0",
"uX c #8892A4",
"iX c #8BA6B3",
"pX c #A8A9B2",
"aX c #AD9281",
"sX c #F1B980",
"dX c #C7B2BB",
"fX c #8AF3AB",
"gX c #E9C784",
"hX c #EDC798",
"jX c #F8D18A",
"kX c #F5ECAC",
"lX c #F8D7AC",
"zX c #B9B7C2",
"xX c #C2B6C4",
"cX c #B7C5D3",
"vX c #B6D0D6",
"bX c #CACED5",
"nX c #FFFCCC",
"mX c #CADDE1",
"MX c #ECD6E7",
"NX c #E2FCFB",
"BX c #F8FEFA",
"VX c #E1F0ED",
"CX c #F1D2D8",
/* pixels */
"G.J.S.v.G.D.x.M.K.n.z.I.H.H.i.P.g.L.F.x.!.C.T.F.M.N.v.S.K.D.n.K.",
"D.D.S.F.u.j.U.Y.x.m.H.T.u.k.P.Y.S.N.B.J.y.V.k.C.g.N.x.b.H.S.i.n.",
"b.c.l.H.y.c.:., x 7 2 n > r.N.E q @ 2 6 $ ;.' S 3.b.v.l.s.S.M.F.",
"x.c.n.D.m.f.$.# w B w J A 1.1.A V R J U Y &.*.J &.y.M.x.t.b.b.n.",
"K.h.B.k.a.' M ~ 7.7.7.w.<.1 o R e.w.gXjXkXB Q q.= +.x.M.S.G.m.n.",
"U.h.z.k.v...w ^ ^ 6./ jXaX  . Q e.R N 4.nXx ! lXx %.b.x.x.S.u.n.",
"C.m.D.z.r.] w ^ 6.9.7.W.0.J Q sXgXQ c ,.kX@.d.kXn #.b.x.u.D.x.G.",
"K.v.C.E.v.' 8 T / 5.5.e.e.5.e.sXw.w.W.hXlXhXlXgXD >.S.x.x.D.x.m.",
"J.k.x.T.g.>.b 2 n n c N N c c 8 u J N v * M n F < @.G.S.M.x.t.K.",
"J.c.m.s.+.A F U a P P 4 2 P @X:XU 5 L uXyX:Xa 0 pX<.%.H.y.G.S.S.",
"J.b.v.y.m F _.).`.).`.S S :XiXcXuX9 `.vXMXbX_.q bXyX* H.K.t.G.G.",
"D.S.m.d.x 0 y 4 4 4 b 3 3 9 b 4 y 2 2 b n b 2 0 x b = g.b.S.y.m.",
"z.C.x.f.c 3 1 a p p z ^./.z p p h ^.g d z d g a 2 ; ;.!.a.x.S.M.",
"G.G.u.C.E m 1 ^.}.oXXXj ( +XoX.XOXj {.+X X].~.~.e 2.i.@.C.G.S.b.",
"l.x.m.I.l.#.u ^.|.6X-Xi i -X<X<X[.r @XwX}.i l *X4 ,.1.c >.C.x.J.",
"D.x.b.S.B.+.r ^.|.;XC pXtXr *X3X}.5 < H 3 5 h >Xx o Y xX`.& M.T.",
"G.C.n.j.y.<.t ].|.#XX CXCXY L G I $XZ i ..uXY l O K dXBX`.0 B.m.",
"r.I.C.h.U.$.1 OX<X} n xXBXNXL + m 0XqX9XfXfX| O 4 zXBXVX_.9 D.m.",
"v.K.l.z.D.#.t /.,X| 3 tXNXNXzXG < m | 7X7XC < q :XmXBXvXY 7 C.i.",
"L.l.I.l.+.Z } .X,XXXk L iXvXuXB 4 k &X2X1X( a e L cXvXY ] #.K.m.",
"H.n.d.&.Z _ 5X4X5X|.=Xl H `.9 . y } ;X| | ;Xf < X (._.3 &.D.!.n.",
"x.H.%.v @X7X,X,X,X5X6X*XP y 2 y y 4 7 3 7 0 0 6 8 6 y 3 -.k.u.S.",
"c.K.' u #XwX|.-X&X4X5X4X*X^.f j g g g s s j g a < ). .o @.n.S.F.",
"J.x.;.Z ^.{.( k X.5Xo.5X<XoXoX|..X.X.X.X X'.].g 1 I ` Y :.Z.T.m.",
"D.x.M.s.: @ n O } 7X,X5X4X4X4Xo.5X8X6X=XXX[.[.~.y 3 A C.h.u.b.n.",
"x.h.c.x.:.3.,.- ( >X6X4X0XfXfX9X9XeXqX4X5X,X,X|.#Xf = Z.c.x.G.n.",
"m.x.x.c.x.;.>.v '.+XXX) { %X.. .I $X .{ { ) *XwXrXk = A.z.p.n.n.",
"S.K.l.U.J.' 3 G /.^.k i = c M c x x * - m u L #X*Xl ; E.n.b.n.x.",
"d.D.h.h.Y.>.o y 4 3 * #.3.C.f.d.t.s.y.Z.Z.2.] % % * ; Z.z.l.S.v.",
"T.x.k.k.D.2.%.%.,.,.+.t.M.v.p.r.r.k.j.h.c.H.;.O.=.&.@.F.m.l.F.i.",
"K.b.c.c.h.h.m.M.g.g.g.Q.x.t.H.R.S.S.J.K.Z.J.R.R.R.R.H.v.u.l.H.S.",
"G.J.T.J.M.N.n.C.B.B.m.n.u.!.n.n.b.F.S.x.G.M.c.x.p.i.P.j.m.F.T.U."
};
