/* XPM */
static char *E_W[] = {
/* columns rows colors chars-per-pixel */
"32 32 236 2 ",
"   c #39383D",
".  c #0B0C38",
"X  c #483939",
"o  c #46432B",
"O  c #56523B",
"+  c #524631",
"@  c #7B5E3E",
"#  c #58633C",
"$  c #686933",
"%  c #2B1B42",
"&  c #293748",
"*  c #3C324B",
"=  c #393846",
"-  c #253353",
";  c #382A41",
":  c #323E64",
">  c #463B55",
",  c #543354",
"<  c #4E3447",
"1  c #743552",
"2  c #39424D",
"3  c #385748",
"4  c #3E4352",
"5  c #3B5958",
"6  c #294950",
"7  c #3C6957",
"8  c #377559",
"9  c #1E5B66",
"0  c #3C4665",
"q  c #2B596B",
"w  c #3A5668",
"e  c #375D72",
"r  c #2A646E",
"t  c #367368",
"y  c #2B6572",
"u  c #366978",
"i  c #3A7779",
"p  c #3E6B6E",
"a  c #4B4749",
"s  c #564649",
"d  c #585749",
"f  c #464858",
"g  c #5A4753",
"h  c #455957",
"j  c #535854",
"k  c #664545",
"l  c #6D5642",
"z  c #644C58",
"x  c #6C545B",
"c  c #625557",
"v  c #774E4D",
"b  c #5B6B44",
"n  c #5D7349",
"m  c #516A57",
"M  c #686B49",
"N  c #7A7C5B",
"B  c #6A7251",
"V  c #475667",
"C  c #4F556A",
"Z  c #6F5764",
"A  c #486766",
"S  c #487969",
"D  c #447A77",
"F  c #51766A",
"G  c #746864",
"H  c #676779",
"J  c #6B7175",
"K  c #86773C",
"L  c #EC7438",
"P  c #A55D4E",
"I  c #8B6E56",
"U  c #AD6B5F",
"Y  c #816667",
"T  c #817A67",
"R  c #74833E",
"E  c #378869",
"W  c #268D7A",
"Q  c #3E8B7B",
"!  c #398777",
"~  c #3B937E",
"^  c #3D987F",
"/  c #3E9271",
"(  c #2E9E6C",
")  c #38A97B",
"_  c #56804E",
"`  c #798758",
"'  c #71834F",
"]  c #458979",
"[  c #41937D",
"{  c #459978",
"}  c #52947D",
"|  c #529470",
" . c #4D8669",
".. c #7B9867",
"X. c #7F9A71",
"o. c #44A27D",
"O. c #41AC7E",
"+. c #8D9537",
"@. c #8B9157",
"#. c #979758",
"$. c #878C50",
"%. c #9BA74A",
"&. c #9FB44A",
"*. c #98A55B",
"=. c #8FA95F",
"-. c #A9BA57",
";. c #AEB353",
":. c #888666",
">. c #9B8367",
",. c #8F9B69",
"<. c #919463",
"1. c #89837A",
"2. c #88AA61",
"3. c #9BA763",
"4. c #8FAD71",
"5. c #A6AA64",
"6. c #A8B868",
"7. c #A7A975",
"8. c #B4B97A",
"9. c #B7AC6E",
"0. c #C5885C",
"q. c #FF9651",
"w. c #FBB256",
"e. c #C29369",
"r. c #EE9568",
"t. c #E9A86C",
"y. c #F2B772",
"u. c #BDD34C",
"i. c #B7D448",
"p. c #A9C15C",
"a. c #BDCD54",
"s. c #BCCD5C",
"d. c #B8C758",
"f. c #BED255",
"g. c #BAD458",
"h. c #B4C749",
"j. c #BECB6A",
"k. c #BDC764",
"l. c #B8C673",
"z. c #BFD060",
"x. c #C6CF4D",
"c. c #C3D34B",
"v. c #C7D848",
"b. c #C1CE55",
"n. c #C3CD5C",
"m. c #CACB5B",
"M. c #C4D453",
"N. c #CAD655",
"B. c #C5DB55",
"V. c #CADB53",
"C. c #C5D45B",
"Z. c #CAD65B",
"A. c #C4DA5B",
"S. c #CBDB5D",
"D. c #D1D95B",
"F. c #E2D15F",
"G. c #CCE35B",
"H. c #D2E25E",
"J. c #C4CD64",
"K. c #C2CC6C",
"L. c #C8CA66",
"P. c #C5D362",
"I. c #CAD464",
"U. c #C5DA65",
"Y. c #CCDA63",
"T. c #C5D26A",
"R. c #CBD46C",
"E. c #CCDA6A",
"W. c #C5D968",
"Q. c #D4D766",
"!. c #C6CB76",
"~. c #C4D373",
"^. c #C9D373",
"/. c #CBD878",
"(. c #D9CE7D",
"). c #E7CE7D",
"_. c #CEE36C",
"`. c #2C5885",
"'. c #327A84",
"]. c #3D6986",
"[. c #477383",
"{. c #4F6D87",
"}. c #6A7185",
"|. c #77748A",
" X c #7E7EA0",
".X c #3E9582",
"XX c #3E9B82",
"oX c #3D938A",
"OX c #379887",
"+X c #3A9592",
"@X c #3D8E85",
"#X c #3EA285",
"$X c #3AA889",
"%X c #33B388",
"&X c #3BA494",
"*X c #38B190",
"=X c #428B83",
"-X c #4A8984",
";X c #429482",
":X c #429B83",
">X c #43968D",
",X c #44998A",
"<X c #489585",
"1X c #4E9387",
"2X c #718493",
"3X c #44A287",
"4X c #47A893",
"5X c #43BD93",
"6X c #5CBB9D",
"7X c #62A18C",
"8X c #4CADAE",
"9X c #5EC6AF",
"0X c #818699",
"qX c #ABAC80",
"wX c #979CAA",
"eX c #8C92AA",
"rX c #97A2B6",
"tX c #A3A8B9",
"yX c #B9ABAB",
"uX c #DEAC87",
"iX c #F3BC8E",
"pX c #BED180",
"aX c #CEC185",
"sX c #EDCA8B",
"dX c #F5D695",
"fX c #F0D18F",
"gX c #F0E599",
"hX c #E6D6A7",
"jX c #FDF5A7",
"kX c #FFF9B8",
"lX c #FFE1B3",
"zX c #D1CEAF",
"xX c #BCC3C9",
"cX c #C4C7DA",
"vX c #FFF8C5",
"bX c #DADBE9",
/* pixels */
"/.I.Y.N.H.Z.N.D./.I.v.Q.L.Q.I.R.N.G.B.g.C.P.P.U.E.v.i.R.L._.A.Q.",
"T.C.C.M.M.C.Y.d.U.c.P.z.G.i.P.B.Z.aXl.E.F.Q.k.Y.k.G.N.I.R.g.f.Q.",
"P.P.C.C.b.R.!.%.= = 4 j !.N * X * > b d.c.3.a < K j.s.a.n.f.A.J.",
"P.P.M.C.I.Q.#.$.x G G B 3.N Z Y Y k + #.5.:.v 1 @ 7.W.Z.I.A.Y.m.",
"H.R.c.n.Y.P.$ G sXgXjXaX+ 8.jXuXsXt.0.s = d 0.L v O &.V.J.M.C.I.",
"f.T.c.b.Y.m.O 1.jXvXkXzX% yXhXO k e.uX, . d iXq.P < &.A.J.c.z.S.",
"B.~.v.N.C.N.O 1.jXkXjXhX>.hXsXN l 9.fX>.x U fXw.U , -.B.J.N.U.f.",
"V.^.i.Z.M.N.d G D.gXlXdXy.fXdXsXiXy.y.y.r.r.y.t.P , -.B.T.N.U.B.",
"v.P.P.M.N.K.M ; X c c c s a g g x z g a g z , z = a l.U.z.W.s.E.",
"A.T.P.Z.-.$.J wXwXwXV & }.rXeX}.& w 2X2X{.w & 0 H H $.&.s.P.I.S.",
"~.E.N.E.*.a |.xXbXbX0Xf rXbXcXtXC }.tXtX0XH C |. X}.a $ C.P.E.b.",
"T.I.b.n.<.2 C J H H a   4 f f = = = f a > = ; , 0 4 = ` Y.M.E.N.",
"C.C.P.n.6.G V w q q u [.y 9 r r u r 9 y u u u q : = 2 ` s.x.P.N.",
"V.b.P.a.p.` h p i i ! =XoX@X>X>XOX>XoX+X>X=X@Xy C 4 m @.b.Y.I.B.",
"N.P.I.s.p...7 {.] } ] ! ~ { { / } } } } ] S S A A A 7.z.m.I.a.C.",
"I.R.P.C.p.X.w [.-X-XQ @X.X~ ~ [ .X~ :X,X;X-X] D A A 6.c.b.R.A.A.",
"A.T.^.s.k.,.5 D ! ! ;X.XXXXXXXXX[ ^ ^ ^ [ ;XQ i E m 7.d.g.z.I.v.",
"C.T.s.c.-.,.3 p ! ] ~ :XXXXX:X:X3X:XXX:X.X[ Q ! t h 8.f.i.U.L.Y.",
"Z.P.h.V.f.4.7 i ] [ :XXXXXXXXX,X:X^ ^ XX:X:X=X] i 5 7.I.c.I.J.I.",
"S.C.a.U.l.4.A D [ :X:XXX,XXX{ :X:XXXXX:X,X,X<X<XoXS ' %.I.C.C.Y.",
"N.M.^.3.X.F 8 ] :X:X:X3X:XXX:X,X:X:XXXXXXX~ Q Q $XO.8 n 9.^.b.B.",
"c.Z.!.b m t S 1X:X:X3X3X) 3X:X:XXX^ ^ XX~ ~ Q ! 5X5X6XF # k.A.f.",
"S.N.k.b A } ] ] :X:X#X#X#X^ :X:X:XXX#XXXXX.X;X<X6X*X9XF o 6._.Y.",
"P.N.I.B F 7Xt r ^ ) #X#X#X#X^ :X^ XX^ XXOX~ Q Q '.W W S I K.P./.",
"P.P.R.-.5.b & {.OXOX>X4X) ) #X#XXX) } ^ &X! 4X7 * f o @.P.C.P.R.",
"A.s.Z.P.L.=.j 6 -X4X3Xo.o.3X3X4X&X4Xo.) %XoX4Xp M qX5.d.Y.M.C.C.",
"B.A.N.N.S.J.=.n '.4X( E } >X>X[ +X4X^ ) %X&X>Xq $ T.S.v.M.C.C.V.",
"A.A.Z.x.x.S.P.$.6 4X$Xi F  .|  .E E 8 OX+X'.i h +.k.N.M.b.P.P.I.",
"U.P.n.C.N.D.J.+.3 @X8X].j ` 2.2.=._ h ].`.- h :.s.R.J.R.Z.N.n.T.",
"C.R.J.P.b.Z.Z.;...8 9 V ` 6.d.d.;.5.N f - a @.L.N.P.k.P.c.c.M.P.",
"Z.E.P.J.s.f.I.T.j.' # ` 8.E.C.b.m.E.aXB M #.K.m.M.C.C.P.b.Z.C.S.",
"D.D.E.P.G.A.A.E.N.F.Q.I.Y.Z.S.U.E.g.H.B.E.m.Y.Z.P.S.Z.I.^./.T.Y."
};
