/* XPM */
static char *EN[] = {
/* columns rows colors chars-per-pixel */
"32 32 248 2 ",
"   c #141031",
".  c #311B3C",
"X  c #1A3B3D",
"o  c #26202E",
"O  c #37373B",
"+  c #2B323E",
"@  c #463C36",
"#  c #44312B",
"$  c #374431",
"%  c #484A39",
"&  c #4E5D34",
"*  c #57553A",
"=  c #524A2F",
"-  c #7B5E3E",
";  c #5D6033",
":  c #696B35",
">  c #2B1B42",
",  c #342B45",
"<  c #2C3647",
"1  c #3B334D",
"2  c #353849",
"3  c #293755",
"4  c #3A3A53",
"5  c #2B2C50",
"6  c #243A63",
"7  c #421846",
"8  c #463646",
"9  c #543B4B",
"0  c #443B54",
"q  c #4E3150",
"w  c #743552",
"e  c #184D4A",
"r  c #294449",
"t  c #354749",
"y  c #385B4D",
"u  c #3C4454",
"i  c #344756",
"p  c #35525F",
"a  c #2C5059",
"s  c #366E54",
"d  c #1A5B6A",
"f  c #335665",
"g  c #375C76",
"h  c #2A536E",
"j  c #196770",
"k  c #376468",
"l  c #286677",
"z  c #2A797B",
"x  c #327377",
"c  c #336B6F",
"v  c #4B4747",
"b  c #54494A",
"n  c #445748",
"m  c #575849",
"M  c #464A58",
"N  c #435359",
"B  c #554C55",
"V  c #664545",
"C  c #654C58",
"Z  c #724856",
"A  c #6D545B",
"S  c #715342",
"D  c #54734F",
"F  c #6B6F4E",
"G  c #657A58",
"H  c #6B714E",
"J  c #434A66",
"K  c #495769",
"L  c #5A5C67",
"P  c #515072",
"I  c #6B5870",
"U  c #46756C",
"Y  c #466B78",
"T  c #447378",
"R  c #5A7376",
"E  c #596C70",
"W  c #746864",
"Q  c #666976",
"!  c #767374",
"~  c #86773C",
"^  c #EC7438",
"/  c #8C7155",
"(  c #816667",
")  c #A96457",
"_  c #77813A",
"`  c #2B8777",
"'  c #3E8779",
"]  c #399A7A",
"[  c #2F9B79",
"{  c #3BA974",
"}  c #348356",
"|  c #7E834B",
" . c #7E835A",
".. c #588979",
"X. c #5C9872",
"o. c #478A74",
"O. c #659179",
"+. c #718670",
"@. c #49B17A",
"#. c #50CA7A",
"$. c #838C2F",
"%. c #868957",
"&. c #8E9452",
"*. c #A19F52",
"=. c #9AA457",
"-. c #9DAD4C",
";. c #A6A85A",
":. c #B4BE5A",
">. c #A3B351",
",. c #8A8B69",
"<. c #9B8367",
"1. c #878E75",
"2. c #9DA363",
"3. c #A4A867",
"4. c #ACB866",
"5. c #B3BF72",
"6. c #B0A776",
"7. c #A09369",
"8. c #C5885C",
"9. c #C8B956",
"0. c #EE9568",
"q. c #E9A86C",
"w. c #F2B772",
"e. c #E2A55F",
"r. c #BECE4F",
"t. c #BBD54C",
"y. c #BDCA54",
"u. c #B9CA5A",
"i. c #BDD354",
"p. c #BCD958",
"a. c #ADCE5A",
"s. c #BBC669",
"d. c #BED569",
"f. c #B8CA71",
"g. c #B8E466",
"h. c #C4D34D",
"j. c #C5D749",
"k. c #D5D344",
"l. c #C0CE53",
"z. c #C2CE5B",
"x. c #C4CA58",
"c. c #D4CF58",
"v. c #C4D354",
"b. c #C9D755",
"n. c #C5DA54",
"m. c #CADA55",
"M. c #C5D45B",
"N. c #CAD55C",
"B. c #C4DB5A",
"V. c #CBDA5C",
"C. c #D1D65B",
"Z. c #C4CD4C",
"A. c #E2D15F",
"S. c #CAE45A",
"D. c #D2E25E",
"F. c #C4CD63",
"G. c #CCCD63",
"H. c #CACD6B",
"J. c #C1C96A",
"K. c #D6CB68",
"L. c #C5D463",
"P. c #CAD463",
"I. c #C5D965",
"U. c #CCDB63",
"Y. c #C5D26B",
"T. c #CBD36B",
"R. c #CADA6B",
"E. c #C5D968",
"W. c #D3D365",
"Q. c #D3D66B",
"!. c #D5DA69",
"~. c #CCCE79",
"^. c #CAD373",
"/. c #CAD577",
"(. c #DFC17B",
"). c #E7CE7D",
"_. c #CAE164",
"`. c #247784",
"'. c #3A7C8B",
"]. c #326887",
"[. c #2E598C",
"{. c #486084",
"}. c #667688",
"|. c #6C7D8A",
" X c #48518A",
".X c #927798",
"XX c #2A988D",
"oX c #3C9A99",
"OX c #2F9391",
"+X c #39B58C",
"@X c #2BA897",
"#X c #36A59B",
"$X c #33B290",
"%X c #3AA6A1",
"&X c #3AB5A3",
"*X c #469D91",
"=X c #778397",
"-X c #6B8F89",
";X c #46A585",
":X c #59BC94",
">X c #4AB392",
",X c #7A8CA2",
"<X c #42BAA1",
"1X c #3BC895",
"2X c #32D28D",
"3X c #3BC6A4",
"4X c #49CA8A",
"5X c #53C987",
"6X c #46C894",
"7X c #55C49B",
"8X c #45D095",
"9X c #68CD9A",
"0X c #46D6A7",
"qX c #4DCEA5",
"wX c #79E7AE",
"eX c #6FEC9E",
"rX c #46A8C3",
"tX c #98A39B",
"yX c #969AAA",
"uX c #9192A9",
"iX c #97A9AD",
"pX c #A6A4B7",
"aX c #B0AFB1",
"sX c #A79C94",
"dX c #F3BC8E",
"fX c #DEAC87",
"gX c #BED180",
"hX c #8BF4B2",
"jX c #91D0A9",
"kX c #CEC185",
"lX c #EDCA8B",
"zX c #F5D695",
"xX c #F0D18F",
"cX c #F0E599",
"vX c #E6D6A7",
"bX c #FDF5A7",
"nX c #FFF9B8",
"mX c #FFE1B3",
"MX c #D1CEAF",
"NX c #AFB7C9",
"BX c #B5CDCE",
"VX c #CBD8DC",
"CX c #D1D8DE",
"ZX c #FFF8C5",
"AX c #DCD7E8",
"SX c #D8E2F2",
"DX c #F9FBFE",
"FX c #EBEDF0",
/* pixels */
"/.U.P.b.D.N.m.C.~.V.h.!.G.Q.G.T.m.n.B.p.L.E.L.I.Q.j.t.P.H._.U.W.",
"F.L.M.v.v.M.U.u.E.t.E.u.S.t.Y.m.W.~.f.Q.c.Q.z.I.s.S.n.P.T.u.v.U.",
"L.L.M.M.y.P.H.*.0 O M n ~. .4 @ 1 0 m u.h.;.9 8 ~ s.p.y.z.i.B.F.",
"L.L.v.M.U.Q.2.| A W W H 2.H A ( ( S = &.>.<.Z w - 6.E.N.P.B.U.F.",
"V.E.v.z.P.F.: F xXcXbXkX@ 6.bXlXlXq.8.V , V 8.^ S * -.V.G.l.M.U.",
"v.Y.j.y.U.M.m ( bXZXnXMX. aXvX* C 8.fX9   m w.0.) @ >.V.F.v.d.V.",
"n.^.j.b.N.N.m 1.bXnXbXzX<.vXvX/ S 6.xX<.A <.zXw.) q a.M.F.n.M.i.",
"n.^.j.N.v.c.m W A.cXmXxX(.xXzXw.dXfXA.w.0.0.w.0.) q >.n.H.b.L.m.",
"Y.P.M.M.i.d.; 3 @ v C L n % C M B A 9 9 B 9 A Z 2 M 5.M.I.p.z.T.",
"M.z.M.L.u.%.! iXpXpXP 5 }.iXuX}.2 i =X=X}.K < J R P  .-.L.p.M.!.",
"n.z.F.P.=.% |.VXFXSX.XC uXAXSXpXM Q NXNXyX}.< R ,XQ v  .B.u.M.N.",
"m.L.y.P.*.O M J u J q , i N N < 1 0 0 0 4 < u t f M 1 / B.L.M.N.",
"P.V.M.L.u.=.n 5 6 h h x l d d g ].g g d j l {.h 3 + q %.l.L.M.v.",
"L.l.N.y.M.E.* J OXXX$X#Xx OX&X$XOXz #X@X<XXXj OX{.r A *.z.R.I.V.",
"U.l.N.M.R.5.G K $X3X0X;Xt U <X+Xu j +X1X7Xo.f c g N 4.N.N.u.u.B.",
"V.M.z.V.-.F pXtXe *X0XOX5 , i M 7 c 3X1Xc Q NX|.a u :.k.b.L.E.L.",
"Q.p.v.j.*.8 VXFX|.Y l o.X.+.G s X.O.T k U aXDX|.o b ;.M._.u.T.k.",
"G.t.N.v.*.8 BXDXFXI o N jXhXeX5XjX-X+ 1 pXDXDXE . b f.v.h.N./.i.",
"K.S.p.i.3.8 iXDXDXNX X8 $ X.9X4Xs < 0 uXSXDXVXE . M 4.U.c.N.Y.g.",
"K.L.p.d.6.+ L iXBXuXJ 3 s :XqX1Xo.p 4 P NXBX! R ' U : ;.Q.n.d.p.",
"F.z.M.4.+.y X M +.8 , P *X] ] @.*XY 5 > ( Q e [ 0X;Xs  .3.N.U.n.",
"g.N.c.: D :Xk 8 4 1 1 4 4 r O 8 r 3 i 2 , N ] 0X8X1X8XU * 9.C.n.",
"d.W.c.: s 9XY , g [.`.`.l g l l g g c z ` ;X7X<X>X6XqXx % 9.G.p.",
"U.T.p.1.D o.p i `.OXXXXX%X%X@X@X@X#X#X3X8X8X7X] z OX' T G d.L.^.",
"p.U.N.K.;.= <  XOXXXXX+X4X4X#.8X#.#.4X4X@.2X6Xy + 0 @ &.F.M.M.^.",
"I.v.x.N.H.=.m p OX&X&X4X5XwXwX5XwXwX6X4X4X1X>XK F 6.;.u.b.b.M.B.",
"I.z.M.Z.V.R.=.D U :X{ } R -X-XU O...' +X+X$X%Xh : Y.V.n.v.L.N.m.",
"L.R.z.h.j.V.E.&.$ >X[ X o @ % & * # 3 oXOXOXc f $.z.b.b.N.L.L.P.",
"L.L.L.U.b.N.d.&.y *XrX[.v &.f.u.s./ 2 ].[.3 % 7.u.T.F.P.N.M.z.T.",
"P.y.P.M.v.P.u.4.,.k l K ,.s.i.M.M.J./ a 3 b %.K.N.L.F.F.h.j.v.L.",
"V.z.L.M.r.N.P.Q.H.: &  .~.K.x.Q.i.W.f.H * &.Y.i.v.v.P.L.z.M.M.M.",
"B.!.L.V.m.b.C.N.Q.T.P.p.B.n.D.p.g.p.S.t.!.F._.v.L.U.V.M././.P.U."
};
