/* XPM */
static char *P[] = {
/* columns rows colors chars-per-pixel */
"32 32 229 2 ",
"   c #000302",
".  c #050316",
"X  c #151610",
"o  c #271400",
"O  c #183A00",
"+  c #16261C",
"@  c #05210B",
"#  c #2D3117",
"$  c #031A28",
"%  c #021938",
"&  c #11142C",
"*  c #012027",
"=  c #08293A",
"-  c #18302C",
";  c #292A29",
":  c #23362A",
">  c #363525",
",  c #252F31",
"<  c #463A35",
"1  c #54392D",
"2  c #643835",
"3  c #194000",
"4  c #324915",
"5  c #387516",
"6  c #0D422D",
"7  c #2D4121",
"8  c #3B4938",
"9  c #31552D",
"0  c #2C682F",
"q  c #495517",
"w  c #505118",
"e  c #44711E",
"r  c #454828",
"t  c #495729",
"y  c #4A473E",
"u  c #4D5736",
"i  c #545635",
"p  c #524F2C",
"a  c #715334",
"s  c #5A653C",
"d  c #516C2F",
"f  c #646D3A",
"g  c #696F35",
"h  c #031F4E",
"j  c #032048",
"k  c #05336F",
"l  c #393D63",
"z  c #323345",
"x  c #583A44",
"c  c #0B4B51",
"v  c #0A4272",
"b  c #454744",
"n  c #524E43",
"m  c #565849",
"M  c #4A5556",
"N  c #575454",
"B  c #485447",
"V  c #5C6453",
"C  c #526048",
"Z  c #796648",
"A  c #777D4C",
"S  c #657558",
"D  c #6C6E55",
"F  c #5D5F6D",
"G  c #444A62",
"H  c #5D6268",
"J  c #797D75",
"K  c #727065",
"L  c #8A7754",
"P  c #A47B5F",
"I  c #987862",
"U  c #9C707F",
"Y  c #A66266",
"T  c #E07B5D",
"R  c #C87D68",
"E  c #358000",
"W  c #4F962D",
"Q  c #7D893B",
"!  c #349949",
"~  c #30AA5D",
"^  c #5F8F5F",
"/  c #788555",
"(  c #74AD55",
")  c #4F9376",
"_  c #69A46C",
"`  c #6D9163",
"'  c #58C277",
"]  c #A1AD31",
"[  c #C5D53F",
"{  c #8D9445",
"}  c #808754",
"|  c #9BA857",
" . c #99A34A",
".. c #A3A95D",
"X. c #A8B356",
"o. c #98AF64",
"O. c #A8B961",
"+. c #8A996E",
"@. c #C28358",
"#. c #DB9A64",
"$. c #CE9373",
"%. c #E99368",
"&. c #E99A76",
"*. c #F19E73",
"=. c #F99D6C",
"-. c #DCA567",
";. c #CCAB75",
":. c #ECA26E",
">. c #EAA576",
",. c #FDAC74",
"<. c #F8A678",
"1. c #FDB379",
"2. c #F7A56D",
"3. c #BAC74B",
"4. c #BECC56",
"5. c #BAD757",
"6. c #BDCD6A",
"7. c #BBD565",
"8. c #BACD72",
"9. c #B6E364",
"0. c #C5CC4B",
"q. c #C3D34D",
"w. c #C8D74A",
"e. c #C4CD55",
"r. c #C4CD5B",
"t. c #C7CB5B",
"y. c #C5D354",
"u. c #CAD355",
"i. c #CBD955",
"p. c #C6D25B",
"a. c #C9D45C",
"s. c #C5D95E",
"d. c #CCDA5C",
"f. c #D1D75B",
"g. c #D5D959",
"h. c #D2DB44",
"j. c #D1E15B",
"k. c #C4CE63",
"l. c #C9CD65",
"z. c #C6CD6A",
"x. c #C5D364",
"c. c #CBD562",
"v. c #CCDA63",
"b. c #C4D26A",
"n. c #CDD46B",
"m. c #CDDB6B",
"M. c #C7D865",
"N. c #D2DC61",
"B. c #D1D66C",
"V. c #D6D965",
"C. c #C7C776",
"Z. c #C9D575",
"A. c #D6DB74",
"S. c #FFC67F",
"D. c #D2E26D",
"F. c #E3E566",
"G. c #033280",
"H. c #015B98",
"J. c #04628F",
"K. c #147293",
"L. c #277683",
"P. c #0854B4",
"I. c #006AA8",
"U. c #1D62B0",
"Y. c #1058CE",
"T. c #036FCF",
"R. c #0069ED",
"E. c #8F7FA4",
"W. c #178694",
"Q. c #0984BF",
"!. c #2EB2BE",
"~. c #609BBD",
"^. c #66C7A6",
"/. c #73D88A",
"(. c #018AD5",
"). c #0298DA",
"_. c #0290C8",
"`. c #2C8EC9",
"'. c #0394EA",
"]. c #71BECE",
"[. c #929394",
"{. c #B2B19D",
"}. c #9396A6",
"|. c #ADB4B9",
" X c #B2B6B6",
".X c #B5B3B3",
"XX c #8CB384",
"oX c #EA9E83",
"OX c #DEA58A",
"+X c #E1A587",
"@X c #F6A886",
"#X c #E4B389",
"$X c #F8B885",
"%X c #EEB998",
"&X c #FFB593",
"*X c #CAB1BC",
"=X c #F1B7A1",
"-X c #ABE09C",
";X c #A9C0B0",
":X c #C7CA83",
">X c #F7C795",
",X c #C1EC9D",
"<X c #F9D6BA",
"1X c #F9CCB0",
"2X c #A3B9C6",
"3X c #AFB7CD",
"4X c #B3C1CE",
"5X c #C3C8CB",
"6X c #F6D9C8",
"7X c #F9DDD3",
"8X c #EDCFC4",
"9X c #D7E0DF",
"0X c #F5E2D4",
"qX c #FFF1D4",
"wX c #FFF6DA",
"eX c #F6F9D6",
"rX c #FBDEE3",
"tX c #FFE9E1",
"yX c #E6F5E8",
"uX c #F8F6EB",
"iX c #E9EEF8",
"pX c #ECFDFD",
"aX c #EBF5F7",
"sX c #FDFDF5",
"dX c #F3F4FB",
"fX c #F5FEFE",
"gX c #FCFDFD",
"hX c #F2F9F4",
"jX c #F2EDF3",
/* pixels */
"m.c.c.c.c.c.c.c.a.c.c.y.d.v.e.B.s.b.n.u.g.f.a.w.v.c.c.c.a.n.m.a.",
"c.c.a.x.a.c.a.a.u.p.f.c.b.b.D.q.v.e.n.Z.z.B.a.e.d.c.c.a.r.p.c.c.",
"c.a.r.r.a.p.a.y.p.v.M.{ f f 6.q.e.a. .f C O.c.v.a.a.a.a.r.r.c.c.",
"c.c.c.a.a.a.a.a.4.6.o.C b 8 A 8.t.X.f b B A X.a.p.p.p.a.a.c.c.c.",
"c.c.a.a.a.a.a.a.q.| # }.iX9XC S Z.r J iXiXm q u.a.a.a.a.c.c.a.c.",
"a.a.a.p.a.a.u.a.d.|   |.fXsX> ; w   }.fXfXK # Z.d.a.a.y.a.a.c.a.",
"c.a.a.p.a.a.p.y.X.} m 5XhXhXJ y M b |.jXgX[.u +.3.u.d.a.p.a.a.c.",
"c.a.y.a.a.u.a.a.m n jXgXgXaXsXjXpXyXhXgXdXsX;X+ ] 0.v.a.p.u.a.c.",
"c.c.a.a.a.a.a.p.t N gXsXaXpXfXuXsXfXfXhXpXfXhX2XH s m.5.p.p.n.t.",
"c.c.p.a.a.a.a.a.t M dXsXgXsX0X<X<X0X6X<X6X<XtXgXV t x.a.v.y.n.f.",
"c.c.a.a.a.a.a.p.d M dXsXsX0X+X>.>.OX&.:.=.%.1X7Xm u x.s.c.e.l.a.",
"c.c.p.c.a.a.u.u.9 M iXsX0X%X:.2.<.>.&.<.1.:.$X&XB p x.5.a.a.n.u.",
"c.c.a.a.a.a.a.a.C N aXsX8X>.=.@.Z :.:.>.+X} P *.y i x.p.a.u.B.a.",
"c.c.r.c.a.a.a.p.i N iXsX6X<.=.a * $.1.1.#X1 > oXn i b.u.c.y.z.d.",
"c.c.p.p.a.a.a.a.i N yXpX7X&.%.2 $ $.,.1.&.1 ; @.y p c.p.v.y.n.v.",
"c.a.a.a.a.a.a.a.C m yXpX6X%.%.E.K %.@X@X<.P I T < i n.p.c.p.n.u.",
"B.y.x.s.c.h.w.v.u M jXgXrX#X>.<.@X*.*.&.*.,.$X=XB t b.d.4.c.c.p.",
"n.d.7.y.B.w.v.8.C M yXdXgXqX%X#.&.&.:.-.-.-.>XwXH r Z.i.q.a.x.v.",
"c.a.x.y.c.u.8.d + B eXgXdXgXdXwXuXqXwXwXwXqXuXgXH t n.i.u.c.b.b.",
"n.y.v.a.c.a./ 9 9 S {.*X*X.X|.;X X|.3X3X|. X4X2XD g x.i.u.l.c.c.",
"c.c.p.r.N.M.8 XX,X` z $ % $ + @ * * j % + X & X | 6.i.i.r.z.c.f.",
"c.a.p.p.s.s.: -X( c J.I.I.K.) ) H.J.J.L._ u . . | m.u.u.r.n.c.w.",
"v.r.v.x.w.s.6 ( 7 = ~.].`.K.' ^.'.).'.!./.0 ; N / { a.u.u.B.c.u.",
"d.x.p.k.i.q.- W 7 < OXS.Y o E ! '._.).W.! O 2 %Xn q B.0.u.a.z.n.",
"v.r.f.e.d.7.3 ^ 6 > $X>XY o 5 ~ )._.'.`.W 3 x $Xn w k.i.q.p.c.u.",
"r.a.t.a.y.7.d 4 0 e Z Z F J.K.W.(.T.(._.W.- > L D { v.0.u.c.p.p.",
"p.M.r.V.3.M.O.5 5 e *   k Y.P.P.Y.Y.H.P.R.k X # ..z.N.q.a.x.c.a.",
"m.p.c.f.i.N.b.X.m - & $ k U.v j = = * k Y.k 9 o.t.a.u.d.l.x.n.c.",
"v.4.n.e.g.i.r.A.| L A , l [., : Q { # z E.G # g.d.q.u.d.r.x.n.c.",
"p.M.k.4.u.u.e.t.w.j.3.r a ;.x s l.u.i 1 $.K 8 0.y.y.u.a.p.n.k.a.",
"d.M.b.6.p.p.N.t.b.3.D.:Xk.F.C.q.u.w.u.C.V.l.C.N.e.a.c.r.a.a.a.a.",
"d.v.m.m.M.M.a.c.i.m.r.V.p.5.m.f.Z.5.d.d.9.i.N.7.c.c.c.c.N.e.D.v."
};
