/* XPM */
static char *P_A[] = {
/* columns rows colors chars-per-pixel */
"32 32 235 2 ",
"   c #020606",
".  c #071602",
"X  c #161209",
"o  c #16141C",
"O  c #1B0B0C",
"+  c #172608",
"@  c #0B2D17",
"#  c #11271A",
"$  c #1A3114",
"%  c #272913",
"&  c #293217",
"*  c #141A27",
"=  c #061E38",
"-  c #251C21",
";  c #162629",
":  c #162E38",
">  c #282627",
",  c #2A3A26",
"<  c #363529",
"1  c #363A3B",
"2  c #2F3336",
"3  c #281914",
"4  c #46260F",
"5  c #422B28",
"6  c #473D39",
"7  c #4E3B28",
"8  c #0D480A",
"9  c #304715",
"0  c #316A1A",
"q  c #3A5725",
"w  c #3C4937",
"e  c #3B5034",
"r  c #2B6B2D",
"t  c #4A5610",
"y  c #5D6C19",
"u  c #67701D",
"i  c #534E2B",
"p  c #485C29",
"a  c #565629",
"s  c #564C3A",
"d  c #5D5733",
"f  c #464D2E",
"g  c #654634",
"h  c #416538",
"j  c #54682D",
"k  c #636E3A",
"l  c #656738",
"z  c #69733C",
"x  c #657229",
"c  c #053B5B",
"v  c #002750",
"b  c #3A3D44",
"n  c #373C48",
"m  c #39334E",
"M  c #063D68",
"N  c #02306F",
"B  c #154B59",
"V  c #2A484C",
"C  c #384346",
"Z  c #3B635B",
"A  c #0E4576",
"S  c #244C65",
"D  c #3F7A64",
"F  c #494741",
"G  c #545553",
"H  c #4A544F",
"J  c #6E4C50",
"K  c #587246",
"L  c #576B4B",
"P  c #676945",
"I  c #6A7946",
"U  c #6D6E53",
"Y  c #424C65",
"T  c #6F5F62",
"R  c #76797C",
"E  c #6F7763",
"W  c #89595C",
"Q  c #8A6F59",
"!  c #AA7965",
"~  c #B17156",
"^  c #DB7E5C",
"/  c #CC7C65",
"(  c #339200",
")  c #4E9719",
"_  c #52992F",
"`  c #7F8E3D",
"'  c #54AD30",
"]  c #21AF63",
"[  c #239F62",
"{  c #549C48",
"}  c #7C9550",
"|  c #76C872",
" . c #858A38",
".. c #CFDB3B",
"X. c #8F8C56",
"o. c #8A9350",
"O. c #A7815D",
"+. c #97AB4F",
"@. c #9BAA56",
"#. c #A3B249",
"$. c #A0AB5A",
"%. c #A8B656",
"&. c #B3BC53",
"*. c #848F67",
"=. c #A68E75",
"-. c #B99670",
";. c #93AE6E",
":. c #A9AF6C",
">. c #D9915F",
",. c #D28E71",
"<. c #E69A68",
"1. c #F69C66",
"2. c #F29778",
"3. c #C8A063",
"4. c #EAA46A",
"5. c #EBA274",
"6. c #E7A579",
"7. c #FDA572",
"8. c #F5A877",
"9. c #FAA46B",
"0. c #BCD648",
"q. c #BBC659",
"w. c #BDD255",
"e. c #BED85A",
"r. c #BCCA4C",
"t. c #B9C965",
"y. c #B5CB6B",
"u. c #8DD778",
"i. c #C3D34B",
"p. c #CAD54C",
"a. c #C9D84A",
"s. c #C2CE53",
"d. c #C4CE5C",
"f. c #C9CB57",
"g. c #C5D454",
"h. c #C9D354",
"j. c #CBDA54",
"k. c #C6D35C",
"l. c #C9D45B",
"z. c #C5DA5D",
"x. c #CCDA5C",
"c. c #C6DA55",
"v. c #D1DC55",
"b. c #D1DB5D",
"n. c #CBE25C",
"m. c #C4CD64",
"M. c #CACD63",
"N. c #C7CC69",
"B. c #C5D262",
"V. c #CBD462",
"C. c #CCDA63",
"Z. c #C3D36B",
"A. c #CBD46C",
"S. c #CEDA6B",
"D. c #C5D869",
"F. c #D1DB64",
"G. c #D4DA6B",
"H. c #D4D46B",
"J. c #C5D471",
"K. c #CCD674",
"L. c #CBD777",
"P. c #D2D572",
"I. c #D8E66A",
"U. c #D7E472",
"Y. c #CEE066",
"T. c #003C8F",
"R. c #1837AB",
"E. c #0E4991",
"W. c #27569D",
"Q. c #1374AE",
"!. c #2166AA",
"~. c #0754CF",
"^. c #066DCB",
"/. c #096CD3",
"(. c #0875E8",
"). c #044CEE",
"_. c #218CBA",
"`. c #1998AA",
"'. c #4CB9BC",
"]. c #0699D6",
"[. c #0587D2",
"{. c #00A0CE",
"}. c #35A4D3",
"|. c #0388E8",
" X c #0799E4",
".X c #238ED2",
"XX c #49C0C4",
"oX c #85878D",
"OX c #8B8E94",
"+X c #A78D8B",
"@X c #8C98A5",
"#X c #9397A7",
"$X c #B1AAB2",
"%X c #DCB993",
"&X c #CBB79E",
"*X c #E6A889",
"=X c #F9A888",
"-X c #EEB186",
";X c #EAB699",
":X c #EEB496",
">X c #C0A7A2",
",X c #ECB8A3",
"<X c #9DD083",
"1X c #AFE087",
"2X c #B4C5BD",
"3X c #C9D780",
"4X c #F4C8A7",
"5X c #F2CDB5",
"6X c #F7D7BD",
"7X c #EBCBA7",
"8X c #BDBECA",
"9X c #C9DACB",
"0X c #CCD4D6",
"qX c #D6D8D9",
"wX c #CACDD2",
"eX c #F9D6C7",
"rX c #FCDFDB",
"tX c #E9D6D0",
"yX c #DAE4DC",
"uX c #FEE7C8",
"iX c #F9E8D6",
"pX c #E3EBDE",
"aX c #D5D9E6",
"sX c #D6DAF0",
"dX c #D7E3EE",
"fX c #E9EBE9",
"gX c #F7EDE4",
"hX c #F7F5E7",
"jX c #EFFBFD",
"kX c #FCFDF4",
"lX c #F5F3FC",
"zX c #F4FDFE",
"xX c #FCFDFC",
"cX c #F7F7F7",
"vX c #ECF4E6",
/* pixels */
"S.C.k.C.C.F.l.h.c.a.i.A.L.V.j.l.V.j.p.H.A.b.j.V.b.C.C.C.V.V.V.G.",
"B.A.M.d.V.V.d.C.w.:.:.%.S.d.g.b.t.$.$.%.P.A.H.r.l.k.l.l.V.d.A.V.",
"m.A.A.d.V.k.M.m.@.2 * f t.w.x.t.I + % z 3Xt.d.x.h.f.k.k.k.d.k.V.",
"V.d.k.k.x.l.G. .I oX#XR I %.J.I } @X#XU x y.G.i.l.l.l.l.k.k.V.V.",
"b.x.x.x.i.g.K.t C zXxX9X, k *.  #XxXzXOX+ #.i.k.l.l.l.l.V.l.V.V.",
"p.g.g.c.i.C.y.a f fXvXqX* o >   oXxXcXOX% :.C.n.l.l.l.l.k.l.l.C.",
"v.s.k.k.z.%.z E #XxXvXfX#XoXOXoX8XkXkX$XR U  .z.l.h.h.l.k.l.l.V.",
"b.k.K.t.q. ., 8XxXlXxXhXxXcXcXxXzXfXxXxXcXb k z.l.l.l.l.l.l.k.l.",
"N.F.g.d.P V 9XxXkXlXlXxXcXvXkXxXhXzXjXzXqX1 k x.l.l.l.l.l.k.l.A.",
"A.s.z.m.i Z hXgX4X5XeX5X6X7X5X6XiXxXzXxX0X1 z g.l.l.l.l.l.l.k.V.",
"S.g.z.S.d H eXeX<.<.2.6.<.4.5.>.4XiXcXxXaXb z g.l.l.l.l.l.l.V.V.",
"k.x.V.d.i F :X,X6.9.7.5.7.8.6.1.5.4XiXxXaXn z c.l.l.l.k.l.k.V.V.",
"m.F.l.M.P 6 / ~ Q <.=X*X4.O.Q 5.1.;XiXxXaXb l g.l.x.l.k.l.V.V.V.",
"Z.w.k.M.f G =Xg # 6.=X*X:Xs O ,.7.;XiXkXaXb k z.l.l.l.l.l.l.C.V.",
"S.e.l.l.q 1 ,.7 = >.8.:X-Xs - ~ 1.;XiXkX0Xb k z.l.l.l.l.l.V.M.V.",
"Z.z.f.h.j & / Q R <.1.8.7.! T >.^ ;XhXkXwXC P k.k.l.l.l.l.l.l.V.",
"h.v.M.L.t s %X-X=X4.4.8.-X6.8.7.=X4XgXzX0XF P a.e.g.A.J.g.V.A.b.",
"B.h.d.B.f G tX6X<.6.<.1.2.8.<.<.%XuXcXcX9XC I 0.z.a.k.q.g.k.m.f.",
"J.C.a.A.h Y lXkX6XiXiX6XeX6XuXrXxXgXlXzXsX2 < X.k.0.n.w.h.h.A.l.",
"K.C.f.g.j H aXdXfXsXqXpXyXyXpXsXdXaXqXqX2Xn ; , @.+.I.I.F.l.N.b.",
"k.m.H.C.%.} H C 6 < b b F n n C n , e > G ;.u.{ f 9 t.V.V.h.m.x.",
"n.N.M.q.Y.:..   . h S N c c c e B A A M B D 1Xe.2 ; Z.V.N.h.m.x.",
"j.B.P.F.t.+.< O e | XX X{.].}.| '.Q..X}.Q.v L u.2 ; D.l.N.p.A.C.",
"j.B.r.A.u i +XG + ' '.|.{.]._.' 0 B @X&X+X- 9 { ; ; x.h.A.i.Z.e.",
"G.B.i.D.w J 7XW X ( ] |.[.].`.) $ 4 5.=X2.% 8 ) : + J.k.f.H.d.l.",
"m.g.w.Z.l a O.J = _ [ |. X|.`.[ B , -.=X=.0 r r & 9 t.s.k.H.V.C.",
"A.c.g.A.%.` a 3 v !.^./.(.(./.Q.!.E.m < 6 K 0 8 o.+.D.x.C.k.B.z.",
"D.k.s.C.H.r.z > M ).~.A T.T.E.R.Q.^.N   @ q p P y.Y.n.l.d.t.B.x.",
"k.K.h.p.d.k.q.L c W.S . @ @ X * E.W.= + @ = E l.s.j.g.f.M.A.C.l.",
"B.L.x.p.N.k.D.p m >XJ 3 o.%.X.. T $Xm Z $.+.M.h.x.l.j.k.d.V.d.f.",
"B.m.s.k.K.z.w.y F 3.W < #.K.:.$ X.,.4 l z...z.x.f.d.V.w.d.k.V.V.",
"K.F.F.Z.K.k.U.B.x.H.v.0.I.q.J.c.N.c.v.M.f.A.P.m.S.P.K.e.C.l.A.G."
};
