/* XPM */
static char *P_A[] = {
/* columns rows colors chars-per-pixel */
"32 32 235 2 ",
"   c #010504",
".  c #081801",
"X  c #180E12",
"o  c #121711",
"O  c #261C17",
"+  c #172706",
"@  c #0B2916",
"#  c #162D14",
"$  c #212514",
"%  c #312817",
"&  c #141A26",
"*  c #172528",
"=  c #012639",
"-  c #102D2B",
";  c #3A2C2A",
":  c #273426",
">  c #313827",
",  c #2B3B39",
"<  c #36393A",
"1  c #2A272C",
"2  c #40210F",
"3  c #433C36",
"4  c #4C3327",
"5  c #6D3F27",
"6  c #0E4908",
"7  c #334915",
"8  c #24681F",
"9  c #3B5D34",
"0  c #36512D",
"q  c #366D33",
"w  c #5C6B18",
"e  c #474A28",
"r  c #475A27",
"t  c #55552C",
"y  c #484738",
"u  c #565235",
"i  c #615039",
"p  c #5B6735",
"a  c #5C7636",
"s  c #4E6C29",
"d  c #6A7127",
"f  c #656A3B",
"g  c #63713B",
"h  c #697438",
"j  c #505B0C",
"k  c #002554",
"l  c #0D3650",
"z  c #332743",
"x  c #373C45",
"c  c #393A54",
"v  c #003964",
"b  c #063F76",
"n  c #203D69",
"m  c #184A4E",
"M  c #3A4546",
"N  c #2D4D4D",
"B  c #074268",
"V  c #1E5967",
"C  c #3D7A6A",
"Z  c #49534E",
"A  c #6C4D50",
"S  c #4D7647",
"D  c #526654",
"F  c #636B44",
"G  c #697E47",
"H  c #6B7358",
"J  c #6F7350",
"K  c #485464",
"L  c #476462",
"P  c #756162",
"I  c #787779",
"U  c #6C7D6A",
"Y  c #875A56",
"T  c #886F59",
"R  c #A87464",
"E  c #D67C74",
"W  c #368E00",
"Q  c #4E9614",
"!  c #448C28",
"~  c #7E8D3C",
"^  c #59AE32",
"/  c #219973",
"(  c #27AB5F",
")  c #589D42",
"_  c #7C955C",
"`  c #61AB4A",
"'  c #76CB78",
"]  c #868B37",
"[  c #899A47",
"{  c #908E52",
"}  c #A2805B",
"|  c #98AA4D",
" . c #9AAA56",
".. c #A8B34C",
"X. c #A9B758",
"o. c #A2AA56",
"O. c #AB8876",
"+. c #B88E6B",
"@. c #90AF6B",
"#. c #A5AD66",
"$. c #B0B76B",
"%. c #859068",
"&. c #C7825B",
"*. c #F58F5D",
"=. c #D89577",
"-. c #D4926C",
";. c #E99967",
":. c #FF9A67",
">. c #E69775",
",. c #F29D74",
"<. c #D6A070",
"1. c #F6A369",
"2. c #EAA572",
"3. c #E8A578",
"4. c #F1AA7B",
"5. c #F8A474",
"6. c #F5AC75",
"7. c #B9D94B",
"8. c #B8C55A",
"9. c #BED757",
"0. c #96D47F",
"q. c #BAC963",
"w. c #BED56B",
"e. c #B5C271",
"r. c #ABD663",
"t. c #C5CE4E",
"y. c #C3D44C",
"u. c #CAD54D",
"i. c #CAD84B",
"p. c #C4CD54",
"a. c #C3CE5C",
"s. c #CACD57",
"d. c #C6D355",
"f. c #CAD456",
"g. c #C6D953",
"h. c #CCD955",
"j. c #C5D35C",
"k. c #C9D45C",
"l. c #C5DA5B",
"z. c #CBDA5C",
"x. c #D3D959",
"c. c #D1DA4B",
"v. c #D0E157",
"b. c #C5CE64",
"n. c #CACD63",
"m. c #C7CC69",
"M. c #C5D362",
"N. c #CBD463",
"B. c #CCDA63",
"V. c #C6D36B",
"C. c #CBD46B",
"Z. c #CDD96A",
"A. c #C6D967",
"S. c #D1DB62",
"D. c #D2DB6B",
"F. c #D6D468",
"G. c #C9D675",
"H. c #CBD375",
"J. c #FFCA7E",
"K. c #C3E268",
"L. c #D6E66A",
"P. c #093E84",
"I. c #1435A9",
"U. c #154A95",
"Y. c #004490",
"T. c #24679E",
"R. c #0059B7",
"E. c #2959A5",
"W. c #1672B1",
"Q. c #2166A9",
"!. c #146ECE",
"~. c #006BD2",
"^. c #064AE2",
"/. c #0272E4",
"(. c #0A8CB1",
"). c #2287BB",
"_. c #34A893",
"`. c #4CBAB7",
"'. c #73DF8A",
"]. c #028AD7",
"[. c #049AD5",
"{. c #00A0D4",
"}. c #38A4D4",
"|. c #008BE4",
" X c #0293E3",
".X c #2691D5",
"XX c #4BC2C0",
"oX c #868A8A",
"OX c #8B919A",
"+X c #A28B8B",
"@X c #B9A59E",
"#X c #9597A6",
"$X c #8F96A1",
"%X c #A7A3B0",
"&X c #DBB795",
"*X c #ECA786",
"=X c #FAAD85",
"-X c #EAAC93",
";X c #EAB998",
":X c #F2B585",
">X c #E9BDA4",
",X c #CBB4A6",
"<X c #AEE28D",
"1X c #EECBAC",
"2X c #EECDBA",
"3X c #FAD7B8",
"4X c #F2C8A5",
"5X c #FFE1BE",
"6X c #BDBEC9",
"7X c #B8C3C7",
"8X c #C7DBC8",
"9X c #CDD1D6",
"0X c #D4D7D9",
"qX c #CCD2CB",
"wX c #F7DBC3",
"eX c #FBDDDA",
"rX c #EFD7D7",
"tX c #DAE3DC",
"yX c #FCE5CA",
"uX c #F6E9D8",
"iX c #F4F4DE",
"pX c #E5EBDD",
"aX c #D6D8E5",
"sX c #DBDFF3",
"dX c #C6D3E3",
"fX c #D9E0E8",
"gX c #E7ECE8",
"hX c #FBECEA",
"jX c #EAF3EC",
"kX c #FCFCF5",
"lX c #FDF6FE",
"zX c #F4FDFE",
"xX c #FDFDFD",
"cX c #F4F7F5",
"vX c #F7F1F4",
/* pixels */
"D.B.j.B.N.S.k.f.f.h.y.C.H.Z.h.f.N.h.u.F.n.x.z.N.z.N.Z.N.N.C.N.D.",
"b.A.a.a.Z.k.a.k.9.#.#.X.D.a.p.h.q.o.o.X.F.n.C.d.k.k.k.k.k.j.N.N.",
"m.C.Z.a.N.p.C.n. .> * e 8.d.A.q.G + $ G <Xn.b.f.f.s.j.j.k.a.k.N.",
"N.M.a.j.z.z.Z.] H oX#XI G ..G.G U #X#XH d q.D.y.j.k.k.N.k.a.N.N.",
"x.z.k.h.y.g.G.j M cXzX9X: F %.  #XxXzXoX+ ..d.d.k.k.k.k.k.k.N.Z.",
"d.d.f.h.y.B.e.r 0 gXcX8X& X 1   oXxXcXoX$ $.B.z.f.f.k.f.j.k.k.k.",
"h.d.a.a.l.$.h H %XcXjXgX#XoXOXoX7XxXkX6XI J [ l.f.j.k.k.f.k.j.N.",
"x.C.C.9.8.~ > 6XxXcXxXvXxXkXkXxXxXjXkXkXvXx p l.k.j.k.k.j.k.k.k.",
"m.x.9.b.p N 8XlXkXlXlXlXzXjXxXzXvXzXzXxX0X, g k.f.j.k.k.k.j.N.N.",
"C.p.w.n.t L iXvX4X2X2X2X3X1X1X3XuXkXzXxX0X< g f.k.k.k.k.j.N.N.N.",
"Z.d.K.N.t Z wXwX2.;.2.2.;.1.1.-.4XuXcXxXaXx g f.k.k.k.k.j.k.k.N.",
"j.z.k.n.u y -X>X4.1.1.2.1.6.4.,.2.1XhXlX0Xx g g.f.j.k.k.k.k.N.N.",
"M.B.j.n.p 3 E R T >.=X*X3.} T ,.:.;XyXxXaXx g g.f.k.N.k.k.k.N.N.",
"V.9.f.n.e Z *X5 @ =.=X-X-Xu X -.1.;XuXkXaXx p l.f.k.k.k.M.k.N.N.",
"C.k.z.N.9 3 -.4 * -.6.=X:XA X R :.;XiXkX9Xx g k.j.k.k.k.k.k.N.N.",
"V.l.t.s.s ; E T I ;.1.4.5.R P &.E -XiXkX9Xx g j.j.k.k.k.j.j.k.N.",
"g.x.n.H.r y &X:X=X2.2.6.3.4.4.5.5.4XhXzX8XM F i.M.y.N.H.f.M.C.x.",
"M.s.s.m.r Z rX3X;.>.;.;.,.5.;.;.;XyXvXxX8XM G 7.k.i.k.8.d.f.m.k.",
"G.B.c.C.r K lXkX3XuXyX3XwX3XyXeXlXkXlXxXsXz ; { 9.g.g.9.u.p.C.N.",
"V.M.s.f.s Z dXfXgXaXaXgXtXtXtXsXsX0X0XtX7XN * :  .o.L.L.S.k.C.z.",
"A.b.C.z.X._ Z M 3 3 x c M x x x , < 0 1 Z @.0.) 0 7 q.N.n.k.n.k.",
"v.b.n.8.L.$..   o 9 V v v v l q V B B v B C <Xr., * V.C.m.f.V.z.",
"h.j.D.Z.8. .; X 0 ' XX|.{.[.}.' `.W..X}.W.= S 0., & A.f.m.f.V.z.",
"h.N.8.V.d t +XA # ^ _.|.{.[.).^ 8 m #X,X+X1 7 ) - * l.u.C.u.C.9.",
"D.M.7.A.3 u 1XY + W ( |.].[.(.Q 6 2 2.:X=.% 6 Q 1 + H.k.s.F.a.z.",
"b.d.y.V.f i O.A = ! / |. X].(.( m > +.4.O.0 8 q : 7 q.p.s.C.M.z.",
"C.d.d.V.X.] t O k Q.!.~././.!.W.Q.U.c ; y S q 6 _ | l.z.N.n.j.l.",
"A.j.k.k.F.X.h % l ^.^.b Y.Y.U.I.~.R.k   @ 0 r a w.B.l.f.n.b.M.B.",
"j.G.z.u.s.B.q.D l E.n . # @ o & U.E.= # @ * J M.d.f.y.k.a.M.N.z.",
"z.H.s.u.a.k.l.r c @XA O _ ..{ . P %Xz Z |  .m.s.f.d.f.k.a.N.a.a.",
"M.m.p.z.H.M.9.w y <.Y > ..F.#.# { -.4 f h.c.j.f.j.j.N.a.j.j.j.N.",
"G.S.D.m.A.M.L.M.B.F.x.7.L.8.V.z.m.x.d.Z.k.B.G.n.C.D.Z.M.B.j.Z.D."
};
