/* XPM */
static char *P_D[] = {
/* columns rows colors chars-per-pixel */
"32 32 240 2 ",
"   c #121804",
".  c #040212",
"X  c #091718",
"o  c #1A1B1B",
"O  c #080E06",
"+  c #261C1D",
"@  c #1A2C0F",
"#  c #152716",
"$  c #0B2F03",
"%  c #292618",
"&  c #2C2D0E",
"*  c #0E1426",
"=  c #061C34",
"-  c #221C2A",
";  c #361035",
":  c #0E272C",
">  c #152625",
",  c #09342C",
"<  c #283A25",
"1  c #383925",
"2  c #283D37",
"3  c #383B39",
"4  c #2A2832",
"5  c #462D35",
"6  c #593829",
"7  c #4F132D",
"8  c #38461C",
"9  c #2C4F11",
"0  c #185A24",
"q  c #27453B",
"w  c #394B34",
"e  c #28652A",
"r  c #346B26",
"t  c #33722C",
"y  c #0D541C",
"u  c #54611C",
"i  c #656A14",
"p  c #474E26",
"a  c #535A2E",
"s  c #4B4839",
"d  c #4B5636",
"f  c #565A32",
"g  c #4C5729",
"h  c #5A6534",
"j  c #516E28",
"k  c #686D35",
"l  c #676B34",
"z  c #6A7634",
"x  c #132A4A",
"c  c #382544",
"v  c #353947",
"b  c #2E394E",
"n  c #03366A",
"m  c #0D317A",
"M  c #4C3040",
"N  c #145C44",
"B  c #2A4447",
"V  c #3F464B",
"C  c #384356",
"Z  c #284B57",
"A  c #074C6B",
"S  c #074A77",
"D  c #444948",
"F  c #535555",
"G  c #4E534D",
"H  c #635958",
"J  c #546D51",
"K  c #6D764F",
"L  c #656D4F",
"P  c #605168",
"I  c #6D6660",
"U  c #4E516A",
"Y  c #89585A",
"T  c #876D55",
"R  c #8F6C4D",
"E  c #A87158",
"W  c #A27E68",
"Q  c #CC7A5D",
"!  c #CA7F62",
"~  c #359605",
"^  c #478333",
"/  c #4F922B",
"(  c #72833C",
")  c #229D67",
"_  c #26AC4D",
"`  c #7C954F",
"'  c #799154",
"]  c #4DAE55",
"[  c #6BA95C",
"{  c #778374",
"}  c #6E8372",
"|  c #909935",
" . c #81912E",
".. c #849448",
"X. c #979153",
"o. c #9AA752",
"O. c #9BAB49",
"+. c #B1BA57",
"@. c #AAAA54",
"#. c #B3856D",
"$. c #B09374",
"%. c #97B16B",
"&. c #ABB862",
"*. c #A2A86C",
"=. c #F8955F",
"-. c #DC9B76",
";. c #E59C69",
":. c #F69B67",
">. c #F39879",
",. c #DBA56C",
"<. c #DBA978",
"1. c #F7A56C",
"2. c #ECA474",
"3. c #F4A373",
"4. c #FAA777",
"5. c #EEA975",
"6. c #F4A354",
"7. c #BACB4D",
"8. c #BCC856",
"9. c #BCD658",
"0. c #AACA5F",
"q. c #BAC865",
"w. c #AECA7E",
"e. c #8FC275",
"r. c #C2CF4A",
"t. c #C4D344",
"y. c #C6D34E",
"u. c #C8D949",
"i. c #C4CE55",
"p. c #C4CF5A",
"a. c #CACD5C",
"s. c #C5D255",
"d. c #CAD555",
"f. c #CBDA55",
"g. c #C5D35C",
"h. c #CAD45C",
"j. c #C6D95C",
"k. c #CCDA5C",
"l. c #D2D85B",
"z. c #D0D844",
"x. c #C5CE64",
"c. c #C9CF65",
"v. c #C6CC67",
"b. c #C6D363",
"n. c #CAD464",
"m. c #CCDA64",
"M. c #C5D46C",
"N. c #CBD46A",
"B. c #CDDB6A",
"V. c #C3DD61",
"C. c #D2D464",
"Z. c #D1DB65",
"A. c #D1D76C",
"S. c #D1DB6B",
"D. c #C9D575",
"F. c #D2DC73",
"G. c #D0CB73",
"H. c #FFCA7D",
"J. c #D1E369",
"K. c #0B3990",
"L. c #134A85",
"P. c #0056BF",
"I. c #0E74B9",
"U. c #1E69A3",
"Y. c #0F6BD2",
"T. c #2660C3",
"R. c #045AEA",
"E. c #087AED",
"W. c #2C999B",
"Q. c #0D85B8",
"!. c #20B2B2",
"~. c #3898AE",
"^. c #639E93",
"/. c #57C2AE",
"(. c #78DDA3",
"). c #088BD7",
"_. c #0493D9",
"`. c #059CCB",
"'. c #2D92C0",
"]. c #03A1C8",
"[. c #32A2CA",
"{. c #0494E3",
"}. c #0983E2",
"|. c #868C93",
" X c #909194",
".X c #B59A85",
"XX c #85BF8F",
"oX c #AAA180",
"OX c #9595AB",
"+X c #9DA3A9",
"@X c #8FA4B7",
"#X c #B3B3B5",
"$X c #AE97B3",
"%X c #D29F8A",
"&X c #F09B87",
"*X c #DAA683",
"=X c #D6A688",
"-X c #C0A089",
";X c #EBA885",
":X c #FBB589",
">X c #ECB796",
",X c #F4B895",
"<X c #F1AD86",
"1X c #F8B2A6",
"2X c #A7CE88",
"3X c #97CC84",
"4X c #CAD380",
"5X c #FECD95",
"6X c #D6CBAD",
"7X c #CFC8B6",
"8X c #EACCB4",
"9X c #F2CCB3",
"0X c #F6D2B1",
"qX c #F7E1AF",
"wX c #BBD9D9",
"eX c #CCD3CE",
"rX c #D4D8CE",
"tX c #CAD5D9",
"yX c #DCD9D9",
"uX c #C8CFD9",
"iX c #F7DAC7",
"pX c #EFD9D1",
"aX c #D1E9D0",
"sX c #FDE9D8",
"dX c #FEF4DF",
"fX c #EEEACD",
"gX c #D9D9E6",
"hX c #E1DCF0",
"jX c #D5EDF1",
"kX c #EAEAE9",
"lX c #F5EBE3",
"zX c #FDFDED",
"xX c #F8FBEA",
"cX c #E9E4F5",
"vX c #FAEBFE",
"bX c #ECFAFA",
"nX c #FDFEF3",
"mX c #F2FCFF",
"MX c #FCFDFC",
"NX c #F8F4F9",
/* pixels */
"m.S.a.v.A.n.n.N.C.h.l.9.N.h.C.M.l.N.N.f.f.M.B.d.b.N.S.Z.p.h.S.m.",
"m.B.n.n.b.p.h.g.n.a.8.*.@.0.n.h.d.S.o.&.o.B.g.n.i.i.g.g.p.a.b.m.",
"b.a.g.h.i.s.k.d.n.q.` o   ' q.u.j.w.g o & O.b.M.k.i.h.p.p.p.n.m.",
"n.b.g.h.k.s.s.s.r.K J OX+XJ ( 8.0.z I OX+Xh  .S.d.h.k.m.g.c.n.A.",
"b.m.i.d.d.d.d.h.q.O XXvXvX@XO  .h < gXmXmXs u 7.i.i.g.g.b.n.n.C.",
"c.m.i.i.d.h.m.p.w.% I MXnX^.. & X * eXbXcXC d M.C.m.h.i.g.g.g.a.",
"N.Z.s.d.g.N.c.| J { 7XMXMXeX|.|.|. XkXmXbX+XI l 8.n.N.g.i.h.h.d.",
"n.k.i.k.h.F.v.i V yXzXNXvXxXxXmXMXnXnXNXMXnX#Xv | +.b.n.g.h.k.f.",
"k.n.b.d.n.s.n.k C rXzXxXNXMXMXbXMXnXnXMXMXMXbXtXG a V.n.g.f.b.V.",
"k.v.b.p.n.s.V.k b eXzXmXMXsX9X9X0X8X8X8X9X0XlXMXG a j.b.b.f.M.M.",
"k.v.n.i.V.s.b.k B rXMXMXlX>X;.3.1.-.<.-.;.1.9X9XD g g.g.p.d.b.b.",
"l.c.n.d.n.s.b.k q eXnXlX8X3.:.2.5.4.2.1.1.,.,X=XD f j.n.b.d.n.n.",
"k.N.n.p.n.s.b.k C tXMXsX>X3.-.T W <X:.4.<.T #.*XD f j.g.g.y.v.n.",
"k.v.n.s.j.s.b.k b uXnXsX<X4.#.- s *X1.:X.X+ 6 -.V f j.n.n.d.c.Z.",
"k.v.n.i.b.s.n.k b yXmXdX,X:.E o d 5.1.:X.X% 6 ! 3 a g.g.a.y.v.Z.",
"k.n.n.i.n.s.n.z v tXmXlX,X:.Q Y X.:X:.4.=XT E Q 3 f h.n.n.d.v.n.",
"m.i.x.g.d.n.A.i q pXMXkX1X5.<.4.<X<X;.3.&X1.5X=XV h q.J.V.N.j.y.",
"s.m.F.s.t.h.D.K 2 gXMXNXdX6X,.=.3.&X>.6.,.,.5XiXU f M.f.s.N.b.k.",
"m.N.N.s.f.g.` 8 c cXbXxXMXMXpXqX0XiXpXqXiXiXzXNXU p F.f.r.N.M.N.",
"t.b.h.S.&...8 # w #XaXaXpXgXjXjXfXyXjXjXhXcXjXwXJ a B.y.i.n.b.n.",
"b.D.t.8.1 w ' 2X%.I c 3 3 2 q b D v D v w 2 V s ..O.k.i.b.N.b.h.",
"s.b.k.D.o 3 2X2XJ S n m S Z G x n n n N t X . o 8.J.k.i.n.C.m.y.",
"A.p.7.b.# B e.t = U.[.'.).^.(.!.}.{.`./.3XB = 5 o.q.b.l.g.c.m.d.",
"l.v.h.V.@ , [ 0 -  X6X XZ 0 ] W.{.{.Q.W.] @ M $.p z q.Z.i.i.N.n.",
"z.G.y.f.* , / y 7 %XH.;.c $ ~ [._.]._.) ~ @ Y :XF p D.k.g.n.h.f.",
"d.q.s.a.< w ^ e < X.,..X5 0 _ )._.{.}.~.r $ F <.p h q.s.g.b.g.s.",
"p.k.h.q.o.` 9 9 ^ d 4 b K.I.I.T.Y.}.Y.Y.U., > 5 X.&.h.d.j.b.n.g.",
"m.k.b.n.m.D.z 9 r . O : Y.R.K.m K.K.S P.R.x & L +.n.y.y.g.b.m.n.",
"k.b.g.k.y.S.q...% o # x T.L.X # : - O S U.c l v.s.d.y.d.b.A.x.B.",
"i.N.p.r.p.g.g.&.o.&.d x $XI X ..&.o.- P oX5 G r.f.r.d.p.i.p.8.b.",
"g.N.s.h.b.b.k.8.j.F.l 8 ,.R - %.C.0.1 R +.p d J.s.7.j.n.b.n.b.m.",
"S.h.n.N.b.B.f.u.S.q.V.N.j.Z.G.t.h.a.M.i.Z.4Xb.d.m.m.N.b.V.b.m.b."
};
