/* XPM */
static char *P_D[] = {
/* columns rows colors chars-per-pixel */
"32 32 240 2 ",
"   c #091404",
".  c #000014",
"X  c #071616",
"o  c #18191A",
"O  c #00000C",
"+  c #231E1A",
"@  c #18270C",
"#  c #152518",
"$  c #0E2F0C",
"%  c #292819",
"&  c #27340E",
"*  c #0E182C",
"=  c #30163D",
"-  c #0A3335",
";  c #0F2B2A",
":  c #2A3923",
">  c #2B2739",
",  c #3C2736",
"<  c #2F3A39",
"1  c #393939",
"2  c #34302A",
"3  c #593627",
"4  c #473034",
"5  c #4A1131",
"6  c #12571B",
"7  c #324C13",
"8  c #284539",
"9  c #39523A",
"0  c #2E4833",
"q  c #1E6523",
"w  c #366D2F",
"e  c #44511C",
"r  c #56631E",
"t  c #656C16",
"y  c #464C2A",
"u  c #4D572B",
"i  c #495837",
"p  c #545D32",
"a  c #524A39",
"s  c #5A672C",
"d  c #5D6938",
"f  c #51752E",
"g  c #686D35",
"h  c #68653B",
"j  c #727E38",
"k  c #616D2D",
"l  c #0B2C4C",
"z  c #2A3B45",
"x  c #383A47",
"c  c #353A57",
"v  c #342544",
"b  c #04356F",
"n  c #05387A",
"m  c #0B3571",
"M  c #543F44",
"N  c #3D4848",
"B  c #384156",
"V  c #284C51",
"C  c #0C4A74",
"Z  c #004B65",
"A  c #1A564A",
"S  c #444948",
"D  c #455442",
"F  c #54594D",
"G  c #585959",
"H  c #4F4F52",
"J  c #7F5C5A",
"K  c #5C6552",
"L  c #697351",
"P  c #4D4F64",
"I  c #614C6B",
"U  c #4F7F67",
"Y  c #716D65",
"T  c #8D585E",
"R  c #896A4C",
"E  c #886D57",
"W  c #947C58",
"Q  c #A47157",
"!  c #A07D61",
"~  c #C87C62",
"^  c #369303",
"/  c #398731",
"(  c #4C8C2E",
")  c #74823D",
"_  c #7E8E2C",
"`  c #23A26D",
"'  c #29B14F",
"]  c #4C9E4C",
"[  c #7C8C55",
"{  c #749351",
"}  c #55B85B",
"|  c #7B8376",
" . c #909835",
".. c #89954C",
"X. c #A38A51",
"o. c #9AA758",
"O. c #98A84D",
"+. c #A2A954",
"@. c #ABBB5C",
"#. c #A8B357",
"$. c #B0B950",
"%. c #B2896D",
"&. c #93B26A",
"*. c #ADB466",
"=. c #F9915C",
"-. c #EBA05F",
";. c #D2936F",
":. c #E79C6A",
">. c #F69A69",
",. c #E49A7C",
"<. c #DEA169",
"1. c #DBA179",
"2. c #D4AF6D",
"3. c #EBA369",
"4. c #F9A36D",
"5. c #E8A877",
"6. c #F4A373",
"7. c #FAA877",
"8. c #F8B37A",
"9. c #C7B259",
"0. c #BBCC4C",
"q. c #BAC759",
"w. c #B5CC59",
"e. c #BAC865",
"r. c #BBD367",
"t. c #B0C07F",
"y. c #C4D24B",
"u. c #C7D847",
"i. c #C4CE55",
"p. c #C4CE5C",
"a. c #C1C75D",
"s. c #C5D454",
"d. c #CAD554",
"f. c #CBDA55",
"g. c #C6D25C",
"h. c #C9D45C",
"j. c #CCD95C",
"k. c #C4DA58",
"l. c #D2D85E",
"z. c #C2CF4C",
"x. c #C9E14E",
"c. c #C3CD6B",
"v. c #C9CC69",
"b. c #C6D363",
"n. c #CAD463",
"m. c #C7DB64",
"M. c #CDDA64",
"N. c #C6D46B",
"B. c #CBD469",
"V. c #CCDA6B",
"C. c #D1DB65",
"Z. c #D1DC6C",
"A. c #D5D567",
"S. c #C8D573",
"D. c #D1D971",
"F. c #CECB79",
"G. c #FFC97A",
"H. c #D1E066",
"J. c #07378B",
"K. c #13458D",
"L. c #097C97",
"P. c #0056BB",
"I. c #275BB4",
"U. c #0B75B6",
"Y. c #2568AC",
"T. c #787D81",
"R. c #0777DF",
"E. c #1567D4",
"W. c #0156E9",
"Q. c #0379E5",
"!. c #24909A",
"~. c #0B8CB6",
"^. c #22B1B9",
"/. c #329F9E",
"(. c #4EB49C",
"). c #7DC988",
"_. c #7DDAA1",
"`. c #4EC4AC",
"'. c #0799C7",
"]. c #0293D9",
"[. c #0B88CB",
"{. c #0085E5",
"}. c #0095E5",
"|. c #329DC5",
" X c #878C8F",
".X c #878A98",
"XX c #949997",
"oX c #978A9B",
"OX c #BC9786",
"+X c #ABA188",
"@X c #949CA7",
"#X c #9397B0",
"$X c #9AA0B0",
"%X c #B3B2B4",
"&X c #A897AA",
"*X c #F69F83",
"=X c #D7A687",
"-X c #CCA48C",
";X c #E9AC89",
":X c #FCB488",
">X c #F6B694",
",X c #F3AC82",
"<X c #F2B7A5",
"1X c #A7D288",
"2X c #CBD382",
"3X c #FBCD92",
"4X c #CEC8AE",
"5X c #ECC8AC",
"6X c #EDCCB2",
"7X c #EACFBA",
"8X c #FCDBB8",
"9X c #FACEAC",
"0X c #B8D4D8",
"qX c #DAD3CF",
"wX c #C9CED5",
"eX c #CAD7D9",
"rX c #D7DAD3",
"tX c #FDDDCB",
"yX c #F3DAC8",
"uX c #E1D8D3",
"iX c #DCE5DF",
"pX c #CFE8CC",
"aX c #FEE9DB",
"sX c #EDE9CC",
"dX c #DBDCE6",
"fX c #CDD7E0",
"gX c #CFEAED",
"hX c #DEE8F6",
"jX c #DAE2ED",
"kX c #EFECE9",
"lX c #F8EDE3",
"zX c #FDFDEC",
"xX c #F8F5E7",
"cX c #E8E7F5",
"vX c #EDFAFD",
"bX c #FDFFF5",
"nX c #F4FCFE",
"mX c #FCFEFD",
"MX c #F8F7F9",
"NX c #FFEFFA",
/* pixels */
"M.Z.p.v.A.B.n.n.A.h.l.k.m.m.A.v.l.h.B.k.j.b.Z.d.n.A.V.M.p.h.C.C.",
"n.M.n.b.n.p.h.h.h.i.e.o.o.w.n.l.s.Z.o.*.O.N.p.B.p.i.h.h.p.h.n.h.",
"n.g.n.g.i.h.h.d.A.c.[ o o { q.u.m.e.u o & #.b.N.h.d.h.h.p.p.n.n.",
"B.g.h.h.h.d.s.s.z.L K #X$XK j q.@.s | @X@Xs _ V.d.h.h.h.g.b.B.D.",
"B.n.d.i.f.d.h.h.w.  ).cXmX$X  ..d : fXnXvXS r 0.i.i.h.M.n.n.v.A.",
"n.B.i.d.d.h.M.p.t.% T.NXmX.XO @ X * wXnXcXB u N.A.M.n.p.g.h.h.g.",
"B.C.s.d.i.n.v. .K | 4XmXmXwX X X XXXkXnXvX$XY h q.b.n.p.g.g.h.d.",
"n.j.i.j.h.Z.c.t x iXbXMXNXzXzXnXmXbXxXMXbXzX%Xx  .$.n.h.h.h.d.f.",
"j.v.n.p.m.s.b.g B rXzXxXMXmXnXnXbXbXbXbXbXbXnX0XH p m.b.h.f.b.N.",
"j.b.h.g.h.s.b.g z qXbXnXmXaX6X6X9X6X7X6X5X6XxXbXH u k.h.g.k.b.m.",
"j.v.n.p.b.s.b.g 8 rXbXnXlX<X:.4.6.1.1.1.:.3.9XyXS u r.h.p.f.b.N.",
"j.b.n.g.m.s.b.g z eXbXkX5X6.>.5.5.6.6.4.3.5.>X=XS p k.h.h.d.N.n.",
"j.b.n.p.h.s.b.g B fXbXaX;X6.,.E ! ,X>.7.1.E %.,.S p h.h.h.y.v.B.",
"j.v.n.g.b.s.h.g c wXbXaX>X7.%.o a ;X4.:XOXo 3 ,.N p n.n.n.d.n.M.",
"j.v.g.g.b.k.b.g c eXmXaX>X:.Q o a ;X4.:X-X% 3 ~ 1 p h.h.h.y.b.n.",
"j.b.n.p.h.s.m.g < eXnXkX>X=.~ T X.:X>.4.=XR Q ~ 1 p h.h.n.d.v.B.",
"m.g.p.g.l.d.A.t 8 uXmXkX<X2.5.7.,X;X:.6.*X4.3X=XN d N.k.B.N.h.u.",
"k.n.D.i.u.j.F.L z dXNXNXxX5X<.>.6.*X:.-.3.<.3XyXP i V.s.g.N.N.k.",
"j.N.N.g.d.h.{ : v cXmXbXmXMXtX8X8XyXtX8XtXtXzXnXP y V.f.y.n.N.N.",
"s.b.b.V.@...7 # D %XpXpXuXdXgXgXsXiXhXjXdXcXcXeXF s m.f.i.b.n.n.",
"h.B.y.q.0 y { 1X&.G v 1 x < 8 c a z B < 8 < N N ..O.M.y.h.n.n.h.",
"d.h.f.S.o < 1X1XU Z b n C V i l b b b A w X . X w.V.C.i.B.B.h.d.",
"C.a.y.N.o V &.f * L.|.|.U.(._.^.{.}.'.`.1XV * 4 O.w.n.h.n.n.h.f.",
"l.v.h.b.@ ; } 6 = oX4XXXV q } !.}.].~./.] $ M %.y j e.A.i.p.n.B.",
"u.F.u.s.* ; ( 6 5 -XG.:., $ ^ |.].'.].` ^ @ T :XH e S.s.g.N.h.k.",
"j.q.s.b.: 0 ( q : X.5.OX, 6 ' [.].].Q./.w $ G 2.a s c.s.h.g.n.d.",
"s.j.h.e.o.{ 7 7 / y 4 z K.U.U.E.R.Q.R.E.Y.- # 4 ..#.A.s.h.p.b.s.",
"V.f.h.B.j.V.( 7 w X O * E.W.J.m J.J.C P.W.l & L $.A.d.y.h.N.V.j.",
"C.p.g.j.z.Z.e...% o # l I.K.X # ; +   C I.> g e.s.f.y.s.g.V.n.M.",
"0.D.i.z.n.h.h.*.o.*.i l &XY X ..+.o.o I +X1 F y.k.y.s.h.w.b.q.h.",
"n.B.s.s.n.b.d.i.k.S.g 7 2.R + &.A.@.4 R 9.y i C.s.q.n.b.h.b.b.V.",
"Z.h.M.b.B.V.j.u.A.r.m.v.M.A.F.u.h.s.N.h.M.S.b.j.m.M.B.n.m.n.m.n."
};
