/* XPM */
static char *P_DEAD[] = {
/* columns rows colors chars-per-pixel */
"32 32 196 2 ",
"   c #3B2E0C",
".  c #413B1B",
"X  c #4C3933",
"o  c #483727",
"O  c #564E0F",
"+  c #4D481E",
"@  c #544B1C",
"#  c #5A4B1F",
"$  c #564B17",
"%  c #51511F",
"&  c #5D5B1C",
"*  c #59571A",
"=  c #605619",
"-  c #65631E",
";  c #544422",
":  c #5A4B24",
">  c #564F2F",
",  c #5A4E27",
"<  c #5E5B28",
"1  c #4E4337",
"2  c #534A3B",
"3  c #594D3B",
"4  c #5D523C",
"5  c #5E583E",
"6  c #5E5535",
"7  c #645D2D",
"8  c #615F22",
"9  c #635C34",
"0  c #665738",
"q  c #645C3E",
"w  c #685F38",
"e  c #5E6038",
"r  c #656821",
"t  c #656029",
"y  c #696929",
"u  c #68632C",
"i  c #676434",
"p  c #66623D",
"a  c #6C633E",
"s  c #7D7C37",
"d  c #7B7827",
"f  c #594B42",
"g  c #5E5243",
"h  c #635642",
"j  c #695741",
"k  c #625945",
"l  c #655D49",
"z  c #6A5C4C",
"x  c #6A5F41",
"c  c #605752",
"v  c #655A52",
"b  c #66555A",
"n  c #655A5E",
"m  c #695C59",
"M  c #715E5E",
"N  c #6B6444",
"B  c #6C644C",
"V  c #676547",
"C  c #716A40",
"Z  c #726C4C",
"A  c #77754A",
"S  c #78774B",
"D  c #777547",
"F  c #646056",
"G  c #6D6554",
"H  c #6D655A",
"J  c #726654",
"K  c #736A53",
"L  c #73625E",
"P  c #726A5D",
"I  c #7A6E5C",
"U  c #757155",
"Y  c #7A725D",
"T  c #7B7857",
"R  c #695B62",
"E  c #725E64",
"W  c #666060",
"Q  c #6D6463",
"!  c #6F646C",
"~  c #746663",
"^  c #786465",
"/  c #726A61",
"(  c #7A6F64",
")  c #74656C",
"_  c #7A666A",
"`  c #7B6F6B",
"'  c #736E68",
"]  c #7C7265",
"[  c #7B746B",
"{  c #75786C",
"}  c #7D7372",
"|  c #7B7D73",
" . c #757B71",
".. c #817D32",
"X. c #867E3A",
"o. c #807758",
"O. c #81766D",
"+. c #867C6A",
"@. c #847A72",
"#. c #877D7C",
"$. c #827776",
"%. c #7F832F",
"&. c #7F8032",
"*. c #8A9727",
"=. c #87853A",
"-. c #868242",
";. c #999F47",
":. c #9C9A4D",
">. c #999C55",
",. c #A29E4B",
"<. c #A19D46",
"1. c #A59E55",
"2. c #9EA341",
"3. c #9FAA4A",
"4. c #9FA251",
"5. c #A4AE4E",
"6. c #AEB54E",
"7. c #A6AA55",
"8. c #ABAC55",
"9. c #A2A559",
"0. c #A8AC5F",
"q. c #A4A350",
"w. c #B7BF58",
"e. c #B8BE5A",
"r. c #868060",
"t. c #838477",
"y. c #8B8474",
"u. c #8C8A72",
"i. c #84837D",
"p. c #8A857D",
"a. c #8A8B7C",
"s. c #868B76",
"d. c #908871",
"f. c #938D7D",
"g. c #8D937E",
"h. c #989177",
"j. c #949279",
"k. c #B6B865",
"l. c #BED348",
"z. c #BDCB57",
"x. c #BDC35B",
"c. c #BDCD5A",
"v. c #BFD352",
"b. c #BFD15B",
"n. c #BDC266",
"m. c #BED761",
"M. c #C2CF4B",
"N. c #C4D145",
"B. c #C4D34B",
"V. c #CAD64D",
"C. c #CBD94E",
"Z. c #C3CB54",
"A. c #C2CD5C",
"S. c #C9CE5A",
"D. c #C4D355",
"F. c #C9D554",
"G. c #C6DA53",
"H. c #CCDA55",
"J. c #C5D45B",
"K. c #C9D55C",
"L. c #C4D85B",
"P. c #CADA5C",
"I. c #D2DA56",
"U. c #C4CD63",
"Y. c #CBCD64",
"T. c #C2C36D",
"R. c #C4CB6A",
"E. c #C7CB68",
"W. c #C6D461",
"Q. c #CAD662",
"!. c #C6DC63",
"~. c #CBDA63",
"^. c #C5D26B",
"/. c #CBD26B",
"(. c #CDDA69",
"). c #D2D26C",
"_. c #D2DF6E",
"`. c #D0D465",
"'. c #C8C875",
"]. c #CED472",
"[. c #D2D771",
"{. c #CBE06B",
"}. c #D2E06F",
"|. c #8A7F85",
" X c #8C8B84",
".X c #8E848C",
"XX c #8D8B8A",
"oX c #868883",
"OX c #918A88",
"+X c #95938B",
"@X c #9C928D",
"#X c #939585",
"$X c #908E91",
"%X c #94869D",
"&X c #8C9091",
"*X c #959397",
/* pixels */
"}.W.~.W.L.~.P.P.G.Q.^.v.L.(.A.I.F.J.W.J.P.W.(.v.L.P.P.L.Q.(.Q._.",
"W.J.Q.J.J.P.J.D.W.R.(.J.P./.A.P.~.Y.A.P.Z.^.^.W.D.J.K.J.J.Q.A.A.",
"W.W.W.z.v.J.D.v.K.D.K.B.(.>.S p a A >._.D.K.J.~.D.D.K.A.A.W.Q.W.",
"W.K.J.c.W.~.L.K.L.D.L.l.U.S .X%X%XoXo.E.B.F.D.D.K.J.~.K.A.J.K.~.",
"L.J.J.W.W.K.J.J.c.(.P.I.K.y f.@X@Xd.y I.F.F.S.A.A.J.K.W.K.J.K.P.",
"~.K.J.L.J.c.W.W.J.K.D.V.J.- r.Y I o.- S.V.F.`.P.W.~.c.A.K.J.K.P.",
"L.D.D.J.b.Q.(.z.x.n.n.x.k.a O.( L O.w k.E.E.n.e.z._.Q.J.K.Z.D.J.",
"P.J.J.L.J.Q.c.*.U G U i D k ] P I ] 3 a 9 x h K *.z.W.J.K.D.J.P.",
"^.F.D.W.~.N.E.U #Xg.#X+X X X' ' ~ ' } a.#X Xs.g.z /.N.W./.D.L./.",
"^.L.J.U.J.C./.N +XXX X Xp.p.[ P P [ @.t.i.oXi.XXq ).B.J.^.P.F./.",
"^.J.K.W.J.H.U.@ ! ~ H H P P / v H P P H v Q n ) @ /.I.J.W.J.K./.",
"W.v.W.W.A.H.U.r F k q q N j I ~ P P g C 6 N j z - A.H.L.m.D.J.Q.",
"(.J.J.U.J.K.(.5.s s =.=.X.: J H H G + -.....X.X.8.Q.D.J.U.J.W.Q.",
"W.J.W.J.K.J.K.K.Q.Q.Y.Q.n.t Y ^ W ] < T.S.S.(.Y.(.Q.v.!.J.c.W.K.",
"J.K.W.J.J.K.A.D.S.F.B.F./.& K W M K & /.J.D.B.D.D.S.J.!.b.b.W.P.",
"L.J.W.J.J.).K.V.J.F.B.D./.< B n b B & /.B.G.v.L.V.K.!.b.b.W.K.L.",
"W.W.J.J.D.L.L.D.S.V.N.B.Y.* z R R B & Y.V.V.F.A.D.J.F.J.J.J.W.W.",
"W.K.J.J.J.F.L.D.J.`.Q.A.T.i P b c B t '.Y.S.K.W.L.J.L.J.J.J.K.W.",
"W.W.J.J.F.J.L.D.Q.6.%.& 7 . v v h J   : O d e.Q.D.D.L.D.J.K.W.W.",
"W.W.J.J.J.J.F.D.Q.7.D K P 2 G 3 z K o z 0 7 q.A.D.L.F.L.J.J.W.W.",
"~.W.K.J.K.L.D.D.A.9.N #.} 1 v h h j X ^ O.3 :.A.D.D.L.J.J.J.W.W.",
"L.W.J.J.D.L.D.L.Q.9.l .X$.3 l 4 g z f ~ O.3 q.J.D.L.L.L.J.J.L.W.",
"W.W.J.J.J.L.L.D.L.4.x #.$.G 4 1 f 1 g L O.: :.H.D.L.J.D.J.J.W.W.",
"W.W.J.J.F.D.L.D.F.7.Z @.+.h.+.+.{ y.d.( M 6 3.l.D.F.L.J.J.K.W.W.",
"L.K.J.J.J.L.L.L.F.8.N p.f.j.u.a.t.s.u.t.$.> ,.I.L.L.J.L.D.J.J.K.",
"W.J.b.J.D.J.D.D.v.0.Y *X$XXX X*XXXoXoX.X.Xl 1.M.D.D.D.L.J.J.J.K.",
"W.L.K.J.D.L.D.J.C.5.C i.i.t.| |  . .| i.| e q.C.D.L.D.J.J.J.W.W.",
"W.W.J.J.K.K.J.J.B.2.i ] / H F H H F F Q ' < <.N.J.J.K.K.W.J.K.W.",
"W.W.W.J.J.J.J.J.Y.1.a ^ _ _ M M H M R E E 0 1.Y.J.J.J.J.J.W.W.W.",
"W.W.b.b.J.J.J.J.`.:.= # ; , # # : : : ; @ O ,.).J.b.W.J.b.J.J.W.",
"W.W.W.J.J.J.J.J.J.J.J.).).Y.Y.`.Q.E.E./.[.c.K.J.J.J.K.J.m.W.W.W.",
"(.Q.Q.W.Q.~.W.W.m.!.L.W.D.J.J.H.K.P.K.J.!.J.{.W.W.L.~.W.W.Q.Q./."
};
