/* XPM */
static char *P_DEAD[] = {
/* columns rows colors chars-per-pixel */
"32 32 220 2 ",
"   c #434806",
".  c #4E540E",
"X  c #494D10",
"o  c #575A1A",
"O  c #5D6117",
"+  c #6D7812",
"@  c #4A432A",
"#  c #4F4C29",
"$  c #534E25",
"%  c #5A5A26",
"&  c #5B562C",
"*  c #585529",
"=  c #4B4434",
"-  c #544C3B",
";  c #544B39",
":  c #5C5533",
">  c #5B523C",
",  c #5E5B39",
"<  c #655F3B",
"1  c #605838",
"2  c #5F632B",
"3  c #5D6124",
"4  c #616322",
"5  c #62622C",
"6  c #676927",
"7  c #6F722F",
"8  c #767D25",
"9  c #72742D",
"0  c #797A2E",
"q  c #656331",
"w  c #696734",
"e  c #6D6C34",
"r  c #66623B",
"t  c #68663D",
"y  c #6D6F3D",
"u  c #6F7037",
"i  c #6E703F",
"p  c #7B7636",
"a  c #767934",
"s  c #78773D",
"d  c #7B7A39",
"f  c #777836",
"g  c #726C38",
"h  c #594E45",
"j  c #564C49",
"k  c #5B4C4B",
"l  c #564B43",
"z  c #5D5344",
"x  c #5D534B",
"c  c #5E584C",
"v  c #5B4B54",
"b  c #574B54",
"n  c #5D5352",
"m  c #605443",
"M  c #635C44",
"N  c #62554C",
"B  c #635A4B",
"V  c #695E4D",
"C  c #645654",
"Z  c #665B52",
"A  c #6A5D55",
"S  c #62565C",
"D  c #655B59",
"F  c #6B5D5B",
"G  c #666244",
"H  c #696444",
"J  c #6C6944",
"K  c #6B644D",
"L  c #6E6E4A",
"P  c #6F7046",
"I  c #757443",
"U  c #7C7B4C",
"Y  c #787747",
"T  c #6C6354",
"R  c #6D635B",
"E  c #726956",
"W  c #746B5B",
"Q  c #786D5F",
"!  c #70655F",
"~  c #7C7A52",
"^  c #7A715D",
"/  c #787156",
"(  c #736A4D",
")  c #5C5161",
"_  c #665962",
"`  c #6F6365",
"'  c #736963",
"]  c #72666A",
"[  c #766B6B",
"{  c #7A6F6B",
"}  c #786B65",
"|  c #7C7464",
" . c #7E756A",
".. c #7D7173",
"X. c #81755D",
"o. c #827667",
"O. c #827769",
"+. c #847D6E",
"@. c #817577",
"#. c #837B71",
"$. c #8A7E75",
"%. c #81767A",
"&. c #897F7B",
"*. c #84797F",
"=. c #7A8127",
"-. c #7E8235",
";. c #7E8538",
":. c #838A3D",
">. c #8B8C46",
",. c #908F4E",
"<. c #8F9845",
"1. c #929C45",
"2. c #9A9C4C",
"3. c #888657",
"4. c #999A55",
"5. c #959A58",
"6. c #9AA34C",
"7. c #97A04D",
"8. c #9BA251",
"9. c #9DA35A",
"0. c #A0AD43",
"q. c #A3A858",
"w. c #ABAF58",
"e. c #AFB55A",
"r. c #8B856B",
"t. c #8D8A6B",
"y. c #888363",
"u. c #918D6F",
"i. c #918B67",
"p. c #9D9D62",
"a. c #9A986A",
"s. c #8D8375",
"d. c #8F8974",
"f. c #8D837C",
"g. c #8A8576",
"h. c #908575",
"j. c #948D7D",
"k. c #988E7D",
"l. c #918A76",
"z. c #959173",
"x. c #999277",
"c. c #9C947D",
"v. c #9B9779",
"b. c #ADB167",
"n. c #B9BD69",
"m. c #B3B468",
"M. c #A7A676",
"N. c #BCCB4E",
"B. c #B6C246",
"V. c #BFD34E",
"C. c #BECE53",
"Z. c #BAC55D",
"A. c #BECA5D",
"S. c #B9C652",
"D. c #BED154",
"F. c #BED05A",
"G. c #BCC564",
"H. c #BFCC62",
"J. c #BAC26A",
"K. c #BFC474",
"L. c #C1D34F",
"P. c #C1CD54",
"I. c #C1CD5C",
"U. c #C3D355",
"Y. c #C5D955",
"T. c #CBDA55",
"R. c #C4D45C",
"E. c #C9D45C",
"W. c #C6D95C",
"Q. c #CADA5C",
"!. c #C9D454",
"~. c #D2DF5B",
"^. c #C0C564",
"/. c #C2CE63",
"(. c #C4CE6D",
"). c #CACE6E",
"_. c #C0C66E",
"`. c #C5D463",
"'. c #CAD563",
"]. c #C6D862",
"[. c #CBDB63",
"{. c #C5D26B",
"}. c #CAD46C",
"|. c #CCDA6B",
" X c #D2DE6A",
".X c #D2DA6B",
"XX c #C2C773",
"oX c #C3CB74",
"OX c #CBCE74",
"+X c #C5CB7A",
"@X c #CCCD7C",
"#X c #C6C67B",
"$X c #CCD471",
"%X c #CDDA72",
"&X c #CBD27A",
"*X c #CEDA79",
"=X c #D5DD73",
"-X c #D4D77A",
";X c #CEE162",
":X c #D1E165",
">X c #D2E36B",
",X c #D5E273",
"<X c #DCE37A",
"1X c #DAE473",
"2X c #8B7E82",
"3X c #8B7F89",
"4X c #8E8183",
"5X c #918584",
"6X c #948C82",
"7X c #968B8E",
"8X c #978B8A",
"9X c #9A9181",
"0X c #9B9195",
"qX c #938994",
"wX c #A29A84",
"eX c #A79C94",
"rX c #C6C680",
"tX c #CBCC83",
"yX c #D3D384",
"uX c #D9DF85",
/* pixels */
":XF.;X[.Y.;XQ.Q.E.E.E.'..X$X.XOX#XyX-X.XE.T.~.T.P.E. X{.`.].[.;X",
"|.F.[.W.R.Q.!.Q.P. X<X=X^.w.0.:.,.4.m.OX.X!.!.~.!.[.|.{.R.R.R.Y.",
"%XH.H.`.U.!.L.T.B.E.}.w.,.>.X.X.p g 9 2.^.'.!.P.E.'.'.R.R.R.F.Y.",
"%XH.H.F.W.R.U.Q.=X$Xn.5.3.i.c.wXx.o.s 9 2.OX=XI.I.E.R.I.W.R.U.;X",
"|.`.I./.'.'.`.Z.oXb.p.a.wXwX6X8X$.k.+.g g 4.K.}.'.[.R.C.R.R.U.;X",
"|.].R.].`.%XoX7.a 5 r s.eXeX7X7X2Xk.$.Q < q 7 =.G.,X;XD.U.U.D.[.",
"Y.R.U.].`.*X+Xa a.r.g.6X5X@.] ` [ ] ` o.+.t.3.d 8.%X>XC.Y.Y.D.R.",
"Y.D.U.].Z.*X+X3 3.t.j.4X..] ] ] F @.@.` { 6Xu.I :.G.'.D.W.;XR.W.",
"D.;XD.F.`.(.oXO M.v.j.{ ] ..[ ] ' ! ..[ *.8X9XL 6 OXH.F.>XN.D.[.",
"D.Q.!.F.].$XK.. U / | ' ` ` S ` T R ..[ ....g.H o +X|.D.Q.V.R.Y.",
"Y.Y.Y.R.].%XK.  Y G W W T Z N ^ K M R n ] { | r X oX,XS.F.D.R.Y.",
"Y.D.Y.U.].*XK.  U G R T z B K r.~ c l = ! ! K # 3 oX,XD.V.Y.W.D.",
"Y.V.Q.U.R.%XoXO P G W T = > > M G - - - W T H 3 <.(.[.D.U.U.W.R.",
"W.Y.Y.D.W.|.(.:.u , ^ W c c - @ - z K T / 1 w d n.`.U.L.Y.!.R.R.",
"|.H.].N.Y.R.'.e.;.% H ^ ! ' R D Z E | E K $ u 4.{.R.L.L.Y.Y.W.F.",
"$X{.].N.Q.R.[.$XJ.u r H x c S F c c B > G q 4.uX/.U.U.V.V.R.W.W.",
"(.).'.P.I.I.}.}.-X4 g $ k v X.v l z = M , o 9.uX].Y.U.N.D.Y.].`.",
"(./.E.'.=X).@X#Xm.% g $ m l l l x N - T G 2 9.$XH.].;X:XQ.R.].].",
"|.P.P.`.$Xw.p.i.X.$ X.X.X.v X.C F F z T M @ w Y >.6.Z.|.W.F.R.].",
"'.I.P.I._.f Y H 1 @ C X.C v v C C D x R Z = - # 2 7 6.F.R.V.R.[.",
"'.W.E.).#Xg X.o.X.k C C C C C X.A T N T R x c - ~ Y 6.}.'.U.Y.].",
"R.'.E.}.#Xw x.h.k k N m k k m m N z ; ; h h j = u.U 6.|.[.R.Q.].",
"I.|.E.I.OX4 x.o.m X.X.m 1 X.; 1 z z > > M T c = t.i :.].R.C.].].",
"R..XP.I.@X6 c.X.V $.$.$.$.c.$.k.s.j.z.z.x.g.' - z.Y 7.{.R.N.`.|.",
"'.[.P./.XXg u.+.F Q o.o.o.! X.A ' | ^ ^ | ' D c t.i 6.F.].W.F.F.",
"P.[.E.}.@XY c.$.F F F F F F N X.T D Z T Z D n n g.P q.K.].].].H.",
"P.Q.E.).K.Y 9X3X_ _ C v v v N C j j j j b b ) ) g.L 5.H.F.F.D.;X",
"Q.Q.!./.n.I j.8XeX3X2X&.&.2X$.$.g.f.4X*.3X4XqX0X6XL 5.K.H.F.F.;X",
" XP.P.'.#Xe y.g.$.O.o.o.o.o.X./ Q |  . .{ .. .#.t.P 9.*X|.F.F.;X",
" XP.P.`.J.O 5 r & & 1 & 1 & * $ * * : > : : : % 3 . 1.{.H.F.F.F.",
".XI.!.P.I.8 -.9 0 0 -.p p p p p d s s s I d a =.=.+ 0.F.H.H.F.F.",
"%X}. XE.1XZ.-X(.).).-XOX@X@X@XyXyXtXrXrXtX&X&X{.].S.,X,X].>X|.,X"
};
