/* XPM */
static char *P_S[] = {
/* columns rows colors chars-per-pixel */
"32 32 240 2 ",
"   c #07190B",
".  c #171906",
"X  c #040415",
"o  c #071719",
"O  c #1A1B1A",
"+  c #08040C",
"@  c #2A1F1D",
"#  c #042301",
"$  c #1C2404",
"%  c #172717",
"&  c #08361A",
"*  c #152E12",
"=  c #232A19",
"-  c #2B3015",
";  c #0B192E",
":  c #16142E",
">  c #082629",
",  c #142627",
"<  c #0E2434",
"1  c #282C28",
"2  c #273326",
"3  c #3A3626",
"4  c #2A3739",
"5  c #343836",
"6  c #3B292C",
"7  c #483430",
"8  c #1A4204",
"9  c #314E0E",
"0  c #2D7216",
"q  c #164533",
"w  c #3A4623",
"e  c #324D29",
"r  c #386D29",
"t  c #4A4F18",
"y  c #4A4331",
"u  c #595B37",
"i  c #4F4C2F",
"p  c #546227",
"a  c #556739",
"s  c #646F37",
"d  c #6E7837",
"f  c #6C721C",
"g  c #103750",
"h  c #3B3449",
"j  c #363545",
"k  c #023C6C",
"l  c #0B3475",
"z  c #423642",
"x  c #6B3046",
"c  c #37474C",
"v  c #08486E",
"b  c #214871",
"n  c #205A56",
"m  c #5C554D",
"M  c #675E54",
"N  c #614446",
"B  c #4F704E",
"V  c #646849",
"C  c #66655B",
"Z  c #687A5F",
"A  c #746F50",
"S  c #545366",
"D  c #534D67",
"F  c #576468",
"G  c #76797A",
"H  c #707873",
"J  c #846E3C",
"K  c #896F5B",
"L  c #A27558",
"P  c #926D62",
"I  c #AE7774",
"U  c #C57F66",
"Y  c #3B861D",
"T  c #36A11D",
"R  c #3D8821",
"E  c #489300",
"W  c #48833F",
"Q  c #738231",
"!  c #379348",
"~  c #3B9A78",
"^  c #79874B",
"/  c #7A8C4F",
"(  c #53AC49",
")  c #7C837A",
"_  c #649D68",
"`  c #72A07B",
"'  c #5D9B50",
"]  c #949D31",
"[  c #C6DB3E",
"{  c #8F9845",
"}  c #89974B",
"|  c #889A52",
" . c #87924F",
".. c #A59651",
"X. c #9AA74E",
"o. c #9BA857",
"O. c #ACB847",
"+. c #A3A95B",
"@. c #ADB352",
"#. c #938679",
"$. c #A38164",
"%. c #B18972",
"&. c #97AF6A",
"*. c #B3BD66",
"=. c #ABAD6B",
"-. c #F2915B",
";. c #C6AD5D",
":. c #F6A95B",
">. c #D39573",
",. c #EB9C68",
"<. c #F69A67",
"1. c #E59A75",
"2. c #EB8F6D",
"3. c #E7A66B",
"4. c #F8A86E",
"5. c #E9A476",
"6. c #F7A778",
"7. c #FFB375",
"8. c #D6A36E",
"9. c #BAC74A",
"0. c #BDD44E",
"q. c #ACC254",
"w. c #BACA5C",
"e. c #B9C457",
"r. c #BBD35B",
"t. c #BDE551",
"y. c #BBC965",
"u. c #BCD467",
"i. c #BFC970",
"p. c #86C76B",
"a. c #C5D14E",
"s. c #C7D649",
"d. c #C3CD53",
"f. c #C4CE5B",
"g. c #C9CF5D",
"h. c #C6D355",
"j. c #CAD555",
"k. c #CBDC56",
"l. c #C6D25C",
"z. c #CAD45C",
"x. c #CCDA5B",
"c. c #C7DA5D",
"v. c #D3DB5A",
"b. c #CFD050",
"n. c #C7E25C",
"m. c #C5CE64",
"M. c #CBCE64",
"N. c #C7CB6C",
"B. c #C6D262",
"V. c #CAD463",
"C. c #CDD964",
"Z. c #C5D36B",
"A. c #CBD36B",
"S. c #CEDA6A",
"D. c #C6D962",
"F. c #D2DD6B",
"G. c #D4D866",
"H. c #CAD978",
"J. c #FFD377",
"K. c #CBE373",
"L. c #0A3A8F",
"P. c #2035A2",
"I. c #1D5487",
"U. c #004396",
"Y. c #2C4A80",
"T. c #0248AB",
"R. c #0B66B3",
"E. c #286FB5",
"W. c #787B8C",
"Q. c #0278D4",
"!. c #1072D9",
"~. c #0058E6",
"^. c #0266EF",
"/. c #0EA385",
"(. c #2EA39D",
"). c #0E8EB2",
"_. c #21988B",
"`. c #7A8187",
"'. c #58B5A2",
"]. c #7BE6AE",
"[. c #019ACA",
"{. c #018DDD",
"}. c #038CD8",
"|. c #0093DF",
" X c #34A7CA",
".X c #0491E3",
"XX c #1DAFC8",
"oX c #8F9498",
"OX c #8C8F95",
"+X c #80A488",
"@X c #B5A694",
"#X c #989EB0",
"$X c #93A6A6",
"%X c #A9A8AD",
"&X c #A3B5AD",
"*X c #A7ACB1",
"=X c #B4B4B7",
"-X c #F69E88",
";X c #E9A783",
":X c #F3AD83",
">X c #ECB789",
",X c #FCB494",
"<X c #FFB28C",
"1X c #F7BCA8",
"2X c #CDB196",
"3X c #95D193",
"4X c #B8F29D",
"5X c #BDC2AC",
"6X c #C0CE81",
"7X c #E9CA9E",
"8X c #EEC3A8",
"9X c #F7C7A9",
"0X c #EECCB7",
"qX c #F3C9B8",
"wX c #FADBB9",
"eX c #EAD5B2",
"rX c #9DA0C3",
"tX c #B6B8CC",
"yX c #DDDFDA",
"uX c #C7CBD4",
"iX c #FDDDC8",
"pX c #FFDDD1",
"aX c #C9E5CF",
"sX c #F8EAD6",
"dX c #DCDCE6",
"fX c #E1DDEC",
"gX c #DCE6E3",
"hX c #D1E9EE",
"jX c #E3E5E8",
"kX c #F8FBE8",
"lX c #E8EEF5",
"zX c #FBEEFD",
"xX c #ECFBFC",
"cX c #FCFDF4",
"vX c #F7F7FE",
"bX c #FAF5FC",
"nX c #F5FEFF",
"mX c #FCFEFE",
"MX c #FAF9F3",
"NX c #EEFBE9",
/* pixels */
"F.B.S.V.z.z.z.C.v.x.x.D.D.D.g.G.G.A.B.k.z.B.B.z.C.A.F.A.S.S.f.F.",
"V.m.V.M.z.z.j.z.M.c.w.o.&.*.C.d.z.M.y.o.&.N.B.C.h.g.g.f.M.V.z.V.",
"B.z.z.f.z.V.f.d.B.S.X.$   u e.C.k.y.V . %  .H.9.z.h.z.d.f.V.B.B.",
"V.V.V.z.z.z.l.z.K.Q V OX$XG s w.l.s H $XoXC Q 0.j.h.v.x.z.z.V.S.",
"C.V.z.V.V.B.B.C.0.9 S vXmXtX1 s  .  #XmXmX`.$ w.z.j.h.x.j.z.V.S.",
"z.h.l.z.l.l.V.f.K.y S xXmXtXX . . X rXcXNXG % H.M.V.j.h.j.d.M.V.",
"z.d.f.z.f.B.M.O.a Z *XvXmXyXoXoXOXoXuXxXnX=X) V X.M.V.j.x.d.l.B.",
"z.x.z.B.z.V.d.] : 5XkXMXvXkXcXbXmXkXcXmXvXNXyXS f @.B.f.j.j.V.C.",
"V.z.z.B.B.h.B.{ ; &XcXzXvXxXnXbXcXcXcXxXxXmXcXhX) 5 w.C.g.M.x.z.",
"V.z.z.B.c.h.B.{ ; &XcXvXcXkXeXqX0XqX0XeX9X9XpXnX`.2 q.V.g.V.h.z.",
"V.z.z.B.l.h.B.{ < *XcXNXkX9X1.2.5.1.1.5.-.<.1XsXH 1 O.B.z.B.h.z.",
"V.z.z.B.c.h.B.{ : #XmXkX0X5.4.6.6.4.1.5.4.4.,X,XC 2 d.V.f.V.z.V.",
"V.z.z.B.z.h.B.{ < *XmXMX1X1.:XL P 3.6.5.;X$.P 5.M 2 e.D.f.V.V.V.",
"V.z.z.B.c.h.B.{ > *XmXbX8X6.2.6 , 8.7.:X7.7 , 1.C 6 9.D.h.B.z.V.",
"V.z.z.l.l.h.D.{ % %XbXmX8X,.>.6 4 8.7.6.4.i . U M 3 9.D.h.m.z.B.",
"V.z.z.m.l.h.D.{ O %XmXNX7X-.U P K 3.6.:X6.L P U N 3 9.D.l.B.C.V.",
"Z.F.d.z.x.l.S.] o &XmXbX8X3.6.:X;X3.;X:X-.:.<X1XF t y.l.r.S.f.c.",
"l.z.B.V.d.c.Z.o., %XvXmXNXeX3.-.1.<.1.2.,.,.7XwXW.= *.V.d.B.l.c.",
"x.l.M.f.z.S.{ t X tXxXxXmXcXpXwXiXwXiXiXiXiXsXcXOX$ *.D.l.m.D.z.",
"h.V.V.x.S.&.a * - $XaXaXyXfXgXgXyXgXjXyXfXjXlXhXH t e.h.z.B.V.D.",
"V.S.a.a.] w Z 3Xp.F j 7 7 j 4 g h h j 4 e j c c ^ +.h.s.z.V.V.V.",
"B.B.b.v. .% `.4X_ b l l l v B q v v k n B 2 + + / H.k.s.d.V.M.C.",
"S.M.z.z.} % ` ( X I. XXX).(.].'.}.[.{. X].a : 6 ^ +.j.j.g.A.B.z.",
"x.N.N.M.|   ' Y o W.2X@XD q ( ~ {.[.{.).( 8 5 #.V p *.x.M.A.B.j.",
"A.f.z.Z. .  W 0 ; I J.:.x # E _..X{..X/.T 8 7 <XP $ *.G.l.z.z.B.",
"z.z.d.f.| 9 r r , A 2X5.N & ! _.{.}..X).! * 7 @XV t *.l.d.l.V.z.",
"a.j.h.B.u.{ 9 e R u 7 6 b R.R.!.!.Q.Q.Q.E.g   e d X.M.h.z.f.z.z.",
"k.c.z.V.c.K./ p 0 1 X X R.^.T.P.L.U.v U.~.U.2 a @.A.z.z.C.M.B.z.",
"x.B.Z.f.a.k.A.X.= < , > I.I., . 1 * o g E.l y ;.d.x.a.j.B.m.B.z.",
"y.B.m.f.k.9.G.y.+.&.Z ; ) %., B ..X.3 h @Xm @ r.d.a.a.z.f.A.V.j.",
"S.V.f.l.F.9.z.g.b.n.{ $ $.>., / v.A.u 7 ;.J 7 q.V.l.v.z.f.S.V.x.",
"G.k.x.D.V.S.M.C.v.Z.G.y.V.g.H.s.t.A.A.S.F.u.u.G.A.B.C.V.B.B.S.G."
};
