/* XPM */
static char *P_W[] = {
/* columns rows colors chars-per-pixel */
"32 32 215 2 ",
"   c #000402",
".  c #00050D",
"X  c #071709",
"o  c #000C19",
"O  c #1A1E16",
"+  c #0D141A",
"@  c #251C16",
"#  c #11211E",
"$  c #142B13",
"%  c #293504",
"&  c #242818",
"*  c #2A341C",
"=  c #2B3614",
"-  c #39381C",
";  c #071D28",
":  c #121D26",
">  c #171A27",
",  c #101435",
"<  c #182C2D",
"1  c #16362C",
"2  c #162D35",
"3  c #112D35",
"4  c #272B27",
"5  c #392623",
"6  c #2D3725",
"7  c #282C3B",
"8  c #263738",
"9  c #3F352B",
"0  c #4B3935",
"q  c #134F1B",
"w  c #374218",
"e  c #2C7605",
"r  c #1C4237",
"t  c #364828",
"y  c #3B5029",
"u  c #324031",
"i  c #395739",
"p  c #385838",
"a  c #2C462B",
"s  c #386832",
"d  c #3E6127",
"f  c #5A4C0D",
"g  c #494C28",
"h  c #575C29",
"j  c #494E2C",
"k  c #596433",
"l  c #476C32",
"z  c #767D39",
"x  c #6A7639",
"c  c #003951",
"v  c #0A3158",
"b  c #0F294C",
"n  c #273341",
"m  c #333A52",
"M  c #303250",
"N  c #001F60",
"B  c #14356E",
"V  c #3B3E61",
"C  c #334545",
"Z  c #205044",
"A  c #214F5C",
"S  c #004571",
"D  c #2F4672",
"F  c #3E6665",
"G  c #565C4C",
"H  c #4B4D4D",
"J  c #576B44",
"K  c #697647",
"L  c #6C7256",
"P  c #77634B",
"I  c #5A4D69",
"U  c #5A6865",
"Y  c #5E6474",
"T  c #6D7A67",
"R  c #7A7874",
"E  c #6C7471",
"W  c #9D6C4D",
"Q  c #AC7354",
"!  c #A17F75",
"~  c #B27E70",
"^  c #A3796B",
"/  c #379712",
"(  c #388D29",
")  c #4C9B00",
"_  c #499A1A",
"`  c #4DAE15",
"'  c #588822",
"]  c #7A8834",
"[  c #5DB83F",
"{  c #7B844C",
"}  c #77964A",
"|  c #76B94E",
" . c #73B54F",
".. c #8A963A",
"X. c #929E3C",
"o. c #98A53B",
"O. c #8F9845",
"+. c #869449",
"@. c #8E9757",
"#. c #949F5D",
"$. c #82894F",
"%. c #A79B51",
"&. c #9CA555",
"*. c #98AC44",
"=. c #A2AC56",
"-. c #AAB857",
";. c #A4B047",
":. c #87907F",
">. c #BD9578",
",. c #B98A76",
"<. c #9DAA68",
"1. c #9DA87D",
"2. c #B8BE66",
"3. c #A8B168",
"4. c #CBA56E",
"5. c #D0A473",
"6. c #F5BE6E",
"7. c #87D15E",
"8. c #BDCC54",
"9. c #BBCA5A",
"0. c #B2C95A",
"q. c #B3D451",
"w. c #BEE459",
"e. c #91D570",
"r. c #9AC772",
"t. c #B5C661",
"y. c #BFCA6B",
"u. c #B9C566",
"i. c #BFCC77",
"p. c #B0D56C",
"a. c #D1CF48",
"s. c #C4D44C",
"d. c #CADC4B",
"f. c #C3CD55",
"g. c #C4CE5C",
"h. c #CACF57",
"j. c #D4CD57",
"k. c #C5D354",
"l. c #CAD455",
"z. c #C7D856",
"x. c #CADA56",
"c. c #C6D35C",
"v. c #C9D45C",
"b. c #CBD95C",
"n. c #C7DB5E",
"m. c #D5D759",
"M. c #D6E25C",
"N. c #C3CD6B",
"B. c #C3CA60",
"V. c #D4CB64",
"C. c #C6D362",
"Z. c #CBD563",
"A. c #CCD964",
"S. c #CAD46A",
"D. c #CEDA69",
"F. c #C6D36D",
"G. c #D1DA6A",
"H. c #D4D764",
"J. c #C6D47A",
"K. c #CDD775",
"L. c #C1CB74",
"P. c #E0DB77",
"I. c #CEE161",
"U. c #1E4588",
"Y. c #2C7180",
"T. c #0464B5",
"R. c #3E68B0",
"E. c #707980",
"W. c #747A8D",
"Q. c #005ACD",
"!. c #0C6EC9",
"~. c #817F94",
"^. c #1792BC",
"/. c #2099D0",
"(. c #878B92",
"). c #908F95",
"_. c #92999A",
"`. c #878C93",
"'. c #82A69C",
"]. c #B3A69E",
"[. c #9498A3",
"{. c #969EB3",
"}. c #B7A3A0",
"|. c #A7ABB2",
" X c #B1AEB1",
".X c #FFBF83",
"XX c #A6DE83",
"oX c #A9E588",
"OX c #B0FF82",
"+X c #A6E891",
"@X c #FDC99A",
"#X c #F4D2B8",
"$X c #ACBAC1",
"%X c #BABBC8",
"&X c #BEC5CD",
"*X c #D6D8DB",
"=X c #DBE3D9",
"-X c #FFE6DE",
";X c #D5DBE7",
":X c #DDE4E4",
">X c #E3E5E7",
",X c #EAF1E6",
"<X c #FBF5EB",
"1X c #FCFDED",
"2X c #F4F6E8",
"3X c #ECF9F9",
"4X c #F4F5F3",
"5X c #FBF5F5",
"6X c #F4FBF4",
"7X c #FBFDF4",
"8X c #F4F4FC",
"9X c #F4FEFD",
"0X c #FAFAFB",
"qX c #FCF4FD",
"wX c #F1EEF6",
/* pixels */
"D.G.Z.Z.C.Z.A.l.x.k.b.b.l.b.G.S.h.m.l.Z.A.s.b.K.Z.Z.v.Z.Z.Z.D.G.",
"Z.g.Z.g.Z.g.8.v.z.-.3.&.S.l.f.g.N.=.&.u.C.Z.c.Z.v.v.v.v.g.v.Z.Z.",
"G.g.D.f.v.z.c.A.J.g O 6 <.S.n.w.#.$ O k i.F.S.l.v.v.v.g.g.g.g.Z.",
"Z.B.Z.h.z.8.C.o.J R [.`.L +.J.] L `.{.E x =.H.l.v.v.v.v.v.v.Z.Z.",
"C.D.C.v.z.k.K.] < ;X0X6XH g 1.% Y 9X9X XX ..k.b.v.v.v.v.Z.v.Z.Z.",
"b.D.9.k.z.A.i.{ , &X2X,XH   #   Y 0X3X|.X &.G.l.l.l.v.v.v.v.v.v.",
"z.C.C.k.b.9.x L [.:X0X4X X).(.).*X2X7X*X`.G { b.h.k.v.v.v.c.v.Z.",
"l.c.D.k.b.-.% R 7X0XwX0X0X6X0X8XwX4X,X1X0XW.g ;.l.v.v.v.v.v.v.v.",
"n.F.k.l.C.t.* E.0X0X0X0X4X0X0X0X5X9X8X0X9X2X|.3 O.C.z.v.C.v.c.Z.",
"v.S.k.c.v.t.* E.0X0X0X0X0X4X4X0X5X3X8X0X6X0X X3 O.C.z.C.C.v.z.S.",
"l.S.k.v.v.t.* E.0X0X0X5X0X0X0X4X6X6X5X0X6X<X}.: O.C.z.v.C.v.v.S.",
"b.F.k.v.c.t.* E.0X0X0X0X5X0X4X0X6X1X<X0X1X#X^ : O.C.z.c.C.v.c.D.",
"v.F.k.v.v.t.* E.0X0X0X0X0X4X0X4X4X2X2X9X1X@XW : O.C.z.c.C.v.v.Z.",
"b.S.k.c.c.t.* E.0X0X5X0X0X0X4X0X3X2X0X0X<X@XQ : O.C.z.v.C.v.c.D.",
"n.S.k.v.C.t.* E.0X0X0X0X4X0X4X0XqX2X0X9X2X@XQ ; O.C.z.c.C.v.h.D.",
"l.F.k.v.v.t.* E.0X0X0X0X0X4X0X5X8X7X5X3X1X@XW ; O.C.z.c.C.v.v.Z.",
"Z.S.f.d.d.0.% E 0X1X0XqX0X4X8X7X8X5XwX9X6X#X! > ..z.s.z.z.v.c.v.",
"B.G.H.f.l.p.= W.0X1X4XqX4X4X0X4X3X4XqX0X5X-X].< ..S.C.A.C.C.Z.b.",
"H.C.Z.f.G.3.& E.0X1X9X0X1X1X0X0X7X7X7X<XqX0X X; ..N.Z.C.S.C.A.l.",
"H.g.g.v.A.2.g E =X,X;X*X=X*X*X>X*X;X>X=X:X>X'.- *.N.c.B.S.C.A.k.",
"c.v.c.l.l.D.&.{ H V m n 8 n n n n m m u C C K 2.9.I.k.s.v.C.Z.v.",
"Z.v.v.v.f.b.C.;.k o 2 s l p p p s j # o o . * $.N.C.x.k.l.C.Z.Z.",
"A.g.h.l.l.f.b.8.y.t J r.oXoXXXoXOXr.i ; b 2 5 5 +.=.C.l.v.C.C.G.",
"C.v.Z.f.D.v.Z.b.F.6 t  .e.+XoX+X7.} 1 c F '.>.,.j z N.v.v.C.g.S.",
"Z.l.v.l.v.v.v.l.B.4 q ` [ | | | [ ' % c /. X.X6.I % L.v.s.b.A.Z.",
"Z.c.c.c.c.l.v.k.0.t y x ( / ) _ ` l 2 B ^.'.4.5.j h N.k.z.c.Z.S.",
"Z.v.c.c.c.l.c.h.s.0.x q ( ` ) ` / < U.!.!.D 0 9 $.=.G.z.b.g.g.Z.",
"Z.b.Z.v.Z.v.l.v.V.;.F B Z s s l r o B !.Q.N O K u.v.l.z.c.g.G.v.",
"Z.Z.v.Z.v.v.v.v.u.- B R.b o < & 2 4 @ B T.A f u.8.n.s.k.f.Z.Z.l.",
"g.Z.g.g.c.c.c.c.0.3 I ].m 8 &.3.%.*.=.U v ! W a o.8.b.k.c.S.g.c.",
"Z.Z.v.v.v.v.v.v.t.u P 4.j h C.p.m.q.n.} & ~ >.X o.9.n.8.C.Z.g.l.",
"D.D.Z.Z.Z.Z.Z.v.m.H.C.M.V.V.n.d.n.G.a.M.N.P.l.H.J.K.D.v.A.Z.A.A."
};
