/* XPM */
static char *P_W[] = {
/* columns rows colors chars-per-pixel */
"32 32 216 2 ",
"   c #000302",
".  c #000A0D",
"X  c #051603",
"o  c #010A15",
"O  c #0B181C",
"+  c #161A12",
"@  c #1A251A",
"#  c #2A3804",
"$  c #242917",
"%  c #2B351C",
"&  c #2E3514",
"*  c #373A19",
"=  c #081B27",
"-  c #131E23",
";  c #1B1927",
":  c #0C102F",
">  c #2E1E21",
",  c #3A1D21",
"<  c #1A2629",
"1  c #1C372E",
"2  c #182B33",
"3  c #163136",
"4  c #0C3034",
"5  c #283427",
"6  c #27353C",
"7  c #34342D",
"8  c #44312B",
"9  c #134D1A",
"0  c #22481E",
"q  c #1B4E3B",
"w  c #27462D",
"e  c #394A2B",
"r  c #37443B",
"t  c #3A573A",
"y  c #366725",
"u  c #366935",
"i  c #5F450A",
"p  c #474C29",
"a  c #4A4D37",
"s  c #5E5F37",
"d  c #515826",
"f  c #58602F",
"g  c #42653A",
"h  c #586230",
"j  c #48652D",
"k  c #6F6E3E",
"l  c #697336",
"z  c #687F27",
"x  c #0B2D50",
"c  c #053556",
"v  c #12315F",
"b  c #0C364E",
"n  c #283748",
"m  c #353B45",
"M  c #3A3C57",
"N  c #2D314F",
"B  c #0B1B68",
"V  c #063872",
"C  c #0E3D71",
"Z  c #1B3870",
"A  c #284543",
"S  c #254B68",
"D  c #3B696E",
"F  c #5B5F4E",
"G  c #4C4E4A",
"H  c #546944",
"J  c #626F53",
"K  c #7C6251",
"L  c #6D7256",
"P  c #6D7847",
"I  c #5E4A6D",
"U  c #5A6967",
"Y  c #6F756D",
"T  c #70777F",
"R  c #787C75",
"E  c #656D74",
"W  c #9C6C56",
"Q  c #AB7555",
"!  c #A36D4B",
"~  c #9F7B6D",
"^  c #947A7D",
"/  c #359318",
"(  c #328D2A",
")  c #479E01",
"_  c #529800",
"`  c #489F1C",
"'  c #4CB31A",
"]  c #7A8636",
"[  c #658520",
"{  c #65B43E",
"}  c #7C854E",
"|  c #7A964E",
" . c #78B458",
".. c #7AB849",
"X. c #8A9739",
"o. c #99A735",
"O. c #82844C",
"+. c #8E9746",
"@. c #8F9847",
"#. c #88934D",
"$. c #989F5B",
"%. c #A49F5B",
"&. c #9CAC4B",
"*. c #9AA743",
"=. c #9BA55A",
"-. c #A2AA55",
";. c #ACB958",
":. c #A3B046",
">. c #9B827D",
",. c #AF8B71",
"<. c #BD9778",
"1. c #B68372",
"2. c #99A462",
"3. c #96A179",
"4. c #ABB76E",
"5. c #CBA56C",
"6. c #CDAA74",
"7. c #F9BB77",
"8. c #82D35A",
"9. c #ACC65C",
"0. c #BECB54",
"q. c #B4C55D",
"w. c #BBCA5A",
"e. c #B6C554",
"r. c #8FD26B",
"t. c #9DD071",
"y. c #9FC673",
"u. c #AECB61",
"i. c #B4C168",
"p. c #BCC867",
"a. c #BEC975",
"s. c #AED266",
"d. c #B3FF7E",
"f. c #C3CE4C",
"g. c #C3D34E",
"h. c #CBD949",
"j. c #C2CD55",
"k. c #C4CE5C",
"l. c #D9CB5A",
"z. c #C5D454",
"x. c #C8D455",
"c. c #C6D855",
"v. c #CAD954",
"b. c #C6D35D",
"n. c #C9D45C",
"m. c #CAD95C",
"M. c #D4D959",
"N. c #CCE556",
"B. c #C3CD65",
"V. c #C1CC6B",
"C. c #D5CC66",
"Z. c #C6D262",
"A. c #CBD563",
"S. c #CDDA64",
"D. c #CBD56A",
"F. c #CDD969",
"G. c #C6D56A",
"H. c #D1DA66",
"J. c #D1DB6B",
"K. c #C4D379",
"L. c #C9D673",
"P. c #DDD67B",
"I. c #D3E367",
"U. c #1F478C",
"Y. c #0063AA",
"T. c #086DBF",
"R. c #3E6BAC",
"E. c #717880",
"W. c #74778D",
"Q. c #065DD1",
"!. c #156AC7",
"~. c #1C96BB",
"^. c #229ACF",
"/. c #888C93",
"(. c #98999D",
"). c #B49F9A",
"_. c #86A295",
"`. c #89A58F",
"'. c #9395A3",
"]. c #9B9FB8",
"[. c #AAAAA5",
"{. c #A7ACB6",
"}. c #AEB0BC",
"|. c #B6ABB1",
" X c #A9DF89",
".X c #A9E384",
"XX c #A5E68C",
"oX c #FBC898",
"OX c #EED5BF",
"+X c #F3D5B9",
"@X c #C0C4CD",
"#X c #D4DAD9",
"$X c #D7E5D8",
"%X c #E1E4DB",
"&X c #FCE3DC",
"*X c #D8DAE2",
"=X c #E0DFEF",
"-X c #D9E0EA",
";X c #E5E9EA",
":X c #EDFFEF",
">X c #F2F5E2",
",X c #F4F4ED",
"<X c #F5FCE9",
"1X c #FAFBED",
"2X c #F9F9E6",
"3X c #EEF6F3",
"4X c #EDFAF9",
"5X c #F6F6F5",
"6X c #FDF6F3",
"7X c #F5FCF3",
"8X c #FCFCF4",
"9X c #F4F4FB",
"0X c #FAF4FC",
"qX c #F5FCFE",
"wX c #FAFAFA",
"eX c #F2EDF0",
/* pixels */
"F.H.H.A.A.A.A.m.v.z.m.m.g.m.S.F.b.v.v.A.H.g.m.L.A.n.A.m.A.A.H.J.",
"A.k.A.j.A.k.0.n.z.;.4.=.L.c.z.w.V.-.-.i.B.Z.b.F.n.A.n.b.k.A.D.H.",
"J.k.J.j.n.m.b.A.K.d + 7 2.S.m.S.2.$ + h K.V.F.x.n.n.n.k.k.k.B.A.",
"Z.B.F.k.z.0.b.*.H R './.L #.K.] J /.].Y l &.H.x.n.n.n.n.n.k.A.A.",
"b.F.k.n.z.c.L.] 2 *XwX5XG a 3.# U qX9X{.X X.z.m.n.x.n.n.n.A.A.A.",
"A.J.w.b.v.S.a.} : @X1X>XG   <   E wX:X{.+ =.F.z.n.n.n.n.n.n.n.m.",
"c.b.B.z.n.w.l L '.;XwX,X[.(././.*X5X<X#X/.F } A.x.x.x.k.n.n.n.b.",
"c.z.I.b.m.;.# R 8X5X9XwX8X,XqX9XeXeX>X<X9XW.p :.x.x.n.n.A.n.n.n.",
"n.D.z.b.m.9.% E.wXwXwXwX5X5XwXwX0XqX0XwX4X3X{.2 @.A.v.b.Z.n.b.F.",
"m.G.x.b.Z.q.% E.wXwXwXwXwX5X5XwX5X4X5XwX:XwX|.4 +.A.c.b.Z.m.x.F.",
"n.D.j.n.m.q.% E.wXwXwX5XwX5XwX5XwX7X6XwX7X2X).- +.Z.c.n.A.n.k.H.",
"m.D.j.n.A.q.% T wXwXwXwXwXwX5XwX7X1X1XwX1X+X~ - +.Z.z.b.A.n.k.F.",
"m.G.x.n.b.q.% T wXwXwXwXwXwX5X5X3X<X2XqX1XoXW < +.Z.c.Z.B.n.x.H.",
"m.D.x.b.b.q.% E.wXwXwXwXwX5X5X5X9X>X1XqX2XoXQ = +.Z.c.n.b.n.b.D.",
"m.D.z.n.A.q.% E.wXwXwX7X5X5XwXwXqX>X6XqX<XoXQ = +.A.z.n.k.n.n.H.",
"n.G.j.b.b.q.% E.wXwXwXwXwX5XwXwX9X6X6X4X<XoX! = +.A.z.b.A.n.k.F.",
"Z.C.k.h.h.e.# Y wX2X8X0X6X,X9X8X9X0XeXqX1XOX>.; X.m.z.c.m.b.A.n.",
"B.J.H.f.c.s.% W.wX1X0X0X,X0X9X5X4X9XwXwX6X&X[.< X.S.b.b.A.b.F.n.",
"A.n.A.k.G.4.$ W.7X1X7XwX1X8XwX8XwX<X8X,XqX0X}.O X.V.G.Z.F.B.H.v.",
"H.j.k.m.J.i.p Y $X3X-X#X#X$X*X%X*X#X;X$X;X=X_.& *.G.k.Z.D.A.S.g.",
"k.A.A.n.m.D.=.O.G M N n w n n 6 n n m A A r P u.0.S.v.j.b.Z.A.x.",
"A.A.n.x.j.n.Z.:.f O 2 g g A t t u a @ . = . % W p.b.v.g.n.Z.A.A.",
"H.n.x.n.n.f.n.j.p.e H t..XXX X Xd.y.t = 4 2 , 7 #.-.A.z.n.Z.Z.J.",
"b.b.C.j.H.A.H.A.G.5 w ..r.XXXXXX8.| 4 b D _.<.1.p } V.A.b.Z.k.A.",
"A.b.n.n.n.n.n.x.k.< 9 ' .. .....{ z # c ^.}.7.7.F & a.c.g.m.F.A.",
"n.b.n.b.n.x.n.x.e.e e [ ( / ) ` ' y 2 V ~._.5.6.a d V.b.v.b.A.F.",
"A.m.n.n.n.x.x.x.g.u.P 0 ( ' ) ' / 1 U.!.T.S r 8 O.-.F.v.m.j.k.A.",
"H.A.A.n.n.n.n.k.l.*.D C q y u j 1 : V !.Q.B @ P p.A.x.z.n.B.A.b.",
"A.A.A.n.n.n.n.n.p.* v R.x o < < 2 @ > Z Y.S i B.0.v.0.z.n.F.H.n.",
"A.k.k.k.b.b.n.n.9.n I ).M 1 =.4.%.*.&.U c ^ Q 0 o.0.N.c.b.Z.k.x.",
"A.Z.A.Z.n.n.n.n.9.7 K 5.e l Z.s.M.g.c.| $ 1.<.X *.e.S.0.A.Z.j.n.",
"H.H.A.H.A.A.A.n.M.A.Z.S.l.C.v.h.S.H.h.N.G.P.l.J.K.G.J.b.A.A.F.S."
};
