/* XPM */
static char *M_0[] = {
/* columns rows colors chars-per-pixel */
"32 32 188 2 ",
"   c #493C0F",
".  c #403017",
"X  c #4D3415",
"o  c #4D341A",
"O  c #463B1F",
"+  c #503615",
"@  c #503518",
"#  c #513C1D",
"$  c #452E28",
"%  c #4C3C22",
"&  c #4E3C2A",
"*  c #4B3623",
"=  c #523C27",
"-  c #523D2C",
";  c #513D30",
":  c #593F30",
">  c #504615",
",  c #54461F",
"<  c #5C521D",
"1  c #4E4026",
"2  c #4D422A",
"3  c #554625",
"4  c #594B26",
"5  c #55422D",
"6  c #5C462F",
"7  c #564535",
"8  c #5A4535",
"9  c #544937",
"0  c #594A34",
"q  c #55463D",
"w  c #5C463A",
"e  c #564A3C",
"r  c #5C4A3C",
"t  c #565131",
"y  c #5D573D",
"u  c #5F5D3D",
"i  c #5C5334",
"p  c #614237",
"a  c #63473B",
"s  c #614E3F",
"d  c #684E3F",
"f  c #6C5334",
"g  c #65543C",
"h  c #60593D",
"j  c #765D35",
"k  c #67633E",
"l  c #70673C",
"z  c #767439",
"x  c #574541",
"c  c #5A4741",
"v  c #5F4E42",
"b  c #5E5344",
"n  c #5E5943",
"m  c #5E554D",
"M  c #5F5C4B",
"N  c #5F5651",
"B  c #624F41",
"V  c #635243",
"C  c #695644",
"Z  c #645C43",
"A  c #6B5C42",
"S  c #64544A",
"D  c #6C5648",
"F  c #645D4D",
"G  c #6C5B4F",
"H  c #715C41",
"J  c #6D5655",
"K  c #645954",
"L  c #6B5C54",
"P  c #655B59",
"I  c #6B5D5A",
"U  c #635353",
"Y  c #755F52",
"T  c #725F5B",
"R  c #656344",
"E  c #686441",
"W  c #63614E",
"Q  c #6A624C",
"!  c #666352",
"~  c #6B6353",
"^  c #6C625B",
"/  c #6E6D5A",
"(  c #7A6556",
")  c #736C54",
"_  c #72635B",
"`  c #726B5C",
"'  c #7B685A",
"]  c #716454",
"[  c #7F7955",
"{  c #7B735C",
"}  c #6B6764",
"|  c #6E6369",
" . c #736A61",
".. c #756C6A",
"X. c #767165",
"o. c #7B7665",
"O. c #7D7864",
"+. c #747668",
"@. c #797469",
"#. c #7A786B",
"$. c #777774",
"%. c #797576",
"&. c #7B7976",
"*. c #7E7B7A",
"=. c #846A42",
"-. c #816967",
";. c #827262",
":. c #80736D",
">. c #837C6C",
",. c #807771",
"<. c #837C74",
"1. c #837C7A",
"2. c #838725",
"3. c #898F25",
"4. c #888C2D",
"5. c #8B9029",
"6. c #898736",
"7. c #898B33",
"8. c #8C8C3A",
"9. c #858432",
"0. c #929731",
"q. c #A0A73D",
"w. c #A3AB3E",
"e. c #999B48",
"r. c #A5AE41",
"t. c #A8AF45",
"y. c #ABB345",
"u. c #AAA35F",
"i. c #B7BF52",
"p. c #B8BE54",
"a. c #BBBD5B",
"s. c #87806E",
"d. c #88866F",
"f. c #8F8B6E",
"g. c #868172",
"h. c #8B8675",
"j. c #8C8A75",
"k. c #8A857B",
"l. c #8C8B7C",
"z. c #918B7C",
"x. c #918474",
"c. c #8E917E",
"v. c #B0AC62",
"b. c #BAC353",
"n. c #BFCF53",
"m. c #BEC45A",
"M. c #C2C556",
"N. c #C3CE56",
"B. c #C1C658",
"V. c #C5CD5C",
"C. c #CACE5D",
"Z. c #C5D255",
"A. c #CBD653",
"S. c #CAD954",
"D. c #C5D25B",
"F. c #C9D45C",
"G. c #CAD85B",
"H. c #C4C665",
"J. c #C7CD62",
"K. c #C9CE66",
"L. c #CBCE6C",
"P. c #C6D462",
"I. c #CAD563",
"U. c #CDD965",
"Y. c #CDD36B",
"T. c #CDDA69",
"R. c #D1DA66",
"E. c #D3D66F",
"W. c #D3DB6B",
"Q. c #CED370",
"!. c #878682",
"~. c #8C8682",
"^. c #8E8C82",
"/. c #8D8789",
"(. c #8F8E8B",
"). c #928C82",
"_. c #908B89",
"`. c #9B8D8C",
"'. c #8F9282",
"]. c #8E9188",
"[. c #939385",
"{. c #999480",
"}. c #94948C",
"|. c #99958A",
" X c #96998D",
".X c #9B9A8C",
"XX c #969391",
"oX c #9A9492",
/* pixels */
"T.D.I.R.G.F.I.R.R.Y.Y.E.Y.Y.T.I.Y.E.K.Y.Y.E.V.E.F.R.I.T.I.Y.R.U.",
"P.D.G.G.F.F.I.J.F.V.b.a.m.m.b.b.m.m.p.m.i.b.b.V.I.W.I.I.P.P.I.D.",
"P.D.F.F.C.I.J.M.h E y Z Q Q E k Z h u Z t t t i y.I.C.D.D.D.P.F.",
"P.P.F.D.N.F.V.y./ >.>.1._._.~.k.).).).z. .^ F V 3.V.I.F.F.D.P.R.",
"P.I.G.Z.N.I.C.w.y { O.>.z.j.j.j.h.d.j.c.) ) Q C 2.K.I.F.G.Z.F.U.",
"P.F.F.F.Z.I.F.w.K 1.1.1././._./.(.k.~.~.^ I P S 4.Y.P.Z.Z.Z.P.U.",
"I.F.N.F.C.I.I.r.F <.@.@.l.~.).l.].l.'.^./ _ ~ L 4.Y.D.Z.A.Z.R.P.",
"U.F.F.A.N.F.J.w.Q <.o.#.[..X{.z.'.'.'.[. .` G V 4.Q.U.G.S.Z.F.F.",
"U.D.F.D.F.C.I.r.S :.,./.~.l.^.z.l.k.^.~.~. .L b 6.J.A.Z.D.n.D.U.",
"U.D.F.Z.F.C.I.r.v <.g.[.^.l.l.z.c.l.[.).).>./ 9 6.C.A.D.P.D.D.U.",
"U.D.F.N.G.I.I.r.Z z.l.[.l.l.l.j.c.l.^.~.|.).s.n 8.C.A.D.T.P.G.U.",
"U.Z.F.D.G.J.K.r.` .X X].]. X X[. X}.}._.|.|.|.@.8.J.S.F.P.n.G.P.",
"U.Z.F.C.F.D.D.q.L ).1.&.$.*.1.%.&.$.*.%.&.&.k.X.6.P.S.D.P.n.G.T.",
"U.D.F.Z.F.C.C.w.7 _ K K N P K P M N P P P m P S 9.D.S.D.P.n.G.T.",
"U.P.D.Z.F.F.I.w.f H 8 g b V V D C V S V V 8 g C 8.I.S.n.P.G.G.P.",
"T.D.D.D.F.F.R.y.=.j X # % # o o + X X X o + f =.e.R.G.n.P.G.G.P.",
"R.Z.F.G.Z.D.F.I.A.L.> 8 & 7 w c e w w $ s   a.A.F.I.N.F.F.F.D.P.",
"F.C.A.G.Z.F.P.J.K.v., ' w = 0 7 0 5 ; ; Y 3 u.H.C.R.C.Z.C.N.F.P.",
"F.F.F.F.Z.I.I.m.z l . ' D 7 e ; 5 5 8 d ( * 4 < r.U.I.C.Z.D.F.T.",
"I.F.G.F.N.G.V.y.;.x.w B B B B B g g 8 : w 8 s 0 5.C.I.F.G.D.D.T.",
"R.F.D.F.D.P.V.r...`.L ; 8 c q q x c w : & C L B 2.K.I.Z.G.D.D.P.",
"U.C.D.F.F.I.P.t.| k.] 7 V I ^ / I U J G * g Z c 7.L.U.Z.A.Z.P.T.",
"Y.I.D.F.D.I.T.t...h.{ 0 S P L ~ L K L L & E X.^ 8.Q.I.Z.Z.Z.P.T.",
"R.U.F.F.V.I.P.r.` f.[ 3 S ^ ^ ` R Q / S 2 ) x.<.8.L.D.Z.S.Z.P.T.",
"P.F.F.F.F.F.I.y./ {.>.;.w a w p a a w q V >.l.@.8.L.F.S.S.Z.D.U.",
"P.V.F.Z.F.F.V.r./ [.h.g.Q G S C B V F ~ X.l.^.+.8.L.Z.Z.S.D.D.T.",
"I.D.F.F.F.G.I.r.} }._.oX_.oXoXoXoXoXXXXX}.}.].&.7.K.N.Z.Z.F.D.R.",
"U.D.F.F.F.I.J.q.e ' Q ~ F ~ W W ! K M ! F F ~ n 7.Y.I.Z.D.P.J.U.",
"U.F.G.Z.F.F.V.r.J -._ T ^ } I ! I P P } ^ I T J 2.J.F.Z.D.T.P.R.",
"P.N.F.C.N.C.V.y.@ = = % # % % * % % % % = % = % 0.V.D.Z.D.T.I.U.",
"I.P.G.F.F.F.U.B.b.M.M.M.B.B.N.B.B.B.m.B.m.b.V.B.m.R.D.F.P.I.V.D.",
"U.U.I.G.I.U.W.E.U.U.R.U.P.P.R.P.U.T.T.U.T.I.T.P.W.W.N.P.I.W.U.U."
};
