/* XPM */
static char *M_2[] = {
/* columns rows colors chars-per-pixel */
"32 32 210 2 ",
"   c #010201",
".  c #090600",
"X  c #040900",
"o  c #0B0C02",
"O  c #050508",
"+  c #08070C",
"@  c #0B0B0B",
"#  c #110E01",
"$  c #0E1102",
"%  c #141401",
"&  c #141A02",
"*  c #191C00",
"=  c #13140C",
"-  c #0B0C10",
";  c #1C1C1B",
":  c #171515",
">  c #221E04",
",  c #211E17",
"<  c #1A2103",
"1  c #262B04",
"2  c #2C3405",
"3  c #343600",
"4  c #3C3C05",
"5  c #3D3D09",
"6  c #22221D",
"7  c #282719",
"8  c #393A19",
"9  c #1E1D23",
"0  c #272724",
"q  c #2A2A2C",
"w  c #2B2923",
"e  c #2F3028",
"r  c #353927",
"t  c #343433",
"y  c #3B3933",
"u  c #3F3F3D",
"i  c #2B2A32",
"p  c #423E3A",
"a  c #423F36",
"s  c #384011",
"d  c #434702",
"f  c #47480F",
"g  c #45460B",
"h  c #4A4A15",
"j  c #464612",
"k  c #4A5418",
"l  c #49462A",
"z  c #424822",
"x  c #46443A",
"c  c #5C5C38",
"v  c #67663A",
"b  c #6E7333",
"n  c #3E3D43",
"m  c #4A4A4B",
"M  c #4F4F43",
"N  c #4E5243",
"B  c #52534B",
"V  c #535841",
"C  c #5B5B54",
"Z  c #5B595A",
"A  c #615E4B",
"S  c #615F52",
"D  c #5F624D",
"F  c #62664A",
"G  c #666744",
"H  c #727145",
"J  c #626353",
"K  c #6B6853",
"L  c #62635B",
"P  c #6A6757",
"I  c #716D52",
"U  c #6E735C",
"Y  c #77785A",
"T  c #6F7748",
"R  c #5E5F64",
"E  c #6B6B64",
"W  c #67686B",
"Q  c #6F7164",
"!  c #707361",
"~  c #71726B",
"^  c #6C6A72",
"/  c #7A7A72",
"(  c #767676",
")  c #7E807B",
"_  c #B3BA5C",
"`  c #A7B158",
"'  c #82866E",
"]  c #84896B",
"[  c #83857E",
"{  c #888A7B",
"}  c #939979",
"|  c #A7A96A",
" . c #ACB967",
".. c #B4BF7D",
"X. c #AFB271",
"o. c #BDD251",
"O. c #B4C948",
"+. c #BEC565",
"@. c #BDCE63",
"#. c #B5C36B",
"$. c #BDC46B",
"%. c #BCCC6A",
"&. c #B3C267",
"*. c #BED062",
"=. c #B6C374",
"-. c #BAC772",
";. c #BBC878",
":. c #C3CD5B",
">. c #C3D45C",
",. c #C9D45E",
"<. c #CADD5C",
"1. c #C5D856",
"2. c #D0DD5A",
"3. c #D4E15D",
"4. c #C4CD64",
"5. c #C5CD6A",
"6. c #C4D363",
"7. c #CBD562",
"8. c #CBDB62",
"9. c #C4D56C",
"0. c #CAD26E",
"q. c #C6D86A",
"w. c #CBDA6B",
"e. c #D2DB6D",
"r. c #D4DF65",
"t. c #C8CF72",
"y. c #C4C976",
"u. c #CBD273",
"i. c #CADB73",
"p. c #C9D77D",
"a. c #C4D475",
"s. c #D1D974",
"d. c #D6DD7D",
"f. c #D4E371",
"g. c #D9E275",
"h. c #8A8680",
"j. c #898988",
"k. c #918E83",
"l. c #8F9088",
"z. c #919386",
"x. c #93958D",
"c. c #97988A",
"v. c #8D8B92",
"b. c #918F92",
"n. c #939395",
"m. c #9A9A95",
"M. c #93929A",
"N. c #9B9C9B",
"B. c #9A9697",
"V. c #A49E9E",
"C. c #9EA196",
"Z. c #A2A496",
"A. c #A6A69C",
"S. c #BABF9F",
"D. c #A5AB89",
"F. c #9D9CA6",
"G. c #A39FA6",
"H. c #A4A4A5",
"J. c #A6A5AA",
"K. c #AAABA6",
"L. c #B4AEAE",
"P. c #B1B2AD",
"I. c #ADACB2",
"U. c #A7A5B2",
"Y. c #BABBB6",
"T. c #BDBDBA",
"R. c #B3B2B8",
"E. c #BFC583",
"W. c #BEC59B",
"Q. c #BFC5A1",
"!. c #C2C482",
"~. c #C9CB87",
"^. c #CDD686",
"/. c #D3D886",
"(. c #C9D490",
"). c #D0D390",
"_. c #DCEE80",
"`. c #C7D0A3",
"'. c #C8C7BA",
"]. c #CED5B0",
"[. c #B8B5C8",
"{. c #CCC9C7",
"}. c #C7C6C8",
"|. c #D2CECB",
" X c #D3D6CC",
".X c #C5C3D0",
"XX c #D1CEDF",
"oX c #D6D6D6",
"OX c #D7D6DA",
"+X c #D7D8D0",
"@X c #E3E3DB",
"#X c #E4E4E6",
"$X c #E5E5EC",
"%X c #EDEDEC",
"&X c #EBE9EA",
"*X c #F4EFEB",
"=X c #EEF0E9",
"-X c #F2F4EE",
";X c #F6F9ED",
":X c #FCFDEE",
">X c #EEECF4",
",X c #F2EEF4",
"<X c #F2EEFB",
"1X c #F4F4F3",
"2X c #FAF6F5",
"3X c #FCFCF4",
"4X c #F5F4FB",
"5X c #F9F6FB",
"6X c #FEFDFD",
"7X c #F6F8F3",
/* pixels */
"q.6.f.o.O.<.1.o.o.6.*.q.@.*._.q.i.*.%.%.%.i.9.i.a.w.w.o.w.<.<.o.",
"p.#.9.q.i.q.o.i.i.%.#.-.-.-.#.`  .-.;.;.=. .=.=.^.^.p.p.%.%.i.i.",
"$ X & 2 b E.(.E.k <   X X 1 s T v z & X   X 1 8 < X X X X X X X ",
"    &   X 2 U D.<   $     o X J ! =     $ :   +   $     X X     ",
"4X6X1X'.~ X   L = n &X6X>XF.- m B X { @X6X X=   H.6X6X6X3X3X;X3X",
"5X6X1X7X6XC.@ ;   9 4X6X<XU.O m m X A.7X6XoX    N.6X6X6X6X6X;X3X",
"6X6X6X3X6X3XQ       #X6X6X.XO i y   Q.6X7XY.    n.5X4X6X-X3X6X3X",
"N.L K.-X-X6XP.  0   oX5X6X#X  9 0 X .X6X%XI.  O J.6X6X-X/ C E ~ ",
"  0   P.6X5X6X  O   J.>X6X1X:   O   4X5X5X^ O   J.1X6X6XX   =   ",
"X x   H.5X6X6X  +   M.6X6X6Xn O   ; 6X5X6Xm + O B.1X7X:X  X ' { ",
"o J o N.4X6X6X  +   W 6X6X6X^ + @ C 6X3X1X- X   x.3X3X:X  o S.].",
"  L X x.5X6X6XO O   q 6X4X6Xb.    [ 6X3X&X  :   l.7X3X:XX X ] } ",
"  J   x.6X6X6XO       3X6X7XK.    J.4X5XOXO i O I.5X6X=Xo   o   ",
"  D   m.6X5X4X  O -   #X6X3X{.    }.4X6XR.  i   F.%X6X%X~ ~ L L ",
"X J   C.6X4X6XO O 0   T.6X6X#XO   +X3X6Xj.+ t + N.6X6X6X-X6X3X3X",
"  J   C.6X6X6X    t   B.3X6X7X  o =X3X3XE o 0   n.6X$X6X6X6X7X3X",
"X V X C.7X6X6X    [ X ) 3X6X,Xm : %X6X3X& o C   H.4X6X6X$X6X7X6X",
"& D X C.3X7X6X    /   N 6X6X6X^ R 6X3X;X&   N $ N.6X4X>X- O     ",
"X D   c.3X-X-X    /   ; 1X6X6XM.v.5X-X XX   e   x.6X=X3X    & X ",
"X U X z.6X7X6X    ) O   $X6X5XI.F.6X6XQ.$ & r   C.7X3X3XX   `.`.",
"  U   c.3X3X6X  X { 6   oX6X5X.X[.6X6XN.X 7 r X c.-X6X3XX   Q.W.",
"o C X K.6X6X6X    [ t   Y.6X6X$XXX<X6X( + e 6   K.6X=X6X  & ' } ",
"  + O I.,X6X1X= o { x   k.6X3X6X<X5X6XZ $ C y . b.6X6X6X  .   $ ",
"G.^ v.6X6X6XT.  = z.M   ! 3X3X6X6X6X4X;   E m O J.,X6X>X( ^ L E ",
"5X6X6X,X6X2XL . a k.P . p 6X3X6X2X6X&X  . / p . G.6X6X5X6X5X6X2X",
"6X<X6X6X2XA., . A V./ . # @X6X5X6X6X|.. , h.B . B.6X6X6X6X6X6X5X",
"6X*X2X'.A . # K I c.k.w : {.5X5X6X2XL.: p h.S . V.,X5X,X2X2X6X3X",
"o . o . . 1 G | c G K 7 . # # . . . . . p S a . . # . . #   . . ",
". . * 5 b !.~.| c b b v 8 > . . . o > a ! I G l % # . . # . . . ",
").~./.u.5.t.+.` 3 d g g g g 5 4 j h 4 j h 4 h h | S.!.y.!.~.).~.",
"/.t.5.:.:.,.,.:.:.5.5._ ..5.~.y.5.t.5.y._ _ 5.4._ 4.u.0.4.0.0.+.",
"t.s.e.:.1.2.2.2.r.,.4.s.0.4.d.4.4.s.e.4.4.e.s.:.e.,.,.7.8.,.,.,."
};
