/* XPM */
static char *M_H[] = {
/* columns rows colors chars-per-pixel */
"32 32 240 2 ",
"   c #371702",
".  c #2D0B00",
"X  c #362806",
"o  c #333300",
"O  c #3A3A04",
"+  c #373A18",
"@  c #302F1B",
"#  c #3B3F26",
"$  c #492802",
"%  c #532B00",
"&  c #483B04",
"*  c #543C00",
"=  c #583600",
"-  c #473715",
";  c #4E3416",
":  c #653C00",
">  c #442B24",
",  c #39440E",
"<  c #3D402B",
"1  c #4D4502",
"2  c #484704",
"3  c #594C04",
"4  c #5C5403",
"5  c #555505",
"6  c #53451A",
"7  c #565517",
"8  c #4A4614",
"9  c #6D4400",
"0  c #694805",
"q  c #655806",
"w  c #625C17",
"e  c #724806",
"r  c #576300",
"t  c #5E6419",
"y  c #6B7400",
"u  c #67671B",
"i  c #746A0E",
"p  c #464527",
"a  c #5B5A29",
"s  c #574637",
"d  c #545333",
"f  c #615D3A",
"g  c #644A2F",
"h  c #5E6627",
"j  c #5D6639",
"k  c #626227",
"l  c #646235",
"z  c #7A7220",
"x  c #4E5641",
"c  c #676846",
"v  c #736245",
"b  c #737253",
"n  c #737964",
"m  c #685956",
"M  c #845407",
"N  c #905718",
"B  c #9C6A04",
"V  c #936B10",
"C  c #A7750A",
"Z  c #AA6C16",
"A  c #B16D1A",
"S  c #AB700A",
"D  c #837B2E",
"F  c #D07F09",
"G  c #7C8D1B",
"H  c #7D843D",
"J  c #6F8022",
"K  c #7B8347",
"L  c #8E830C",
"P  c #AE8F17",
"I  c #B3A91C",
"U  c #8D8933",
"Y  c #B59A36",
"T  c #B98225",
"R  c #97AA3F",
"E  c #BAB527",
"W  c #B4AA2C",
"Q  c #CA8605",
"!  c #D88A00",
"~  c #DB9C00",
"^  c #CA821D",
"/  c #DE9614",
"(  c #E48C00",
")  c #E88800",
"_  c #ED9401",
"`  c #EB9B01",
"'  c #E89608",
"]  c #F29401",
"[  c #F39C00",
"{  c #FB9D00",
"}  c #E59718",
"|  c #F29B1B",
" . c #C7BC1B",
".. c #D2B014",
"X. c #EDA301",
"o. c #E3A307",
"O. c #F5A300",
"+. c #FEA402",
"@. c #FCAB01",
"#. c #F8AB09",
"$. c #F9B805",
"%. c #E9A718",
"&. c #FBA517",
"*. c #E9BB1B",
"=. c #FBB916",
"-. c #ECBB00",
";. c #D28D30",
":. c #E69A35",
">. c #E8952C",
",. c #DEBD38",
"<. c #DDB62B",
"1. c #F6A626",
"2. c #E5B329",
"3. c #F8B927",
"4. c #ECAA36",
"5. c #F6B637",
"6. c #EFAE2F",
"7. c #FAC109",
"8. c #FEC419",
"9. c #E9C21D",
"0. c #CBC125",
"q. c #D9C234",
"w. c #EACB24",
"e. c #FBDE2A",
"r. c #FFD738",
"t. c #FFE73C",
"y. c #ECE03C",
"u. c #939D4A",
"i. c #87904D",
"p. c #A29546",
"a. c #9DAA56",
"s. c #9BA94E",
"d. c #A3A955",
"f. c #ADB759",
"g. c #B3BB5B",
"h. c #ADAD4D",
"j. c #818367",
"k. c #B8BB65",
"l. c #BABC78",
"z. c #ADB263",
"x. c #C8BD4C",
"c. c #D8A147",
"v. c #F4B34B",
"b. c #D3BC6F",
"n. c #FBBB6F",
"m. c #B9CA4C",
"M. c #BDD149",
"N. c #BECD53",
"B. c #BECA5C",
"V. c #BCC458",
"C. c #BED35C",
"Z. c #BCD858",
"A. c #BBC464",
"S. c #BECC63",
"D. c #BDCB6B",
"F. c #B8C36B",
"G. c #BFD866",
"H. c #BCC276",
"J. c #C3CF4E",
"K. c #C5D84B",
"L. c #C3CD54",
"P. c #C4CD5B",
"I. c #C9CA59",
"U. c #D3CC5D",
"Y. c #C4D453",
"T. c #C5DA54",
"R. c #C9DB55",
"E. c #C4D45B",
"W. c #CAD35C",
"Q. c #CADA5C",
"!. c #C7D758",
"~. c #D2DC5C",
"^. c #D7D157",
"/. c #FFCC49",
"(. c #FFC95A",
"). c #F8D354",
"_. c #EDD14E",
"`. c #CCE054",
"'. c #FFE242",
"]. c #C3CD64",
"[. c #CBCD6C",
"{. c #C5C868",
"}. c #D6CA64",
"|. c #C5D463",
" X c #CBD464",
".X c #C5D964",
"XX c #CCDB65",
"oX c #C5D56B",
"OX c #CCD36B",
"+X c #C6DA6D",
"@X c #CBDA6B",
"#X c #D2D562",
"$X c #D3DA65",
"%X c #D3DB6B",
"&X c #D7DB6D",
"*X c #C7C977",
"=X c #C5D472",
"-X c #CAD273",
";X c #C6D17B",
":X c #CDDA74",
">X c #D4D675",
",X c #DAC37F",
"<X c #FAC76A",
"1X c #FBD569",
"2X c #FAD27A",
"3X c #ECCC79",
"4X c #C9E168",
"5X c #D8E374",
"6X c #CFE36F",
"7X c #FCE977",
"8X c #FFE36A",
"9X c #B3B08D",
"0X c #C9B88C",
"qX c #BEC081",
"wX c #BFC0A0",
"eX c #CAD685",
"rX c #D5D191",
"tX c #E9C78A",
"yX c #FFDB8D",
"uX c #FDD687",
"iX c #E8C694",
"pX c #F3DB97",
"aX c #F4D390",
"sX c #FFE984",
"dX c #FDE28B",
"fX c #FFF28B",
"gX c #FEE696",
"hX c #FFF495",
"jX c #E9DBA6",
"kX c #FCDBAC",
"lX c #EED3AA",
"zX c #FBE6A9",
"xX c #FFF3A2",
"cX c #FFFEA4",
"vX c #FFF6AC",
"bX c #FFFDB2",
"nX c #FFF3BA",
"mX c #FFEAB7",
"MX c #FDF8C4",
"NX c #FCF3CE",
/* pixels */
">X>X.XZ..XW.U.^.K.K.Q.=X;X*XG.+X;X;XOX-X>X>X[.].W.Q.Y. X:X@X5X!.",
"}.[.|.G.|. X}.U.$X|.V.F.eX;XF.V.F.D.{.k.z.k.b.=XE.$XP.W.].].4XE.",
"P.P.|.|.W.^.U.b.7 l j j a t t h 5 7 h k l a 7 2 h.W.W.W.].B.XXY.",
"W.P.OXOXI.I.b.z.c n n c 8 O o o o O O 8 d c l h U P.W. X XP.Q.E.",
"#XP. X XI.U.}.z.c x < + 4 L P P I W U 3 @ @ < a K A.OX X XL.!.T.",
"OXV.I.U.I.^.{.i., , & 5 L q.t.t.t.'.x.U f s < + H D.oXC.Y.m.Y.R.",
"-XB.L.J.Y.|.g.z , y W ,.5.8.7.-.-.*.^.}.rXwXj.p h z.D.B.E.L.K.R.",
":XB.Y.R.L.C.s.r y E ).r.=.O.X.` ~ <.).dXMXNX9Xi.2 s.A.].:X XR.J.",
"@XV.~.Y.5XG r y 0.w.8.=.+.[ X.X.4.n.zXmXkXjXgXrXz q z g.oXD.|.4X",
"Q.Y.$XN.|.y L E w.7.@.` ( [ =./.2XzXMXkXiXaXgX2XY i 3 U k.D.@XXX",
"K.R. X].P.r I t.8.O.` _ O.3.).dXMXMXlXiXtXaX2Xv.c.N & w d.=X.X.X",
"K.T.A.[.%Xr  .t.#._ ] +.3.).sXzXNXiX0XiXyX1Xv.:.:.Z = 0 d.=XE.T.",
"`.R.B.-X&X4  .e.$.` ` =./.7XcXbXgX,Xb.uX2X5.| | >.A : 3 d..XZ.K.",
"`.Q.].[.#X1 ..e.$.` %.).7XfXcXxXb.aXyX<X4.' ] &.>.A = 5 s.6XZ.K.",
"@X|.OXP.I.2  .e.-.` 5.sXxXvXgX2XtXaXn.c.>._ { #.1.B * 5 a.6X`.Z.",
"XXL.$XI.~.5  .e.9...v.xXbXvXdXb.yXn.;.F | +.{ +.} B 1 t a.G.Z.`.",
"R.L. XI.I.5  .y.,.<XgXMXbXhXdXfX(.>.F ^ ` +.@.O.} B & 5 a.:X|.L.",
"Q.!. X X{.5 E ~.7XhXmXkXyXhX7X).5./ F ! [ @.@.+./ C * 5 a.-X X&X",
"#X XV. X*X1 x.7XhXbXkXiXuXfX8X2.%.~ Q ( O.+.+.+./ C 3 4 d.=X].&X",
"[.:XV.[.*X5 *XbXbXpXiXaXdX7X/.%.' ( ( ( { +.+.{ } A * 3 f.-X{.>X",
"[.:XL.{.H.a 9XNXzXrXtXyXuX).1.' ) ) ) _ { +.+.&.4.Z % 1 h.OXA.OX",
"[.OXP.].H.j 9XNXjXpXuX<Xv.5.' ! ) ) _ ] { @.&.&.>.V * q d.|.].%X",
"OXI.W.|.qXn K 9XjXhX1X5.o.` ] ) ) ) { O.@.#.&.} Z M q U g.].I.$X",
"%XP.Q.S.eXK c b rX2X_.9.o.` { { ] { +.@.@.#./ T : 9 D k.OXP.W.#X",
"Q.W. X|.D.F.i.h D h.).r.7.@.+.+.#.#.X.~ ' ..C e % p.A.oX:XP.L.%X",
" XI.|.|.E.+Xz.H & z Y 2.*.#.' ' %.1.%.Q C V e * u k.S.C.XXE.P.#X",
" XW.|.E.T.4XG.a.8 6 0 9 M S ;.:.^ ;.T M % $ ; ; i.;X|.m.Q.!. X X",
"%X XoX|.M.T.A.a.a d ; % % e N N M e 0 %   > x f i.[.Z.m.Z.Q.%X@X",
"$X|. XE.M.J.V.a.l v v g > $   .       - x m m b K S.T.M.T.E.4XXX",
"E.N.E.W.K.Y.B.f.2 8 8 - ; ; & 1 & 2 & & - p - + u.S.Y.J.Q.N.E.E.",
"T.M.E. XL.W. XP.V.P.{.k.9X*X*XS.D.D.A.F.k.H.H.A.m.Q.L.!.XXC.C.T.",
"R.Y.W. X!. X%X}.~.~.~.@XeXeX+XC.+X+X.X.X%X:X@XXX~.~.m.P.%X|.XX4X"
};
