/* XPM */
static char *M_H[] = {
/* columns rows colors chars-per-pixel */
"32 32 235 2 ",
"   c #160800",
".  c #241800",
"X  c #3A1C00",
"o  c #2F0C00",
"O  c #2B2D00",
"+  c #3C2700",
"@  c #3C3300",
"#  c #353900",
"$  c #2F3500",
"%  c #362D24",
"&  c #421E00",
"*  c #462A02",
"=  c #4B3600",
"-  c #523200",
";  c #523C01",
":  c #593C00",
">  c #48341C",
",  c #633F05",
"<  c #553921",
"1  c #3D4404",
"2  c #444303",
"3  c #49480B",
"4  c #4E4915",
"5  c #55541C",
"6  c #534B0F",
"7  c #675900",
"8  c #6D4D06",
"9  c #6C6609",
"0  c #616010",
"q  c #5A5529",
"w  c #5A5837",
"e  c #53492D",
"r  c #685735",
"t  c #695A2C",
"y  c #5E653B",
"u  c #686424",
"i  c #66633C",
"p  c #676638",
"a  c #747337",
"s  c #78742D",
"d  c #5F5E54",
"f  c #5A4942",
"g  c #685B46",
"h  c #645D57",
"j  c #5D654D",
"k  c #6B6244",
"l  c #686845",
"z  c #726D4C",
"x  c #726742",
"c  c #656254",
"v  c #676559",
"b  c #746A55",
"n  c #7B7859",
"m  c #76724C",
"M  c #6C6364",
"N  c #7B7767",
"B  c #716B6F",
"V  c #8F5A03",
"C  c #84510C",
"Z  c #866902",
"A  c #946707",
"S  c #847600",
"D  c #A46C00",
"F  c #AA7707",
"G  c #AE7418",
"H  c #877133",
"J  c #D97F00",
"K  c #877657",
"L  c #877B66",
"P  c #837D72",
"I  c #7E8A3E",
"U  c #79805E",
"Y  c #9B8900",
"T  c #AC8810",
"R  c #858639",
"E  c #939336",
"W  c #B08E2F",
"Q  c #B7A42A",
"!  c #D78804",
"~  c #D89906",
"^  c #C39719",
"/  c #D99216",
"(  c #E78A00",
")  c #E59702",
"_  c #EA9905",
"`  c #F29401",
"'  c #F89D02",
"]  c #E49813",
"[  c #DBAA05",
"{  c #D1AC0D",
"}  c #E2A401",
"|  c #FEA100",
" . c #FBA409",
".. c #F9A807",
"X. c #E9B502",
"o. c #E9A916",
"O. c #F9A418",
"+. c #F4B114",
"@. c #D4962C",
"#. c #C38937",
"$. c #C6A328",
"%. c #D5AF2F",
"&. c #E9A526",
"*. c #F4AA27",
"=. c #FBB728",
"-. c #ECAA33",
";. c #EEB422",
":. c #FDC30A",
">. c #FCC826",
",. c #FED829",
"<. c #F6D939",
"1. c #F3C237",
"2. c #FFE93C",
"3. c #858947",
"4. c #8E8E50",
"5. c #A5AB5D",
"6. c #A7AA58",
"7. c #ACB25A",
"8. c #B7BC57",
"9. c #B1AF5C",
"0. c #99976C",
"q. c #8A827A",
"w. c #898678",
"e. c #938A79",
"r. c #98957B",
"t. c #92866E",
"y. c #A2997C",
"u. c #B9BB65",
"i. c #AFB66E",
"p. c #E7B846",
"a. c #F8BE50",
"s. c #C3BD6A",
"d. c #DDBA77",
"f. c #EABE69",
"g. c #E9B96E",
"h. c #C8B455",
"j. c #BDC84C",
"k. c #BDD24D",
"l. c #BDCD54",
"z. c #BBCC5B",
"x. c #BAC758",
"c. c #BCD354",
"v. c #BCD35C",
"b. c #B9D557",
"n. c #BDCA63",
"m. c #BEC568",
"M. c #BCD262",
"N. c #BBC373",
"B. c #C3CC4A",
"V. c #C4D34D",
"C. c #C7D649",
"Z. c #C4CC52",
"A. c #CCCC53",
"S. c #C3CC5B",
"D. c #CACD5C",
"F. c #C3C65D",
"G. c #D2CD57",
"H. c #C4D354",
"J. c #CCD553",
"K. c #C4DA54",
"L. c #CADA54",
"P. c #C5D25B",
"I. c #CBD45C",
"U. c #C4DA5B",
"Y. c #CCDB5C",
"T. c #D0D555",
"R. c #D2D35B",
"E. c #D2DA5F",
"W. c #D4DC56",
"Q. c #FCC955",
"!. c #FCD554",
"~. c #FFCE4A",
"^. c #C8E254",
"/. c #DBE35A",
"(. c #FFE746",
"). c #F8E258",
"_. c #C4CB64",
"`. c #CBCE63",
"'. c #C4CE6C",
"]. c #CBCA6A",
"[. c #C6C367",
"{. c #D4CB65",
"}. c #C3D465",
"|. c #CAD463",
" X c #C5DA63",
".X c #CBDA64",
"XX c #C5D56B",
"oX c #CDD46A",
"OX c #C5DA6B",
"+X c #CAD96D",
"@X c #D2D464",
"#X c #DAD364",
"$X c #D3D36D",
"%X c #D3DB6B",
"&X c #D8DB67",
"*X c #C1C374",
"=X c #C8CA72",
"-X c #D5CE74",
";X c #CBD471",
":X c #C8D576",
">X c #D4D572",
",X c #D6D877",
"<X c #E5C664",
"1X c #FAC967",
"2X c #FFD262",
"3X c #F8CD76",
"4X c #F8D576",
"5X c #EBDD7C",
"6X c #CAE166",
"7X c #D1E264",
"8X c #D7E477",
"9X c #FFE86F",
"0X c #7C7680",
"qX c #8C8587",
"wX c #938B88",
"eX c #949383",
"rX c #96928A",
"tX c #9B9788",
"yX c #9C9494",
"uX c #B6A78A",
"iX c #DABB87",
"pX c #C9DA85",
"aX c #FBDB86",
"sX c #EDCC90",
"dX c #FFED8C",
"fX c #FFE080",
"gX c #FFF697",
"hX c #F7E198",
"jX c #F7DCAF",
"kX c #FFE5A2",
"lX c #FEF8A3",
"zX c #FFFDB2",
"xX c #FFF9BF",
"cX c #FFEEB1",
"vX c #FFFCC7",
/* pixels */
"}.b.K.^.C.C.E.@X>X-X].[.$X>X'.>X`.&XT.W.Y..Xn.OX X7XU.I.I.D.&XI.",
" Xb.K.^.C.L.E.D.=X=Xu.u.*X*XN.N.*X=X8.j.7.n.m.m.n..XY.I.I.P.&XI.",
"U.c.H.L.J.R.D.8.0 u q w l i w w w w q p 5 q 5 3 7.|.I.I.P.S..XY.",
"L.V.I.I.I.E.D.9.a 3.N P tXtXtXe.wXq.t.tXb l i u E _.R.I.S.S..X X",
"J.H.D.@XI.@X_.6.i P B 0XqXP w.4.y.L P yXM v c p R F.R.J.I.S.|..X",
"J.A.`.`.D.@X[.6.w P qXqXL w @   . . 4 K M B d e R S.R.J.I.Z.|.|.",
"|.|.oX`.A.@X_.5.z P f < 6 8 W Q %.Q s 4 % B q.U I _.Y.C.J.A.@X@X",
"_.}.{.D.F.@X].5.p L t 8 Z T <.(.<.).h.a g wXwXl 3.XXY.C.T.G.G.D.",
"OX}._.D.I.D.,X9.u ; 8 p.(.,.[ { { $.3XvXjXb r 0.3.8Xl.J.J.B.A.#X",
"OXS.I.I.D.D.$XE + Z ^ >.X.} [ [ $.aXzXjXsXiX4.@ s ;XS.Y.Y.Z.D.%X",
" Xc.Y..X|.`._.7 9 %.,.:.} } ;.Q.aXcXkXg.d.3X#.6 7 [._.|..XP.|.oX",
"U.c.L.E.S.;X_.@ Y <.X.} } o.~.gXvXsXg.f.Q.@.T T = [.@X}. XM.XX+X",
"Y.Z.C.I.S.;X'.O S ,.X.} =.Q.dXzXsXsX1XQ.=.+.~ F - {.:XM.b.v.XXXX",
"|.I.Z.J.n.:X:X$ S 2.X.~ ~.dXlXhXd.3X1X*._ +.) V - $X>Xv.b.c.M.;X",
"$X#XR.I._.'.:X# S 2.[ o.4XgXlXs.4Xp.&._ (  .] A - -X+Xb.b.K.P.>X",
"$X&XR.E.XX'.'.# S ).%.2XlXlXlX5XQ.! !  . .' ] F - -X6Xb.^.K.P.%X",
"#XG.G.W.j.}.M.$ 9 gX{.gXaX4XdX2X-.! (  .|  .] D 8 ,X}.z.v.^.7XB.",
"#XG.T.T.j.8X:X1 I sXzXaX<X1X9X-.*.! ( ' | _ ! A : $X}.z.b.c..XJ.",
"A.G.J.U.l.8XN.O s xXkX<XQ.9X~.) ` ( ` ' ..../ G - ].XXM.l.k.Y.R.",
"T.J.L.6Xv.N.N.1 a vXd.<X-.=.) ! ( ` ' ` O.*.@.A ; [.oX.XP.Z.T.T.",
"/.J.J.U.z.:XpX0.k r d.f.&.~ _ | ( ` J ` *.@.A * 9 =XXX XI.T.R.G.",
"W.B.l.U.v.XXpXi.r.k H f.!.>...' ' O.O.&.@.V - * R :X_.S.H.T.E.#X",
"J.A.D.|.H.v.n.5.e.iX* H %.-.;.~ / -.@.G C , , H 4.-X|.H.Z.R.R.#X",
"&X@XoXI.J.Y.z.5.l L K - o - T W G #.C & & g L t.3.*X}.W.J.T.R.@X",
"R.D.`.S.Z.C.S.7.m e.e.g 6 = + X & & * < e N r.n 3.:XS.L.W.J.l.%X",
"oXS.|.P.V.J.D.6.x q.e.N x i i k r r b v M q.eXn 3.pX|.C.L.H.c.7X",
"+X}.}.|.H.Y._.5.b wXyXwXeXr.rXyXeXw.rXrXqXyXrXn 3.pX@XH.k.K.H.6X",
"OXM. X XU.I.[.5.e v M h c c d v c j v M h h l 5 R ;XI.V.k.K.K.6X",
"OXM.v.U.H..Xn.5.p z z l l i w r p y l l g k a u R '.b.H.k.U.U.U.",
"M.M.U.K.H.H.|.7.2 4 4 3 6 3 2 3 3 1 3 1 3 4 6 2 E _.z.U.c.U.K.U.",
"OXOXY.K.V.L.|.x.8.[.s.u.[.[.u.F.'.m.M.N.s.s.s.[.x.+Xz. XU.U.U.^.",
";X.X7X^.V.L..XP.oX%X@X@X,X$X{.@X%X%X,X,X-X-X-X>XoX8Xv.6XU.U.H.7X"
};
