/* XPM */
static char *M_H2[] = {
/* columns rows colors chars-per-pixel */
"32 32 238 2 ",
"   c #191300",
".  c #240302",
"X  c #3B0C00",
"o  c #2A1E00",
"O  c #391500",
"+  c #391515",
"@  c #333A00",
"#  c #292100",
"$  c #351F21",
"%  c #4C0D00",
"&  c #550C01",
"*  c #590900",
"=  c #471907",
"-  c #561614",
";  c #5D1600",
":  c #680805",
">  c #6C1A07",
",  c #77130A",
"<  c #711810",
"1  c #5A380A",
"2  c #6A3313",
"3  c #442A29",
"4  c #562727",
"5  c #53352F",
"6  c #6E2B24",
"7  c #743E3E",
"8  c #3C4106",
"9  c #3E4511",
"0  c #464A07",
"q  c #444912",
"w  c #595417",
"e  c #625414",
"r  c #575527",
"t  c #50522F",
"y  c #63592C",
"u  c #655C33",
"i  c #654836",
"p  c #556529",
"a  c #5D6437",
"s  c #686738",
"d  c #716A2E",
"f  c #6C691C",
"g  c #5C3F43",
"h  c #733F43",
"j  c #5C5C43",
"k  c #5D5C52",
"l  c #615949",
"z  c #765349",
"x  c #675A58",
"c  c #745352",
"v  c #5D6542",
"b  c #566256",
"n  c #676647",
"m  c #74734D",
"M  c #656859",
"N  c #766858",
"B  c #6C7455",
"V  c #766F4E",
"C  c #725D62",
"Z  c #696A63",
"A  c #7B716D",
"S  c #930901",
"D  c #881B08",
"F  c #991409",
"G  c #931A17",
"H  c #850B08",
"J  c #A51C15",
"K  c #B1130C",
"L  c #99241B",
"P  c #B12715",
"I  c #B71426",
"U  c #973F3E",
"Y  c #A5272A",
"T  c #BA2A29",
"R  c #B6312B",
"E  c #BC2932",
"W  c #AE3234",
"Q  c #B83A38",
"!  c #A92E2B",
"~  c #C6060C",
"^  c #C61417",
"/  c #D31517",
"(  c #CD1D24",
")  c #D11E22",
"_  c #C92627",
"`  c #D8262A",
"'  c #D9312B",
"]  c #C72A34",
"[  c #D72B37",
"{  c #D83A38",
"}  c #CA3537",
"|  c #E22729",
" . c #EA2D32",
".. c #E6302D",
"X. c #99413D",
"o. c #81402C",
"O. c #BC4235",
"+. c #8A7830",
"@. c #C74339",
"#. c #BB3D40",
"$. c #CF3344",
"%. c #E63C45",
"&. c #854A47",
"*. c #87574C",
"=. c #875959",
"-. c #975152",
";. c #A84749",
":. c #A95859",
">. c #B95855",
",. c #AF544A",
"<. c #817B58",
"1. c #88684F",
"2. c #B45F62",
"3. c #817C67",
"4. c #847674",
"5. c #927D6D",
"6. c #B46467",
"7. c #AF7072",
"8. c #C74646",
"9. c #C84C54",
"0. c #C75C56",
"q. c #D85254",
"w. c #CA6467",
"e. c #D27271",
"r. c #EB6E77",
"t. c #EB505E",
"y. c #7F8944",
"u. c #7F8F68",
"i. c #85883C",
"p. c #858845",
"a. c #959447",
"s. c #938753",
"d. c #A6A95B",
"f. c #B5B959",
"g. c #84886B",
"h. c #8A8478",
"j. c #99887A",
"k. c #95937B",
"l. c #8D8C73",
"z. c #A28E72",
"x. c #A5AB63",
"c. c #B4BA68",
"v. c #BCBB71",
"b. c #B1AB74",
"n. c #C4BB6A",
"m. c #D3BE74",
"M. c #BDC84B",
"N. c #BED14D",
"B. c #BECB5A",
"V. c #BBC95A",
"C. c #BED353",
"Z. c #BCD35B",
"A. c #BBD859",
"S. c #BCC56B",
"D. c #BFC667",
"F. c #BCD766",
"G. c #BBC372",
"H. c #C4CC4B",
"J. c #CACC4F",
"K. c #C5D24F",
"L. c #CAD24E",
"P. c #C4CD53",
"I. c #CACE55",
"U. c #C3CD5C",
"Y. c #CBCB5E",
"T. c #C5D253",
"R. c #CBD455",
"E. c #C4D45B",
"W. c #CBD55B",
"Q. c #C4DA5B",
"!. c #CCD95C",
"~. c #C7D956",
"^. c #D3D35B",
"/. c #D4D758",
"(. c #D3CD55",
"). c #CEE15D",
"_. c #C3CB63",
"`. c #C2C56B",
"'. c #C4CC6C",
"]. c #CACC6A",
"[. c #C8C963",
"{. c #D3CE69",
"}. c #D3CF65",
"|. c #C5D563",
" X c #CBD563",
".X c #C5DA63",
"XX c #CBDB63",
"oX c #C5D56C",
"OX c #CBD56B",
"+X c #CADB6A",
"@X c #C4D869",
"#X c #D3DB62",
"$X c #D3D46C",
"%X c #D4D966",
"&X c #C3C374",
"*X c #C5CC73",
"=X c #C8CB76",
"-X c #D7C679",
";X c #CCDB71",
":X c #CAD675",
">X c #D3DB73",
",X c #D4D777",
"<X c #E2C87E",
"1X c #C7E469",
"2X c #D4E275",
"3X c #CAE16A",
"4X c #BD7A83",
"5X c #C07E80",
"6X c #8B8987",
"7X c #988786",
"8X c #8C9186",
"9X c #989387",
"0X c #979794",
"qX c #AA8D8E",
"wX c #B9A08A",
"eX c #D99495",
"rX c #CC8A85",
"tX c #E78482",
"yX c #E2908C",
"uX c #FB989A",
"iX c #F09496",
"pX c #F5A099",
"aX c #F29DA2",
"sX c #FFA5A8",
"dX c #F8B2B4",
"fX c #D3C58A",
"gX c #CDD583",
"hX c #D4D188",
"jX c #DEE480",
"kX c #FBC7C7",
"lX c #FFCED4",
"zX c #FED4D3",
"xX c #FFDCDD",
"cX c #FFD6DB",
"vX c #FFD0CF",
"bX c #FFE0DE",
"nX c #FFDEE0",
"mX c #FFE8E7",
/* pixels */
"F.F.}.#X(.(.#X^.+X;X'.].-X].{.>X].:X*X:X=XgXF.:XoX2X X XE.R.%XR.",
"@XB. X#X(.^.#X_.D.*Xv.v.=X*XD.F.S.G.c.G.c.v.v.G._.;X XXXW.E.#XW.",
"OXE.E.!.W.W. Xf.f d t t r p p p p p a m y r w e d.].|. XI.P.#X^.",
"}.U.E.Q.Q.|.[.f.d m u.u.k.9Xg.u.u.g.g.l.V V s y a.'.OX|.R.I.^.^.",
"}.Y.T.Q.A..X'.d.s <.4.A 6X8Xh.g.k.l.4X4.Z Z z s p.S.].R.I.P.^. X",
"{.Y.E.~.C..XS.d.u 3.4X4.4.x 3 . . + g A C A n t p.S. XR.R.P.W. X",
"{.}.W.T.N..X'.x.s N k 3 5 h -.:.6.-.h 5 $ x h.m p.'.OXR.R.T.|..X",
"]. XW.J.H.W.'.x.s N z 6 6 U 9.e.w.6.6.=.c 5.j.n p.oX#XL./.R.|.F.",
"oX|.W.H./.H.,Xx.y 1 6 >.m.%.E W Y #.rXnXxXz i wXa.:XW.L.L.P.V.1X",
"F.B.R.H./.P.,Xs.O o.,.#.E T E Q Y uXmXnX:.eXrXX d =XXXR.L.R.F.;X",
"@XA.!.K.!.U.`.e 6 >.q.[ ] ] 8.>.aXzXkXe.iXe.#.& e n.%X~.T.!.F.oX",
"1XC.).~.E._.n.O ,.#.] [ [ ] 0.aXmXdXe.e.r.q.Y , % n.+X~.K.W..X;X",
"XXM.T.N.Z.OXfXX X.9.$.[ $.9.aXmXvXe.w.sXt.I I G % &X;XC.N.U.|.;X",
"XXM.K.T.|.*XfXX U r.$.E r.sXcXzX7.pXpXQ %.[ $.S & -X;XA.T.T.oX@X",
"%X(.R.E.|.*XfXX ;.w.Y ] uXnXlX7.iXz.P @.^  .( J & -XoXZ.Q.Q.@XF.",
"/.I.T.W.;X=XfX= &.2.;.5XxXlXdX4Xm.O.P P ../ / S * -XoXZ.XX.XF.F.",
"/.J.P.U.OXS.hXo c 7.eXnXcXiXiXsX| K K _ | | ) S * m.`.B.!.P.A.A.",
"!.!.XXU.|.'.gX# 5 lXnXcXU 5XlXW  .K K _ | ` _ S > fX$X|.W.C.A.1X",
"H.R.XXC.|.>XhXo wXmXlX6.uXdXr.E [ ^ ^ ' ` ` _ D & -X2XXXQ.K.A.1X",
"W.#X!.T.E.OXc.  wXkX4XuXr.9.] ( / K ^ [ [ ] T D X n.%XQ.~.~.Q.F.",
"XX!.E.T.T.E.`.w 5.qX7.iXO.} %.K ~ ~ _ { } E L > 1 `..XC.R.~.Q.Z.",
"B.E.T.R.H.R.2Xv.r =.rX>.@._ _ ..| | { } Y G > ; +.>XQ.N.K.R.E.+X",
"+X%XW.!.H.K.,Xn.z.j.= 6.0.@.@.' ` ' R G , < 6 2 a.2XQ.K.K.T.E.2X",
"+X+XP.R.L.!.].d.p.h.c - < D F K J J D : * 6 *.s.i.F.C.~.R.P.V.2X",
"|.Z.E.I.H.I.[.x.B 9Xg.5 - ; : : : : - - 4 =.z.1.p.:XU.R./.!.U.+X",
"oX|.W.!.J.R.].x.v 8X8XZ N c i -.&.&.-.C c 5.k.m p.:X XR.R.R.U.>X",
"+XE.E.W.R.^.'.x.b 8X0X6X9X9X7Xj.4X4XqX0X0X0X9X<.p.gX%XR.I.!.[.>X",
".XE.E.W.R.#XS.d.t b Z k M B M M Z b x x k k v r p.gX XI.P.W. X>X",
"|.Z.E.E.R.!.U.d.s B B v v n a j Z b k j v s s y i.'.[.I.P.W.OXOX",
"+XE.Q.Q.T.E.E.x.@ 9 9 9 8 0 8 @ 9 9 9 q q 0 q 0 a.].U.R.I. X XOX",
".X|..X!.T.~.XXV.v.n.&Xn.D.'.&Xn.S.S.G.`.`.`.`.[.f.%XU.!.E. XOXOX",
"+X+X1X).C.~.3X[.,XhX,X{.[.^.$X$X;X>X$X[.[.$X>X$X}.2XP.#X!. XOX,X"
};
