/* XPM */
static char *MS_0[] = {
/* columns rows colors chars-per-pixel */
"32 32 201 2 ",
"   c #020301",
".  c #0A0603",
"X  c #040A01",
"o  c #0B0C01",
"O  c #050209",
"+  c #09050A",
"@  c #060909",
"#  c #0C0C0B",
"$  c #120E01",
"%  c #071200",
"&  c #0D1000",
"*  c #0B1606",
"=  c #141202",
"-  c #151708",
";  c #110C17",
":  c #151614",
">  c #1A1614",
",  c #080614",
"<  c #1C2500",
"1  c #1E2118",
"2  c #2C2A01",
"3  c #3B3A07",
"4  c #252919",
"5  c #1B1A25",
"6  c #2D2E2E",
"7  c #282B25",
"8  c #2D322B",
"9  c #2D2C32",
"0  c #373834",
"q  c #403D10",
"w  c #384100",
"e  c #364109",
"r  c #3E4A13",
"t  c #3E451D",
"y  c #3D4712",
"u  c #3B4029",
"i  c #47470B",
"p  c #414316",
"a  c #464E16",
"s  c #4B4E1A",
"d  c #474C19",
"f  c #535A18",
"g  c #484A29",
"h  c #514E23",
"j  c #4A5221",
"k  c #52542B",
"l  c #585C29",
"z  c #4A4739",
"x  c #5C5C34",
"c  c #5E5D38",
"v  c #505439",
"b  c #605E35",
"n  c #5C6234",
"m  c #626A31",
"M  c #63653B",
"N  c #6A723B",
"B  c #676A23",
"V  c #3D4140",
"C  c #4A4F4A",
"Z  c #565558",
"A  c #5A5B4B",
"S  c #645F4B",
"D  c #635F53",
"F  c #666A45",
"G  c #706C46",
"H  c #74744D",
"J  c #707147",
"K  c #686852",
"L  c #767351",
"P  c #777755",
"I  c #646467",
"U  c #62636A",
"Y  c #696964",
"T  c #6F7163",
"R  c #777668",
"E  c #7A7678",
"W  c #7B8336",
"Q  c #7B8058",
"!  c #84863A",
"~  c #848A3D",
"^  c #838838",
"/  c #919C3C",
"(  c #858D41",
")  c #8A8C41",
"_  c #8D9240",
"`  c #8C914F",
"'  c #9EA65A",
"]  c #9FA857",
"[  c #A2AA5C",
"{  c #A7A959",
"}  c #A9B65A",
"|  c #B1B757",
" . c #858A62",
".. c #AAAD61",
"X. c #A5AC62",
"o. c #ABB762",
"O. c #B1BB6E",
"+. c #ABB672",
"@. c #B5BE77",
"#. c #BECC4E",
"$. c #BECD51",
"%. c #BEC65E",
"&. c #B5C65F",
"*. c #B2C467",
"=. c #BFCB63",
"-. c #B4C56E",
";. c #BDC26C",
":. c #B6C86C",
">. c #B7CF61",
",. c #BFD368",
"<. c #BBC374",
"1. c #BDCD75",
"2. c #BDC97A",
"3. c #B5C275",
"4. c #C1CD4E",
"5. c #C2D14D",
"6. c #C1CE53",
"7. c #C9CE54",
"8. c #C3CD5B",
"9. c #CBCE5B",
"0. c #C1C459",
"q. c #C5D254",
"w. c #CAD355",
"e. c #C7DA55",
"r. c #CCDA56",
"t. c #C6D25B",
"y. c #CBD55B",
"u. c #CBDA5D",
"i. c #C7DA5A",
"p. c #D1D45C",
"a. c #D2DB5B",
"s. c #C0C760",
"d. c #C4CC64",
"f. c #C6CE69",
"g. c #C5D262",
"h. c #CBD563",
"j. c #C7D862",
"k. c #CDDA62",
"l. c #C5D36B",
"z. c #CAD46B",
"x. c #C7D869",
"c. c #CCD96C",
"v. c #D1D465",
"b. c #D2DB63",
"n. c #D6D46B",
"m. c #D1DC6B",
"M. c #C4CD74",
"N. c #C3C57A",
"B. c #C6CB77",
"V. c #CDD474",
"C. c #C7D37B",
"Z. c #CAD17B",
"A. c #CADA74",
"S. c #D1DC74",
"D. c #D3D97B",
"F. c #D6D878",
"G. c #D6E369",
"H. c #D7E166",
"J. c #C7E173",
"K. c #D3E67A",
"L. c #91968F",
"P. c #989F97",
"I. c #939C99",
"U. c #9A9B9B",
"Y. c #959B95",
"T. c #878682",
"R. c #9EA39E",
"E. c #ADB383",
"W. c #A1A39E",
"Q. c #A0A096",
"!. c #9B9CA2",
"~. c #A2A4A2",
"^. c #A6A6A8",
"/. c #A7B1A9",
"(. c #B4B3AE",
"). c #B0AFB7",
"_. c #B7B9B9",
"`. c #BDC683",
"'. c #CEDA8D",
"]. c #CAD582",
"[. c #C5C899",
"{. c #D3E185",
"}. c #BDBCC5",
"|. c #C6BEC9",
" X c #CBCBCB",
".X c #E3DDDD",
"XX c #EDEFEE",
"oX c #F1ECEF",
"OX c #EEF0EB",
"+X c #EFEEF3",
"@X c #E9E7F4",
"#X c #F2EAF9",
"$X c #EDF0F3",
"%X c #EFF3FC",
"&X c #F3F3F4",
"*X c #F6F8F3",
"=X c #FAFBF6",
"-X c #F5F5FB",
";X c #F9F6FD",
":X c #FDFDFE",
">X c #F8F4F5",
/* pixels */
"z.d.z.m.8.e.k.k.M.C.1.C.,.,.K.&.>.J.>.,.{.].M.V.k.H.u.y.h.l.S.g.",
"h.8.h.m.t.y.u.g.{.1.3.1.1.*.o.:.:.*.*.1.O.O.<.;.0.b.y.y.h.g.c.g.",
"k.8.h.k.i.i.g.&.f m N j e < X % % * r l s d f B | h.t.y.t.>.k.j.",
"y.6.t.y.i.u.=.{ N  .v X X X X   % X X % z P b s _ 8.t.y.t.$.u.i.",
"r.6.w.t.t.k.=.] M g   : R _.:X:X%X_.Y : X 0 K x ! =.u.w.i.$.r.e.",
"w.q.w.q.q.h.=.' g o : ).:X%X:X:X:X-X-X).5 . D x ! s.k.q.i.6.e.e.",
"w.w.y.e.$.k.=.[ d . Y $X:X:X-X:X%X%X:X$XU   z b ! f.k.q.i.$.e.e.",
"t.r.u.q.#.u.l.[ < o _.:X%X:X^.I /.$X$X:X}.  = x ~ z.k.q.u.t.i.t.",
"k.t.9.t.u.$.l.] %   XX-X:X(.X # X /.:X*X>X. $ b ! 0.9.#.6.$.g.g.",
"h.h.9.t.k.t.l.] @ X =X:X:XR.X 6 X R.=X:X;X    k ! d.t.6.t.g.j.j.",
"z.t.g.t.u.$.l.' X   :X:X-XY., C   I.:X:X:XO   b ) f.h.6.k.g.c.x.",
"z.g.d.t.k.$.V.'     ;X:X;XU.@ C X I.;X:X:XO . L ) f.9.6.g.g.c.j.",
"h.h.g.t.u.6.l.X.X   ;X:X:X!.O u @ I.;X:X:XO . L ) d.u.4.t.d.g.j.",
"z.t.t.9.u.6.x.] X . :X:X:X!.  0   I.:X:X:XO   b ~ d.y.4.i.$.t.,.",
"h.h.8.q.r.q.g.[   . :X:X:XU.  8 X L.:X:X:XO   x ) h.u.5.i.t.g.g.",
"h.h.t.w.r.5.g.' X . :X;X:XW.  1 X R.:X:X:X+ $ J _ z.a.q.i.t.k.j.",
"h.t.h.u.#.q.x.]..   :X:X&XR.X 1   L.*X:X:X  o [.Z.m.$.e.u.6.q.i.",
"t.%.t.u.5.y.c.B.X   -X;X-XU.X > @ W.*X=X:X  o E.1.S.q.#.w.4.u.u.",
"h.8.8.t.q.r.z.@.& o :X;X-XU.O 6 @ ~.=X:X:X  X F [ c.t.5.t.q.a.k.",
"m.d.g.t.e.u.=.X.X   ;X:X:X!.  6   U.-X:X:X@   k ( l.k.u.b.y.y.8.",
"m.h.d.9.q.h.=.[     :X:X;XU.  6 . ~.:X:X+X    x N l.k.y.b.h.h.t.",
"h.h.g.9.6.b.f.X.    ;X:X>X~.# 7   I.=X:X*X    d ^ z.j.$.h.9.t.m.",
"h.h.h.8.6.v.z...$   >X:X;X(.#   > ^.=X=X&XX = n ~ c.h.#.k.8.t.m.",
"v.b.b.8.4.k.f.{ 2   .XoX:X:X .E R.=X=XOX X  4  .~ c.y.e.m.8.6.b.",
"9.6.w.7.5.7.d.{ q = I ;X;XoX:X;X:X&X:X:XU # A H ~ c.8.e.k.y.#.b.",
"p.7.w.w.7.p.d...G = > ^.:X;X:X;X:X:X$X!.; X T Q ~ A.i.e.y.t.q.b.",
"a.7.w.p.p.v.f.{ L z   ; E |.#X;X@X}.U 5 , Z R.P ( K.h.q.6.t.q.b.",
"a.7.p.p.y.v.s.{ h R z . .   . + # @   # 9 Z R l ~ x.t.q.6.u.u.a.",
"p.7.9.p.w.p.s.{ B L L S g =     @ - u K T S F n W g.6.e.8.h.h.h.",
"p.9.v.p.7.p.9.| i i 3 q q 3 s a a a r r t u t w / 8.$.y.t.m.h.z.",
"v.v.n.v.7.p.p.0...B.N.N.B.M.V.} o.:.1.3.+.@.`.-.&.i.4.u.h.f.z.V.",
"n.n.F.n.7.p.b.9.F.V.O.D.n.%.l.A.x.,.A.A.].'.'.M.j.G.4.b.z.V.V.D."
};
