/* XPM */
static char *MS_3[] = {
/* columns rows colors chars-per-pixel */
"32 32 211 2 ",
"   c #030201",
".  c #0B0501",
"X  c #030B01",
"o  c #0C0B04",
"O  c #03020C",
"+  c #0B0A0C",
"@  c #120E02",
"#  c #100B08",
"$  c #061000",
"%  c #1A1A01",
"&  c #181608",
"*  c #0C0A14",
"=  c #090110",
"-  c #140C19",
";  c #0C1015",
":  c #1A1315",
">  c #1C2400",
",  c #222300",
"<  c #282701",
"1  c #383605",
"2  c #292617",
"3  c #342918",
"4  c #333317",
"5  c #201F24",
"6  c #322E2F",
"7  c #2E3025",
"8  c #3D3625",
"9  c #332637",
"0  c #343735",
"q  c #2D222A",
"w  c #403D1A",
"e  c #433C37",
"r  c #473B2D",
"t  c #394311",
"y  c #3E460D",
"u  c #3F4021",
"i  c #45440B",
"p  c #434908",
"a  c #454B12",
"s  c #484B13",
"d  c #4D541E",
"f  c #575516",
"g  c #464629",
"h  c #524B23",
"j  c #51482B",
"k  c #535321",
"l  c #59522B",
"z  c #575826",
"x  c #4D4431",
"c  c #444235",
"v  c #544938",
"b  c #5C5731",
"n  c #58573A",
"m  c #4D542A",
"M  c #635D29",
"N  c #635C35",
"B  c #5F612F",
"V  c #646021",
"C  c #656339",
"Z  c #7A7938",
"A  c #746F38",
"S  c #423E4F",
"D  c #484447",
"F  c #544A48",
"G  c #55544C",
"H  c #504951",
"J  c #515851",
"K  c #645948",
"L  c #6A5E52",
"P  c #6D6D49",
"I  c #696646",
"U  c #7A774A",
"Y  c #6C6557",
"T  c #756A56",
"R  c #7A755A",
"E  c #776F4A",
"W  c #685D64",
"Q  c #6B6769",
"!  c #757268",
"~  c #686D70",
"^  c #7A7478",
"/  c #6F706E",
"(  c #807853",
")  c #827C48",
"_  c #837960",
"`  c #897E78",
"'  c #86833C",
"]  c #89873E",
"[  c #8C8B3B",
"{  c #858336",
"}  c #94953B",
"|  c #898541",
" . c #8B8842",
".. c #8C8849",
"X. c #958F5D",
"o. c #979646",
"O. c #ABAC4F",
"+. c #A5AB56",
"@. c #A4A65A",
"#. c #A6A95A",
"$. c #A9AD5D",
"%. c #A6A954",
"&. c #AAB458",
"*. c #B9BB56",
"=. c #898465",
"-. c #9B9D6E",
";. c #888C7F",
":. c #AAAD62",
">. c #A6A962",
",. c #ADB062",
"<. c #B7BB67",
"1. c #B2BC72",
"2. c #BBBD74",
"3. c #BDCE4E",
"4. c #BECB51",
"5. c #BECF5C",
"6. c #BDC55E",
"7. c #BFD05D",
"8. c #ADC16E",
"9. c #BAC366",
"0. c #BBCB6C",
"q. c #B7C56A",
"w. c #BFD060",
"e. c #BCC775",
"r. c #B9C87D",
"t. c #C2CD4D",
"y. c #C2CC45",
"u. c #C4D24D",
"i. c #C9D34B",
"p. c #C3CD53",
"a. c #C5CD5C",
"s. c #C4D355",
"d. c #CAD454",
"f. c #C6DA53",
"g. c #CBDA55",
"h. c #C5D35A",
"j. c #CAD45B",
"k. c #C7DA5B",
"l. c #CBDA5C",
"z. c #D1DA5C",
"x. c #D1DB54",
"c. c #CDE159",
"v. c #C2C564",
"b. c #C4CB64",
"n. c #C9CE66",
"m. c #C4CD69",
"M. c #C9CD6B",
"N. c #C3C46C",
"B. c #C5D463",
"V. c #CBD463",
"C. c #C7D865",
"Z. c #CDDA63",
"A. c #CBD36A",
"S. c #CEDB6C",
"D. c #C4D06A",
"F. c #D2DA65",
"G. c #D1D56C",
"H. c #D2DA69",
"J. c #D4DA68",
"K. c #C8CF72",
"L. c #C3CC7A",
"P. c #CDD272",
"I. c #CEDB74",
"U. c #C4D27D",
"Y. c #D3D77C",
"T. c #D4DA79",
"R. c #CFE167",
"E. c #D3E06C",
"W. c #DBE369",
"Q. c #CFE070",
"!. c #817C83",
"~. c #888787",
"^. c #928589",
"/. c #948992",
"(. c #9B9793",
"). c #A79D9D",
"_. c #B7B181",
"`. c #A9A49C",
"'. c #9891A1",
"]. c #A89DA5",
"[. c #B7B3A8",
"{. c #ABA9B3",
"}. c #B0ACBB",
"|. c #C9CA87",
" X c #CED582",
".X c #CCCE9F",
"XX c #CEE384",
"oX c #D4E281",
"OX c #C6C6BC",
"+X c #C1BBC3",
"@X c #CACDCB",
"#X c #D3CDD1",
"$X c #E2DEDB",
"%X c #E6E1DD",
"&X c #DEDDE3",
"*X c #E2DCE5",
"=X c #EAE4EA",
"-X c #F2EEEB",
";X c #ECF2EE",
":X c #F4F2ED",
">X c #F4F1E0",
",X c #ECEBF5",
"<X c #F1EEF8",
"1X c #F3F2F6",
"2X c #F9F5F4",
"3X c #F5FBF6",
"4X c #FEFCF5",
"5X c #F5F3FC",
"6X c #FCF6FA",
"7X c #FEFDFD",
"8X c #F6FCFC",
/* pixels */
"C.w.A.S.h.h.F.A.P. XU.|.q.q.XX0.0.T.w.K. XY.<.Y.G.W.G.V.n.m.I.C.",
"C.w.B.S.V.j.Z.n. X8.1.r.8.8.8.r.8.|.q.e.:.,.2.N.v.G.V.V.n.n.H.B.",
"C.5.B.Z.j.j.n.<.f B I m t > X X $ < 1 B z f M f O.M.G.G.B.5.S.k.",
"C.5.b.C.j.Z.b.&.U =.c   X X $ X   X X 2 L R M M o.N.n.j.V.5.l.k.",
"C.7.h.j.j.F.b.@.b 8   5 ~.@X8X8X<X{.H   : Y v I ] v.A.j.a.4.g.f.",
"B.a.B.h.s.j.v.@.b : 5 {.8X;X8X8X7X,X*XQ . e K b ' N.A.h.j.4.f.c.",
"B.B.C.s.t.j.a.#.4 . Q 5X7X8X3X8X5X7X7X+X. . L E | M.A.j.l.5.f.f.",
"w.B.C.s.y.g.n.$.% + +X7X1X;X(.J &X5X6X6XW . r l  .K.G.h.l.s.s.f.",
"C.k.h.s.g.u.V.@.@   1X5X7X~.$   6 7X7X4X(.. r h { v.a.p.a.5.h.k.",
"C.7.h.s.g.t.A.@.. . 7X7X8X/ X X o :X4X7X).. r l ' v.n.p.n.s.k.k.",
"C.f.s.s.x.p.A.@.  2 =X7X5X~ + X   7X7X6X).  r l | M.V.p.V.B.Z.C.",
"k.7.h.s.l.p.A.@.,   = O * X O ;   7X6X2X].  v E  .M.V.p.j.h.C.k.",
"k.3.h.s.Z.a.M.@.h 2 * O     ; O H 7X7X6X`   L ( ' M.j.t.j.s.h.h.",
"k.f.s.s.j.5.A.@.l Y J e + 0 ~ ~ @X8X7X#X5 . L l ] M.j.p.h.s.f.7.",
"k.3.k.h.Z.a.M.@.d C u 7 X ;.3X8X7X4X%XQ . : K N [ V.l.u.h.s.h.f.",
"c.s.h.s.Z.a.A.%.E P 7 2   `.8X3X7X7X[.    r j ) [ H.z.d.l.f.k.k.",
"x.i.g.z.p.s.A.P.|..Xu 4 X ;.7X7X7X7X-X[.. . _.|.P.J.t.d.z.3.s.u.",
"i.y.p.j.s.j.S.M.|.-.g c   . - O }.7X7X>Xx @ X.<.v.J.p.t.d.p.g.c.",
"i.y.p.d.d.j.A.9.B X   .     O * S 7X7X4X_ . w M O.J.d.t.s.s.g.l.",
"z.d.j.j.d.j.a.+.> X ! ! ! 6 O O = 7X6X4X).. , f [ V.F.j.Z.k.k.7.",
"J.j.V.a.d.V.v.%.  @ 4X7X-X/ *     7X2X:X).. 3 M Z M.J.j.F.B.k.h.",
"V.a.V.a.p.Z.n.$.  . 4X7X2XQ     + 3X4X7X/.. 3 h { A.V.p.l.h.k.Z.",
"n.a.G.p.p.Z.A.:.o   -X7X7X~.o X G :X4X7X^.= F E [ P.V.t.C.h.h.R.",
"J.J.J.d.p.j.B.$.>   #X=X7X%X^ Q OX4X4X4XW . Y _  .P.V.d.R.7.4.k.",
"j.p.j.a.t.a.v.:.4 @ !.7X7X2X7X2X7X1X7X+X- - !.(  .P.a.j.z.l.3.l.",
"z.p.d.j.d.j.v.:.C   - '.6X7X7X7X7X6X=X` = e !._ ..Y.V.j.j.s.u.c.",
"z.d.d.j.d.G.M.#.P e O - ~.*X<X6X,X{.H = 9 !.).E ..T.G.j.t.f.f.c.",
"x.i.d.j.j.F.N.@.l ! 0   O o     #   . # S _ T M | P.j.p.t.f.f.c.",
"d.i.d.j.d.V.v.#.d P P n 8 % X X X % g R ! K N A { n.a.d.p.l.f.f.",
"d.i.j.n.a.j.n.&.p a d s p p a y d i p a i s i w } b.p.j.h.C.l.f.",
"x.d.F.Z.p.V.Z.9.q.L.e.<.&.9.0.&.q.q.9.9.<.N.N.<.*.z.p.V.V.C.k.C.",
"z.z.H.J.j.V.J.n.I.K.0.I.E.C.B.Q.I.I.A.C.G.P.M.G.z.W.p.F.Z.B.C.Z."
};
