/* XPM */
static char *MS_5[] = {
/* columns rows colors chars-per-pixel */
"32 32 211 2 ",
"   c #020201",
".  c #0B0301",
"X  c #040902",
"o  c #0B0D01",
"O  c #040409",
"+  c #0B040B",
"@  c #0B0B0B",
"#  c #120A08",
"$  c #0D1200",
"%  c #0C110E",
"&  c #131300",
"*  c #161508",
"=  c #0B0B11",
"-  c #141014",
";  c #1C1513",
":  c #221D00",
">  c #1D2202",
",  c #222500",
"<  c #29260A",
"1  c #2D3409",
"2  c #33370A",
"3  c #3A3C0C",
"4  c #322810",
"5  c #3E3518",
"6  c #271C20",
"7  c #3F3E2A",
"8  c #312531",
"9  c #3F3438",
"0  c #222826",
"q  c #403C00",
"w  c #413E39",
"e  c #443828",
"r  c #3D4215",
"t  c #44490B",
"y  c #444916",
"u  c #464B1C",
"i  c #484514",
"p  c #544F18",
"a  c #515414",
"s  c #464628",
"d  c #544B28",
"f  c #475025",
"g  c #5B5429",
"h  c #565523",
"j  c #44423E",
"k  c #574B3F",
"l  c #525133",
"z  c #635E2A",
"x  c #625A35",
"c  c #665D3B",
"v  c #7F7E2E",
"b  c #646134",
"n  c #69613C",
"m  c #6B6436",
"M  c #706A38",
"N  c #76773D",
"B  c #494446",
"V  c #5A5644",
"C  c #574D55",
"Z  c #505052",
"A  c #564D46",
"S  c #625744",
"D  c #6A5F4D",
"F  c #6D6D49",
"G  c #716944",
"H  c #736A49",
"J  c #79704F",
"K  c #6E6253",
"L  c #6B6A56",
"P  c #726857",
"I  c #777357",
"U  c #655F63",
"Y  c #5C6164",
"T  c #6C6562",
"R  c #65656C",
"E  c #696C6C",
"W  c #616360",
"Q  c #766C6C",
"!  c #767267",
"~  c #6D6E73",
"^  c #646672",
"/  c #7E7F7C",
"(  c #727274",
")  c #736C74",
"_  c #827A55",
"`  c #817B7D",
"'  c #858337",
"]  c #86833B",
"[  c #89873E",
"{  c #8C8A3D",
"}  c #94943E",
"|  c #898640",
" . c #8C8944",
".. c #908C4F",
"X. c #9EA859",
"o. c #A2AA5B",
"O. c #A9AA55",
"+. c #A7B05D",
"@. c #ACB659",
"#. c #B7BA53",
"$. c #8D8175",
"%. c #968A7C",
"&. c #A4AD63",
"*. c #B0AC6D",
"=. c #AAB764",
"-. c #B4BD64",
";. c #B3B86B",
":. c #BCBB69",
">. c #BABD70",
",. c #BDCE4D",
"<. c #BECC52",
"1. c #BECC5B",
"2. c #BDC659",
"3. c #BDCB63",
"4. c #B9C66A",
"5. c #B4C171",
"6. c #BAC576",
"7. c #C3CE4E",
"8. c #C2D14D",
"9. c #C2CD54",
"0. c #C3CE5C",
"q. c #C4D355",
"w. c #CAD554",
"e. c #C6DA52",
"r. c #CBD955",
"t. c #C5D35B",
"y. c #CAD55C",
"u. c #C6D95B",
"i. c #CBDA5C",
"p. c #D2DC5D",
"a. c #D1DB56",
"s. c #CDE25B",
"d. c #CBE055",
"f. c #C2C564",
"g. c #C4CC64",
"h. c #C9CE65",
"j. c #C3C56A",
"k. c #C5CC6B",
"l. c #C8CC6C",
"z. c #C6D263",
"x. c #CBD464",
"c. c #CCDA63",
"v. c #C6D36B",
"b. c #CBD469",
"n. c #CDDA6A",
"m. c #C6DA67",
"M. c #D0D466",
"N. c #D2DB64",
"B. c #D1D669",
"V. c #D3DB6B",
"C. c #D8DF6F",
"Z. c #C4CC70",
"A. c #CCCC74",
"S. c #C4C77B",
"D. c #C5D473",
"F. c #CED273",
"G. c #C9DB71",
"H. c #CCD97D",
"J. c #D1DC74",
"K. c #D2D37B",
"L. c #D4D97C",
"P. c #CFE167",
"I. c #DBE36A",
"U. c #897E82",
"Y. c #88898A",
"T. c #978D88",
"R. c #979287",
"E. c #8B8C90",
"W. c #948C91",
"Q. c #8D9193",
"!. c #939394",
"~. c #9B9291",
"^. c #9A9B93",
"/. c #A89F9A",
"(. c #A79F94",
"). c #B0A39B",
"_. c #ABA396",
"`. c #999CA5",
"'. c #A2A3A1",
"]. c #ADA7A6",
"[. c #ADAEB3",
"{. c #AFABB9",
"}. c #B2B1B9",
"|. c #C4CE80",
" X c #C9CB80",
".X c #C4D182",
"XX c #D4D48C",
"oX c #C5BFC3",
"OX c #C7C6CA",
"+X c #D2D5CC",
"@X c #D7D7D8",
"#X c #DEE1D8",
"$X c #E5E2DE",
"%X c #E5E9DB",
"&X c #DEDBE2",
"*X c #E9E4E9",
"=X c #E5E5E8",
"-X c #F4EFEC",
";X c #F4F4EE",
":X c #FFFBEF",
">X c #E8E5F1",
",X c #F2EEF5",
"<X c #F0EEFB",
"1X c #F4F4F4",
"2X c #FBF5F4",
"3X c #FEFDF4",
"4X c #F5F4FD",
"5X c #FBF7FF",
"6X c #F7F9FE",
"7X c #FEFDFE",
"8X c #F7FAF1",
/* pixels */
"b.g.b.V.t.q.s.c.v.D.D.G.m.1.,.m.3.6.3.m.A.XXA.A.M.C.x.x.b.v.J.z.",
"x.g.x.n.t.w.c.0.H.D.5.5.6.4.5.4.6..X-.5.>. X>.j.f.B.x.M.h.k.P.z.",
"y.9.y.N.t.i.z.-.N r $   $ X X $ X     $ & q p a O.h.M.x.z.1.n.m.",
"i.9.t.y.u.c.3.+.u X $ $ X X         X > . : x z ..h.h.x.z.1.c.e.",
"w.7.w.t.q.c.3.o.1 $ ^.7X1X7X7X6X7X5X7X$X; . S d | f.h.y.y.<.r.e.",
"w.w.t.w.q.i.3.X.1 X '.7X6X7X7X7X4X4X7X5X. . K G ] j.b.y.y.<.e.d.",
"w.y.y.t.<.y.0.o.3   R.3X8X7X1X7X7X5X7X,X+ . K x | A.n.0.i.<.e.e.",
"t.t.i.q.<.c.z.o.2 X ^.7X3X+X! Y ) R U ` . ; K g [ A.B.t.c.t.q.e.",
"p.y.y.0.i.9.v.X.5   `.5X7X[.          . # A D g ' f.g.<.0.9.t.t.",
"x.0.0.t.c.1.D.&.1   }.7X7X}.= =   ; j W T.T.S d [ f.x.9.0.y.m.i.",
"x.0.y.0.c.9.D.o.$   OX7X6XE.O %   O . . C ~._ c [ l.x.9.x.z.c.i.",
"n.x.h.t.i.q.v.X.,   OX7X1X[.Q.@X7X*X~.- # Q T.G  .h.x.9.y.t.m.u.",
"b.h.x.9.p.9.v.o.&   OX7X7X#X%X3X1X7X7XW.O 6 ` _ [ l.y.9.t.t.u.t.",
"x.x.0.q.i.<.z.o.>   +X1X1X7X3X3X7X1X7X2XB . k m [ h.y.7.w.<.q.t.",
"x.x.t.0.r.q.z.X.X   >X7X7X=XY.E $X7X2X7XU.. e x { x.p.8.r.1.u.e.",
"x.t.t.q.i.q.v.X.$   4X7X7XQ.    j ;X3X3XT.. e M } x.p.8.i.e.u.u.",
"m.s.3.P.,.1.P..XX X 4X6X7XY %     7X3X3X(.. c XXK.V.7.w.a.7.8.e.",
"3.1.1.u.e.1.G..X1 X Y ^ ~ 0       2X3X:X_.. c *.j.N.7.7.8.7.r.d.",
"m.<.,.s.e.d.3.6.f   O O     X % + 7X7X:X/.. 5 z O.B.a.7.q.<.i.d.",
"P.u.1.e.,.u.3.X.> $ E.`.Q.B X     7X7X-X/.. < i { y.p.y.N.u.u.q.",
"n.z.z.t.<.i.3.X.X   7X7X7XE     O 7X7X;X).. 4 z v h.V.y.N.z.u.t.",
"z.z.z.t.t.c.v.&.$   7X4X6XE   @ O ,X7X7X].. 4 z ] b.x.9.c.t.u.c.",
"b.z.v.z.1.n.D.&.X   >X6X7XE.O   Z *X3X7XT.. d n  .F.x.2.c.t.t.P.",
"n.c.n.1.<.x.v.&., * OX6X7X=X/ ( @X7X7X2XT . P _ { F.x.t.C.1.<.m.",
"w.9.9.w.7.q.g.o.2 $ / 7X7X1X7X6X5X<X7XoX. ; %._ | A.h.y.N.i.,.i.",
"a.8.w.w.7.y.0.+.b   * !.2X7X7X7X7X5X*X) . w T.J  .L.h.y.y.t.8.s.",
"a.7.w.a.w.i.g.o.F 7   - Y.&X4X5X>X{.C + 8 W.).H  .L.M.t.q.q.e.s.",
"p.w.w.y.y.M.g.o.d I w     @     O . . # B Q P x [ F.x.9.9.u.e.d.",
"p.0.h.y.t.M.f.O.h F L V 7 &       > l I J V c N ' h.0.q.9.i.u.e.",
"M.0.x.h.0.y.h.@.t u f u y y u y u t t t e q i q } 0.9.y.w.y.u.e.",
"M.h.B.M.w.y.y.9.-.S.|.;.@.4.6.@.@.4.4.-.:.S.A.:.#.B.9.i.x.c.u.i.",
"B.M.C.M.7.a.p.0.F.Z.Z.H.J.c.z.P.u.c.c.x.L.XX XK.M.I.7.N.i.z.u.c."
};
