/* XPM */
static char *MS_6[] = {
/* columns rows colors chars-per-pixel */
"32 32 205 2 ",
"   c #020201",
".  c #040B01",
"X  c #0B0C04",
"o  c #040309",
"O  c #0C0B0C",
"+  c #0A0408",
"@  c #120F00",
"#  c #081200",
"$  c #141402",
"%  c #181E03",
"&  c #11110D",
"*  c #1E1808",
"=  c #110A14",
"-  c #100E19",
";  c #1C1C19",
":  c #171214",
">  c #080614",
",  c #231C12",
"<  c #152000",
"1  c #1E221A",
"2  c #252A00",
"3  c #3B3A07",
"4  c #292715",
"5  c #343910",
"6  c #1C1C28",
"7  c #221A27",
"8  c #292B27",
"9  c #2B2C2C",
"0  c #2E2932",
"q  c #3B3330",
"w  c #3B3D27",
"e  c #403D10",
"r  c #413C36",
"t  c #3A4408",
"y  c #3E4618",
"u  c #3B4029",
"i  c #47470B",
"p  c #414316",
"a  c #444C14",
"s  c #494F18",
"d  c #54551C",
"f  c #515B12",
"g  c #63661F",
"h  c #484927",
"j  c #514E23",
"k  c #4E5625",
"l  c #53532B",
"z  c #55592A",
"x  c #595C25",
"c  c #45423C",
"v  c #4A4636",
"b  c #5B5A34",
"n  c #575C33",
"m  c #615F36",
"M  c #5F672C",
"N  c #5C6234",
"B  c #606639",
"V  c #666B39",
"C  c #5A5748",
"Z  c #5C5C5A",
"A  c #525157",
"S  c #625D4D",
"D  c #6A6A48",
"F  c #706C46",
"G  c #6F7046",
"H  c #74734D",
"J  c #767E43",
"K  c #676852",
"L  c #716D57",
"P  c #787A52",
"I  c #5C5563",
"U  c #626266",
"Y  c #696867",
"T  c #6F7163",
"R  c #79756B",
"E  c #6A6671",
"W  c #797779",
"Q  c #7C8235",
"!  c #7E8639",
"~  c #7B8058",
"^  c #82863A",
"/  c #848A3D",
"(  c #808A33",
")  c #919C3C",
"_  c #868D41",
"`  c #8A8E41",
"'  c #8B9340",
"]  c #83805F",
"[  c #939943",
"{  c #9EA65A",
"}  c #9FA857",
"|  c #A2AA5C",
" . c #A7A959",
".. c #AABA5E",
"X. c #AAB257",
"o. c #B1B55E",
"O. c #B1B854",
"+. c #838860",
"@. c #84827E",
"#. c #A8AD61",
"$. c #ABB764",
"%. c #B4BA6D",
"&. c #B1B76D",
"*. c #B2BE77",
"=. c #ABB672",
"-. c #BDCD4E",
";. c #BECD51",
":. c #BDC65E",
">. c #BAC45D",
",. c #BDD252",
"<. c #BED15B",
"1. c #BECB63",
"2. c #B6C56D",
"3. c #BBC36D",
"4. c #B7C86C",
"5. c #BFC760",
"6. c #BBC474",
"7. c #BAC975",
"8. c #C1CD4F",
"9. c #C1D14D",
"0. c #C1CE54",
"q. c #C9CE54",
"w. c #C3CC5B",
"e. c #CBCE5B",
"r. c #C1C459",
"t. c #C4D254",
"y. c #CAD355",
"u. c #C4DB55",
"i. c #C5D35B",
"p. c #CAD55B",
"a. c #C5DA5B",
"s. c #CBDA5D",
"d. c #CCDA56",
"f. c #D1D45C",
"g. c #D3DA5A",
"h. c #C3CC64",
"j. c #C5CF69",
"k. c #C4D362",
"l. c #CBD463",
"z. c #C5D963",
"x. c #CDDA63",
"c. c #C5D46A",
"v. c #CAD46B",
"b. c #C6D969",
"n. c #CCDA6D",
"m. c #D1D465",
"M. c #D2DB63",
"N. c #D6D46B",
"B. c #D1DC6B",
"V. c #C2CD75",
"C. c #C3C57A",
"Z. c #C6CB77",
"A. c #CDD474",
"S. c #C5D27C",
"D. c #CBD47B",
"F. c #C9D974",
"G. c #D1DC74",
"H. c #D3D97B",
"J. c #D6D878",
"K. c #D6E369",
"L. c #D6E266",
"P. c #CDE172",
"I. c #D5E87C",
"U. c #929393",
"Y. c #979799",
"T. c #9B9C9B",
"R. c #9A9C97",
"E. c #8C8B87",
"W. c #9FA19A",
"Q. c #ACB282",
"!. c #A0A096",
"~. c #9D9DA3",
"^. c #A2A4A4",
"/. c #A6A6A7",
"(. c #ADB0A9",
"). c #B2B4AE",
"_. c #B0ABB5",
"`. c #B8B9B5",
"'. c #AAA9B1",
"]. c #BDC683",
"[. c #CEDA8D",
"{. c #C6D383",
"}. c #C6C99A",
"|. c #D5E288",
" X c #BEBECA",
".X c #C6BEC9",
"XX c #C5C6C3",
"oX c #C9CACB",
"OX c #C8C7CD",
"+X c #D8D5D7",
"@X c #DCD6E0",
"#X c #E0DDE6",
"$X c #ECEBEC",
"%X c #E7E8E7",
"&X c #F1EEEE",
"*X c #F2F1EF",
"=X c #EFEEF4",
"-X c #E9E7F4",
";X c #F3ECF5",
":X c #EFF0F5",
">X c #F4F4F4",
",X c #F9FBF5",
"<X c #F5F5FC",
"1X c #FEFDFE",
"2X c #F6F9F4",
/* pixels */
"v.h.v.B.w.u.x.x.c.D.V.F.1.1.I.<.b.P.b.b.D.D.D.J.m.M.d.a.c.c.P.1.",
"l.w.v.B.y.p.s.h.|.4.=.2.7.4.4.S.7.$.$.2.&.&.%.$.w.g.i.s.k.<.P.z.",
"l.q.k.x.i.s.k.>.f M V k y < # . # < y M x x d g X.l.i.s.a.<.z.z.",
"s.0.i.p.u.z.1.X.~ +.u   . # . .   .     r L m d [ r.p.i.<.,.z.u.",
"d.9.i.i.i.x.h.} N w   ; @.oX1X1X:XoXE &   r L V ^ :.k.u.a.,.u.u.",
"d.9.y.i.t.l.1.} N $ - '.1X:X1X1X1X1X1X^.=   S j ^ h.l.u.a.,.u.u.",
"y.y.s.q.;.s.1.| 5   Y <X1X1X1X1X<X1X1X=XI + C m / j.x.t.s.,.u.u.",
"i.p.s.q.-.a.c.#.< X `.1X<X2X^.U U.%X2X1X_.  , B / v.x.u.a.,.<.a.",
"l.i.i.i.x.;.c.| .   *X2X1XXX      !.1X&X+X+ * l ^ r.i.-.;.<.z.<.",
"m.i.l.e.s.w.v.{ .   1X1X>X^.X c   W 2X1X$X  + s ^ h.i.-.i.<.b.z.",
"v.l.h.i.s.;.c.|     <X1X1XW.. 8   8 Z W E + , m / j.l.0.z.z.b.b.",
"l.l.i.i.x.w.c.| $   1X1X1XY.  & o . O   o 0 R L _ j.l.0.z.<.z.b.",
"l.l.h.i.s.0.c.|     1X1X<X~.U '.1X$XOXE > 7 @.] / j.s.,.z.<.z.k.",
"l.h.i.i.d.t.c.} # X 1X1X<XOX+X1X1X1X1X@XI o q b / h.d.-.<.<.<.<.",
"x.h.e.q.d.;.c.|     <X1X1X1X1X2X2X1X1X1X_.  , G ` l.s.-.a.<.b.z.",
"l.l.i.y.d.t.l.} $   1X1X1X%X).L W.1X1X,X#XO $ G / v.s.u.s.a.z.z.",
"x.i.l.s.8.t.v.{.@   1X1X1X).    X ).,X1X1X    }.D.B.-.u.d.8.i.y.",
"l.:.w.s.9.y.B.S.    <X<X<X^.  1   R.,X1X1X. X Q.7.G.t.9.i.0.s.g.",
"l.:.w.s.t.s.c.*..   1X1X1X^.  8 o U.,X1X1Xo   N | n.i.-.i.q.s.x.",
"B.i.i.i.t.s.1.#.    <X1X1X~.  0 o T.2X1X<X.   h ` c.x.s.M.p.p.i.",
"B.l.l.e.i.s.5.{ X X 1X1X<XY.  0 . /.,X1X,XO   N V j.B.i.x.l.l.i.",
"v.w.l.w.y.l.j.#.    1X1X>XR.X ,   ^.,X1X1Xo   z ( c.l.;.l.i.l.B.",
"l.l.h.e.q.x.v.#.$ + >X1X*X/.&   1 (.,X,X$X  $ N ) v.s.-.x.w.e.B.",
"m.M.M.w.0.f.j. .2   +X;X1X1XE.Y U.$X1X,XXX  4 P _ v.s.i.L.w.0.s.",
"e.q.y.e.q.q.h.#.e @ E <X1X;X1X<X1X:X1X1XU O C H / b.t.i.g.p.;.M.",
"d.q.y.y.q.d.h.#.F @ : /.1X1X1X<X1X1X:X~.- o T ~ _ G.i.i.s.i.t.M.",
"g.q.y.y.y.m.h. .H v + = W .X;X1X-X XU 6 > A W.P _ G.s.t.t.p.i.g.",
"g.q.f.f.f.m.h. .j ] r + +   + + O o o O 0 Z T z ! F.a.t.0.s.p.M.",
"f.q.e.f.e.f.r. .g P L S h $       < u K T K D M ( h.0.u.0.l.l.m.",
"f.e.m.f.q.f.e.O.i i 3 e i e s a s a y y p u y t ) w.;.s.i.v.l.v.",
"m.m.N.N.e.y.f.r.o.C.C.C.C.j.D.$.2.7.7.7.=.*.].4.O.x.-.s.l.v.A.A.",
"N.N.N.N.e.f.N.e.J.A.%.D.J.>.<.F.<.1.F.P.{.[.[.V.z.K.-.M.v.j.A.H."
};
