/* XPM */
static char *MS_7[] = {
/* columns rows colors chars-per-pixel */
"32 32 216 2 ",
"   c #040200",
".  c #090202",
"X  c #030900",
"o  c #0C0C03",
"O  c #03010B",
"+  c #0D060B",
"@  c #140D01",
"#  c #120A09",
"$  c #140809",
"%  c #0C1300",
"&  c #161200",
"*  c #1E1804",
"=  c #11100E",
"-  c #190E13",
";  c #150A14",
":  c #1D1413",
">  c #1A1418",
",  c #1A1618",
"<  c #211A07",
"1  c #271B16",
"2  c #2A2700",
"3  c #33290E",
"4  c #3A3A03",
"5  c #35310C",
"6  c #222615",
"7  c #2B2818",
"8  c #37351B",
"9  c #332B14",
"0  c #332F24",
"q  c #3B382D",
"w  c #343233",
"e  c #3D383E",
"r  c #3D3236",
"t  c #2F2627",
"y  c #443D2D",
"u  c #423626",
"i  c #443B36",
"p  c #3F4006",
"a  c #4C4B04",
"s  c #42490E",
"d  c #47460D",
"f  c #434B10",
"g  c #49461A",
"h  c #494514",
"j  c #534F12",
"k  c #585A17",
"l  c #55520B",
"z  c #45422B",
"x  c #534D24",
"c  c #554D29",
"v  c #5D562B",
"b  c #5B5626",
"n  c #4A4438",
"m  c #554D3C",
"M  c #554B3A",
"N  c #595536",
"B  c #635C34",
"V  c #62583C",
"C  c #635D29",
"Z  c #69652C",
"A  c #656122",
"S  c #7F7E2C",
"D  c #6B633E",
"F  c #726C3C",
"G  c #76713C",
"H  c #797536",
"J  c #4C4348",
"K  c #544B47",
"L  c #595246",
"P  c #5A5648",
"I  c #5B5856",
"U  c #635D48",
"Y  c #645B52",
"T  c #656345",
"R  c #666048",
"E  c #6A6347",
"W  c #736E44",
"Q  c #7A724E",
"!  c #7B7649",
"~  c #6D6555",
"^  c #69625B",
"/  c #63635A",
"(  c #7B7253",
")  c #655F6D",
"_  c #6D6E67",
"`  c gray43",
"'  c #736B62",
"]  c #6E7267",
"[  c #787468",
"{  c #757175",
"}  c #7D7F75",
"|  c #827B4A",
" . c #847D63",
".. c #85796D",
"X. c #837B7A",
"o. c #86843A",
"O. c #89873C",
"+. c #8B893E",
"@. c #888734",
"#. c #949636",
"$. c #87872F",
"%. c #8C8849",
"&. c #8A8744",
"*. c #979643",
"=. c #A9AA4C",
"-. c #A6A554",
";. c #ADAD55",
":. c #A7A559",
">. c #ACAB5A",
",. c #B6BA5C",
"<. c #B7BC46",
"1. c #8A8364",
"2. c #90896F",
"3. c #8E8577",
"4. c #948A7A",
"5. c #9C947E",
"6. c #ABAB66",
"7. c #BDBE66",
"8. c #B7BA6A",
"9. c #AAA571",
"0. c #B7BB74",
"q. c #BCBB7B",
"w. c #BBBA75",
"e. c #BDCC4D",
"r. c #BDCD53",
"t. c #B9C35E",
"y. c #BECD5C",
"u. c #BFD159",
"i. c #B6C363",
"p. c #B9C662",
"a. c #BAC767",
"s. c #BDC473",
"d. c #BBC975",
"f. c #B6C372",
"g. c #C3CE4E",
"h. c #C3CE44",
"j. c #C4D24D",
"k. c #C9D44F",
"l. c #C3CC53",
"z. c #C1C55D",
"x. c #C5CD5B",
"c. c #C9CD5E",
"v. c #C5D254",
"b. c #CAD555",
"n. c #C7D856",
"m. c #CDD955",
"M. c #C5D35B",
"N. c #CAD45B",
"B. c #C7D95C",
"V. c #CBD95C",
"C. c #D0DA55",
"Z. c #D1D75C",
"A. c #D1DA5D",
"S. c #CEE25E",
"D. c #C3C661",
"F. c #C4CC63",
"G. c #C9CD65",
"H. c #C2C56C",
"J. c #C9CD69",
"K. c #C7C968",
"L. c #C6D363",
"P. c #CCD463",
"I. c #C7D962",
"U. c #CBDB64",
"Y. c #C5D36A",
"T. c #CDD26B",
"R. c #CCDA6B",
"E. c #D1D564",
"W. c #D2DA63",
"Q. c #D2DB6C",
"!. c #C7C57A",
"~. c #CBCE7A",
"^. c #C5C472",
"/. c #C5D272",
"(. c #CCD273",
"). c #CDDB74",
"_. c #CADC78",
"`. c #D2DA7C",
"'. c #D5D87B",
"]. c #CFE16B",
"[. c #D3E169",
"{. c #D8E264",
"}. c #DAE57D",
"|. c #8B8787",
" X c #938985",
".X c #93948B",
"XX c #999489",
"oX c #938E92",
"OX c #999496",
"+X c #A09488",
"@X c #A59A94",
"#X c #AAA3A4",
"$X c #ACABA6",
"%X c #BCB4BE",
"&X c #B7B3B3",
"*X c #C5BE90",
"=X c #C9C989",
"-X c #D2D386",
";X c #D2D588",
":X c #D7E185",
">X c #C4B8C2",
",X c #CAC3C3",
"<X c #C5C2C8",
"1X c #D3C7D7",
"2X c #DAD8D2",
"3X c #E6DCE7",
"4X c #E3E0E6",
"5X c #EAE5E9",
"6X c #F6F1ED",
"7X c #F6F4F1",
"8X c #FDFCF5",
"9X c #F5F3FD",
"0X c #FCF5FE",
"qX c #FEFDFE",
"wX c #F9F3F7",
"eX c #F0E9F5",
/* pixels */
"P.x.P.W.N.b.W.E.'.7.;X:Xf._.d._.}.y.p._.-X=X!.'.T.W.b.m.T.Y.`./.",
"I.l.P.W.b.N.Z.c.~.0.6.f.s.d.d.f.i.d.d.s.w.q.q.8.D.W.Z.N.L.Y.)./.",
"V.v.N.Z.b.A.c.,.a 2 X   X X X X X % X X & 5 v A ;.c.Z.N.M.F.R.Y.",
"m.l.v.b.k.A.c.;.2 . * .   O X X       . @ . 3 b *.c.N.b.M.y.U.I.",
"b.g.b.k.k.Z.c.-.. @ 3XqXqXqXqXqXqXqXqXqX>X- * V O.D.N.b.N.r.V.B.",
"b.k.k.k.k.C.x.-.. . 0XqX9X9X9XqX0XqXeXqX1X. @ B o.D.V.b.N.r.B.B.",
"N.b.b.k.h.k.x.:.o . 9XqXqXqXqXqX9XqXqXqX1X; 1 D O.J.P.v.B.v.n.M.",
"N.N.Z.k.h.C.c.>.*   |.) { / ` ] ` 5XqXwX>X. 1 B +.J.W.v.V.M.M.n.",
"P.M.N.v.C.g.E.-.g 9 . >     X X I qX6X8XX.@ u v o.z.x.e.v.y.M.M.",
"P.L.c.v.C.g.E.-.B ~ I { / ] q % .X8X8XwXJ . M x O.D.c.g.N.M.I.I.",
"T.N.N.x.Z.g.T.:.B 3. XOX.X.X6 O 2X8XqX2X; - ..B +.Y.P.l.P.I.U.U.",
"P.L.N.x.Z.l.T.-.W XX@X|.|.} X X wXqX0X#X. i @XQ &.G.N.x.N.M.I.I.",
"V.M.x.x.A.x.T.:.W 2.X.X.} I X _ qXqXqX{ + J +XQ O.G.N.l.N.M.M.M.",
"V.N.N.N.Z.x.T.:.x U L ~ / 7 X $XqXqX5Xe ; J ~ B O.G.N.g.M.l.n.u.",
"N.b.M.x.E.l.T.-.b E z P n o X 2X8XqX,Xo - i m v +.T.V.g.N.u.n.n.",
"m.v.b.x.V.x.T.=.Z ! 8 z p X 6 qX8X8X$X. 1 n V F #.P.A.n.V.B.B.B.",
"S.v.N.m.g.g.E.T.;X=Xg v 9 X ] qXwXqXI o i 8 *X!.T.A.g.N.P.y.M.M.",
"e.e.v.V.b.Z.W.T.w.9.x [ *   &XqXqXeX, . L z 9.^.c.A.k.l.G.y.I.R.",
"n.r.M.L.x.E.E.7.H W 9 ' . . eX9XqX%X  , Y i x k =.Z.Z.l.M.F.R.I.",
"].u.F.P.x.P.D.>.F 1.y K . J qXqXqXOX. w L M b j #.c.E.N.R.Y.I.M.",
"_.Y.Y.Y.M.P.D.-.! 5.^ t . oXqXqX0XI   n q m E C S G.W.N.W.I.I.L.",
"Y.u.Y.Y.x.E.J.>.G  .' # . &XqXqX4X=   P y n V g o.T.E.l.P.M.I.R.",
"Y.L.I.p.l.A.E.>.| 1.' # : 2X8XwX<X  * T n U 1.W &.T.P.e.N.u.x.].",
"R.R.R.M.g.C.G.;.G 2.L . L 8X8X8X|.  y P n ~ 4.! %.(.V.v.{.M.r.I.",
"L.y.M.v.g.v.x.>.| XXi . #X6XqXqXw + 0 M K ....( &.~.c.b.V.n.e.U.",
"I.u.M.M.v.N.D.>.F 4.1 + >XqXqX5XO ; L ' '  X4.| %.'.N.k.m.n.j.S.",
"].u.I.P.N.E.K.6.Q  X+ ; 3XqX9X>XO e |.oX X@X+X1.%.'.E.v.v.n.v.S.",
"I.u.I.I.P.T.K.:.c ' 1 . 1       O w ' Y Y Y U v o.(.P.x.r.B.n.S.",
"B.y.L.P.N.T.D.:.Z Q ~ 3 & X X 6 z T T T U U D Z $.F.x.N.x.I.V.B.",
"B.u.I.Y.x.P.G.,.l 4 d 4 p b p p f p p p g h a a #.c.l.L.G.Y.I.I.",
"B.L.R.P.x.N.Z.z.,.7.H.a.i.p.a.i.i.i.i.d.w.8.^.D.<.A.l.R.(./.Y.).",
"B.I.Q.W.x.Z.W.c.T.}.D.U.[.U.].u.u.]._.:X~.^.'.W.C.{.l.Q.(././.)."
};
