/* XPM */
static char *MS_9[] = {
/* columns rows colors chars-per-pixel */
"32 32 214 2 ",
"   c #020201",
".  c #0B0203",
"X  c #030901",
"o  c #0A0C02",
"O  c #060209",
"+  c #0B020B",
"@  c #0B0C0C",
"#  c #110B09",
"$  c #100A00",
"%  c #0F1400",
"&  c #0A1109",
"*  c #121301",
"=  c #141A00",
"-  c #171C08",
";  c #170C10",
":  c #1A1A1A",
">  c #1F1514",
",  c #281F00",
"<  c #1D2403",
"1  c #262B03",
"2  c #3C3E0E",
"3  c #333603",
"4  c #2B2910",
"5  c #332714",
"6  c #3B3E11",
"7  c #32280D",
"8  c #242725",
"9  c #392D23",
"0  c #302F2D",
"q  c #312531",
"w  c #383336",
"e  c #3C3E29",
"r  c #403C00",
"t  c #443925",
"y  c #463C36",
"u  c #3B4208",
"i  c #3F4311",
"p  c #41450C",
"a  c #444B0D",
"s  c #55520D",
"d  c #494615",
"f  c #565F1C",
"g  c #4A5216",
"h  c #554D24",
"j  c #564E2A",
"k  c #5B5C25",
"l  c #58502A",
"z  c #545B2E",
"x  c #5A5828",
"c  c #454631",
"v  c #584D3E",
"b  c #5A5433",
"n  c #484C2A",
"m  c #615C24",
"M  c #625A37",
"N  c #7F7E2E",
"B  c #676638",
"V  c #716C34",
"C  c #76703E",
"Z  c #493E44",
"A  c #4E4242",
"S  c #5D5A44",
"D  c #585755",
"F  c #54494D",
"G  c #665F4C",
"H  c #685F5C",
"J  c #6A5D54",
"K  c #6A6947",
"L  c #6F7044",
"P  c #76774D",
"I  c #686257",
"U  c #726659",
"Y  c #726B58",
"T  c #797557",
"R  c #736A49",
"E  c #5B5E65",
"W  c #645862",
"Q  c #5F6160",
"!  c #6A676A",
"~  c #6D7171",
"^  c #7C7D7F",
"/  c #757871",
"(  c #76706A",
")  c #827B4F",
"_  c #837B58",
"`  c #76804C",
"'  c #7F8652",
"]  c #858336",
"[  c #86843A",
"{  c #89863D",
"}  c #8B893D",
"|  c #94943E",
" . c #8C8A44",
".. c #888540",
"X. c #979643",
"o. c #9DA859",
"O. c #9EA758",
"+. c #A3AB56",
"@. c #A2AA5B",
"#. c #ACAD51",
"$. c #A7B05E",
"%. c #AEB954",
"&. c #B4BB59",
"*. c #8A8D6E",
"=. c #918A60",
"-. c #92877C",
";. c #A7AE64",
":. c #B4BD62",
">. c #B9BA68",
",. c #B8BC71",
"<. c #A6B069",
"1. c #C1BD7E",
"2. c #BDCD4D",
"3. c #BECC52",
"4. c #BCCF5B",
"5. c #BCD05D",
"6. c #B4C364",
"7. c #BECC62",
"8. c #B9C36C",
"9. c #BDC86B",
"0. c #BAC574",
"q. c #B9C970",
"w. c #BFD074",
"e. c #C2CE4D",
"r. c #C3D24C",
"t. c #C8D74C",
"y. c #C2CE53",
"u. c #C3CD5C",
"i. c #C2C65D",
"p. c #C5D354",
"a. c #C9D554",
"s. c #C6DA53",
"d. c #CBD955",
"f. c #C5D35B",
"g. c #CBD45B",
"h. c #C7D95B",
"j. c #CBDA5C",
"k. c #D1D65E",
"l. c #D2DB5B",
"z. c #D1DB56",
"x. c #CDE25B",
"c. c #CBE055",
"v. c #D4E056",
"b. c #C4CC63",
"n. c #C8CE66",
"m. c #C8CD69",
"M. c #C3CA67",
"N. c #C6D263",
"B. c #CBD563",
"V. c #C6D862",
"C. c #CCDB64",
"Z. c #C6D36C",
"A. c #CBD46A",
"S. c #CDDA6A",
"D. c #C7D868",
"F. c #D2DB63",
"G. c #D3DB6A",
"H. c #D1D565",
"J. c #C8CA78",
"K. c #C6D372",
"L. c #CED273",
"P. c #CCDB75",
"I. c #C8D57C",
"U. c #D2D47B",
"Y. c #D3DA78",
"T. c #CFE167",
"R. c #D7E169",
"E. c #D1E572",
"W. c #868886",
"Q. c #8E908F",
"!. c #989696",
"~. c #988C8B",
"^. c #A39B8E",
"/. c #A59C97",
"(. c #A89E9D",
"). c #9EA09F",
"_. c #A0A29F",
"`. c #B0A39B",
"'. c #9E98A3",
"]. c #A49CA1",
"[. c #A99DAB",
"{. c #A396A8",
"}. c #AAA5A8",
"|. c #ADB4AD",
" X c #AEAEB0",
".X c #AFABB9",
"XX c #B1B1B3",
"oX c #BEBBBC",
"OX c #B9B9B7",
"+X c #D5D984",
"@X c #C8C389",
"#X c #E0E183",
"$X c #C3BFC2",
"%X c #C8C6CB",
"&X c #C9CAC5",
"*X c #CFCDD2",
"=X c #CED4CA",
"-X c #DFDEE4",
";X c #E5DDE8",
":X c #DFE3E6",
">X c #E6EEE2",
",X c #E9E5EC",
"<X c #EFF6EE",
"1X c #F4F1ED",
"2X c #FEFAEE",
"3X c #ECEAF2",
"4X c #F1EEF6",
"5X c #F2F3F4",
"6X c #F9F4F3",
"7X c #FCFCF3",
"8X c #F4F3FB",
"9X c #F9F6FE",
"0X c #FEFDFE",
"qX c #F6F8F7",
/* pixels */
"B.u.C.F.f.s.j.C.w.P.w.w.5.5.E.5.7.S.N.7.Y.+X&.R.H.F.g.g.g.N.Y.N.",
"B.u.B.H.f.a.V.f.+Xq.8.0.q.6.6.w.q.q.:.8.;.,.1.1.i.k.g.k.n.b.S.V.",
"A.u.A.C.g.V.N.6.f B L n i < X X % 1 3 x x M m s #.H.g.g.N.f.C.V.",
"C.y.b.B.f.S.b.@.' *.c     X & X   o X 4 J T l m X.g.g.g.f.3.j.h.",
"d.e.p.p.f.C.b.o.z e   8 W.%X0X0X,X XD . ; H A B [ i.B.a.p.2.h.s.",
"a.a.p.a.p.j.7.o.z * : XX0X5X0X0X0X8X;X! + Z J h [ b.H.p.g.p.s.s.",
"a.a.d.p.2.j.b.+.u X ! <X0X0X9X0X3X0X0X$X+ + U B { n.B.p.j.p.f.s.",
"a.d.d.p.2.j.N.@.= o OX0X5X<X).Q %X0X0X9XH . v h } m.F.p.g.p.f.h.",
"B.f.n.f.j.u.Z.o.    5X0X0X}.X   0 0X0X9X].. t h ] M.u.e.y.y.f.V.",
"A.n.n.u.S.u.K.@.X   3X8X8X!.    . 7X7X6X].. t h [ b.g.y.u.n.B.V.",
"A.n.A.u.V.u.Z.;.X   8X0X0X).  @   7X0X6X[.+ y M { m.H.y.B.N.S.D.",
"A.N.u.g.B.3.Z.o.X o 8X0X0X!.    @ 0X0X9X[.. Z _ { m.g.y.V.N.B.D.",
"H.g.p.p.d.y.N.+.X o 9X0X0X!.  o   0X0X0X{.O Z _ { n.g.y.f.u.D.N.",
"B.f.g.p.d.e.D.O.X . 9X0X0X_.      4X0X9X'.+ y b { n.g.e.g.4.N.f.",
"C.N.f.y.j.y.Z.@.X   3X8X8X|.: X D qX0X9X{.. 9 b  .n.j.r.f.f.N.N.",
"A.b.f.g.j.p.D.o.=   3X8X0X5XW./ &X7X6X0X[.. 5 ) | H.l.a.d.h.V.h.",
"T.5.s.c.2.2.T.@Xz X  X9X0X<X0X7X7X7X7X7X-.. K @XL.F.r.t.z.e.p.t.",
"5.2.5.s.t.2.T.w.P X Q :X0X7XqX>XoX0X7X2X^.o j 1.m.F.e.r.a.e.s.j.",
"c.2.2.s.t.s.h.6.` %   ~ |.>X>X=X0 8X6X1X/.. , V #.H.g.e.s.3.j.d.",
"T.2.s.s.r.s.4.o.B -     X &       4X0X7X/.. 7 d } n.k.g.C.h.h.p.",
"T.N.f.h.p.h.4.o.= X ^ E ~ 8 X X O 0X0X0X~.. t k N m.G.f.F.V.f.f.",
"D.f.f.5.p.S.Z.;.% X 9X8X0X~   @   8X0X6X(.. 7 h [ m.H.u.C.f.h.C.",
"A.N.Z.f.4.A.K.<.*   :X9X0XQ.    D 9X7X7X(.. t M } L.H.y.C.5.f.T.",
"H.A.S.N.3.V.Z.;.1 X $X8X0XqX^ ~ *X9X0X6XH . K =.} L.A.f.G.f.3.V.",
"g.y.p.p.e.f.M.$.u   I 0X0X,X0X8X0X4X0X$X+ , -._ ..L.n.g.F.j.2.j.",
"d.r.a.a.e.d.b.+.P = @ }.0X0X0X0X0X9X,X~ + y ~.P  .U.n.f.g.f.r.x.",
"z.t.a.a.a.l.b.@.L c   : W.%X3X0X;X.XF + q ~.`.R  .Y.H.g.y.h.s.x.",
"z.a.p.k.d.H.i.+.h / y       O @ O + . # A ! U M ..L.A.y.y.s.s.c.",
"k.y.f.g.g.g.i.+.m P K S c %   X X < b Y U G M R [ n.u.f.y.h.s.d.",
"k.y.g.k.y.g.u.%.3 p 3 i i u g u g a a i r d d r X.i.y.d.f.j.h.s.",
"k.g.k.k.t.a.z.3.&.K.0.:.&.M.Y.&.%.4.7.:.>.1.m.1.&.k.y.j.g.V.f.j.",
"k.k.F.k.t.t.z.a.A.S.M.S.E.3.h.h.N.C.V.Z.U.U.U.U.H.R.e.F.C.V.f.T."
};
