/* XPM */
static char *M_1[] = {
/* columns rows colors chars-per-pixel */
"32 32 203 2 ",
"   c #020300",
".  c #090602",
"X  c #040900",
"o  c #0B0B01",
"O  c #000009",
"+  c #0A050A",
"@  c #0C0A0B",
"#  c #050908",
"$  c #0D1100",
"%  c #0F110C",
"&  c #131402",
"*  c #141A00",
"=  c #1A1B02",
"-  c #12140B",
";  c #1D1A0B",
":  c #030014",
">  c #0B081A",
",  c #141914",
"<  c #1D1C12",
"1  c #141613",
"2  c #1E2104",
"3  c #1D2019",
"4  c #232600",
"5  c #2B2E00",
"6  c #2B3200",
"7  c #333502",
"8  c #3A3D04",
"9  c #323A01",
"0  c #2A2816",
"q  c #2B2B26",
"w  c #2A2730",
"e  c #262630",
"r  c #36392E",
"t  c #423D27",
"y  c #3F4200",
"u  c #3E430D",
"i  c #3F4310",
"p  c #3E4229",
"a  c #404400",
"s  c #42440C",
"d  c #484B08",
"f  c #494912",
"g  c #4A4B17",
"h  c #4F541E",
"j  c #474E22",
"k  c #515138",
"l  c #6F7424",
"z  c #656A34",
"x  c #757835",
"c  c #484C42",
"v  c #595B4E",
"b  c #575B54",
"n  c #5A5D58",
"m  c #494953",
"M  c #737745",
"N  c #696C53",
"B  c #6B6B5B",
"V  c #676858",
"C  c #706E55",
"Z  c #6B7052",
"A  c #797B55",
"S  c #575763",
"D  c #666965",
"F  c #6A6965",
"G  c #66676A",
"H  c #656969",
"J  c #6C6B6C",
"K  c #626262",
"L  c #6C736C",
"P  c #737364",
"I  c #6F7075",
"U  c #777E77",
"Y  c #7E7E74",
"T  c #69647B",
"R  c #7F8545",
"E  c #B5C23E",
"W  c #808543",
"Q  c #8C9447",
"!  c #92964B",
"~  c #99A156",
"^  c #AAB659",
"/  c #B0B851",
"(  c #B8BF5F",
")  c #B4BF59",
"_  c #94946E",
"`  c #888C7D",
"'  c #8F9277",
"]  c #989C7D",
"[  c #A9B06A",
"{  c #B5BD6C",
"}  c #B5BB61",
"|  c #B7BF72",
" . c #BCCC4C",
".. c #BCC953",
"X. c #BFCB59",
"o. c #BAC455",
"O. c #B5C263",
"+. c #BAC362",
"@. c #BCC36A",
"#. c #BECA6C",
"$. c #B8C66A",
"%. c #BCC473",
"&. c #BEC67C",
"*. c #B8C572",
"=. c #C3CE4D",
"-. c #C2D24E",
";. c #C3D84F",
":. c #C3CE54",
">. c #C3CD5B",
",. c #C4D352",
"<. c #C9D553",
"1. c #CBDD57",
"2. c #C5D35D",
"3. c #CAD55B",
"4. c #CDDB5C",
"5. c #C5D957",
"6. c #D0DC5C",
"7. c #D2DC57",
"8. c #D2E25C",
"9. c #C2CB63",
"0. c #C4CD6B",
"q. c #C5D262",
"w. c #CCD463",
"e. c #CDD963",
"r. c #C5D16C",
"t. c #CAD36B",
"y. c #CCD96B",
"u. c #C6DB66",
"i. c #D1DC63",
"p. c #D3D76C",
"a. c #D2DA6B",
"s. c #C4CC72",
"d. c #C4CB79",
"f. c #C5D171",
"g. c #CBD372",
"h. c #CCDB75",
"j. c #CEDF79",
"k. c #C8D37B",
"l. c #D2D774",
"z. c #D1DA73",
"x. c #D2DA7C",
"c. c #CBE163",
"v. c #D3E268",
"b. c #D9E574",
"n. c #D9E67C",
"m. c #919694",
"M. c #999B96",
"N. c #94979B",
"B. c #969C9A",
"V. c #999C99",
"C. c #989694",
"Z. c #8E8F86",
"A. c #9FA59B",
"S. c #BABE83",
"D. c #A1A59A",
"F. c #ADAB9C",
"G. c #AFB29C",
"H. c #B6B49F",
"J. c #9B9BA5",
"K. c #9FA3A2",
"L. c #A5A8A5",
"P. c #B4B7B9",
"I. c #B5B6A4",
"U. c #C0BEBB",
"Y. c #BAC0BE",
"T. c #C4CC85",
"R. c #C5CB8A",
"E. c #CDD588",
"W. c #D4DC88",
"Q. c #C2C791",
"!. c #CCD19B",
"~. c #C0C3B8",
"^. c #C6C8C7",
"/. c #CED1C8",
"(. c #D7D8C8",
"). c #D4D1CC",
"_. c #E0DADE",
"`. c #DEE5DE",
"'. c #E1E1D5",
"]. c #D9DBE2",
"[. c #DDE1E2",
"{. c #E3E5E3",
"}. c #E5E6E8",
"|. c #EBEDEC",
" X c #EBEAE7",
".X c #F1EDEF",
"XX c #EFF1E2",
"oX c #EFF2E9",
"OX c #F2F5E7",
"+X c #F3F5EB",
"@X c #F5F8EF",
"#X c #FBFCED",
"$X c #EFEDFA",
"%X c #F3EDF9",
"&X c #EFF3F4",
"*X c #F4F5F3",
"=X c #F9F6F4",
"-X c #F6FAF5",
";X c #FCFDF4",
":X c #F6F3FC",
">X c #FAF6FC",
",X c #F6FBFB",
"<X c #FDFEFD",
/* pixels */
"g.t.a.3.8. .,.y.h.h.j.u.u.X.c. .#.#.X.#.k.d.+.n.X.4.8.;. .v.5.q.",
"l.w.e.,.4.3.v.#.&.*.*.*.$.O.O.$.o.$.*.&.&.d.{ O.h.y.o.u.b.y.0.h.",
"a.2.3.:.,.e.W.Q * X     X X $ h z z 6 * X . o X 6 ~ E.d.*.[ R 6 ",
"w...<.3.X.t.*.9   2     X % X q ' k   *     . X X 5 Q.!.M 4 &   ",
"2.:.4.i.X.r.*.X 2 '.<X<X<X].e   R e o ~.<X=X<X;XN X ] A $ * V I.",
"i.3.<.i.X.h.T.    #X<X<X<X<XS O H O   |.<X<X=X<XP X Z.$   F.;X;X",
"e.3.=.5...e.E.o o ;X;X<X|.<XZ.# b X <  X>X<X@X;XN   N o Z #X#XOX",
"3.4.=.5...#.T.X   #X=X<X|.<XM.  c - v <X=X<X;X;XB   j X G.#XOX;X",
"6.:.<.=.>.t.T.    ;X<X<X<X:X}.  3 X B.&X<X<X<X<XB X X   OXOX<XF.",
"6.=.<.,.2.r.T.X   <X<X<X<X<X}.  1   L.:X<X<X<X<XD       *X-X<XK.",
"7.-.<.-.>.r.T.  X ;X<X>X<X<X*X, #   ^.<X$X,X<X<XH       ,X<X<XJ.",
"7.=.<.<.2.f.T.X   ;X<X=X{.;X;Xb     [.<X].,X<X<XH O     <X<X<XN.",
"4.:.<.:.2.0.T.    #X<X=X~.#X;X`   , &X<XY.-X,X<XH       <X<X<Xm.",
"6.-.<.,.q.f.R.X X <X<X<XA.;X;XA.  c ,X,Xm.-X,X<XD       <X,X,Xm.",
"6.:.<.,.q.d.R.X   <X:X<XI <X<X^.  U -X,XL ,X<X<XH       <X<X<XB.",
"6.-.<.,.>.f.R.    <X$X<Xm >X<X&X  A.-X-Xn ,X<X,XH       ,X,X<XB.",
"1.-.;.5.u.#.R.X   ,X<X,X# ,X,X<X# P.*X<X  ,X<X<XF   o   +X;X@XA.",
"1.-.;.;.u.#.T.X   -X<X<X  '.,X,Xn [.<X-XX <X<X<XH       ;X;X;XM.",
"1. .;.5.X.f.R.X   -X<X<X  Y.-X,XK.|.,X/.  <X<X<XG       <X<X<XN.",
"1.-.;. .u.f.T.    ;X<X<X  m.;X<X^.|.@XD.  ,X<X>XG O     ;X=X<XJ.",
"4. .;.5.q.r.T.X   -X<X<XO D ,X<X,X<X<XZ.O <X<X>XJ       #X;X<XC.",
"4.,.,.5.2.f.T.X   ;X<X<X  r ;X<X<X<X<XK + <X>X<XJ       ;X;X=XN.",
"4.:.,.5.q.r.T.  X ;X<X<X  % OX<X<X>X<Xq   <X>X<XJ   ;   OX;X<X~.",
"e.:.<.2.q.r.T.X . ;X<X<X    {.%X<X>X*X@   <X>X<XF   r   (.+X<X.X",
"q.3.:.i.>.9.R..   <X%X<XO O P.<X<X=X)..   <X>X>XJ   C . P <X.X>X",
"w.3.:.e.>.s.R.  . >X%X:X> > J.:X>X=XU.  + <X<X=XF & Z.& . F.<X<X",
"w.i.:.3.w.l.T.o .  X<X:X: : T >X<X.XC.. + _.<X<XB . _ A o o C H.",
"w.3.:.3.w.l.d.7   <   @ O w O + . . .   . <   . . 4 S.R.R 7 o . ",
"p.>.=.3.w.>.%.x = .     ; k & o   o = t 0 o . . = ! W.0.g.} l y ",
"p.>.:.<.3.=.0.^ a 8 f i u h 9 s s f s g g 8 s d ! g.9.:.w.a.g.x.",
"p.p.7.=.7.=.w.0.{ { %.@.#.#.0.+.( 9.( ( @.@.g.} / b.3.5.:.a.l.g.",
"p.p.w.=.7.<.p.w.l.g.h.t.r.o.a.o.:.6.i.6.p.p.l.9.i.i.E 7.6.a.9.h."
};
