/* XPM */
static char *M_3[] = {
/* columns rows colors chars-per-pixel */
"32 32 226 2 ",
"   c #030200",
".  c #0A0502",
"X  c #020900",
"o  c #0C0B02",
"O  c #0E0B0C",
"+  c #060409",
"@  c #110C01",
"#  c #120D0E",
"$  c #0D1200",
"%  c #141403",
"&  c #1A1401",
"*  c #171901",
"=  c #1D1C02",
"-  c #14120D",
";  c #1E1C0F",
":  c #100E16",
">  c #141213",
",  c #1A1717",
"<  c #221C0E",
"1  c #292401",
"2  c #262607",
"3  c #2B3201",
"4  c #2F3505",
"5  c #363B02",
"6  c #3B3C07",
"7  c #29261B",
"8  c #292815",
"9  c #342C17",
"0  c #3B3918",
"q  c #292625",
"w  c #322829",
"e  c #3B352E",
"r  c #383628",
"t  c #3B3936",
"y  c #413F04",
"u  c #40391D",
"i  c #453E3B",
"p  c #483A26",
"a  c #3E430B",
"s  c #3C442F",
"d  c #414106",
"f  c #46470D",
"g  c #51500D",
"h  c #494A17",
"j  c #56531E",
"k  c #57591A",
"l  c #4E5319",
"z  c #49462A",
"x  c #4E5025",
"c  c #5B5729",
"v  c #4A433B",
"b  c #444437",
"n  c #554A3B",
"m  c #5E593B",
"M  c #595533",
"N  c #4E5136",
"B  c #5F6422",
"V  c #6A6C2A",
"C  c #686734",
"Z  c #6C7039",
"A  c #7E7E3E",
"S  c #443F45",
"D  c #4B4947",
"F  c #524C41",
"G  c #594B40",
"H  c #59544A",
"J  c #585556",
"K  c #4B4D4B",
"L  c #655C4D",
"P  c #695C46",
"I  c #635D57",
"U  c #5E605D",
"Y  c #6A6A4B",
"T  c #686647",
"R  c #746E4E",
"E  c #6D7043",
"W  c #7E7F46",
"Q  c #646254",
"!  c #696B54",
"~  c #66635C",
"^  c #686659",
"/  c #69705E",
"(  c #76725D",
")  c #6A6563",
"_  c #6A6768",
"`  c #706A66",
"'  c #73746A",
"]  c #7A7668",
"[  c #7A7675",
"{  c #847E5C",
"}  c #847E7B",
"|  c #7C8439",
" . c #88893F",
".. c #838643",
"X. c #878A47",
"o. c #8B9340",
"O. c #899256",
"+. c #9A9A5C",
"@. c #8B914F",
"#. c #9DA45E",
"$. c #A2A35D",
"%. c #ABAF51",
"&. c #B1AF5A",
"*. c #B7BB5C",
"=. c #ADB757",
"-. c #8B8969",
";. c #949B63",
":. c #8B857A",
">. c #948E7A",
",. c #958F6B",
"<. c #99A264",
"1. c #B6BA6C",
"2. c #BABC67",
"3. c #AEB577",
"4. c #BCBD73",
"5. c #B9BF7A",
"6. c #A4A67E",
"7. c #BCCB4D",
"8. c #B7C848",
"9. c #BED24B",
"0. c #BDCE52",
"q. c #B4C251",
"w. c #BDD153",
"e. c #BCC36B",
"r. c #BAC365",
"t. c #BEC37D",
"y. c #BEC176",
"u. c #C1D24E",
"i. c #C4CD53",
"p. c #C9CE54",
"a. c #C2C75A",
"s. c #C3CC5A",
"d. c #CBCE5B",
"f. c #C4D254",
"g. c #CBD455",
"h. c #CCDB55",
"j. c #C5D35B",
"k. c #CBD45B",
"l. c #CADA5C",
"z. c #C6DA52",
"x. c #D4DA5B",
"c. c #D1E75E",
"v. c #C2C663",
"b. c #C9CF62",
"n. c #C4CC6C",
"m. c #CACD6C",
"M. c #C2C56C",
"N. c #CBD463",
"B. c #CCDB63",
"V. c #C3D169",
"C. c #CCD46B",
"Z. c #CEDD6A",
"A. c #C6D564",
"S. c #D1D563",
"D. c #D2DB65",
"F. c #D1D569",
"G. c #D1DB6B",
"H. c #D9DD67",
"J. c #CACD74",
"K. c #C5CA79",
"L. c #CCD572",
"P. c #CAD379",
"I. c #D4D973",
"U. c #D5DB7B",
"Y. c #D5D879",
"T. c #CDE063",
"R. c #D6E365",
"E. c #E3EE76",
"W. c #837D85",
"Q. c #898586",
"!. c #938C85",
"~. c #948E89",
"^. c #908589",
"/. c #979689",
"(. c #959193",
"). c #9B999B",
"_. c #928D93",
"`. c #A09F9B",
"'. c #9FA09B",
"]. c #A5A597",
"[. c #BCBE91",
"{. c #AAA5A7",
"}. c #B1ADAE",
"|. c #B7B4AA",
" X c #B3AFB7",
".X c #B4B3B3",
"XX c #BFC683",
"oX c #C4CD8C",
"OX c #C2CA84",
"+X c #CDD285",
"@X c #CAD38B",
"#X c #D3DA85",
"$X c #CACE9A",
"%X c #CBD591",
"&X c #D7DC99",
"*X c #DAE080",
"=X c #D0D4A2",
"-X c #DDE2A8",
";X c #C6C4C7",
":X c #D0D1CC",
">X c #DCD9D7",
",X c #CFCACC",
"<X c #DDE4D4",
"1X c #E3E1DC",
"2X c #F0EFDD",
"3X c #E7E7CF",
"4X c #DDDCE4",
"5X c #DAD4E2",
"6X c #ECEAEB",
"7X c #E7E6EB",
"8X c #F1EDEF",
"9X c #F1EEE7",
"0X c #FCFEE4",
"qX c #F5F4EC",
"wX c #F5FBEC",
"eX c #FDFDEC",
"rX c #F8F5EE",
"tX c #F2ECF3",
"yX c #F5EFF9",
"uX c #F3F4F3",
"iX c #F9F6F5",
"pX c #FDFEF4",
"aX c #F5F3FD",
"sX c #FBF6FD",
"dX c #FEFDFE",
"fX c #E7EAF1",
/* pixels */
"B.l.8.E.9.9.T.w.L.r.P.P.L.L.w.I.L.U.C.I.v.J.J.Y.F.H.g.g.k.b.Y.m.",
"e.L.L.w.q.A.V.P.P.t.t.t.e.r.r.=.e.e.2.J.2.4.4.M.a.S.g.x.k.b.I.C.",
"X X j +.K.@X<.k 1 $   . 8 x Z Z C c k V j j j g %.S.d.k.d.s.F.F.",
"  o   1 XXE X *     . o X   2 -.>.-.{ ,.R R P V @.d.k.k.d.i.F.C.",
"dXdXI % ^ o * >.>XtXdX5X).t   w } ~.>.>.` P P M ..v.j.k.j.a.N.N.",
"dXsX_     % |.pXdXdXdXdXsX,Xi   I ^.W.!.` I L m ..v.C.k.k.s.N.D.",
"tXdX` X o -.2XeXdXtXtXdXdXdX}.  w W.~.~.} ) ) T ..m.D.f.k.s.N.j.",
"( ! 8     |.pX9XqX_._ ,XtXdXtX  O } /.!.` I P G X.L.G.f.k.k.j.N.",
"    =   % 1XiXdX X  > # dXsXdXJ . I /.:.} } I N ..n.7.f.7.7.N.Z.",
";.+.6.o   dXdX6X_.#   # 6XdXyX[   ] I w O   . = B n.A.l.j.0.s.j.",
"@X%X=Xo   dXdXdX X+ , - (.W.{.S o I     > + >   3 e.B.l.l.l.j.A.",
"| 3.%X0   ,XsXdXtXt   @     #   w J   _.dXyXtX< o e.T.w.f.l.j.B.",
"X a O.E . /.pXeXdX}.,   q D D ` [ D   `.dXdXdX  X e.R.7.0.f.0.j.",
"Z X 4 ;.  4 3XpXrXiX`.O O @ F ^ H 8   {.sXdXdX  X 2.A.w.l.A.j.A.",
"0X    [.x   ] 0X9XdXdX;Xq @ 7 z T b * ^ (.(.(.$ 3 r.j.w.B.B.A.T.",
"0Xo X $X3.* X /.dXsXdXdX,Xq   = 0 0 o   .   X   V U.A.f.j.A.w.C.",
"0X% X &XXX<.*   ^.yXdXdXtX>X    r M n 1 9 1 C $.Y.d.p.p.p.H.S.a.",
"  X a oXXX-X-.o + W.aXsXdXpX].  & z p p P c +.4.m.S.x.p.p.d.S.d.",
"X h <.O.4 X *     : Q.4XdXiXqX$ . G G P P u c g &.F.H.d.p.p.S.S.",
"oXoX3.4 $ X X O : + O ).pXpXdX~ . p i G G z M k  .v.S.d.g.p.S.d.",
"oXoX<.X Y wXpXdX  :   s wXpXdX'.. w v v n Q m m W J.N.f.x.g.x.k.",
"O.<.O.X / pXuXdX+     + pXpXwX).  e n e < 9 9 0 W #XG.7.x.g.x.D.",
"X X X X K dXfXdXK X   s wXwXdX_.  r % %     %   c #XT.w.h.9.k.Z.",
"/ U 7 X X fXdXaX4XW.' <XwXwXpXK O i   Q /.]./.  3 y.C.9.h.9.j.A.",
"dXdXU     .XdXyXsXaXdXuX6XdX;X+ O ,   ].wXwXdX    %Xe.z.c.9.w.T.",
"dXaX[     s :XdXsXdXdXsXdX7X_ + t q   '.pXdXiX  X oXr.w.c.z.z.T.",
"dX7X'   N   r ~.>XdXdX4X XK + q (.J # !.iXdX1X% $ XXe.w.z.z.z.T.",
"  o   * [.h X X .     .     > K _ s     . X ;   3 t.Z.w.z.z.l.T.",
". . f $.&X4.+.h 1   . & 9 z Q Y Q T s 2     o 1 k P.A.w.w.z.l.j.",
"K.y.J.#X*.n.J.$.y g h y y d y y f a 0 a x z 5 5 o.L.A.f.w.T.j.z.",
"m.E.x.i.k.N.v.m.*.M.2.*.m.F.m.v.r.y.K.t.5.OXy.#Xq.I.k.k.f.D.f.j.",
"H.d.x.x.R.p.D.F.Y.m.F.F.d.N.D.d.F.C.P.P.+X+XM.J.Z.D.f.l.k.R.k.B."
};
