/* XPM */
static char *M_H[] = {
/* columns rows colors chars-per-pixel */
"32 32 228 2 ",
"   c #1C1C03",
".  c #171808",
"X  c #1B171A",
"o  c #290D1E",
"O  c #24161A",
"+  c #35161B",
"@  c #331601",
"#  c #1B2308",
"$  c #222800",
"%  c #353506",
"&  c #3C3718",
"*  c #392417",
"=  c #181521",
"-  c #241524",
";  c #2B1925",
":  c #361727",
">  c #391429",
",  c #1F2427",
"<  c #282427",
"1  c #382827",
"2  c #3A3629",
"3  c #352C38",
"4  c #44121B",
"5  c #5E1A1B",
"6  c #52110F",
"7  c #4B2913",
"8  c #7C261E",
"9  c #642017",
"0  c #4A1A2B",
"q  c #4A1628",
"w  c #551C2A",
"e  c #521D33",
"r  c #48242A",
"t  c #58262A",
"y  c #4C2431",
"u  c #47363A",
"i  c #543738",
"p  c #50332A",
"a  c #68252C",
"s  c #772929",
"d  c #662636",
"f  c #792A38",
"g  c #703231",
"h  c #3E4415",
"j  c #38420E",
"k  c #454205",
"l  c #434917",
"z  c #565917",
"x  c #56491F",
"c  c #615C1C",
"v  c #5E691B",
"b  c #48492C",
"n  c #5E4E27",
"m  c #555624",
"M  c #444336",
"N  c #564235",
"B  c #53592F",
"V  c #6A5333",
"C  c #5B6329",
"Z  c #596531",
"A  c #686735",
"S  c #676B2C",
"D  c #462F42",
"F  c #453C44",
"G  c #573D46",
"H  c #7C3440",
"J  c #3C4544",
"K  c #544A49",
"L  c #50504E",
"P  c #6A5D49",
"I  c #62565A",
"U  c #5F684A",
"Y  c #5D6653",
"T  c #676848",
"R  c #756B44",
"E  c #7B7B4A",
"W  c #656657",
"Q  c #6F754F",
"!  c #584F63",
"~  c #695E63",
"^  c #696568",
"/  c #6F796C",
"(  c #77777A",
")  c #757767",
"_  c #852937",
"`  c #952D3C",
"'  c #893338",
"]  c #953538",
"[  c #8A2C29",
"{  c #A9373B",
"}  c #BF3835",
"|  c #B53A2E",
" . c #C73A3D",
".. c #D93B3C",
"X. c #DF3C2B",
"o. c #E43C3A",
"O. c #9B4E3A",
"+. c #A7483B",
"@. c #BF4031",
"#. c #C2433A",
"$. c #D8443A",
"%. c #E9432C",
"&. c #E84738",
"*. c #F24938",
"=. c #8A3546",
"-. c #953441",
";. c #8C2F41",
":. c #AE3A43",
">. c #A83544",
",. c #B63E44",
"<. c #C43D43",
"1. c #ED3F40",
"2. c #B84147",
"3. c #B74658",
"4. c #827D53",
"5. c #C64545",
"6. c #D84746",
"7. c #D04B52",
"8. c #EA4846",
"9. c #F24744",
"0. c #EC5748",
"q. c #E2575C",
"w. c #C96952",
"e. c #EF6851",
"r. c #FA6A63",
"t. c #F27267",
"y. c #7E8C38",
"u. c #778155",
"i. c #7D837B",
"p. c #7F8869",
"a. c #85853E",
"s. c #858B47",
"d. c #888856",
"f. c #93974B",
"g. c #9AA457",
"h. c #A8A758",
"j. c #AEB459",
"k. c #B4B859",
"l. c #ACBC4F",
"z. c #848C6A",
"x. c #858978",
"c. c #8C927A",
"v. c #95937A",
"b. c #928B61",
"n. c #98A361",
"m. c #A9AB62",
"M. c #BCBC6A",
"N. c #B5B865",
"B. c #ACBE78",
"V. c #B0B272",
"C. c #FF8577",
"Z. c #F6916D",
"A. c #FFA279",
"S. c #BCCD4E",
"D. c #BCCD53",
"F. c #BCC858",
"G. c #BDD455",
"H. c #BDD45B",
"J. c #BFD952",
"K. c #BAD64E",
"L. c #B8C667",
"P. c #BCD665",
"I. c #B9C977",
"U. c #BED177",
"Y. c #BFE170",
"T. c #C6CD4D",
"R. c #C7CD4A",
"E. c #C4D24E",
"W. c #CBD14C",
"Q. c #C9DC4F",
"!. c #D1D44E",
"~. c #C4CC54",
"^. c #C4CC5C",
"/. c #CBCD5B",
"(. c #C8CB54",
"). c #C5D354",
"_. c #CBD454",
"`. c #C4D45C",
"'. c #CCD35B",
"]. c #C4DA5D",
"[. c #CBD95C",
"{. c #C8DA55",
"}. c #D2D65D",
"|. c #D4DA5B",
" X c #D4D857",
".X c #CAE15A",
"XX c #D2E25E",
"oX c #C4CD63",
"OX c #C5C96B",
"+X c #C6C866",
"@X c #C4D363",
"#X c #CCD462",
"$X c #C3DA64",
"%X c #CCDC63",
"&X c #C2D26C",
"*X c #CCD46B",
"=X c #C8DC6B",
"-X c #D2D562",
";X c #D3DB65",
":X c #D2D46B",
">X c #D2DB6C",
",X c #DADB66",
"<X c #C3CC73",
"1X c #CDCC71",
"2X c #C6C678",
"3X c #CBD273",
"4X c #C9D87A",
"5X c #D4D472",
"6X c #D5D874",
"7X c #D4CC73",
"8X c #D1E168",
"9X c #C8E272",
"0X c #D6E176",
"qX c #CEE269",
"wX c #7E768D",
"eX c #837880",
"rX c #878D80",
"tX c #968C94",
"yX c #989495",
"uX c #93908C",
"iX c #FF9987",
"pX c #FFAF8D",
"aX c #BBCA88",
"sX c #BFCE95",
"dX c #C7CC89",
"fX c #D3D18B",
"gX c #CADA81",
"hX c #D5E082",
/* pixels */
"-X>X%XH.K.J.[.$X&X4XI.U.4X0X5X+X7X1X5X5X7X7X7X+X-X'.].%X=X:X-X}.",
"/.'.`.).{..X[.oX9XaXI.B.I.I.+XM.M.N.N.N.M.M.2X7XoX}.%X#X@XoX/./.",
"-X-X}.(.T._.^.j.v S Z C Z S S c A S S m m m z z j.#X-X`.oXoX#X#X",
"/.}.!.R.R._.@Xj.S Q p.c.v.v.b.4.z.z.z.z.) W B m a.#X-X^.^.@X>X#X",
"'.'.W.W.T.#XL.f.Z W / ( 4.x.uXc.uXc.i.i.( ^ U T s.1X:X'.`.`.qX$X",
";X).Q._.#X*Xg.m     X = 3 K ^ x.^ J , = = = , 2 4.2X:X/.#XD.].G.",
"H.S.Q.).F.I.g.m $ + o o ; ! ( yXi.L < - = ; 1 p A M.L.oX%XT.{.J.",
"G.{.8X~.g.g.d.B 6 w e 0 0 G ~ ( ^ J ; > r > : * K V.N.oX;XK..X.X",
"].).T.6Xl A V V 8 [ ` _ 9 p i i u i t a g f a w i A C 4XP.S.).Q.",
"[.[.).3X% p p g +.#.7.5.] g t 4 r a f ' ] ] g w * p $ I.P.H.{.{.",
"[.[.`.<X. O r s 5.0.r.q.w.O.9 6 5 [ { 2.5.2.;.d + O   B.4X@X[.'.",
"`.].$X<X. O r ' @.0.r.C.Z.w.+.[ [ [ 2.6.6.<.-.d > X . aXgX$X#X[.",
"$X`.H.U.# = 0 ' @.0.t.iXpXZ.w.+.| #.6.1.1.} ;.d > O # sX4XF.@X@X",
"=XH.D.U.. - q s @.0.iXpXpXA.t.6. .&.8..... .` d > X # aX<XF.`.$X",
"3XoX~.<X  o q _ @.0.C.iXA.Z.e.0.&.8.9.o.<.<.` d : X   dXoXG.%X].",
">X~.F.<X$ - e -.5.e.r.e.e.0.*.0.&.*.9.9.8.5.-.t r O $ I.&X].8X`.",
"W.).P.I.# . y g 2.6.9.o.%.%.X.&.8.9.1.<.7.:._ d +   $ aX9XoX-XT.",
" XE.U.U.B b N g ] #...X.%.%.o.*.8.8.1.<.2.` a t i b l I.&XP.;X}.",
"XXW.H.4Xy.u.R g 9 [ { ..9.*.%.*.8.6.,.:.` a q r V b.y.OXH.D.#X%X",
"XXR.G.qXS.P.g.n @ 5 _ 3.q.0.&.&.$.5.{ ` d 4 + * R M.k.>X`.J.P.$X",
",X(./.|.~.>XN.A * r d =.,.<.1.8.5.{ _ d w > ; & R fX5X;X].G.P.P.",
":X^.'.}.E.;XL.s.b K D e f >.<.<.>.` d w : 3 J b E fX6X/.'.G.P.Y.",
">X~.}.'.(.#XY.n.U ^ F ; q _ >.>.;.d q + < L W U d.dX7X^.'.`.Y.Y.",
"0X^.'._.~.*X4Xn.Q / L - > e f ;.f e + O 1 ^ c.u.s.2X:X/.,X{.$X$X",
"H.G.).).T./.L.m.T c.^ F 3 > e G e y > 3 K ) x.Q s.1X/. X X_.T.%X",
"H.G.{._.(.[.OXm.R v.x.^ ! D ; = 1 D K ~ ) x.z.E s.6X'.!.!.!.T.;X",
"9XH.].{.'.,X+Xm.R uXtXtXwX! 3 = u I 4.tXyXyXv.4.s.6X'.W.R. X/.,X",
"=XP.`.].'.-X+Xh.n R ~ ^ ~ L 3 = < F I ~ ~ ~ T C a.5X'.W.R. X-X7X",
"3XoX`.`./.[.+Xh.v 4.P W ) W Y L L T T Y W W T S s.OX/.W.R.}.:X1X",
"*XoX#X'.(.'.(.k.7 k % 7 l h l j l l h h h h l 7 f.OX(.'./.}.@X#X",
"[.'.|.}.R. X X~.k.oXN.L.L.M.OXM.<XI.I.L.L.L.M.L.k.:X(.-X'.].[.%X",
"}.}.,X|.R._.|.T.{.|./.;X:X/.>XoX4X4X9X=X$X$X=X0X7X0X^.;X[.J.{..X"
};
