/* XPM */
static char *M_H[] = {
/* columns rows colors chars-per-pixel */
"32 32 222 2 ",
"   c #2D140D",
".  c #29191A",
"X  c #371A18",
"o  c #1C2502",
"O  c #292703",
"+  c #312C0C",
"@  c #323205",
"#  c #372A18",
"$  c #2A1B22",
"%  c #391A27",
"&  c #372326",
"*  c #392428",
"=  c #3A3328",
"-  c #342838",
";  c #3C363B",
":  c #2C262D",
">  c #4C1718",
",  c #462E18",
"<  c #56261E",
"1  c #473B1A",
"2  c #403F0F",
"3  c #491D26",
"4  c #541B23",
"5  c #461B36",
"6  c #7E1F25",
"7  c #432D2B",
"8  c #452329",
"9  c #5B272B",
"0  c #463628",
"q  c #4C2A34",
"w  c #452C34",
"e  c #562837",
"r  c #46393A",
"t  c #563338",
"y  c #67232B",
"u  c #72282B",
"i  c #672834",
"p  c #673436",
"a  c #464609",
"s  c #434312",
"d  c #484613",
"f  c #585619",
"g  c #60581A",
"h  c #666314",
"j  c #5A5725",
"k  c #4D4536",
"l  c #504739",
"z  c #544B2A",
"x  c #625D2C",
"c  c #685C38",
"v  c #6C4834",
"b  c #596335",
"n  c #656929",
"m  c #676536",
"M  c #77743F",
"N  c #6A753B",
"B  c #3D3243",
"V  c #523F46",
"C  c #6A2444",
"Z  c #762747",
"A  c #7A3345",
"S  c #3F414E",
"D  c #4A4745",
"F  c #52494B",
"G  c #5A584B",
"H  c #5B5A54",
"J  c #554A54",
"K  c #665C46",
"L  c #655C58",
"P  c #674E52",
"I  c #5D664B",
"U  c #6A6547",
"Y  c #697149",
"T  c #676458",
"R  c #767353",
"E  c #585862",
"W  c #696A65",
"Q  c #766767",
"!  c #7A7767",
"~  c #737075",
"^  c #882B32",
"/  c #863338",
"(  c #98343A",
")  c #922930",
"_  c #AC383B",
"`  c #B23235",
"'  c #CC3B3E",
"]  c #DC3D3A",
"[  c #EA392F",
"{  c #88433B",
"}  c #B7413F",
"|  c #CE433C",
" . c #DB413B",
".. c #E8463A",
"X. c #F34638",
"o. c #ED402F",
"O. c #8B3849",
"+. c #953A4A",
"@. c #B93D45",
"#. c #A4334A",
"$. c #C43B45",
"%. c #AC4246",
"&. c #B64548",
"*. c #AB4352",
"=. c #A35548",
"-. c #827E57",
";. c #83734A",
":. c #847979",
">. c #B36453",
",. c #CD4943",
"<. c #C94647",
"1. c #D44845",
"2. c #C3584F",
"3. c #DD524F",
"4. c #F14E44",
"5. c #E85249",
"6. c #C66459",
"7. c #E96252",
"8. c #F86957",
"9. c #FF725B",
"0. c #EA715C",
"q. c #D37460",
"w. c #E56F63",
"e. c #7A8038",
"r. c #7A8371",
"t. c #84873D",
"y. c #8D9039",
"u. c #878845",
"i. c #858856",
"p. c #93944D",
"a. c #9BAC5E",
"s. c #A9A65C",
"d. c #ACB758",
"f. c #B2B75C",
"g. c #ABB34B",
"h. c #8A8969",
"j. c #8F9367",
"k. c #868777",
"l. c #938F77",
"z. c #91916E",
"x. c #96A265",
"c. c #A7AD68",
"v. c #AFBC6C",
"b. c #B8BA6A",
"n. c #BDBE76",
"m. c #A3AC73",
"M. c #FF876A",
"N. c #FE8F76",
"B. c #F38F75",
"V. c #C2BE73",
"C. c #BFCE4C",
"Z. c #BBCD53",
"A. c #BBC95B",
"S. c #BCD355",
"D. c #BDD45A",
"F. c #BBC66A",
"G. c #BFC47B",
"H. c #BAC672",
"J. c #BFD060",
"K. c #C2CC4C",
"L. c #C3C44D",
"P. c #C3D14B",
"I. c #CBD64E",
"U. c #C4CD54",
"Y. c #C4CD5B",
"T. c #CACE5B",
"R. c #C6C858",
"E. c #C4D254",
"W. c #CBD453",
"Q. c #CADA54",
"!. c #C5D45C",
"~. c #CBD35C",
"^. c #C5DA5C",
"/. c #CDDB5C",
"(. c #C2DA53",
"). c #D0D45D",
"_. c #D2DA58",
"`. c #C7E25B",
"'. c #D5E05D",
"]. c #C2C565",
"[. c #C5CC63",
"{. c #C5CB6C",
"}. c #CACF6B",
"|. c #C7C966",
" X c #C5D263",
".X c #CCD464",
"XX c #C5D962",
"oX c #CBDA64",
"OX c #C5D56A",
"+X c #CCD46B",
"@X c #C7D86C",
"#X c #CBDB69",
"$X c #D1D663",
"%X c #D1DB63",
"&X c #D2D56B",
"*X c #D2DB6C",
"=X c #DCDB60",
"-X c #C3C572",
";X c #C4CB76",
":X c #CCCD73",
">X c #CACB7C",
",X c #D3CC7A",
"<X c #D0CF72",
"1X c #CDD373",
"2X c #CBD777",
"3X c #D3D777",
"4X c #CAE163",
"5X c #D3E464",
"6X c #D3E36A",
"7X c #757983",
"8X c #877D85",
"9X c #7F8082",
"0X c #8B8783",
"qX c #968985",
"wX c #989388",
"eX c #929198",
"rX c #A0998A",
"tX c #C6CD8B",
"yX c #CAD482",
"uX c #C9D984",
"iX c #D8D381",
"pX c #DAE483",
/* pixels */
"=XL.&X*X+X$XT.&X3XiX,X,X,X3XyXG.2X}.:X>XtX:X:X*XU.5X(.S.`.`.`.`.",
"_.U.$X&X~..XT.R.;XG.V.n.b.H.H.v.H.F.n.H.V.b.b.].R.6XW.(.(.S.D.S.",
"$XR.&X.XY.~.Y.f.n n b b n n N n f x x x x j g h g.R.T.!.!.S.D.^.",
"$X.X&X~.U./.[.d.Y e.r.r.h.z.j.i.h.z.h.h.R c x g y.].T.T.~.Y.oX@X",
"T.+X$X~.U.oXOXa.b W r.9Xk.l.l.k.0X0X0X0X:.T K c u.].&X$X~.U. XT.",
" X+X$X~.E. XF.x.I W 7X7X9X0XqXqXeXeX8X7X:.L K m u.V.&X).W.U.$X X",
".X$XT.~.Y.A.v.i.= r B - B F L Q E B - : % & = 1 R f.[.~.W.(.5X.X",
"$X.XU.~.A.v.c.i.w q % % : F Q 8X~ J : $ . % 7 k ;.b. XK.P.K.W.Z.",
"W.T.T.R.pXu.j.;.4 y i 4 , t P Q J V * * 8 8 7 7 Y e.+XU.Q.I.E.*X",
"_.).).T.uXn m v y / +./ p p t q t e 9 i p e q 7 j n }.~.W.P.~.oX",
"_._.).R.G.s , < u } 2.2.=.{ < > y y / +.+.A e 5 # d {..XW.K..X+X",
"_.K.R.].G.@ X > ( <.7.0.q.>./ u 6 ) @.&.*.O.C 5 . O ;X$XW.L.*X.X",
"Q.E.T.}.tX+   4 _ ,.8.M.M.B.6.%.` ` $.1.@.#.C 5 . O >XoXT.K.*X+X",
"^.^..X1XtX+   4 ( ,.9.M.N.B.w.1.' ] 4.$.$.#.C 5 $ O uX XW.K.*X+X",
"4XXX!.OXtX+   4 ( ,.8.M.M.M.0.5.1.X.o.] $.#.Z 5 $ o uXD.`.C.oXXX",
"S.^.Y.].tX@   4 ( ,.7.9.9.9.8.4.o.X.X.] $.#.C % . o uXS.'.S.^.^.",
"'.E.#X3XH.@ , < ^ @.3.5...X.X.[ X.o.] 1.*.A e q # s b.$XW.E.^.Z.",
"I.K.XX2XF.h g v u ( @.' ..X.X.X.X.o.,.@.O.i e w z n ].U.K.Z.D.XX",
"W.P.E.XXOXy.p.;.9 u ^ ` | ..4.4...| _ ( y 4 7 0 M p.).K.K.P.!.#X",
"oX/.!.^.oXg.b.;., 9 y / &.,. .1.,._ ( u 4 X 0 k ;.f.5XW.Q.(.Z.XX",
"#X+X.XY.~.[.;Xj.k D e y { %.@.<.%.u y 4 % 7 k s u.{.$XI._.E.A.@X",
"OXD.Y.!.!.*XyXx.T W V * 9 / ( *.O.p 3 8 % D H b e.2XU.K.P.E.J.2X",
"&XA.[.+XY.1XuXm.W r.H * 8 y u A C q q w ; G ! Y u.2XZ.K.K.!.@X2X",
"6XY..X6XY.+XH.m.Y k.W = * 8 3 q r * r r r T h.e.u.3XU.W.P.^.XX@X",
"~.Y.T.T.U.T.].c.U l.:.K k & : & X w t D K ! h.i.t.*XU.I._.I.C.4X",
"$XU.T.W.K./.|.c.M rXqX:.T k : $ $ r G L Q :.h.Y u.3XT.I.I.I.E.4X",
"&XT.~./.W.).|.s.K qX8X8X:.H D ; G Q 8XqXwXrXl.i.u.3X$XI.P.W.!.5X",
"&X.X~.~.Q./.R.s.l =.:.-.Q T H H F L L T T T K j u.2X.XT.K./. X&X",
"+X[. X~.E./.].s.x R P K K c U G U U U I I U m b t.{.[.~.Y..X+X1X",
"+XY..X XE. X[.f.a f 1 2 d a d 2 = a s s d d a a p.[.A.~.~.+X:X1X",
"^.^.oX^.S.oX+XA.b.-X].|.|.F.,XV.F.F.H.H.H.H.F.F.Z.!.C./.~.+X1X,X",
"`.(.4XoX!.XX#X X1X*X~.).).R.&X:X2X2X@XOX@XJ.J. X^.5XP.'.~..X1XiX"
};
