/* XPM */
static char *MS_1[] = {
/* columns rows colors chars-per-pixel */
"32 32 213 2 ",
"   c #050101",
".  c #0A0303",
"X  c #0E0E00",
"o  c #070009",
"O  c #0C030C",
"+  c #010800",
"@  c #130C07",
"#  c #0C1200",
"$  c #16120C",
"%  c #18120A",
"&  c #1C1A01",
"*  c #0F0714",
"=  c #140B11",
"-  c #170F1C",
";  c #1A1217",
":  c #241E0C",
">  c #201A1A",
",  c #1F2100",
"<  c #3C3E02",
"1  c #3F3F09",
"2  c #2B261A",
"3  c #332F14",
"4  c #393517",
"5  c #25230A",
"6  c #2D2424",
"7  c #3D3822",
"8  c #3B352D",
"9  c #36322A",
"0  c #33303B",
"q  c #31282B",
"w  c #423C2C",
"e  c #443D35",
"r  c #3E4205",
"t  c #3F4613",
"y  c #434406",
"u  c #44450E",
"i  c #484807",
"p  c #4E500F",
"a  c #595709",
"s  c #484416",
"d  c #54531B",
"f  c #5A5617",
"g  c #4D4A23",
"h  c #48432A",
"j  c #544D21",
"k  c #555224",
"l  c #5B542C",
"z  c #4C4238",
"x  c #4B4535",
"c  c #534E38",
"v  c #5C513B",
"b  c #635D2C",
"n  c #635D34",
"m  c #645C3A",
"M  c #65622B",
"N  c #6A652B",
"B  c #7F7E2E",
"V  c #636331",
"C  c #6A6533",
"Z  c #696932",
"A  c #6E6A3A",
"S  c #746E3E",
"D  c #77773A",
"F  c #4C4644",
"G  c #534C43",
"H  c #534B48",
"J  c #5B5547",
"K  c #5D5552",
"L  c #564C54",
"P  c #625B4B",
"I  c #655C46",
"U  c #635B52",
"Y  c #676242",
"T  c #6B624C",
"R  c #69664A",
"E  c #736D4B",
"W  c #797747",
"Q  c #666052",
"!  c #6D6354",
"~  c #6B635D",
"^  c #766C5A",
"/  c #7A7558",
"(  c #675C60",
")  c #6C6461",
"_  c #716765",
"`  c #736C63",
"'  c #726B6C",
"]  c #7B746C",
"[  c #7D7463",
"{  c #796F70",
"}  c #7E7673",
"|  c #837B58",
" . c #837A67",
".. c #847C76",
"X. c #857C7C",
"o. c #858335",
"O. c #86833B",
"+. c #89863E",
"@. c #8C8A3F",
"#. c #8C8C36",
"$. c #94953B",
"%. c #898642",
"&. c #8B8842",
"*. c #8C8849",
"=. c #85815A",
"-. c #979644",
";. c #A8AB4C",
":. c #A6A653",
">. c #ACAE54",
",. c #AAAC59",
"<. c #A5AA58",
"1. c #ACB257",
"2. c #B2BC54",
"3. c #BBBD58",
"4. c #B7BB4D",
"5. c #8B8469",
"6. c #878465",
"7. c #908B6F",
"8. c #93916B",
"9. c #8D8376",
"0. c #8B827E",
"q. c #8B8476",
"w. c #938B78",
"e. c #A0997F",
"r. c #AAA865",
"t. c #B9BF62",
"y. c #B3B56A",
"u. c #B4BC6B",
"i. c #B7BA66",
"p. c #B2AD73",
"a. c #AAB06A",
"s. c #BECC4F",
"d. c #BECB52",
"f. c #BDCC5A",
"g. c #BBC65D",
"h. c #BFD05D",
"j. c #BECC63",
"k. c #BBC366",
"l. c #BDC873",
"z. c #C1CD4E",
"x. c #C5D34B",
"c. c #C6D44A",
"v. c #C3CC54",
"b. c #C4CD5C",
"n. c #C8CC5D",
"m. c #C5D255",
"M. c #CAD555",
"N. c #C5D955",
"B. c #CCD955",
"V. c #C5D35B",
"C. c #CAD45C",
"Z. c #C7DA5C",
"A. c #CCD95C",
"S. c #D2DB5D",
"D. c #D3E15A",
"F. c #C2C662",
"G. c #C4CA63",
"H. c #C9CC64",
"J. c #C7CB6A",
"K. c #C9CC6C",
"L. c #C3C768",
"P. c #C6D363",
"I. c #CBD463",
"U. c #C7D863",
"Y. c #CDDA63",
"T. c #C5D36B",
"R. c #CCD36B",
"E. c #CCDA6C",
"W. c #D1D661",
"Q. c #D1DA65",
"!. c #D1D669",
"~. c #D3DB6B",
"^. c #D8DC6E",
"/. c #C6C977",
"(. c #CCD273",
"). c #CDDB73",
"_. c #CCD37C",
"`. c #C4D175",
"'. c #D2D47C",
"]. c #D6DB7C",
"[. c #D1DD77",
"{. c #CEE167",
"}. c #D9E369",
"|. c #D3E376",
" X c #8A7F83",
".X c #8C8384",
"XX c #9B8F83",
"oX c #938987",
"OX c #94918B",
"+X c #918C96",
"@X c #9D9898",
"#X c #A29F98",
"$X c #A4A180",
"%X c #A8A29B",
"&X c #9E9CA1",
"*X c #A39CA5",
"=X c #A9A3A9",
"-X c #C2C286",
";X c #D1CF82",
":X c #CDD081",
">X c #D5D88B",
",X c #DCE685",
"<X c #BDBAC1",
"1X c #CECBD4",
"2X c #DCDADB",
"3X c #ECE8EB",
"4X c #F8F8ED",
"5X c #EDEAF5",
"6X c #F0E8F3",
"7X c #FEFCF5",
"8X c #FBF6FB",
"9X c #FEFCFD",
"0X c #F8F4F5",
/* pixels */
"T.j.E.E.M.M.S.W.H.'.'./.K.R.l.).l.T.g.,X'.;X/.'.!.^.C.W.K.T.).T.",
"T.j.T.E.M.C.S.n.'._.y.y.l._.l.k.k.l.a.k.r.-X-Xi.n.W.C.I.I.J.).T.",
"E.j.P.E.W.C.n.3.a N A V C W V t # + + , s m j p >.H.W.S.P.f.E.U.",
"T.h.P.P.n.S.H.>.D =.6.| 6.5.v # + + # + : I m b -.F.H.C.C.f.Y.Z.",
"U.f.V.P.C.Q.G.:.N E [ ..oX] 9 + <X6X3X;   _  .n +.F.I.C.V.d.Z.Z.",
"U.V.P.P.n.W.F.:.N  .oX( 6   o 0 5X9X9Xo O U ! l O.L.I.M.M.v.N.N.",
"V.V.I.V.v.!.H.:.b 7.~ % + $ ' 1X9X8X8Xo * { U m %.J.!.V.A.m.N.N.",
"h.Z.I.b.v.W.H.,.C 7.z X ] 0X9X8X8X9X9X  . ' T b &.K.!.V.I.V.N.N.",
"Z.N.P.V.W.v.K.:.b | P . ` 7X9X6X9X9X7X  . ` T l O.F.n.d.b.d.V.N.",
"Z.h.V.h.I.v.!.:.f | [ % 8 OX@X2X9X7X9X  .  .T j O.L.H.v.I.V.Z.Z.",
"Z.h.V.V.S.v.!.:.n 8.9.> @ + O +X9X9X7X  . 0. .b %.K.I.b.I.U.Y.Z.",
"Z.m.V.V.S.n.R.:.S e.%X0.} F - =X9X9X8X. . oXw.| %.K.R.b.U.V.A.Z.",
"Z.N.V.V.Y.v.H.:.S 7.......F   +X9X9X0X  . ....| %.J.I.v.V.V.V.N.",
"Z.h.V.V.Y.v.!.:.f I J J J q + &X9X9X8X. . U T n +.J.I.v.M.f.m.m.",
"Z.V.P.V.A.v.W.:.f m I I P 9   @X0X9X7X@   e v b &.R.W.v.C.m.N.N.",
"Z.N.V.m.A.v.H.;.D m 4 w 7 2   @X9X9X7X$ . w m D $.R.Q.N.A.N.N.N.",
"B.m.N.B.c.c.C.I.,X%Xs c h :   OX9X9X7X  . j p./.R.^.v.B.S.s.m.V.",
"m.z.M.B.c.c.S.T.u.a.k R J 2   @X9X9X9X+ . k r.i.n.^.v.z.M.v.U.Y.",
"C.v.v.C.x.B.I.g.D W 4 K P 6   *X9X9X9X  . 4 b f ;.!.W.v.N.h.Y.U.",
"!.V.H.I.m.C.f.;.W =.c J K 6 o *X9X8X9X  . h b i #.H.W.n.A.U.U.P.",
"~.T.I.P.V.Y.b.:.W 8.Q F H q o *X9X8X9X. $ P E f B J.!.C.Q.I.P.T.",
"R.G.I.b.V.Y.J.<.N =.~ x H 8   *X7X8X9X    G m s o.(.!.v.I.V.T.).",
"I.b.I.b.v.Y.P.1.W 8. .c Q w   %X7X4X7X    U / A &.(.I.v.A.h.P.).",
"S.Q.Y.m.s.Z.h.<.D =./ x P 9   %X7X4X9X  O _ w.| &.(.I.M.{.h.f.E.",
"m.v.v.V.z.M.b.,.Z $Xq.~ G 2   =X7X0X0XO O  Xw.| %._.n.C.A.Z.d.E.",
"B.x.N.C.m.C.G.,.A 8.q..X) 6   =X7X7X8X* O  XXXE *.'.I.M.C.V.V.{.",
"S.M.C.I.C.Y.L.r.E q..X@X+XL - +X9X9X6X- O  Xw.W *.>XW.n.m.N.m.{.",
"A.m.M.I.C.I.j.<.k ^ ~ U ~ F   $     > . ; ~ ^ N O.(.W.v.v.N.N.Y.",
"A.v.b.I.V.I.G.<.M W ^ R R E 3 & + + X 5 c A b N o.J.G.M.v.Z.A.U.",
"C.b.C.C.v.C.b.2.< y u r i p y r d t < u u < i a $.H.v.C.V.Y.U.U.",
"Y.I.Y.Y.x.B.N.d.k.t.l.t.2.2.b.g.k.`.l.`.K.i.K.G.4.Q.v.Y.Y.P.T.T.",
"Y.Y.~.Q.x.B.S.m.!.K.].E.N.Y.}.s.P.|.g.).!.n.^.I.W.}.v.Q.I.I.T.)."
};
