/* XPM */
static char *MS_2[] = {
/* columns rows colors chars-per-pixel */
"32 32 204 2 ",
"   c #020201",
".  c #090403",
"X  c #050900",
"o  c #0A0B01",
"O  c #050109",
"+  c #0A030A",
"@  c #090A0C",
"#  c #100E00",
"$  c #160C0C",
"%  c #0A1100",
"&  c #121202",
"*  c #1E180E",
"=  c #191708",
"-  c #0C0910",
";  c #120E19",
":  c #180F15",
">  c #171216",
",  c #1D1A1B",
"<  c #261B17",
"1  c #1E2106",
"2  c #212100",
"3  c #262D05",
"4  c #3A3B08",
"5  c #282310",
"6  c #383D14",
"7  c #3C3C1C",
"8  c #392D1D",
"9  c #1C1A21",
"0  c #282729",
"q  c #332B28",
"w  c #3A3429",
"e  c #393528",
"r  c #3A3836",
"t  c #403C00",
"y  c #433E1E",
"u  c #443F2B",
"i  c #423B33",
"p  c #3B4605",
"a  c #3C410B",
"s  c #3D4612",
"d  c #41460C",
"f  c #474410",
"g  c #434A16",
"h  c #484719",
"j  c #4A531A",
"k  c #5E5C1B",
"l  c #565211",
"z  c #484427",
"x  c #535229",
"c  c #57592F",
"v  c #595628",
"b  c #464333",
"n  c #4A443A",
"m  c #49463A",
"M  c #52493B",
"N  c #5C5B34",
"B  c #5A5837",
"V  c #7F7F27",
"C  c #6A623C",
"Z  c #696937",
"A  c #76743D",
"S  c #686B28",
"D  c #494943",
"F  c #534D43",
"G  c #544A48",
"H  c #58554E",
"J  c #585652",
"K  c #635D43",
"L  c #5D625C",
"P  c #696743",
"I  c #746B4C",
"U  c #757546",
"Y  c #696A5E",
"T  c #6A6557",
"R  c #756C56",
"E  c #7A7556",
"W  c #6A676E",
"Q  c #6F7269",
"!  c #76746F",
"~  c #676570",
"^  c #77747A",
"/  c #7F8336",
"(  c #8C8D2F",
")  c #84853B",
"_  c #868A3D",
"`  c #8B8B3D",
"'  c #868533",
"]  c #8E9335",
"[  c #98993B",
"{  c #8B8844",
"}  c #838752",
"|  c #939844",
" . c #A19D5E",
".. c #9EA954",
"X. c #9EA65B",
"o. c #A3AB55",
"O. c #A3A75A",
"+. c #A2AB5B",
"@. c #AAAF5B",
"#. c #A9B359",
"$. c #B2B451",
"%. c #8D886A",
"&. c #8D8B7F",
"*. c #A4AD62",
"=. c #A9B563",
"-. c #BBBD64",
";. c #B9BD6A",
":. c #B0BD65",
">. c #B8BB79",
",. c #B7BB77",
"<. c #BDCE4B",
"1. c #BFD04D",
"2. c #BDCD52",
"3. c #BDCC5C",
"4. c #B6C65E",
"5. c #BED255",
"6. c #BDD25A",
"7. c #BDC662",
"8. c #BDCC63",
"9. c #BCC36C",
"0. c #B8C66C",
"q. c #BFC17D",
"w. c #B9C576",
"e. c #C2CE4C",
"r. c #C3D24C",
"t. c #C2CC55",
"y. c #C4CC5C",
"u. c #CBCE5B",
"i. c #C4D254",
"p. c #CAD456",
"a. c #C3DA56",
"s. c #CADA55",
"d. c #C4D45B",
"f. c #CAD45B",
"g. c #C4DA5B",
"h. c #CCDA5C",
"j. c #D2D65B",
"k. c #D3DC5D",
"l. c #D1D656",
"z. c #C4CC63",
"x. c #CBCE61",
"c. c #C3CB6C",
"v. c #C7C968",
"b. c #D1CF68",
"n. c #C5D363",
"m. c #CAD562",
"M. c #C6DA63",
"N. c #CCDA63",
"B. c #C3D36C",
"V. c #CBD36B",
"C. c #CCDA6B",
"Z. c #C5D968",
"A. c #D1D465",
"S. c #D1DA64",
"D. c #D3D46A",
"F. c #D3DD6B",
"G. c #C4CD75",
"H. c #C5CB7A",
"J. c #C5D371",
"K. c #CBD372",
"L. c #CADA74",
"P. c #C8D27C",
"I. c #D5DA79",
"U. c #CEE164",
"Y. c #D6E16A",
"T. c #CEE074",
"R. c #D3E57F",
"E. c #7E7B82",
"W. c #888884",
"Q. c #979896",
"!. c #94978E",
"~. c #9CA19A",
"^. c #AAB084",
"/. c #A9AAA7",
"(. c #AFACB7",
"). c #B1AFBD",
"_. c #B9BBB8",
"`. c #C0BFBD",
"'. c #C9CD85",
"]. c #CCD682",
"[. c #D2D484",
"{. c #D8DE84",
"}. c #C0C3BC",
"|. c #DCDFB4",
" X c #BCB8C4",
".X c #C4BCC6",
"XX c #CAC7C8",
"oX c #CEC8D1",
"OX c #DEE1D6",
"+X c #E2E4DF",
"@X c #E4DEEA",
"#X c #E5E3E7",
"$X c #F0EFEB",
"%X c #F3F4EF",
"&X c #EEEDF1",
"*X c #E8E6F3",
"=X c #F3EFF6",
"-X c #EFF0F5",
";X c #F3F2F4",
":X c #FAFCF3",
">X c #F5F3FB",
",X c #FBF7FE",
"<X c #FEFDFE",
"1X c #F8F7F2",
/* pixels */
"A.x.D.D.u.j.D.D.K.[.'.[.c.c.{.c.J.{.L.8.P.P.H.G.m.Y.h.m.B.J.T.8.",
"b.y.b.D.j.u.S.v.[.q.>.q.q.;.,.H.0.=.=.=.,.>.,.9.y.F.d.N.n.8.T.L.",
"b.u.x.D.f.j.x.-.k Z P x 4 2 X   % 3 s s N c h S o.x.n.n.8.6.T.6.",
"A.y.x.m.f.N.z.@.} %.b     X o X   X X X b R N v | z.n.f.6.6.U.g.",
"m.y.m.f.u.A.z.X.B e   0 W.XX<X:X<XoX^ , X r T c _ 7.n.g.6.5.g.g.",
"m.y.m.d.i.h.z.X.c > 9 ).<X-X<X<X<X,X,X(.; O T x / z.m.a.g.5.a.a.",
"V.x.f.i.r.g.3.+.s   ~ >X<X<X:X<X,X<X<X-X~ . M N { c.N.i.g.5.a.a.",
"n.m.m.i.<.h.n.+.& o  X<X-X1X~.L !.,X>X<X.X  o P _ B.N.5.U.6.a.a.",
"m.d.d.i.s.i.n...    >X,X<XW.    X _.<X$X;X. . x ) 3.i.<.6.6.n.g.",
"N.u.f.i.s.e.Z.o.%   ,X<X&X!   D   !.:X<X1X  . x ) z.d.<.d.6.M.M.",
"f.u.u.i.h.e.V.X.    <X<X&XW   J   Q.<X<X=X. . N _ n.m.5.M.M.M.Z.",
"h.p.u.i.h.2.V.O.X . *X<X>XE.O 9   XX<X<X@X+ * E _ z.f.i.g.6.M.Z.",
"j.p.t.u.j.t.V.O.2   : O .   O - 0 ;X<X<X X  i E _ n.a.1.g.6.M.6.",
"l.u.l.u.j.t.b.O.4 5   O O . : . ~.:X<X<X^ O n N _ d.s.1.i.2.6.6.",
"l.u.u.u.A.u.b.O.x K F K n * < D 1X:X<X`., + M v ] n.s.1.a.5.M.g.",
"l.p.l.u.S.t.V.O.A B u w #   D <X:X1X:XY   q P U ] h.k.r.h.a.M.g.",
"l.r.p.h.e.i.Z.J.'.|.z &   T %X<X<X<X&.# $ y q.H.b.k.e.l.s.<.i.a.",
"r.e.i.h.r.p.N.B.w.^.1 X m OX<X<X<XQ.* o y v  .-.u.k.e.e.p.t.h.h.",
"s.e.i.p.p.s.N.7.U s   r _.:X,X>X Xr   e R y y l $.j.l.e.d.i.M.h.",
"S.p.d.p.i.p.3.o.} 1 X /.%X,X<X_.;   , b M x v k ( u.j.u.N.n.g.g.",
"F.m.d.f.i.s.3...g   J *X<X<XXX@   > J i w F I l V u.S.p.S.m.Z.n.",
"V.y.m.t.i.h.n.o.s   /.-X<XOXD   q r F w w F E y ' V.j.t.N.y.n.C.",
"V.x.m.u.1.s.Z.=.%   @X<X<X/.X X &       $ < T A ` V.N.t.m.3.n.C.",
"C.C.N.t.<.p.n.+.X = &X,X>X}.Q Y W Y Y ! G . i E { V.m.d.Y.d.3.C.",
"V.t.d.i.e.i.3.*.X   <X<X<X<X<X%X:X<X1X<X.X$ < I { V.y.f.S.m.2.N.",
"N.t.d.p.r.p.z.*.X o <X<X<X<X<X<X<X<X,X,X.X+ < %.{ I.m.f.f.n.6.U.",
"h.p.p.h.a.N.n.*.  , *X>X<X&X<X<X<X>X=X,X.X< < E { [.A.i.d.d.d.U.",
"k.r.p.p.p.h.8.X.% X 9 O @   X     . . . : + 8 C ) K.b.u.t.N.g.h.",
"s.e.i.p.a.p.8.o.j 3 @ X X X % X   o     2 y C A ' v.y.d.y.Z.m.M.",
"h.i.f.f.e.d.d.#.p s s s j p s p 4 a a d f f t t [ x.y.V.z.C.V.Z.",
"h.f.S.N.i.p.N.4.0.w.w.w.0.4.0.J.G.0.9.9.;.;.@.v.$.S.t.A.V.J.n.C.",
"h.A.F.C.i.h.U.n.T.].w.L.6.U.6.6.K.B.C.C.V.I.b.D.S.Y.y.F.K.J.J.L."
};
