/* XPM */
static char *MS_4[] = {
/* columns rows colors chars-per-pixel */
"32 32 208 2 ",
"   c #020201",
".  c #0C0403",
"X  c #040B01",
"o  c #0A0A02",
"O  c #02010A",
"+  c #0D0D09",
"@  c #120B08",
"#  c #0E1200",
"$  c #061204",
"%  c #161A00",
"&  c #151707",
"*  c #010013",
"=  c #06021A",
"-  c #0F0D1B",
";  c #110D14",
":  c #181718",
">  c #1D2800",
",  c #232900",
"<  c #24210C",
"1  c #373705",
"2  c #2C2B17",
"3  c #313817",
"4  c #0D0920",
"5  c #151223",
"6  c #242825",
"7  c #3B3634",
"8  c #453B0E",
"9  c #493F0E",
"0  c #483F14",
"q  c #453F27",
"w  c #3A440F",
"e  c #3B4314",
"r  c #474207",
"t  c #424A12",
"y  c #4D4C1E",
"u  c #48491C",
"i  c #524E1F",
"p  c #4C561B",
"a  c #535D18",
"s  c #494C28",
"d  c #514F26",
"f  c #555324",
"g  c #595A27",
"h  c #4F403D",
"j  c #504531",
"k  c #565632",
"l  c #605F26",
"z  c #615E35",
"x  c #616728",
"c  c #777B2E",
"v  c #656333",
"b  c #69673A",
"n  c #706E3E",
"m  c #6A7238",
"M  c #777538",
"N  c #484A49",
"B  c #564B4B",
"V  c #4F5241",
"C  c #5A594C",
"Z  c #675E48",
"A  c #635A53",
"S  c #685D57",
"D  c #5F6050",
"F  c #686746",
"G  c #726A47",
"H  c #78754E",
"J  c #636256",
"K  c #6D6A5B",
"L  c #686658",
"P  c #746D5E",
"I  c #77685A",
"U  c #7A7558",
"Y  c #676864",
"T  c #69686A",
"R  c #726F6A",
"E  c #776B64",
"W  c #777269",
"Q  c #7D796C",
"!  c #76716A",
"~  c #7B7876",
"^  c #837D68",
"/  c #827C64",
"(  c #837C73",
")  c #7B8336",
"_  c #798174",
"`  c #84863C",
"'  c #858A3B",
"]  c #898C3D",
"[  c #808336",
"{  c #919C3E",
"}  c #8D9339",
"|  c #838B45",
" . c #838A48",
".. c #8C9442",
"X. c #959A48",
"o. c #838351",
"O. c #A5A656",
"+. c #A5AD53",
"@. c #ACAF55",
"#. c #A6A55A",
"$. c #AAAD5B",
"%. c #A8A95A",
"&. c #AFB555",
"*. c #B5BD56",
"=. c #86866A",
"-. c #979D6F",
";. c #898379",
":. c #898377",
">. c #99927E",
",. c #938D75",
"<. c #ACBD63",
"1. c #A6B363",
"2. c #B3BE66",
"3. c #B8BA6C",
"4. c #B2BB73",
"5. c #B8BF7B",
"6. c #C3BF75",
"7. c #BDCB4E",
"8. c #BCC656",
"9. c #BFCD52",
"0. c #BECD58",
"q. c #BFC362",
"w. c #BBCC64",
"e. c #B3C468",
"r. c #BED367",
"t. c #BAD26A",
"y. c #B9C975",
"u. c #C1CE4C",
"i. c #C4D24D",
"p. c #CBD94E",
"a. c #C3CD54",
"s. c #C3CD5B",
"d. c #C8CC5E",
"f. c #C6D355",
"g. c #C9D554",
"h. c #C6D956",
"j. c #CCD955",
"k. c #C5D35B",
"l. c #CAD55B",
"z. c #C7DB5A",
"x. c #CBDA5C",
"c. c #D1DA5D",
"v. c #D4E058",
"b. c #C0C760",
"n. c #C4CB63",
"m. c #CBCA65",
"M. c #C7C66C",
"N. c #D1CC66",
"B. c #C5D362",
"V. c #CBD563",
"C. c #C7D964",
"Z. c #CDDA62",
"A. c #C5D26C",
"S. c #CCD26C",
"D. c #CDD969",
"F. c #D1D762",
"G. c #D1DC63",
"H. c #D2D86E",
"J. c #C5CD7B",
"K. c #C8C975",
"L. c #D1CD72",
"P. c #C9D672",
"I. c #CCD97B",
"U. c #C7D476",
"Y. c #D2DD73",
"T. c #D0D678",
"R. c #D1E166",
"E. c #D6E269",
"W. c #CEE278",
"Q. c #D3E67B",
"!. c #7D7E80",
"~. c #958987",
"^. c #95948C",
"/. c #999787",
"(. c #8E8C91",
"). c #8D9298",
"_. c #9C9C9C",
"`. c #979795",
"'. c #8D8986",
"]. c #A09993",
"[. c #9CA499",
"{. c #A8AB80",
"}. c #ADA29C",
"|. c #B8BE92",
" X c #A4A9A9",
".X c #BCBDBA",
"XX c #CCD284",
"oX c #D3E084",
"OX c #BEBCC7",
"+X c #C6C8CA",
"@X c #D7DAD8",
"#X c #DCDCE4",
"$X c #D7DCE2",
"%X c #DFE2E3",
"&X c #E9ECEA",
"*X c #E5E7E6",
"=X c #EEF2EC",
"-X c #F3F7ED",
";X c #F4FCEE",
":X c #F8FCEE",
">X c #EEEDF7",
",X c #F4EFF3",
"<X c #F6FDF4",
"1X c #FCFEF6",
"2X c #F4F5FC",
"3X c #F7FCFD",
"4X c #FDFEFE",
"5X c #F7F3F8",
/* pixels */
"l.s.V.F.g.p.c.c.m.oXK.U.A.r.W.t.t.t.W.t.J.I.J.K.C.E.l.V.A.A.Y.A.",
"Z.a.V.F.g.p.c.d.M.3.3.5.<.e.e.e.e.e.y.1.4.5.4.K.b.D.V.V.B.A.Y.A.",
"x.a.l.c.g.c.d.q.c l v b x m p > X X X X , s f x @.m.B.V.B.0.D.C.",
"j.a.f.l.d.c.d.@.M H =.U =.=.3 X X X X $   < k g X.s.l.l.B.0.C.z.",
"j.i.g.l.g.F.m.O.f H ^ Q ^.J $ 6 3X3X4X%X: + Z k ' q.V.l.k.9.z.h.",
"j.u.l.g.a.F.m.#.z / ( '.`.6   ).3X3X4X4XO O L b ` n.V.g.k.f.h.h.",
"g.g.l.d.a.m.m.#.n :.R '.~   5 *X4X3X4X4XO   K k ` A.Z.k.z.9.h.h.",
"p.g.c.a.u.F.N.#.z =.L ! J X N 4X3X3X4X4X    L k | S.Z.f.Z.k.k.k.",
"j.i.a.l.c.s.N.#.i ,.I ^.:   .X4X1X3X-X4Xo   K s [ s.a.7.s.0.k.C.",
"j.g.g.a.c.s.S.#.f / ( R   7 %X4X<X3X-X1XO   K d ` b.l.u.k.k.C.C.",
"j.p.l.a.F.s.L.#.b ^ ].7   _.4X4X=X3X<X2X    Q b ` m.l.f.V.V.C.C.",
"j.g.a.l.c.d.S.#.G >.~.O : %X4X2X+X3X4X4XO ; :.U ` S.l.a.k.k.C.C.",
"j.i.g.s.F.s.S.#.z /.B   T 4X1X$X X3X4X4X* ; ( H ' n.j.u.k.0.C.B.",
"j.l.g.d.F.s.L.#.u I @ @ .X4X3X X[.<X4X4XO   A z ] k.g.u.h.f.k.k.",
"l.g.d.l.F.s.S.#.f s   S -X1X&XN `.;X<X3XO   C v ] V.j.i.h.f.z.r.",
"F.d.l.s.F.s.S.O.G <   ].1X:X@X  [.<X<X1X    Z n } V.c.i.j.l.z.z.",
"V.V.V.F.l.a.n.J.{.  ; &X4X1X_ $ [.3X1X1XX   |.XXA.Z.i.p.x.a.f.k.",
"d.m.V.g.g.z.D.J.F   !.4X4X&X&    X4X4X1X  # -.4.w.R.9.i.k.9.x.Z.",
"a.l.g.a.p.j.C.2.# # @X4X=X XO + ).2X4X4X    % p +.D.h.9.l.s.Z.F.",
"j.G.j.i.p.j.s.X.X D 4X1X3X XC T +X4X3X4XT Y   , ' B.Z.h.Z.V.V.k.",
"l.G.l.j.i.g.8.c X R &X2X4X,X4X4X2X4X3X4X,X+Xo , ) B.Z.z.G.B.V.V.",
"a.l.s.c.f.f.w.c   W 4X4X4X2X4X4X4X4X3X4X4X@X. o ) A.Z.9.V.B.B.H.",
"l.D.a.V.l.l.P...  S 5X4X4X4X,X4X1X1X=X4X#XOX: % | P.l.9.Z.s.m.Y.",
"G.G.a.c.a.a.Y.X.% o .     .     /.1X1X2X4 -   s | P.V.f.E.s.a.D.",
"g.f.i.f.u.f.s.$.l 2 @ . . . .   `.<X4X4X* * N U | U.k.z.x.l.9.D.",
"h.i.h.g.i.j.s.$.o.( ( ^ E S q @ ^.4X4X4X= = ~ _  .I.k.f.l.l.a.G.",
"x.i.z.j.g.Z.n.#.n ( }.~.~.~.B @ _.4X4X>X4 * (._ | T.D.f.f.l.g.R.",
"x.h.k.l.l.x.n.O.8 Z / A S I q @   .   : O ; ~ k | U.V.f.a.l.j.c.",
"x.0.C.k.k.V.s.O.c / / z Z / I q %       2 V L g ) B.k.f.a.V.l.x.",
"C.s.C.V.a.l.s.&.9 9 8 8 8 9 8 1 t t p w s e w a { w.9.k.k.V.l.V.",
"z.k.x.x.i.j.x.a.6.6.6.6.6.6.M.K.e.e.e.e.y.y.$.e.*.Z.9.Z.S.V.S.D.",
"Z.z.R.c.i.j.v.a.E.L.N.6.N.d.F.S.A.oX0.W.t.I.oXP.C.E.f.G.V.S.C.H."
};
