/* XPM */
static char *MS_8[] = {
/* columns rows colors chars-per-pixel */
"32 32 210 2 ",
"   c #020201",
".  c #0B0601",
"X  c #040B00",
"o  c #0A0B03",
"O  c #060209",
"+  c #070909",
"@  c #0D080B",
"#  c #100B0E",
"$  c #140E00",
"%  c #0D1100",
"&  c #081005",
"*  c #121302",
"=  c #161805",
"-  c #0D0713",
";  c #130D1B",
":  c #181714",
">  c #201A0C",
",  c #211B1B",
"<  c #1C2700",
"1  c #222500",
"2  c #383B07",
"3  c #383B12",
"4  c #292816",
"5  c #1B1823",
"6  c #201A24",
"7  c #212320",
"8  c #302B31",
"9  c #2D3132",
"0  c #3A3C3B",
"q  c #463F36",
"w  c #3C4207",
"e  c #3F431A",
"r  c #3F4020",
"t  c #3D4039",
"y  c #494F0D",
"u  c #45490B",
"i  c #424319",
"p  c #454C15",
"a  c #53541A",
"s  c #485118",
"d  c #5A641B",
"f  c #454A22",
"g  c #4F4E25",
"h  c #49492F",
"j  c #4B5027",
"k  c #525525",
"l  c #55542E",
"z  c #585B2A",
"x  c #484739",
"c  c #575738",
"v  c #605E38",
"b  c #5D642C",
"n  c #6C6F28",
"m  c #656339",
"M  c #646A37",
"N  c #6B7338",
"B  c #4D4841",
"V  c #474541",
"C  c #5B594A",
"Z  c #4B4C51",
"A  c #554F59",
"S  c #5C5B59",
"D  c #555F57",
"F  c #605A4E",
"G  c #6A6E45",
"H  c #64634B",
"J  c #75764C",
"K  c #6B6B51",
"L  c #757454",
"P  c #7B7B5A",
"I  c #72715F",
"U  c #645E68",
"Y  c #646363",
"T  c #6D6E6C",
"R  c #686669",
"E  c #716E65",
"W  c #7B7866",
"Q  c #716B75",
"!  c #767679",
"~  c #7F8536",
"^  c #78822C",
"/  c #838D35",
"(  c #82863A",
")  c #848A3D",
"_  c #8D933D",
"`  c #919C3C",
"'  c #868C43",
"]  c #8A8E41",
"[  c #818459",
"{  c #939943",
"}  c #9DA75A",
"|  c #9FA958",
" . c #A4AF4F",
".. c #A2AA5C",
"X. c #A5AB53",
"o. c #ACB352",
"O. c #ACB65C",
"+. c #ABB556",
"@. c #B0BD51",
"#. c #888E65",
"$. c #A4AE61",
"%. c #A7B162",
"&. c #AEBB6A",
"*. c #B5BB6A",
"=. c #B6BC77",
"-. c #BDCE4D",
";. c #BFD246",
":. c #BFD04C",
">. c #BDCD53",
",. c #BCC65C",
"<. c #BCCA5B",
"1. c #B4C05E",
"2. c #BED252",
"3. c #BED15B",
"4. c #BDCB64",
"5. c #BAC26C",
"6. c #B8C767",
"7. c #BED165",
"8. c #BCC674",
"9. c #BBC776",
"0. c #C1CD4F",
"q. c #C1D34C",
"w. c #C6D94B",
"e. c #C2CE54",
"r. c #C3CD5C",
"t. c #C4D354",
"y. c #C9D455",
"u. c #C5DA55",
"i. c #CBDB56",
"p. c #C4D45B",
"a. c #CAD55B",
"s. c #C5DA5B",
"d. c #CADA5C",
"f. c #D1DB59",
"g. c #CEE05A",
"h. c #D0E15D",
"j. c #C3CD64",
"k. c #C5CE69",
"l. c #C4D362",
"z. c #CAD563",
"x. c #C5D962",
"c. c #CCDA63",
"v. c #C6D46B",
"b. c #CAD56B",
"n. c #C6DA68",
"m. c #CDDB6B",
"M. c #D1DC63",
"N. c #D2D66C",
"B. c #D1DB6B",
"V. c #D0D466",
"C. c #C3CD7B",
"Z. c #C2CB75",
"A. c #CDDB73",
"S. c #C3D27C",
"D. c #CAD37A",
"F. c #C7D476",
"G. c #D3DC7B",
"H. c #D6DB74",
"J. c #D2E264",
"K. c #D2E16A",
"L. c #CDE172",
"P. c #787882",
"I. c #90928D",
"U. c #898493",
"Y. c #8F9295",
"T. c #979A94",
"R. c #9A9D9F",
"E. c #969795",
"W. c #A29F98",
"Q. c #9DA29E",
"!. c #A8A59C",
"~. c #9B99A1",
"^. c #A49FA3",
"/. c #A3A2A4",
"(. c #A5A3AC",
"). c #ACAFA8",
"_. c #ADAEB0",
"`. c #AEB3B6",
"'. c #BCBBB6",
"]. c #BCBBBC",
"[. c #B6B4B7",
"{. c #BFC680",
"}. c #BFC1BC",
"|. c #D1DA8A",
" X c #C3C98D",
".X c #D9E787",
"XX c #C2BCC6",
"oX c #C4C2C5",
"OX c #C7C6CC",
"+X c #D8DEDA",
"@X c #C9C7D2",
"#X c #E3E0DB",
"$X c #D8D1E3",
"%X c #EFEFEF",
"&X c #E4E6EA",
"*X c #EDF2EC",
"=X c #F4F2EC",
"-X c #FBF8EF",
";X c #EDEDF1",
":X c #EDE9F7",
">X c #F3EFF3",
",X c #F0EAF8",
"<X c #F3F3F4",
"1X c #F9F6F3",
"2X c #F6F9F3",
"3X c #FDFDF4",
"4X c #F5F6FD",
"5X c #F9F6FD",
"6X c #F7FAFE",
"7X c #FEFDFD",
/* pixels */
"b.j.b.N.p.s.c.c.6.L.9.9.6.7..X7.7.n.3.7..XD.5.H.V.M.d.d.v.7.L.v.",
"z.r.z.N.y.a.c.r.|.9.9.9.9.7.1.6.6.9.9.%...=.=.5.r.M.y.d.l.7.L.3.",
"z.e.z.z.s.d.l.1.d b M z e < X X X < e b z k a n o.j.a.z.7.3.c.g.",
"d.e.a.a.p.d.4.+.N #.c * & X X X X X X = c L l a { r.y.y.3.2.x.3.",
"i.0.p.y.y.c.4...M x   # R [.7X7X;XOXT     B W m ) 4.7.g.g.2.g.u.",
"y.t.y.p.t.z.4.} j = : (.7X6X7X4X6X7X6X~.-   F l ( 4.s.u.2.2.u.u.",
"y.y.a.y.e.d.j...f X Y ;X7X7X6X7X6X7X7X5XQ   q v ) j.g.2.s.2.u.u.",
"y.a.a.y.-.a.v...=   ].7X7X2X/.T ~.7X2X7X[.# > l ) b.n.2.x.u.3.s.",
"z.p.y.r.d.e.v.| %   &X7X7X}.      }.7X<X5X. $ l ( r.r.-.t.3.p.7.",
"V.z.z.p.d.r.v...    7X7X7X).  t   T.3X7X>X. . i ( j.p.>.p.3.x.x.",
"z.j.r.r.d.e.v...  X 7X7X;XT.  D o T.7X7X5X@ . v ( k.z.e.x.x.n.n.",
"b.z.z.y.d.r.v.} o . 6X7X7X_.  t   /.<X5X,XO . P ' k.a.e.x.7.x.n.",
"z.z.z.a.a.e.v...*   @X7X7X].+ +   oX6X7X$XO , L ' j.p.2.s.3.7.x.",
"V.z.p.r.d.e.v...3 X U.:X7X4XY.! Y.7X7X4XU.O q l ) j.d.:.p.3.3.7.",
"z.z.r.e.i.e.v...e   5 (.6X7X7X3X2X7X7X/.5 O B g ] z.d.:.s.3.x.x.",
"z.r.p.y.i.q.l.| G :   P.;X*X7X3X3X3X2XY   , C J _ z.g.w.s.s.x.x.",
"c.p.x.d.:.2.n. X#.  Z 4X6X7X7X2X7X3X3X=XB   P  XF.M.q.w.w.-.t.s.",
"l.<.p.s.:.u.m.9.f X ~.7X6X+XD & E #X-X3X!.  f =.4.M.q.;.w.0.d.d.",
"v.<.p.p.u.g.n.8.& & &X6X4X`.:     '.3X7X=X    M  .c.u.q.t.t.d.d.",
"m.p.x.x.2.3.6.$.  X 7X6X6XY.  9   ^.7X7X7X.   s / l.d.i.d.s.s.p.",
"m.l.l.p.p.p.4.} X   6X4X7XR.  0   ^.7X5X3X  $ k ^ l.c.u.c.l.x.p.",
"z.j.j.p.t.c.v.$.X   4X4X7XQ.  7   /.5X3X7X    k ~ b.d.>.c.p.z.m.",
"z.j.z.p.>.c.v.$.X % ;X7X2X).: X # '.=X3X>X.   m ) b.d.>.c.<.l.B.",
"M.c.c.p.>.d.k.O.1   ].5X7X7XI.T E.7X7X1XoX. 4 [ ) v.x.t.K.p.<.c.",
"y.e.e.y.e.a.j...i $ R 7X7X;X7X4X7X<X7X5XR # C J ' v.p.s.c.c.>.c.",
"f.e.a.a.e.a.j.$.G * : ^.7X7X7X4X7X7X,X^.; O E P ' A.p.u.y.p.2.h.",
"f.y.y.a.y.V.j...J x . # ! XX,X7X:XXXU 6 - A T.P ' L.n.t.t.y.u.h.",
"f.y.e.f.a.V.j...g W q .     O O . .   @ 8 S W l ~ A.l.t.2.u.i.d.",
"a.e.y.y.y.a.r.X.d L K F h *       = i K E H H M ~ 4.t.w.2.d.s.i.",
"V.r.V.V.y.a.r.o.u i 2 3 w w s p y y u p i r p w ` p.-.u.p.d.p.s.",
"V.V.N.V.r.a.a.r.O.C.9.C.8.Z.D.+.+.,.j.5.&.=.{.5.1.i.:.i.s.a.z.c.",
"N.V.H.N.y.f.M.r.G.D.5.D.A.,.j.n.c.p.c.m.S.|.|.v.c.J.:.d.c.z.l.m."
};
