/* XPM */
static char *_[] = {
/* columns rows colors chars-per-pixel */
"32 32 26 1 ",
"  c #C5D358",
". c #C4D259",
"X c #C4D15B",
"o c #C5D35A",
"O c #C6D459",
"+ c #C7D55A",
"@ c #C6D45B",
"# c #C4D15D",
"$ c #C5D25C",
"% c #C6D35D",
"& c #C6D35F",
"* c #C7D55C",
"= c #C7D45E",
"- c #C8D65B",
"; c #C8D65D",
": c #C8D55F",
"> c #C7D460",
", c #C8D561",
"< c #C9D660",
"1 c #CAD761",
"2 c #C9D662",
"3 c #CAD763",
"4 c #C9D664",
"5 c #CBD862",
"6 c #CBD866",
"7 c #CDDA68",
/* pixels */
"76321511222222222222222211512367",
"4>&&%==@,,,,,,,,,,,,,,,,@==%&&>4",
">&#X$$o.&&&&&&&&&&&&&&&&.o$$X#&>",
"2,%%=;*@%%%%%%%%%%%%%%%%@*;=%%,2",
"1<==;;;+****************+;;;==<1",
"<=$o@+O ;;;;;;;;;;;;;;;; O+@o$=<",
":=oo@OO ++++++++++++++++ OO@oo=:",
"1;@@+-+OOOOOOOOOOOOOOOOOO+-+@@;1",
"2,&%*;+O@@@@@@@@@@@@@@@@O+;*%&,2",
"2,&%*;+O@@@@@@@@@@@@@@@@O+;*%&,2",
"2,&%*;+O@@@@@@@@@@@@@@@@O+;*%&,2",
"2,&%*;+O@@@@@@@@@@@@@@@@O+;*%&,2",
"2,&%*;+O@@@@@@@@@@@@@@@@O+;*%&,2",
"2,&%*;+O@@@@@@@@@@@@@@@@O+;*%&,2",
"2,&%*;+O@@@@@@@@@@@@@@@@O+;*%&,2",
"2,&%*;+O@@@@@@@@@@@@@@@@O+;*%&,2",
"2,&%*;+O@@@@@@@@@@@@@@@@O+;*%&,2",
"2,&%*;+O@@@@@@@@@@@@@@@@O+;*%&,2",
"2,&%*;+O@@@@@@@@@@@@@@@@O+;*%&,2",
"2,&%*;+O@@@@@@@@@@@@@@@@O+;*%&,2",
"2,&%*;+O@@@@@@@@@@@@@@@@O+;*%&,2",
"2,&%*;+O@@@@@@@@@@@@@@@@O+;*%&,2",
"2,&%*;+O@@@@@@@@@@@@@@@@O+;*%&,2",
"2,&%*;+O@@@@@@@@@@@@@@@@O+;*%&,2",
"1;@@+-+OOOOOOOOOOOOOOOOOO+-+@@;1",
":=oo@OO ++++++++++++++++ OO@oo=:",
"<=$o@+O ;;;;;;;;;;;;;;;; O+@o$=<",
"1<==;;;+****************+;;;==<1",
"2,%%=;*@%%%%%%%%%%%%%%%%@*;=%%,2",
">&#X$$o.&&&&&&&&&&&&&&&&.o$$X#&>",
"4>&&%==@,,,,,,,,,,,,,,,,@==%&&>4",
"76321511222222222222222211512367"
};
