/* XPM */
static char *P[] = {
/* columns rows colors chars-per-pixel */
"32 32 233 2 ",
"   c #020502",
".  c #0C0318",
"X  c #17170E",
"o  c #261202",
"O  c #142A1B",
"+  c #123003",
"@  c #2B361E",
"#  c #342F16",
"$  c #051A28",
"%  c #141731",
"&  c #122825",
"*  c #19362D",
"=  c #052A3A",
"-  c #0E2D2F",
";  c #262C29",
":  c #363528",
">  c #212A35",
",  c #253A3A",
"<  c #302F24",
"1  c #4A3B36",
"2  c #5A3C36",
"3  c #1D4000",
"4  c #2B461C",
"5  c #05452D",
"6  c #395428",
"7  c #355631",
"8  c #3E4834",
"9  c #2E682F",
"0  c #337917",
"q  c #46491A",
"w  c #49500C",
"e  c #487218",
"r  c #4A641D",
"t  c #4C532C",
"y  c #4B5D27",
"u  c #53542A",
"i  c #4E5735",
"p  c #555432",
"a  c #525A38",
"s  c #4F4634",
"d  c #724A31",
"f  c #59623C",
"g  c #4B6E2F",
"h  c #697336",
"j  c #656F3B",
"k  c #061C46",
"l  c #02264A",
"z  c #013A69",
"x  c #093376",
"c  c #042C72",
"v  c #333252",
"b  c #583D47",
"n  c #084A50",
"m  c #3A4942",
"M  c #3E4C4D",
"N  c #344265",
"B  c #4E4D43",
"V  c #464948",
"C  c #4B584B",
"Z  c #555C4A",
"A  c #57564B",
"S  c #4A5654",
"D  c #585856",
"F  c #514E45",
"G  c #5E655D",
"H  c #7A634B",
"J  c #72744A",
"K  c #67734F",
"L  c #575767",
"P  c #566069",
"I  c #777164",
"U  c #7A7D75",
"Y  c #696B70",
"T  c #8D7E59",
"R  c #A77A53",
"E  c #A15E65",
"W  c #A27865",
"Q  c #A96D65",
"!  c #DF7C5F",
"~  c #438500",
"^  c #52912E",
"/  c #38974A",
"(  c #2CAA60",
")  c #768758",
"_  c #74814C",
"`  c #71AC5B",
"'  c #628D62",
"]  c #60A469",
"[  c #4C9577",
"{  c #50C074",
"}  c #A2AE32",
"|  c #B7CD3C",
" . c #8C9446",
".. c #8B8A4D",
"X. c #97A54B",
"o. c #9CA95C",
"O. c #8DA452",
"+. c #A6B558",
"@. c #AFB655",
"#. c #9FAA6E",
"$. c #A9B165",
"%. c #8F9C70",
"&. c #C58359",
"*. c #E3925D",
"=. c #C7936B",
"-. c #DA9470",
";. c #E6956B",
":. c #E99D77",
">. c #F49C76",
",. c #F09E6F",
"<. c #DAA565",
"1. c #D8AC7A",
"2. c #ECA079",
"3. c #E7A475",
"4. c #FAA476",
"5. c #FBB47B",
"6. c #EEA46C",
"7. c #BDC84B",
"8. c #BDD54A",
"9. c #BECC5B",
"0. c #BECB54",
"q. c #BBD459",
"w. c #BCD266",
"e. c #B8C872",
"r. c #BCCD71",
"t. c #B8E56E",
"y. c #C2CC4A",
"u. c #C6D549",
"i. c #D3DA45",
"p. c #C4CE54",
"a. c #C4CD5C",
"s. c #CACF5B",
"d. c #C6D254",
"f. c #CBD553",
"g. c #CCDA54",
"h. c #C6D25A",
"j. c #C9D45C",
"k. c #C5DA5C",
"l. c #CCD95C",
"z. c #D2DA5A",
"x. c #D8D958",
"c. c #CFE254",
"v. c #C3CE63",
"b. c #C1CD6A",
"n. c #C9CD65",
"m. c #C5D463",
"M. c #CBD563",
"N. c #CDD963",
"B. c #CCD46B",
"V. c #CCDA6A",
"C. c #C5D46A",
"Z. c #D1D76D",
"A. c #D4DB64",
"S. c #C9C973",
"D. c #CDD472",
"F. c #C8D772",
"G. c #D1D972",
"H. c #FFC57D",
"J. c #D5E168",
"K. c #E3E96D",
"L. c #075C97",
"P. c #105D8B",
"I. c #036299",
"U. c #0E708E",
"Y. c #21788B",
"T. c #0B56BE",
"R. c #124DB3",
"E. c #006CA9",
"W. c #1269AC",
"Q. c #1258D3",
"!. c #0B55C2",
"~. c #0572CE",
"^. c #0168F3",
"/. c #99779C",
"(. c #158998",
"). c #2AAFBE",
"_. c #5C8B81",
"`. c #6AD39E",
"'. c #008FC2",
"]. c #0995D5",
"[. c #0190D0",
"{. c #2C93C8",
"}. c #01A2D9",
"|. c #0590F3",
" X c #6299C0",
".X c #73C4D5",
"XX c #96879F",
"oX c #92948F",
"OX c #87B084",
"+X c #9495A6",
"@X c #ADB3B8",
"#X c #B1B6BA",
"$X c #B2B6B2",
"%X c #B5B09A",
"&X c #E19980",
"*X c #DAA687",
"=X c #F9B786",
"-X c #ECB995",
";X c #F8AD8A",
":X c #C6B4BB",
">X c #ECB8A0",
",X c #A8DC9E",
"<X c #AEC0AA",
"1X c #CCD082",
"2X c #F2C391",
"3X c #C6ED9E",
"4X c #FCD7BB",
"5X c #F5CEB6",
"6X c #A2B9C4",
"7X c #B1B8C7",
"8X c #ABB4D1",
"9X c #F7DAC8",
"0X c #F8DBD5",
"qX c #F5E2D2",
"wX c #FEF1D4",
"eX c #FEF4D9",
"rX c #F8ECCF",
"tX c #DAE3E0",
"yX c #EEEDEC",
"uX c #F3EDE6",
"iX c #EAF5E6",
"pX c #F6F9EB",
"aX c #E8ECF6",
"sX c #EAF2F4",
"dX c #EBFEFF",
"fX c #E8F5F8",
"gX c #FEFCF4",
"hX c #F4F4FC",
"jX c #F4FEFE",
"kX c #FCFDFD",
"lX c #F5F7F5",
"zX c #F2EFF8",
"xX c #C7CDCD",
/* pixels */
"V.M.m.j.M.M.M.l.M.h.V.p.l.l.m.F.N.C.B.f.z.A.d.u.l.j.M.M.m.M.Z.M.",
"M.M.m.s.j.j.j.j.h.d.l.l.C.v.J.u.N.q.V.D.b.G.M.p.N.j.l.m.a.s.B.M.",
"M.j.j.s.s.j.j.h.d.N.m. .j j w.d.0.l.X.f f $.h.V.j.j.j.j.a.a.j.M.",
"M.M.h.m.m.j.j.j.k.r.#.Z V 8 J r.a.@.j m S J +.V.h.h.j.j.j.m.M.M.",
"M.M.j.j.l.j.l.h.u.X.@ +XaXtXZ I 1Xq U aXaXZ w d.j.h.h.h.l.M.j.j.",
"l.j.j.j.h.h.h.s.z.o.  @XjXlX: ; q   +XkXjXY # F.l.z.h.p.h.l.j.m.",
"j.m.h.h.h.f.f.h.+.) Z xXsXpX) V Z m #XaXkXoXi %.7.h.l.s.h.h.l.M.",
"j.j.j.h.j.j.j.h.A F yXkXkXsXkXyXdXiXpXjXhXgX$X& } 7.N.l.d.s.s.l.",
"M.M.j.j.j.j.j.h.p A gXkXsXdXlXpXgXkXjXfXdXjXlX6XG f V.d.k.d.D.p.",
"M.l.j.j.j.j.j.h.y S zXlXkXkXqX4X9XqX5X4X9X5XeXkXD i m.k.M.d.G.s.",
"M.m.j.j.j.j.h.h.g S hXgXgX0X*X6.3.*X2.3.>.*.5X9XD a m.k.l.p.B.s.",
"M.M.j.s.j.f.j.h.7 S zXgXqX-X,.6.6.4.:.4.5.,.;X>XF t k.q.j.s.B.f.",
"M.M.j.h.j.j.h.h.C D sXgX5X2.4.&.H 2.4.1.;...W :.B t m.h.j.d.B.j.",
"M.M.s.j.j.j.j.j.p D aXjX5X;X,.d $ =.5.5.-X1 : 3.F p m.h.N.p.B.f.",
"M.j.j.h.j.j.j.h.p A sXdXqX,.-.2 $ =.4.=X:.2 < &.s s M.j.M.s.B.l.",
"M.M.j.j.j.j.M.j.C Z iXfX9X;.:./.I ;.4.;X2.R W ! s p V.a.M.j.B.h.",
"V.d.m.k.V.i.u.F.t L uXgXuX*X3.4.;X:.>.:.>.4.=X2XS t w.l.0.V.m.j.",
"B.g.w.q.B.i.N.e.i S iXzXkXwX-X<.:.:.6.<.<.<.2XeXL t C.g.d.j.m.N.",
"B.j.m.d.B.u.e.g & C pXkXhXkXsXeXpXeXrXeXeXeXpXkXY t F.l.g.M.b.B.",
"M.g.m.h.A.k.) 7 7 K %X:X:X#X@X@X#X@X7X8X@X#X7X6XK h 9.d.d.n.C.N.",
"n.M.j.a.N.d.m OX3X' , $ k $ O + $ $ k k O X % X o.b.l.z.a.n.M.d.",
"l.j.M.a.k.k.4 ,X` n L.E.E.Y.[ _.I.U.I.Y.] 6 . . X.M.d.f.a.Z.M.f.",
"j.h.M.B.g.q.* ` @ =  X.X{.U._.`.|.].].).`.g > S )  .l.f.j.Z.m.f.",
"l.m.h.v.g.8.* ^ 4 s *XH.E + ~ / |.'.].(./ + d -XA q B.y.f.M.n.B.",
"V.j.s.p.N.r.3 ' 5 # 2X=XQ o 0 ( }.'.|.{.^ + V 5.s u s.g.d.h.l.f.",
"9.M.p.l.p.w.e 4 9 e H H P P.U.(.~.~.[.'.(.* # T J  .M.y.f.m.s.s.",
"h.V.a.A.7.m.+.r g e $   z Q.T.R.Q.!.L.T.^.c X < $.n.A.p.j.n.m.m.",
"V.s.M.z.d.J.w.e.Z - % $ x W.n l l = $ x ~.z 6 o.n.M.f.l.a.B.Z.M.",
"M.0.A.h.g.g.p.Z.O...J > N XX; ,  . .# v /.M @ N.g.d.d.l.a.B.B.m.",
"k.B.v.9.g.p.s.a.g.z.| 8 d 1.b a s.k.p 2 -.I m 7.f.d.g.h.m.M.n.j.",
"d.V.m.v.a.g.A.a.w.7.A.1Xm.K.e.8.f.i.s.S.A.S.S.x.p.j.j.h.j.j.h.h.",
"l.M.F.F.m.N.m.M.x.F.b.x.l.q.M.z.F.q.c.f.t.N.z.w.M.n.B.l.M.d.A.A."
};
