/* XPM */
static char *P_S[] = {
/* columns rows colors chars-per-pixel */
"32 32 237 2 ",
"   c #03040A",
".  c #001E00",
"X  c #071508",
"o  c #121805",
"O  c #050517",
"+  c #161C14",
"@  c #061817",
"#  c #2B1B1E",
"$  c #1C2401",
"%  c #192816",
"&  c #153D0E",
"*  c #262B09",
"=  c #232A1A",
"-  c #021A30",
";  c #161934",
":  c #0F1B2A",
">  c #07242A",
",  c #172727",
"<  c #0D2237",
"1  c #292C24",
"2  c #372C26",
"3  c #263527",
"4  c #3A3328",
"5  c #2A3839",
"6  c #383A39",
"7  c #382635",
"8  c #473636",
"9  c #4A352D",
"0  c #0F4500",
"q  c #317118",
"w  c #154536",
"e  c #3C4726",
"r  c #334A33",
"t  c #376928",
"y  c #2F4C11",
"u  c #414C16",
"i  c #505118",
"p  c #444B2B",
"a  c #515E31",
"s  c #615D33",
"d  c #556228",
"f  c #56693E",
"g  c #687138",
"h  c #6C7435",
"j  c #6C701B",
"k  c #12334A",
"l  c #103A52",
"z  c #3A3548",
"x  c #0C3477",
"c  c #45354D",
"v  c #6F3244",
"b  c #04446C",
"n  c #164A6A",
"m  c #204A7C",
"M  c #395F4D",
"N  c #5A4644",
"B  c #665756",
"V  c #546D52",
"C  c #656742",
"Z  c #666759",
"A  c #6E6C54",
"S  c #514F67",
"D  c #535266",
"F  c #596A65",
"G  c #737976",
"H  c #707569",
"J  c #816A36",
"K  c #8A6A59",
"L  c #A9775D",
"P  c #926E67",
"I  c #8D6C67",
"U  c #B6736D",
"Y  c #CA7B5D",
"T  c #37A31C",
"R  c #398721",
"E  c #388B19",
"W  c #409202",
"Q  c #7A8A3F",
"!  c #5BA63D",
"~  c #3A954C",
"^  c #35A072",
"/  c #4E8244",
"(  c #7B894F",
")  c #6A8F73",
"_  c #51AD51",
"`  c #959E30",
"'  c #8C9847",
"]  c #909946",
"[  c #899754",
"{  c #869251",
"}  c #A0984D",
"|  c #99A349",
" . c #9CA657",
".. c #ADBA4A",
"X. c #A1AC5A",
"o. c #AAB456",
"O. c #B7BA57",
"+. c #A3AC4A",
"@. c #AD856A",
"#. c #95B069",
"$. c #A1AC65",
"%. c #B4BB65",
"&. c #948679",
"*. c #F59158",
"=. c #EC935B",
"-. c #E8A45B",
";. c #F6A75A",
":. c #C58163",
">. c #D99875",
",. c #D7976B",
"<. c #EA9468",
"1. c #F89E6D",
"2. c #E99978",
"3. c #F2977C",
"4. c #DEA36B",
"5. c #C8B068",
"6. c #E7A867",
"7. c #F4A86F",
"8. c #EBA476",
"9. c #E7A677",
"0. c #FDA47A",
"q. c #F5A976",
"w. c #FCB374",
"e. c #EEB17A",
"r. c #BBC74B",
"t. c #BDD34C",
"y. c #BAC959",
"u. c #B7C951",
"i. c #BEE453",
"p. c #B9C666",
"a. c #BDD167",
"s. c #BCC971",
"d. c #8ACA6A",
"f. c #C2CD4C",
"g. c #C8D44B",
"h. c #C3CE56",
"j. c #C4CE5C",
"k. c #CACE5B",
"l. c #C5D353",
"z. c #CAD555",
"x. c #C6D25B",
"c. c #C9D45B",
"v. c #CDDA5C",
"b. c #CADA55",
"n. c #D2DB5B",
"m. c #D3CA53",
"M. c #D2E15A",
"N. c #C5CE63",
"B. c #C7CB68",
"V. c #C6D262",
"C. c #CAD463",
"Z. c #CDDA63",
"A. c #CBD46B",
"S. c #C8D769",
"D. c #D1DB63",
"F. c #D1DA6A",
"G. c #D3D76D",
"H. c #C7D673",
"J. c #D1D973",
"K. c #D0CC70",
"L. c #FDDA76",
"P. c #C8E36C",
"I. c #D3E26C",
"U. c #D2E071",
"Y. c #053E8C",
"T. c #2633A6",
"R. c #0F4D8C",
"E. c #0552A9",
"W. c #0C67B8",
"Q. c #2A6DB3",
"!. c #797C86",
"~. c #0875D9",
"^. c #005BE7",
"/. c #096EE4",
"(. c #179482",
"). c #349A99",
"_. c #078DBA",
"`. c #0C8FAF",
"'. c #11A887",
"]. c #7B8682",
"[. c #5EB0A4",
"{. c #018DD9",
"}. c #0395CF",
"|. c #1FAFC7",
" X c #38A7C3",
".X c #088EE2",
"XX c #0193E0",
"oX c #008EF1",
"OX c #8C9096",
"+X c #929497",
"@X c #8E938F",
"#X c #B3A493",
"$X c #B5A68F",
"%X c #9197A7",
"&X c #9BA8AA",
"*X c #A5A8B7",
"=X c #ACB2B5",
"-X c #AEB0AB",
";X c #CFB597",
":X c #F6AB85",
">X c #FAB698",
",X c #F4AD8B",
"<X c #FDBCA6",
"1X c #85E5B0",
"2X c #B8F1A0",
"3X c #A3C996",
"4X c #C6D582",
"5X c #E7C998",
"6X c #F7C3AA",
"7X c #EBC9B3",
"8X c #E5D2B3",
"9X c #F3D6B7",
"0X c #EFC6AD",
"qX c #B9BBD1",
"wX c #B4B6CB",
"eX c #DBDED9",
"rX c #C0C4CD",
"tX c #FCDAC6",
"yX c #F0CCC0",
"uX c #D2E5D4",
"iX c #FCE3CC",
"pX c #F2F1DA",
"aX c #DADFE3",
"sX c #E6DBF5",
"dX c #D4EAEE",
"fX c #F6EEE8",
"gX c #ECFBEB",
"hX c #F9FDE8",
"jX c #ECFAFB",
"kX c #FDF5F6",
"lX c #F4FCF3",
"zX c #FDFDF3",
"xX c #FCF4FE",
"cX c #F4FCFE",
"vX c #FBFEFC",
"bX c #F6F6FC",
"nX c #EAEAF3",
/* pixels */
"F.C.A.Z.k.c.c.D.n.n.Z.S.S.P.h.G.J.C.V.b.V.j.N.z.G.C.G.G.F.Z.V.F.",
"A.V.C.V.c.c.k.z.N.b.u. .#.p.x.k.c.k.s. .$.H.V.F.c.h.N.j.N.A.k.Z.",
"V.k.V.k.c.C.h.h.H.I.| $ X a %.n.v.y.C o % { H.r.z.z.c.h.h.V.V.V.",
"Z.C.V.c.C.c.k.C.I.h f @X&XG g p.y.g G &X+XZ Q l.z.z.n.c.c.c.Z.G.",
"c.Z.c.C.C.c.V.D.t.u D cXcXwX1 g [ + %XvXjX!.o l.z.z.z.z.v.z.C.F.",
"c.k.k.V.c.N.C.j.P.p D cXvXqXO o o O *XzXlX!.= 4Xk.A.z.z.z.h.h.A.",
"k.k.h.k.k.C.N...f H =XxXzXeX+X+XOX+XrXlXvX=X) A +.B.C.c.c.c.c.C.",
"c.c.c.c.j.N.j.` : -XhXlXbXhXzXbXvXpXvXvXnXhXeXD j o.C.z.z.z.c.A.",
"A.z.c.N.V.l.V.] > -XgXxXxXjXvXxXkXvXvXgXjXvXvXdX].6 p.F.k.C.n.h.",
"Z.z.x.C.V.l.V.] ; =XzXfXvXhX8X7X8X7X7X9X6X6XiXbX) 1 ..V.c.N.z.V.",
"A.z.c.A.V.b.x.' < *XvXgXpX6X2.<.8.2.2.9.=.1.<XpXG 1 O.C.k.C.c.c.",
"C.x.c.C.c.b.V.' ; %XvXhX7X9.8.0.0.w.<.8.6.0.>X,XZ 1 y.V.j.C.c.C.",
"C.z.c.N.C.l.V.] < =XzXkX0X,.:XL I 6.7.9.e.@.I 8.Z 1 y.V.x.A.z.C.",
"C.c.c.C.V.l.V.] > -XvXxX0X0.2.2 > 4.w.:X0.9 > >.Z 4 u.V.x.V.c.C.",
"C.x.c.N.C.l.S.] % -XxXkX<X<.>.4 5 4.w.q.0.s + U B 4 r.Z.c.N.C.N.",
"A.z.x.N.x.b.V.] + &XxXgX5X=.Y I K q.q.e.q.L K Y s 4 r.Z.l.j.F.C.",
"A.F.h.Z.Z.c.Z.` @ &XcXxX0X9.7.:X,X4.:X:X*.;.,X<XF p p.c.h.F.y.P.",
"c.j.V.A.r.b.A. ., =XgXjXgX8X6.*.2.<.,.2.-.7.5X9X!.* %.V.h.V.x.v.",
"n.x.A.k.l.U. .e O qXjXgXzXzXtXtXtXiXtXtXtXtXfXvXOX* %.C.V.V.x.x.",
"t.F.c.c.Z.$.f & * &XuXuXeXsXdXdXeXeXaXeXsXaXjXdXG u O.x.x.V.C.Z.",
"A.F.f.g.| e F 3Xd.F z 8 8 5 r l z z 6 5 e z r z ( X.b.b.l.V.V.Z.",
"A.j.g.n.' % ) 2X) n x x x n M w b n b n V 3     ( H.z.g.l.C.V.Z.",
"D.N.k.c.[ , ) ! O R. X|.`.).1X[.{.}.{. X1Xf ; 7 ( o.z.z.h.A.V.z.",
"v.N.K.K.' . ) R @ !.;X#XS w _ ^ XX}.{.`._ 0 6 &.C d O.G.C.A.V.c.",
"A.z.z.V.{ . / q - U L.*.v . W ).{.{.XX'.T & 8 :XG * %.F.k.C.c.z.",
"C.h.h.N.[ y t t , A ;X:Xc & ~ (..X}.oX`./ % 8 $Xs i %.N.h.z.C.c.",
"t.b.h.j.a.[ y t R a 8 1 R.E.W.~./.~.~.~.Q.l X r h } C.z.c.j.V.V.",
"b.v.Z.Z.c.F.( d q 7   O Q./.E.T.Y.R.b R.^.R.5 s o.G.z.v.A.j.N.Z.",
"C.V.A.h.l.b.S. .= : % > R.R., $ 1 % @ k Q.x e O.h.n.t.c.V.N.V.c.",
"y.A.a.y.M.r.v.a.+.#.G > ) @.> V ]  .4 c #XB # x.j.l.f.c.j.A.G.c.",
"F.x.x.C.c.r.D.j.m.P.` $ @.>., ( c.J.s 9 5.J 8 O.C.j.D.v.N.F.A.z.",
"D.Z.v.Z.A.A.C.Z.D.H.A.j.A.G.a.g.b.S.S.c.P.a.a.D.A.j.D.c.N.A.Z.n."
};
