/* XPM */
static char *C_2[] = {
/* columns rows colors chars-per-pixel */
"32 32 183 2 ",
"   c #0E0600",
".  c #090900",
"X  c #120900",
"o  c #1A0C00",
"O  c #121200",
"+  c #1C1600",
"@  c #181900",
"#  c #2C0700",
"$  c #241600",
"%  c #2D1100",
"&  c #251A00",
"*  c #2C1B00",
"=  c #351100",
"-  c #331B00",
";  c #391A00",
":  c #252A00",
">  c #302700",
",  c #352A00",
"<  c #3A2D00",
"1  c #462500",
"2  c #432800",
"3  c #493A00",
"4  c #503800",
"5  c #8F6C04",
"6  c #9B6D00",
"7  c #947800",
"8  c #9C7405",
"9  c #A07701",
"0  c #B97E12",
"q  c #D07000",
"w  c #D77E00",
"e  c #9E8214",
"r  c #AC8316",
"t  c #B88917",
"y  c #B59116",
"u  c #B99525",
"i  c #C58A00",
"p  c #D18100",
"a  c #DE8300",
"s  c #D38C00",
"d  c #C69F00",
"f  c #DB9F09",
"g  c #C48A1C",
"h  c #DD9616",
"j  c #E08000",
"k  c #E09000",
"l  c #E0920C",
"z  c #E39413",
"x  c #F29B10",
"c  c #D5A800",
"v  c #DEAB00",
"b  c #D1B500",
"n  c #DDB603",
"m  c #CEAC15",
"M  c #D0A018",
"N  c #D7AB18",
"B  c #D2B916",
"V  c #FFA20B",
"C  c #FFA312",
"Z  c #FCA91B",
"A  c #C08B23",
"S  c #C29A28",
"D  c #D7A42C",
"F  c #DAA329",
"G  c #CFBF21",
"H  c #CFBD2D",
"J  c #F6A72E",
"K  c #FDAB2E",
"L  c #EBB435",
"P  c #FBB837",
"I  c #E5A426",
"U  c #FFCC0A",
"Y  c #F0C618",
"T  c #FFC91F",
"R  c #FFD317",
"E  c #FFEF1E",
"W  c #FFDB2A",
"Q  c #FFCD3F",
"!  c #FFE720",
"~  c #FFF029",
"^  c #FFE036",
"/  c #FFF233",
"(  c #B4A94C",
")  c #ACBE46",
"_  c #ADBB59",
"`  c #B8BC55",
"'  c #B1AE61",
"]  c #BFBD66",
"[  c #B3BC6D",
"{  c #C0B247",
"}  c #C2BC44",
"|  c #C1BC5C",
" . c #C4B55A",
".. c #E7B343",
"X. c #F4B541",
"o. c #C6B460",
"O. c #AFC24D",
"+. c #AEC752",
"@. c #B3C353",
"#. c #B6CA55",
"$. c #BCC45C",
"%. c #B7CA5E",
"&. c #BBCC5C",
"*. c #B6C658",
"=. c #BED955",
"-. c #BFD75E",
";. c #BED85A",
":. c #BAC461",
">. c #BED562",
",. c #BDC272",
"<. c #C9D54D",
"1. c #C1D94F",
"2. c #C3C355",
"3. c #C7C851",
"4. c #CDC15B",
"5. c #C1CC5D",
"6. c #C1C459",
"7. c #D2CE50",
"8. c #D4CC5F",
"9. c #D8CA5F",
"0. c #D6C559",
"q. c #C4D654",
"w. c #CAD355",
"e. c #C1D853",
"r. c #C4D55C",
"t. c #C9D35C",
"y. c #C4DC5E",
"u. c #FFE74F",
"i. c #FFE84E",
"p. c #FFE956",
"a. c #FCE95F",
"s. c #C0C760",
"d. c #CDCF63",
"f. c #CACF6B",
"g. c #C8C768",
"h. c #D3CC62",
"j. c #C4D362",
"k. c #C9D163",
"l. c #CADB67",
"z. c #C3D369",
"x. c #C9D26A",
"c. c #C6DD68",
"v. c #CDDC6D",
"b. c #C4DE63",
"n. c #D8D367",
"m. c #CCCE71",
"M. c #C4CF7B",
"N. c #C5CA76",
"B. c #D6CF7F",
"V. c #DDCC72",
"C. c #C3D172",
"Z. c #CCD271",
"A. c #CBDB73",
"S. c #D4DF76",
"D. c #D9DB76",
"F. c #E7D779",
"G. c #CEE068",
"H. c #CAE064",
"J. c #D1E26C",
"K. c #DBE36A",
"L. c #CFE674",
"P. c #D6E471",
"I. c #D5E57C",
"U. c #D5E976",
"Y. c #FFED61",
"T. c #FAE568",
"R. c #FFF366",
"E. c #E1E67F",
"W. c #D7D988",
"Q. c #DAE589",
"!. c #E5E483",
"~. c #F2E283",
"^. c #FFFE85",
"/. c #F2F08B",
"(. c #FFFF96",
"). c #FFF39F",
"_. c #FFFF99",
"`. c #E5E696",
"'. c #FEF6AE",
"]. c #FFFBAB",
"[. c #FFFEB6",
"{. c #FFFFBF",
"}. c #FFFFC6",
/* pixels */
"r.j.x.z.j.t.t.t.t.t.d.k.k.k.t.w.e.e.e.e.;.j.>.z.>.j.e.q.q.q.k.k.",
"r.j.j.x.z.z.d.t.t.j.d.k.k.t.w.q.e.e.e.q.r.j.j.>.j.>.q.q.q.t.k.k.",
"r.j.j.j.z.j.j.t.w.w.t.t.w.t.q.q.=.q.q.r.y.-.j.>.>.j.r.q.q.t.j.k.",
"j.j.j.j.z.k.j.t.t.q.q.q.q.q.q.q.r.-.r.-.;.j.>.j.j.j.e.r.t.r.j.j.",
"j.k.j.k.k.j.j.r.r.e.e.1.1.e.r.;.>.j.>.>.;.>.j.>.j.j.t.t.r.r.j.j.",
"k.j.k.j.t.j.r.-.r.q.1.e.e.r.j.c.>.z.j.j.;.r.>.j.r.j.r.t.t.r.j.;.",
"z.d.j.t.r.r.r.-.q.=.=.q.y.>.C.C.C.f.x.j.j.j.;.r.j.j.k.r.j.r.>.;.",
"z.k.t.r.q.r.=.r.;.;.-.>.z.C.,.M.m.f.j.j.r.;.r.j.t.j.j.j.r.j.y.>.",
"d.k.5.t.q.e.e.=.y.-.j._ W.[ : O > X 8.k.5.J.) G.t.j.j.j.j.j.-.;.",
"d.k.r.t.e.e.e.=.y.O.A.Q.,.@ }.[.F.(., 2.3.v.K.#.r.t.t.j.j.t.>.-.",
"k.k.t.t.q.e.1.=.H.I._ Q.. }.'.o.(.S r & n.5.l.O.r.r.t.j.j.j.-.;.",
"t.k.j.r.q.e.1.=.#.Z.N.W., ].( _.D F r ; h.6.j.J.r.r.r.t.r.r.j.r.",
"t.k.d.j.r.q.=.q.v.:.`.  '. .^.Y.Q P F u * /.@.&.-.r.q.t.t.t.j.-.",
"t.t.j.k.j.r.e.e.z.S.' < /.R.G ^ s Z I 6 ; g.x.c.r.e.r.r.r.j.r.j.",
"t.k.j.j.j.-.r.r.$.Z.W.o _.H / ~ p a P g % ` I.#.;.e.q.t.r.t.r.j.",
"t.d.j.j.j.j.q.-.z.g.W.% T.B b ~ w V z g ; F.:.G.r.r.q.r.t.t.j.r.",
"x.t.w.w.w.t.r.r.:.Z.o., p.n v ! a C K 0 = V.` S.t.t.w.t.j.j.>.j.",
"z.t.<.<.w.w.r.r.A.*.Q.+ u.c U R q C J 0 # F.o.A.j.t.t.t.j.j.>.>.",
"z.r.<.<.w.j.r.-.%.I.Z.$ u.Y i W q x h u 1  .D.5.t.q.w.t.j.j.j.-.",
">.>.q.e.r.r.y.>.>.A.$.& R.d T s k l X.0 2 ( !.&.r.t.w.t.r.;.j.j.",
">.-.q.e.r.j.-.>.L.+.x.+ Y.m N f h P ..5 - !.` J.t.q.q.q.t.r.j.j.",
">.-.r.q.r.>.r.;.+.L.j.3.o R.N M L D 8 4 4.` l.r.r.e.w.w.t.r.j.j.",
"-.r.q.r.r.j.j.-.c.-.@.K.7.3 7 y 8 r 2 { D.x.&.r.e.e.q.w.t.r.-.r.",
"r.r.r.r.r.j.>.-.-.b.y.r.w.} & ; ; * 0.n.t.t.l.=.q.e.q.q.q.r.r.j.",
"t.r.t.k.j.j.j.-.;.-.;.r.t.t.d.h.9.8.8.d.j.j.r.r.r.e.q.q.t.t.r.j.",
"t.q.k.t.k.t.j.j.>.;.;.;.j.j.d.d.h.h.d.k.r.r.-.-.t.q.q.e.q.t.r.j.",
"w.w.k.k.t.j.j.r.r.;.=.;.j.z.x.j.d.d.j.t.t.r.r.j.r.r.t.t.t.r.r.j.",
"q.t.k.k.t.w.j.j.j.r.r.e.j.>.>.j.x.j.r.t.q.r.t.j.j.j.r.t.r.r.r.r.",
"e.e.j.j.w.t.j.j.k.t.t.t.j.j.j.j.j.d.t.r.q.w.j.j.z.j.j.r.r.r.r.y.",
"e.r.j.j.r.q.t.k.k.t.q.w.d.f.t.t.j.j.r.q.q.w.j.d.f.d.z.t.t.r.r.r.",
"=.;.>.>.q.q.k.k.d.k.w.w.d.d.w.t.j.j.t.q.q.w.t.f.f.f.x.j.r.-.r.-.",
"=.;.>.>.r.q.t.d.f.d.7.w.d.f.w.w.j.r.q.q.w.w.d.f.C.f.x.j.j.j.r.r."
};
