/* XPM */
static char *C_4[] = {
/* columns rows colors chars-per-pixel */
"32 32 184 2 ",
"   c #140B00",
".  c #1E0B00",
"X  c #1A1200",
"o  c #220500",
"O  c #231500",
"+  c #2F1600",
"@  c #221E00",
"#  c #2C1E00",
"$  c #371800",
"%  c #381700",
"&  c #212000",
"*  c #2C2400",
"=  c #2D2900",
"-  c #3F2800",
";  c #322400",
":  c #343300",
">  c #3A3200",
",  c #AC700E",
"<  c #BF7800",
"1  c #B1780F",
"2  c #D47600",
"3  c #BD9900",
"4  c #BA871E",
"5  c #BE911A",
"6  c #BF8823",
"7  c #B48926",
"8  c #B79824",
"9  c #B2912A",
"0  c #9AA83A",
"q  c #A4AC3D",
"w  c #C2870F",
"e  c #D78300",
"r  c #CC9C00",
"t  c #D0970A",
"y  c #D69217",
"u  c #E78700",
"i  c #EF9000",
"p  c #EE9805",
"a  c #CAA800",
"s  c #D9A603",
"d  c #DEB300",
"f  c #DABD00",
"g  c #DBA119",
"h  c #CBB313",
"j  c #DAB818",
"k  c #D9B815",
"l  c #E3AB00",
"z  c #EBAE00",
"x  c #EBBB00",
"c  c #E6B909",
"v  c #EEA117",
"b  c #FFAE1C",
"n  c #E59E26",
"m  c #CCA421",
"M  c #F9A92E",
"N  c #E1B725",
"B  c #FDB427",
"V  c #E0A231",
"C  c #EABF3C",
"Z  c #FDB73D",
"A  c #D09134",
"S  c #B6C43D",
"D  c #E7C000",
"F  c #FFDE1B",
"G  c #FFE20D",
"H  c #FFE210",
"J  c #FFEC1C",
"K  c #FFDF27",
"L  c #FFDA33",
"P  c #FFEF28",
"I  c #EEE133",
"U  c #FFEE3D",
"Y  c #FFF73D",
"T  c #FFF93F",
"R  c #978241",
"E  c #A2854B",
"W  c #BCAC4A",
"Q  c #ABBB48",
"!  c #B9B751",
"~  c #B7BE57",
"^  c #B2BB5E",
"/  c #AEB764",
"(  c #BBBF68",
")  c #BFBD70",
"_  c #E8B250",
"`  c #D0AE7E",
"'  c #C8AA76",
"]  c #A9C744",
"[  c #A6C442",
"{  c #B4C346",
"}  c #BAC84D",
"|  c #BFDB48",
" . c #BFDC46",
".. c #AEC954",
"X. c #B6CB52",
"o. c #BAC25C",
"O. c #B5CC5C",
"+. c #BCC256",
"@. c #BFD954",
"#. c #B7D358",
"$. c #BDD55D",
"%. c #BED95A",
"&. c #B5C562",
"*. c #BCC362",
"=. c #BFD661",
"-. c #BFD66A",
";. c #C3C645",
":. c #C4D54E",
">. c #C9D54E",
",. c #C2D94C",
"<. c #C2DA46",
"1. c #C0C859",
"2. c #C4D654",
"3. c #C9D454",
"4. c #C1D953",
"5. c #C4D55B",
"6. c #C9D25C",
"7. c #CDDD59",
"8. c #D0D255",
"9. c #D0DA5F",
"0. c #ECDD4E",
"q. c #F1DF5B",
"w. c #D5E35A",
"e. c #E7E04A",
"r. c #FFE54D",
"t. c #FFEB5A",
"y. c #F9EB57",
"u. c #FFF45C",
"i. c #CBC164",
"p. c #CFCF61",
"a. c #C8C76B",
"s. c #CBCE6C",
"d. c #C3CF6D",
"f. c #C4D363",
"g. c #C9D162",
"h. c #CCDB67",
"j. c #C4D368",
"k. c #C9D26A",
"l. c #CED96B",
"z. c #C6DE6E",
"x. c #DBD364",
"c. c #D3DA67",
"v. c #D1DC6E",
"b. c #D8DB68",
"n. c #D2D369",
"m. c #CBCD72",
"M. c #C6CE78",
"N. c #CCCB7C",
"B. c #C2C672",
"V. c #C6D070",
"C. c #CDD674",
"Z. c #CDDD72",
"A. c #CED578",
"S. c #DED671",
"D. c #D2DC72",
"F. c #DBD27C",
"G. c #D7DB7A",
"H. c #C9E466",
"J. c #D3E266",
"K. c #D1EC6C",
"L. c #DAE36E",
"P. c #D1EC71",
"I. c #D2E37F",
"U. c #DAE671",
"Y. c #FFEC6E",
"T. c #FFED64",
"R. c #E6E07E",
"E. c #E2EA7D",
"W. c #FFFD74",
"Q. c #CDCD83",
"!. c #D5D282",
"~. c #D2DC86",
"^. c #FFE599",
"/. c #E6FB96",
"(. c #F9E8A8",
"). c #FFF1A9",
"_. c #FFFDAC",
"`. c #FEE9B4",
"'. c #FFF7B1",
"]. c #FFFFB1",
"[. c #FFF3B8",
"{. c #FFFCBC",
"}. c #FFF8C3",
"|. c #FFFFCA",
/* pixels */
"f.5.5.2.3.3.6.6.6.p.g.6.3.:.:.:.2.3.2.2.2.2.5.f.j.j.j.g.g.6.3.3.",
"f.f.5.6.3.6.3.6.g.6.6.5.2.2.,.2.5.5.5.2.2.2.5.f.j.j.j.g.g.6.3.6.",
"f.5.5.5.6.2.3.6.6.g.5.5.5.2.2.4.5.5.5.2.2.5.5.5.f.f.g.g.6.3.6.3.",
"5.f.5.5.3.3.6.5.5.5.5.5.2.5.2.5.5.5.5.5.4.5.6.5.5.f.g.5.6.6.6.3.",
"5.g.g.5.6.6.5.5.5.5.%.5.5.5.5.5.f.$.5.f.%.5.2.5.5.6.6.6.6.3.5.3.",
"g.5.g.6.6.5.5.2.5.%.5.%.5.5.5.5.5.f.5.f.5.5.6.2.3.3.6.6.6.6.5.5.",
"5.g.6.g.g.5.5.4.@.%.$.5.2.5.3.8.6.g.g.g.f.5.5.2.3.>.3.3.2.5.2.5.",
"6.6.g.g.6.5.5.5.%.%.$.5.5.3.8.3.8.8.6.g.f.5.5.3.>.>.3.3.6.5.5.4.",
"6.6.g.g.6.6.5.%.H.] $.5.c.;.* @ *   x.p.+.L.} 7.3.>.>.3.6.5.5.4.",
"6.6.g.g.6.5.4.@.[ K.P.0 3.: y.t.T.Y.O x.n.1.6.:.:.>.3.3.3.5.%.5.",
"6.6.g.6.6.2.4.@.K.$.[ L.= 0.h k N m 8 . S.n.g.2.>.>.3.3.6.5.5.5.",
"6.6.g.6.6.3.2.4.X.=.l.b.. u.3 c l y 5 % W ! c.2.2.>.3.3.6.5.5.4.",
"g.g.g.6.3.3.2.4.H.j.o.: q.j x F L B w 9 - R.q U.2.:.3.6.6.g.5.5.",
"g.5.6.3.3.3.:.2.$.Z.G.  W.s d J e p _ 6 o i.E.X.2.2.6.6.g.6.6.6.",
"5.g.6.6.>.>.:.4.$.Z.s.O t.c J G i u B 1 % i.v.X.5.2.5.6.g.6.6.6.",
"5.5.6.3.3.3.:.2.j.j.a.# r.d z H 2 B n w % F.~ h.5.2.6.6.g.g.g.5.",
"2.3.>.>.3.6.2.2.O.~.N.X Y z l P 2 v V 7 + F.o.Z.5.2.6.6.p.s.j.j.",
"6.3.>.3.6.6.:.4.I./ !.@ Y D r K 2 n _ _.. !.o.l.5.3.6.6.g.k.f.j.",
"V.k.6.g.k.g.2.4.j.&.G.X r.a x L y A ^.{.O !.*.h.3.>.3.6.6.f.$.5.",
"M.m.k.g.k.g.4.4.#.~.*.& I f r t , [.[.R = ' C.{ >.>.>.3.6.5.5.$.",
"V.V.g.g.g.6.:.,.%.O.^ : e.h C 4 ).}.` `.: B.n.J.>.>.>.3.2.5.4.%.",
"k.g.6.6.g.2.<.<.K.z.&.C.: q.9 _.{.' |.  Q.A.Q :.>.>.>.3.6.5.%.%.",
"6.6.3.3.6.2.<.| [ ../.0 b.# _.`.R (.= Q.^ k.J.{ >.>.3.6.5.f.5.$.",
"6.3.3.3.6.2.<.| @.#.-.Z.g.! # + X & &.A.j.5.{ w.>.>.6.6.f.f.=.=.",
"6.3.6.6.5.5.2.,.@.@.$.=.5.6.s.m.j.j.j.j.5.2.2.>.>.8.6.g.j.f.f.$.",
"6.6.6.6.g.5.4.:.@.@.%.@.2.2.g.g.5.5.5.5.4.2.:.2.>.8.6.g.g.f.f.$.",
"g.g.5.g.g.g.5.2.@.2.4.:.,.:.6.5.2.2.4.2.4.2.2.2.3.3.6.6.5.5.5.5.",
"5.5.g.g.g.g.5.5.2.2.2.:.2.4.2.2.2.2.2.4.2.2.4.5.3.6.6.3.5.5.5.5.",
"5.5.5.5.5.g.6.5.5.6.5.5.5.%.5.5.2.2.2.5.6.5.5.5.5.6.2.6.6.6.5.f.",
"5.5.5.5.6.g.g.g.6.5.6.5.5.f.f.5.5.5.6.2.5.5.5.5.5.2.5.5.6.g.g.g.",
"g.f.f.5.g.5.g.g.g.5.6.6.g.j.f.5.6.6.6.6.f.5.=.f.5.2.5.3.g.g.s.s.",
"f.j.g.f.g.g.p.g.p.p.6.5.j.j.g.5.6.6.6.g.f.f.f.5.5.5.5.5.g.g.s.m."
};
