/* XPM */
static char *E_1[] = {
/* columns rows colors chars-per-pixel */
"32 32 229 2 ",
"   c #161202",
".  c #231817",
"X  c #252403",
"o  c #342E14",
"O  c #3E3817",
"+  c #2D2415",
"@  c #321933",
"#  c #30172D",
"$  c #2F2221",
"%  c #362629",
"&  c #3D2C3B",
"*  c #3B2536",
"=  c #3A3321",
"-  c #472D3C",
";  c #473737",
":  c #3D4500",
">  c #4B491C",
",  c #564B3C",
"<  c #5A5839",
"1  c #474030",
"2  c #615E27",
"3  c #5E6329",
"4  c #596631",
"5  c #666639",
"6  c #6E723B",
"7  c #757837",
"8  c #6E6E2D",
"9  c #340F55",
"0  c #3C2442",
"q  c #2F0463",
"w  c #42105A",
"e  c #462947",
"r  c #483545",
"t  c #4A2756",
"y  c #583957",
"u  c #523251",
"i  c #49167E",
"p  c #5A3665",
"a  c #56296A",
"s  c #62306B",
"d  c #5E5647",
"f  c #5F5F55",
"g  c #5D4845",
"h  c #625949",
"j  c #614A56",
"k  c #695B56",
"l  c #614E48",
"z  c #5E6245",
"x  c #6A6947",
"c  c #736C48",
"v  c #787846",
"b  c #636354",
"n  c #6E6957",
"m  c #736C54",
"M  c #746E5C",
"N  c #78675C",
"B  c #7D7A54",
"V  c #75745B",
"C  c #7D745B",
"Z  c #7C7D5C",
"A  c #777456",
"S  c #6D714E",
"D  c #674B68",
"F  c #795A66",
"G  c #6C5479",
"H  c #704D78",
"J  c #7A6965",
"K  c #757263",
"L  c #7C7B64",
"P  c #7B7C6B",
"I  c #787466",
"U  c #796476",
"Y  c #76746A",
"T  c #837E5A",
"R  c #816967",
"E  c #847D63",
"W  c #85796D",
"Q  c #846C7A",
"!  c #8C7B75",
"~  c #887977",
"^  c #93787F",
"/  c #6E823D",
"(  c #7D8451",
")  c #7C8163",
"_  c #81833C",
"`  c #91903D",
"'  c #83844E",
"]  c #888A48",
"[  c #8B9347",
"{  c #979A49",
"}  c #8B8C52",
"|  c #88865A",
" . c #9A9D5A",
".. c #959659",
"X. c #908F5A",
"o. c #98A14A",
"O. c #9BA653",
"+. c #A3AA59",
"@. c #A6AB59",
"#. c #B7BB5A",
"$. c #A8AD4F",
"%. c #8E8B64",
"&. c #87856A",
"*. c #958F69",
"=. c #96956B",
"-. c #848370",
";. c #8C8B73",
":. c #8B837A",
">. c #8A8578",
",. c #92827A",
"<. c #938C7D",
"1. c #938D73",
"2. c #959376",
"3. c #A19C6A",
"4. c #A4A665",
"5. c #ADB366",
"6. c #B3BA64",
"7. c #B8BA6A",
"8. c #AAA977",
"9. c #B8BD77",
"0. c #C0BE73",
"q. c #BBC94A",
"w. c #B9C858",
"e. c #BCD35C",
"r. c #BCD85C",
"t. c #BED24F",
"y. c #BDCC63",
"u. c #BBC367",
"i. c #BCC074",
"p. c #B6CF63",
"a. c #C3D34F",
"s. c #C9D54C",
"d. c #C3CD54",
"f. c #C9CF55",
"g. c #C4CE5B",
"h. c #CACC5C",
"j. c #C0C358",
"k. c #C3D255",
"l. c #C9D254",
"z. c #CBDB52",
"x. c #C4D35B",
"c. c #CAD35C",
"v. c #C5DA5C",
"b. c #CBDB5D",
"n. c #C3DA56",
"m. c #D1D858",
"M. c #C2CF4B",
"N. c #CEE25D",
"B. c #C3CD63",
"V. c #C5CC6B",
"C. c #CACF6B",
"Z. c #C6CA64",
"A. c #C4D363",
"S. c #CAD563",
"D. c #C6DA63",
"F. c #CBDA63",
"G. c #C5D36B",
"H. c #CBD46B",
"J. c #CDDA6B",
"K. c #C4DB69",
"L. c #D1D564",
"P. c #D2DB63",
"I. c #D4D468",
"U. c #D3DC6A",
"Y. c #DADF69",
"T. c #C6C976",
"R. c #CCD674",
"E. c #D3D673",
"W. c #D8DD77",
"Q. c #CCE26B",
"!. c #DAE16F",
"~. c #D9E575",
"^. c #39008D",
"/. c #3D00B0",
"(. c #4A1985",
"). c #511990",
"_. c #5B2E81",
"`. c #683795",
"'. c #682D85",
"]. c #4F0EA3",
"[. c #5010A2",
"{. c #7626BE",
"}. c #7134BB",
"|. c #6C2DB0",
" X c #754D87",
".X c #7A4E99",
"XX c #7A578E",
"oX c #5E0FCC",
"OX c #731FD5",
"+X c #7734CA",
"@X c #7628DA",
"#X c #7C39D7",
"$X c #7D41C5",
"%X c #892AB7",
"&X c #8A5494",
"*X c #856684",
"=X c #8A7884",
"-X c #907A8C",
";X c #937190",
":X c #8A52AB",
">X c #8B67A4",
",X c #9377A8",
"<X c #906EA7",
"1X c #A27AB6",
"2X c #8028F9",
"3X c #8751C3",
"4X c #905AC8",
"5X c #A94AD2",
"6X c #AA58D8",
"7X c #AC53CC",
"8X c #AD52F0",
"9X c #B36DFF",
"0X c #9652F3",
"qX c #DE78FF",
"wX c #928C83",
"eX c #938383",
"rX c #9B918A",
"tX c #978693",
"yX c #A18F8F",
"uX c #B0A4AE",
"iX c #C3BE84",
"pX c #C9C787",
"aX c #CCD882",
"sX c #D8DA81",
"dX c #E1E785",
"fX c #D897FB",
"gX c #FAA9FF",
"hX c #FFC8FF",
"jX c #FFD7FF",
/* pixels */
"A.D.F.S.c.g.l.m.f.c.Y.d.w.~.r.Q.v.N.N.r.J.K.e.y.K.G.A.A.x.c.b.b.",
"A.D.F.F.x.f.h.m.Y.q.d.g.~.e.w.r.r.Q.r.t.v.v.A.D.A.A.A.A.D.x.c.c.",
"x.D.c.c.c.f.h.h.h.c.g.c.e.e.F.K.w.y.w.n.b.t.t.t.e.g.A.F.J.F.v.k.",
"A.D.S.c.c.f.f.c.c.U.#.W.w.y.R.R.aXaXy.e.n.t.a.a.k.k.A.G.A.S.x.x.",
"G.G.A.c.l.l.s.f.I.#.~.E.5.: [ 9.8.8.5.i.Q.r.v.q.k.k.x.g.B.A.D.S.",
"R.G.g.x.l.l.f.d.h.sX0.pXX   X ) X o > ( 4.u.dX~.x.k.g.d.g.x.A.H.",
"C.B.g.g.c.c.g.Z.sX4.8.O o   & $ % $ . = O >  .i.V.B.l.k.k.x.A.H.",
"S.x.g.g.B.C.T.0...| E b . & * r # * . 0 $ + Z 4.T.V.B.x.S.x.B.g.",
"z.M.d.w.R.9.} | W ; % r XX; @ * e @ # 0 @ - R R 7 [ $.I.C.S.g.U.",
"s.z.P.C.9.4.T ~ k r r & U D j e @ t e u u R <.T c T _ @.#.L.g.x.",
"m.b.W.u. .T M :.=Xr % r D @ @ e 9 y e u - g ^ ^ ! T 6 ] +.V.A.P.",
"!.B.u. .v S V <.rXY j r p t t 9 t H y j % ; g , ,.E N T ' @.w.W.",
"sX@. .' x A L -.M k j u j a  X`.'..Xu e - R R , R ~ J C x ] +.#.",
"T.[ ' B m &.-.K x , k U  X_.|.3X4X.Xs y D F R R J ! ! :.C | } ..",
"pX' ' E K eX>.K 1 N *XD a `.+X}.4X:X:XH ;XR R N R eX,.wX-.1.%.*.",
"pX' %.&.n P wXY h J -X>X`.}.0X9XgXgXfXw s *X^ % N ,.,.! M E *.2.",
"iX} &.;.>.>.) L g -X>Xq ].@X/.@X6XgX6X7X%X*XQ R R T ^ ! <.2.*.3.",
"pXX.1.wX) wX-.V d U XXi ].@X@X8XjXjXgX%X7Xa R , R N W -X&.E *.8.",
"0.8 x n b Y ) L S K Q XX).^.oXOXgXjXqX5X'.&XN C T W R R R c T %.",
"C.7 2 x Y Y Y <.=.A M -X,X$X#X@X{.6X5X%X&X*XN A W ! k k %.c 5  .",
"E.#.} T &.P f P 2.%.X.m Q .X(.+X+X@X{.|.&X;XK &.1.n l E =._ ` W.",
"C.E.0._ B L f f M ;.8.T W G q (.}.[.[.i 1X;X1.&.n h N T 7 { I.I.",
"I.W.I.{ ( | ) ) Y n V ) wXtX X9 q (.q >XQ yXx d h M T 5 7 6.W.#.",
"I.j.W.Z.[ ( wX>.) b z V z P uX*X,X,X,XQ ! , x x E ;.h 8 0.C.0.sX",
"m.I.S.H.u.+.( x ) ) ) b n ) wXwXXXtXeXn x v | X.5 c X.5.V.E.H.C.",
"h.h.c.H.B.#.O.O.v ( ) V L ;.1.;.) wX>.( x 6 8 2 } O.6.B.x.A.C.H.",
"f.h.x.h.S.A.y.y.o.[ v 5 4 4 S A ) S z 4 4 7 [ { u.y.Q.N.z.l.S.I.",
"m.b.c.c.x.c.b.c.Q.B.5.4.| 6 4 < x 4 4 / [ O.7.I.D.v.z.z.m.m.P.J.",
"c.b.c.x.f.d.s.s.c.f.B.R.T.5.5.7.@.O.O.p.G.G.Z.L.b.v.t.a.c.S.I.E.",
"g.x.c.c.g.d.s.d.m.h.h.H.C.Z.Z.C.W.G.e.p.e.g.h.Z.f.n.n.r.t.w.A.R.",
"B.S.S.S.h.l.h.c.f.h.Y.!.W.P.f.f.c.A.e.r.D.g.h.h.d.v.v.v.d.d.k.b.",
"J.J.P.b.c.c.c.L.I.I.I.h.f.l.z.m.P.F.K.r.D.Z.I.I.A.x.c.b.b.b.N.b."
};
