/* XPM */
static char *E_2[] = {
/* columns rows colors chars-per-pixel */
"32 32 236 2 ",
"   c #0A0902",
".  c #0F1300",
"X  c #161704",
"o  c #1A0919",
"O  c #1C121C",
"+  c #190F0D",
"@  c #231A1B",
"#  c #211F06",
"$  c #1E2600",
"%  c #1F2010",
"&  c #222700",
"*  c #262807",
"=  c #2E3700",
"-  c #353A00",
";  c #262419",
":  c #2F311C",
">  c #323216",
",  c #271926",
"<  c #351D34",
"1  c #2D0E38",
"2  c #2C2827",
"3  c #332B26",
"4  c #362C3B",
"5  c #3F3134",
"6  c #393633",
"7  c #323524",
"8  c #42293B",
"9  c #46353B",
"0  c #3F420D",
"q  c #424818",
"w  c #555E1F",
"e  c #49493A",
"r  c #5B573B",
"t  c #4B503A",
"y  c #605E2E",
"u  c #5E6224",
"i  c #64652A",
"p  c #6C742D",
"a  c #686737",
"s  c #6F743D",
"d  c #75793B",
"f  c #74792C",
"g  c #23004C",
"h  c #36045A",
"j  c #38164D",
"k  c #3C3442",
"l  c #441E46",
"z  c #45035A",
"x  c #452845",
"c  c #463948",
"v  c #532F55",
"b  c #4C1566",
"n  c #57187A",
"m  c #470C77",
"M  c #691F78",
"N  c #592768",
"B  c #61386A",
"V  c #652870",
"C  c #595948",
"Z  c #56544F",
"A  c #665A4B",
"S  c #695E57",
"D  c #614D56",
"F  c #5F624D",
"G  c #6C6B4C",
"H  c #666746",
"J  c #757849",
"K  c #6A635D",
"L  c #6D6D5D",
"P  c #686557",
"I  c #756B59",
"U  c #7A7B5D",
"Y  c #767657",
"T  c #6F704C",
"R  c #755B68",
"E  c #6E4C73",
"W  c #6D6B69",
"Q  c #786B67",
"!  c #747564",
"~  c #7B7263",
"^  c #7B7A66",
"/  c #7B756B",
"(  c #7B7B6A",
")  c #75736B",
"_  c #7B6875",
"`  c #7B7C73",
"'  c #7B7776",
"]  c #857C59",
"[  c #857C47",
"{  c #835873",
"}  c #847B69",
"|  c #84687A",
" . c #847A79",
".. c #896E63",
"X. c #7C843B",
"o. c #7E8549",
"O. c #7D8157",
"+. c #7E8268",
"@. c #7F8078",
"#. c #888845",
"$. c #8A9245",
"%. c #94984A",
"&. c #868B58",
"*. c #8C9355",
"=. c #969956",
"-. c #938950",
";. c #A19D52",
":. c #9BA158",
">. c #A6B14C",
",. c #A5A856",
"<. c #B7BA5A",
"1. c #AFB64F",
"2. c #8B8B63",
"3. c #83846B",
"4. c #898B6D",
"5. c #878567",
"6. c #8C9365",
"7. c #9B9E66",
"8. c #848373",
"9. c #8C8973",
"0. c #8A847D",
"q. c #8B8B7A",
"w. c #878378",
"e. c #958C7D",
"r. c #968875",
"t. c #8B9179",
"y. c #959578",
"u. c #91856B",
"i. c #98A065",
"p. c #A6A868",
"a. c #ABB465",
"s. c #B7BB67",
"d. c #B8BC72",
"f. c #A8AC75",
"g. c #C0BE51",
"h. c #BED34E",
"j. c #B7D24D",
"k. c #BCC858",
"l. c #BDD355",
"z. c #BDD15D",
"x. c #BBD457",
"c. c #BBC666",
"v. c #BCC877",
"b. c #C3CD4C",
"n. c #C4D34F",
"m. c #C9D74E",
"M. c #C4CD55",
"N. c #C4CD5C",
"B. c #C9CF5C",
"V. c #C5CA56",
"C. c #C4D356",
"Z. c #CBD454",
"A. c #CDDA56",
"S. c #C4D45C",
"D. c #CAD35C",
"F. c #CBDA5C",
"G. c #C3D85E",
"H. c #D2DB5D",
"J. c #D1D45D",
"K. c #CCE359",
"L. c #C3CC63",
"P. c #CCCE62",
"I. c #C3CD6B",
"U. c #CBCE6B",
"Y. c #C3C169",
"T. c #C4D462",
"R. c #CBD362",
"E. c #C5DA62",
"W. c #CCD965",
"Q. c #CCD46B",
"!. c #CCDA6B",
"~. c #C5D26C",
"^. c #D2D665",
"/. c #D3DA64",
"(. c #D5DA6C",
"). c #D7D76C",
"_. c #C2CB72",
"`. c #C7CA77",
"'. c #C9D677",
"]. c #D6DB77",
"[. c #D2CF6E",
"{. c #CAE168",
"}. c #D9E369",
"|. c #D8E37B",
" X c #752F92",
".X c #591CA7",
"XX c #6916B5",
"oX c #6929AC",
"OX c #7B4F8A",
"+X c #7C6788",
"@X c #7A25D8",
"#X c #7124C2",
"$X c #8B38AD",
"%X c #8B5F98",
"&X c #88548C",
"*X c #87698B",
"=X c #937692",
"-X c #8E4DA9",
";X c #9857B3",
":X c #8A4FAA",
">X c #9F64B4",
",X c #A46FB5",
"<X c #8B34DC",
"1X c #933FDB",
"2X c #9332EA",
"3X c #8934E9",
"4X c #A859C8",
"5X c #BB67C7",
"6X c #A344F8",
"7X c #CC79FF",
"8X c #CF77CB",
"9X c #8A8687",
"0X c #948383",
"qX c #938C82",
"wX c #958886",
"eX c #979185",
"rX c #A19889",
"tX c #A6A38B",
"yX c #BCBD93",
"uX c #9584A8",
"iX c #BABFA1",
"pX c #A78CAD",
"aX c #BAC484",
"sX c #BFC6A7",
"dX c #C4CB86",
"fX c #D4D882",
"gX c #C9D291",
"hX c #DAE582",
"jX c #D9E293",
"kX c #DA87F8",
"lX c #E786FE",
"zX c #F498FF",
"xX c #FEA5FF",
"cX c #FFBDFF",
"vX c #FFCBFF",
"bX c #FFD6FF",
/* pixels */
"E.T.{.{.x.j.K.K.m.b.Z.}.D.S.E.{.~.'.|.z.G.k.W.k.W.P.B.B.D.R.R.^.",
"T.S.x.E.x.x.l.l.n.A.J.D.W.!.{.v.v.v.v.hXz.|.].k.L.B.P.R.T.R.W.R.",
"S.S.k.G.z.x.E.T.M.D.H.1.].c.`.aX= $ i.jXjX:._.hXL.L.~.R.W.T.T.S.",
"D.W.S.G.z.c.|.'.].|.1.|.'.a.0 $ . % $ sX$ 0 . c.I.T.T.W.T.T.S.D.",
"Q./.S.S.z.c.fXa.dX_.'.'.v.q . ; ;   @ X #   - dX_.z.x.l.C.C.G.E.",
").W.b.F.z.~.v.w $ 0 f.yXf.X . 2 2 , , , 2 * * gX'.T.S.h.h.l.G.E.",
"(.D.b.F.x.'.a.$ * > > tXG 3.3 + + O , k o 2   aXv.z.l.n.n.C.S.G.",
").B.Z.}.k.hXaX$ ;   Z C 9Xq.0.@ 3 9 9X4 k 2 ; &.v.z.x.C.m.C.C.C.",
"Z.Z.J.B.~.v.*.q 7 2 2 c @ @ | r.9 4 k < 4 6 % T o.$.>.~.S.R.M./.",
"H.Z.R.U.d.=.O.H C Z k k O < D 9 5 < k 4 , , 3 T J d o.a.s.Q.B.D.",
"A.D.[.c.7.O.Y +.+.6 2 4 , o < 8 B j v v , 5 Q 9.+.U G 6.p.`.U.^.",
"M.P._.=.J U ^ 8.t.W S 2 o x v N V B N B +XR S e.w.@.W ! } p.Y.].",
"'.s.i.s H ^ ( q.+.e r Z c l N >X-X;X;X,X%X{ Q S ' ' ) ` G &.=.s.",
"dX&.o.o.U +.! ` t C I A x v b  X$X X$Xn 1 l R Q ) @.@.@.) 5.*.=.",
"iXY O.+.+.4.! ! C C T  .{ v M 4X$X7X7X$X-X&X8 K ! 8.q.9X+.t.2.6.",
"sX+.4.Y C 4.t.+.C ! ( Q D V $X7XxX7XxX4Xz E =XQ I 3.4.4.L +.4.y.",
"aXO.3.q. .9.} ^ C ) / | | .XXXlXvX8X5XM N | ..A [ ..w. .e.y.e.rX",
"'.*.y.eXw.e.9.Y e ! P  .E z XX2XvXcXbXkX&X{ ..] Q Q / 0.4.} r.tX",
"c.p a I S ..} / ( @.)  .E b XX<XzX7XzX7X$X&XR S Q } Q W T J J 2.",
"c.p y G I I ! eX9XW  ._ *XOXm 1X6X2X<XoXn %X| } 0X9XK F &.s a :.",
"!.a.*.] u...A / 9X) @.W | *Xb oX<X2X@XoXm +X| e.qXK Z ^ 7.X.$.hX",
"T.].d.#.[ } A P @.eXqX+X..*X%Xh oXXX.XoXOXpX0X3.K C I ] s %.~.'.",
"J.].fX;.[ -.5.+.Z @.+.qX . .=X1 g g g j +X9X( r F Y ] a f <.].g.",
"^.g.].`.#.#.&.4.+.L F C ] wXwX=X*XuXuXW +XZ H G 5.4.a a Y.[.g.}.",
"J.J.).[.Y.,.[ a O.3.O.H G 5.eXe.' 9X=XW P U 2.&.i s %.a.U.).^.J.",
"B.P.P.P.P.s.,.=.d O.O.J J 6.r.u.3.9.t.} P T a u $.:.<.L.B.V.B.J.",
"P.B.V.B.P.P.P.Y.=.*.d i u i H T J T a r y d #.%.<.S.W./.F.Z.B.^.",
"^.^.R.D.D.D.Q.'.]._.a.,.$.p i i a i i J %.,.c.R./.F.F.A.F./.W.^.",
"Q.Q.D.S.Z.M.L.R.~.L.U.'.U.s.a.a.,.;.,.Y.U.R.B.D.A.m.n.C.S.S.E.!.",
"I.T.T.S.M.M.D.L./.L.N.R.L.L.L.U.].[.N.B.D.M.M.Z.b.Z.A.M.M.k.L./.",
"I.~.E.T.S.S.D.R.V.Z.H./.}./.R.L.~.L.N.D.D.C.M.V.V.J.^.^.L.N.R.^.",
"'.'.!.T.S.G.R.R./.H.A.m.C.D.F.E.'.!.R.S.D.A.^.^.P.P.U.[.).).)./."
};
