/* XPM */
static char *E_3[] = {
/* columns rows colors chars-per-pixel */
"32 32 233 2 ",
"   c #3A180F",
".  c #48180D",
"X  c #500E12",
"o  c #52160F",
"O  c #680602",
"+  c #72191A",
"@  c #621316",
"#  c #542717",
"$  c #65241A",
"%  c #522E22",
"&  c #573E36",
"*  c #683B29",
"=  c #70302E",
"-  c #693934",
";  c #793A37",
":  c #6E2721",
">  c #5F621F",
",  c #4A4739",
"<  c #5A5539",
"1  c #684A38",
"2  c #735030",
"3  c #72473E",
"4  c #5D622E",
"5  c #62622C",
"6  c #67682E",
"7  c #737622",
"8  c #636939",
"9  c #666738",
"0  c #6B7136",
"q  c #74783A",
"w  c #4C4E41",
"e  c #575849",
"r  c #585747",
"t  c #625D4D",
"y  c #6C5C4C",
"u  c #635447",
"i  c #7C594A",
"p  c #675B52",
"a  c #755149",
"s  c #62624C",
"d  c #6C644C",
"f  c #66694F",
"g  c #6D6C4B",
"h  c #6A6544",
"j  c #726C42",
"k  c #726D4C",
"l  c #7E6B4D",
"z  c #7C7440",
"x  c #74734C",
"c  c #797847",
"v  c #646453",
"b  c #6D6452",
"n  c #6D6954",
"m  c #666959",
"M  c #69685B",
"N  c #736656",
"B  c #746B55",
"V  c #746C5B",
"C  c #7D6D5B",
"Z  c #7B6558",
"A  c #6F715C",
"S  c #747352",
"D  c #7A7455",
"F  c #74715B",
"G  c #7B735D",
"H  c #7C7B5C",
"J  c #7B7955",
"K  c #6B7340",
"L  c #6A6963",
"P  c #756C63",
"I  c #786B65",
"U  c #6D7062",
"Y  c #757365",
"T  c #7B7363",
"R  c #7B7C63",
"E  c #7D746C",
"W  c #7B7C6D",
"Q  c #767867",
"!  c #7E7F79",
"~  c #97140F",
"^  c #981615",
"/  c #871E18",
"(  c #8F1A22",
")  c #853437",
"_  c #A32626",
"`  c #B23531",
"'  c #C5383E",
"]  c #82463E",
"[  c #85564A",
"{  c #8F5E57",
"}  c #9C4945",
"|  c #AB585A",
" . c #B85654",
".. c #B24A47",
"X. c #896946",
"o. c #817C49",
"O. c #90724C",
"+. c #866754",
"@. c #837958",
"#. c #927B51",
"$. c #816F63",
"%. c #827465",
"&. c #847C64",
"*. c #827C6C",
"=. c #877868",
"-. c #837C72",
";. c #8B7D73",
":. c #8C7B7C",
">. c #967B6D",
",. c #C7595A",
"<. c #C6605B",
"1. c #7B8151",
"2. c #7C844B",
"3. c #7F8372",
"4. c #7E8363",
"5. c #84844A",
"6. c #868B4C",
"7. c #8A8B4C",
"8. c #898845",
"9. c #93864A",
"0. c #8C9147",
"q. c #92934B",
"w. c #979D4C",
"e. c #848252",
"r. c #8A8254",
"t. c #8A875B",
"y. c #928C59",
"u. c #8E9757",
"i. c #949953",
"p. c #9B9A58",
"a. c #9CA357",
"s. c #A4AA5B",
"d. c #A4A759",
"f. c #AAB256",
"g. c #B1BA5F",
"h. c #8C8B64",
"j. c #85836D",
"k. c #8B856D",
"l. c #8E886D",
"z. c #898565",
"x. c #958E6C",
"c. c #938368",
"v. c #989663",
"b. c #848473",
"n. c #8A8272",
"m. c #8E8975",
"M. c #848479",
"N. c #8B827B",
"B. c #8D897D",
"V. c #868977",
"C. c #948B7B",
"Z. c #948776",
"A. c #8E917E",
"S. c #979776",
"D. c #8D9763",
"F. c #A19C6D",
"G. c #A6A863",
"H. c #B5AA68",
"J. c #AEB665",
"K. c #BABD62",
"L. c #BABE69",
"P. c #B4B664",
"I. c #AFBB71",
"U. c #BFBF77",
"Y. c #ADA47B",
"T. c #C3B578",
"R. c #BFD04C",
"E. c #B6CB56",
"W. c #B5C656",
"Q. c #BCD25D",
"!. c #BFD157",
"~. c #BEC964",
"^. c #B9C269",
"/. c #BDD362",
"(. c #BBC475",
"). c #C5CF4E",
"_. c #D1CD4F",
"`. c #C3D24E",
"'. c #CAD14D",
"]. c #C4CD54",
"[. c #C9CE54",
"{. c #C5CD5B",
"}. c #CBCE5C",
"|. c #C7C65C",
" X c #D0CF50",
".X c #C4D355",
"XX c #CAD354",
"oX c #C9DA55",
"OX c #C4D45C",
"+X c #CBD35B",
"@X c #C5DA5C",
"#X c #CADB5B",
"$X c #C7D854",
"%X c #D2D55A",
"&X c #D1D457",
"*X c #CFE35D",
"=X c #C3C563",
"-X c #C4CD65",
";X c #CACD64",
":X c #C3C36A",
">X c #C3CC6B",
",X c #C9CE6D",
"<X c #C5D464",
"1X c #CBD463",
"2X c #C5DA63",
"3X c #CADA65",
"4X c #C6D36B",
"5X c #CBD46B",
"6X c #C5DD6A",
"7X c #CBDA6B",
"8X c #D3DA6A",
"9X c #D4D763",
"0X c #C3C371",
"qX c #C4C973",
"wX c #CCCF75",
"eX c #CCCD7B",
"rX c #C1C17B",
"tX c #CCD272",
"yX c #CEDA74",
"uX c #CBD577",
"iX c #D1DA76",
"pX c #E1DF64",
"aX c #C6E06A",
"sX c #D4E275",
"dX c #E0E066",
"fX c #8D8B84",
"gX c #8F8482",
"hX c #968B86",
"jX c #8F9281",
"kX c #BDC780",
"lX c #CFDD87",
"zX c #D0D686",
"xX c #D2E182",
/* pixels */
",X5X3X2XOX.X;X9X1X}.OX$XoX@XOXQ.<X/.@X@X3X7X5X,XtX;X;X.X.XOX3X3X",
"4X5X3X2X.X{.}.;X9X+X.X.X.X@XOXQ.6X4X<X3X+XOX;X;X;X;XOX#X@X@X1X1X",
"wX4X3X@XOX.X+X+X].]..X.X$XOX<XyXtX~.<X3X3XOX}.1X}.}.+X#X#X2X1X-X",
"4X4X<XOX.XXX[.[.XX+X#X@XOX<X-X:XeX0X~.5X7XOX{.%X[.[.XX.X@X<X4X,X",
"1X<XOX.XXXXX.X[.+X+X3XOX=X=XH.f.T.H.P.~.4X3X+X+XXXXX`.`..XOX4X4X",
"+XOX.X.XXX.X.X|.9X1X=X^.f.w.9.X.O.#.y.a.J.>X5X8X[.[.`.R.]..X1X5X",
"$X.X`.`..X+X-X=XwXT.s.i.8.z 2 : - [ #.e.6.a.L.=X;X}..XXX.X.X.X+X",
"oX`.).].OX1X,X0Xa.7.K K k l [ [ = +.k.D 8 0 5.q.0X,X<X<X+X.X.X`.",
"oXR.].].tX^.0.8.o.k S 4.*.+.; | @ ; >.l.R k.@.j z 7.d.tX1X+XXX*X",
"$X@X7X,X(.G.o.r.l &.A.A.Z u ; | + $ i T W B.:.=.D c 5.J.K.4X!.!.",
"7X7XzXT.v.e.x l.=.C.b.Q < % } ../ O & N Y 3.:.hXn.G g t.G.qX4X7X",
"xX(.U.G.c k F m.hXE e w , #  .` / O * v L L I :.gX-.B H o.G.^.lX",
"lXG.v.#.g F &.;.%.p , e v # <._ ^ O 2 N v L L N E W Y G k t.p.I.",
"zX6.o.@.S j.j.T u u m U T . ,.` ~ O * N m Q I u I ;.j.n.@.c.t.D.",
"kX2.e.t.D j.k.F 1 b 3.m V . ,.' ^ O - C m Q C y G l.m.C.&.x.D.D.",
"kX2.h.c.B *.m.&.u V b.e N .  ._ ( O 3 T s f D D k j.n.j.B z.h.S.",
"T.7.t.m.:.gX-.E r v b.P l 3 + ) X - Z P h k J h n j.b.;.C.S.x.F.",
"zXq.x.S.M.hXgXI t f j.F +.[ : ) . & I %.D D D r A V E B.j.&.F.hX",
"T.7 6 g p E -.E Y F j.R %.{ $ o   & +.%.G @.T n Y W P V F l o.y.",
"{.7 > j V P E hXm.Q R B @.+.* # & y %.C d b F Y M.fXv t z.z 6 a.",
"7Xf.q.5.l.%.p =.B.W W F N +.X.{ +.+.T N N I *.M.fXM r &.S.o.0.zX",
"OX7XK.5.c &.y p -.3.A.V.T T =.Z.=.%.Z V n.C.B.B.L e A H q i.eXiX",
"3XiXuXp.o.c.z.*.Y Q V.V.W -.;.-.:.N.=.%.n.=.V V t V H 8 q P.iXW.",
"3XE.iXqX7.r.c.l.R s e v U M.hX:.=.N.;.T V t r s z.l.6 0 ^.4XW.sX",
"@X2X5XtX0XG.o.9 1.h.4.f m 3.fXfX-.C.n.N y C h.h.9 q u.J.~.7X2X@X",
"$XOXOX1X;XK.d.p.q 2.1.x A V.jXB.-.m.m.%.j q 9 5 6.p.I.~.4XQ.OX@X",
"!..X`.XX%X;X;X:Xw.0.q 6 4 8 g A F B 9 4 5 q 8.w.L.>XuXyX2XQ.Q.aX",
"*X$XoX'.[.+X1X5XiX<Xg.d.0.0 4 4 8 5 6 q q.d.L.tXyXtX7X7XaXaX2X*X",
"#X$XoX'.'.).].OX<X~.-X5X,XK.J.J.s.a.a.^.wXqX;X4X1X<XOXQ.@X/.aXaX",
"OXXX X'.'.)..XOX7XOX{.+X}.|.=X,XsX4X~.4X<X{.{.+X{.+X@XQ.E.E.Q.6X",
"OX+X%X&X[.].<X<XOXOX9XpXpX9X}.{.Q.!.!.$X+X.X].[.].+XaX*X/.Q.Q.aX",
"5X8X9X%XXXOX<X6X7X7X%X_._._.%X#X*X*XoX$XXX#X%X#XXXOXQ./.6XaXaX6X"
};
