/* XPM */
static char *E_3[] = {
/* columns rows colors chars-per-pixel */
"32 32 224 2 ",
"   c #070703",
".  c #1B1A08",
"X  c #1C1718",
"o  c #271B19",
"O  c #1E2500",
"+  c #2A2F01",
"@  c #252601",
"#  c #2D3300",
"$  c #282713",
"%  c #38361C",
"&  c #33201C",
"*  c #1E1621",
"=  c #361F3C",
"-  c #2B232A",
";  c #362629",
":  c #392A37",
">  c #3A342A",
",  c #442A3A",
"<  c #473A3C",
"1  c #493830",
"2  c #384000",
"3  c #595829",
"4  c #554B34",
"5  c #625F39",
"6  c #645E24",
"7  c #5D622C",
"8  c #666727",
"9  c #74752F",
"0  c #676639",
"q  c #777B36",
"w  c #6A7334",
"e  c #474D11",
"r  c #3D2A40",
"t  c #390977",
"y  c #4C1A56",
"u  c #442847",
"i  c #473545",
"p  c #512A56",
"a  c #431977",
"s  c #4E166C",
"d  c #542979",
"f  c #522D6A",
"g  c #652E75",
"h  c #5B5945",
"j  c #5B4A4D",
"k  c #645B45",
"l  c #685D4D",
"z  c #665B54",
"x  c #715D56",
"c  c #696749",
"v  c #777648",
"b  c #6A6657",
"n  c #736D5C",
"m  c #756855",
"M  c #7C7A55",
"N  c #7A745B",
"B  c #7C7A5C",
"V  c #757558",
"C  c #726B47",
"Z  c #6F5677",
"A  c #7B5C75",
"S  c #724C6F",
"D  c #6F6369",
"F  c #756C62",
"G  c #776A69",
"H  c #757263",
"J  c #7B7563",
"K  c #7C7B62",
"L  c #7D726C",
"P  c #7B7A6A",
"I  c #796779",
"U  c #7D7775",
"Y  c #827B5C",
"T  c #817E49",
"R  c #82587B",
"E  c #835F6B",
"W  c #836767",
"Q  c #827C65",
"!  c #827D6A",
"~  c #857368",
"^  c #857A73",
"/  c #87787A",
"(  c #917E78",
")  c #8C6A7A",
"_  c #7E833D",
"`  c #7C824A",
"'  c #7E8358",
"]  c #8F943D",
"[  c #84864D",
"{  c #8A9345",
"}  c #939B47",
"|  c #888858",
" . c #8D9355",
".. c #979856",
"X. c #918C52",
"o. c #9AA34B",
"O. c #9AA355",
"+. c #ABB35E",
"@. c #B9BD59",
"#. c #A8AE50",
"$. c #868563",
"%. c #85826C",
"&. c #8A846C",
"*. c #8A8867",
"=. c #979665",
"-. c #8D8574",
";. c #8C8A75",
":. c #88837A",
">. c #948978",
",. c #95947B",
"<. c #918B6C",
"1. c #A29D6F",
"2. c #9EA461",
"3. c #A5A668",
"4. c #ADB667",
"5. c #B6BD6B",
"6. c #B7BB66",
"7. c #AEB474",
"8. c #ABAE73",
"9. c #B6CB4A",
"0. c #B9CA4B",
"q. c #B9D34A",
"w. c #BAC654",
"e. c #BDCE54",
"r. c #BCCB5A",
"t. c #B8C35B",
"y. c #BED355",
"u. c #BDD65A",
"i. c #BDCB64",
"p. c #BCC46D",
"a. c #BEC666",
"s. c #BCC379",
"d. c #C5CF4E",
"f. c #C4D04E",
"g. c #CDDC4D",
"h. c #C2CE55",
"j. c #C3CE5B",
"k. c #C7CB5B",
"l. c #C3D454",
"z. c #CAD354",
"x. c #CBDC55",
"c. c #C4D35C",
"v. c #CAD45B",
"b. c #C6DA5C",
"n. c #CCDC5C",
"m. c #C5D955",
"M. c #D1DC5E",
"N. c #C8E35A",
"B. c #D2E25D",
"V. c #C3CD64",
"C. c #C5CC6B",
"Z. c #C4D363",
"A. c #C9D265",
"S. c #C5DA63",
"D. c #CCDB64",
"F. c #C6D26A",
"G. c #CBD36B",
"H. c #C7DB6C",
"J. c #CCDA6C",
"K. c #D2DC6C",
"L. c #D1D767",
"P. c #C2CE7A",
"I. c #C7CB76",
"U. c #CBD574",
"Y. c #CCDA72",
"T. c #C6D275",
"R. c #D2DD74",
"E. c #D6D977",
"W. c #CAE264",
"Q. c #D3E363",
"!. c #D7E36A",
"~. c #D5E272",
"^. c #D8E27A",
"/. c #35008B",
"(. c #511888",
"). c #4C1197",
"_. c #5A2987",
"`. c #5B2496",
"'. c #742E96",
"]. c #5919B6",
"[. c #6718B1",
"{. c #5A21AC",
"}. c #6C27B2",
"|. c #6132B2",
" X c #7C5C9B",
".X c #70508A",
"XX c #7940B5",
"oX c #7935D2",
"OX c #813F96",
"+X c #8836B2",
"@X c #875586",
"#X c #856B86",
"$X c #897A85",
"%X c #8E6B9B",
"&X c #8E47AA",
"*X c #926FA5",
"=X c #8A3ADC",
"-X c #9A38CD",
";X c #9D3FF4",
":X c #8832E7",
">X c #9342D3",
",X c #9449E2",
"<X c #B051EE",
"1X c #BD68EA",
"2X c #B454DC",
"3X c #C87CFF",
"4X c #CF70FD",
"5X c #8C8382",
"6X c #958885",
"7X c #9E938F",
"8X c #A28787",
"9X c #B1B28D",
"0X c #9C85A1",
"qX c #B994A5",
"wX c #C2BE81",
"eX c #BCC788",
"rX c #D8DC89",
"tX c #C9D08C",
"yX c #DBE687",
"uX c #E3EB90",
"iX c #D482FF",
"pX c #E494FA",
"aX c #FFA7FF",
"sX c #FFDAFF",
/* pixels */
"D.D.K.J.r.c.D.b.y.b.b.D.e.9.W.b.b.!.B.q.Q.9.F.Z.D.K.V.F.R.H.l.Q.",
"j.~.j.w.~.K.r.Q.S.b.Z.!.H.S.J.u.c.S.h.n.#.^.uXt.A.v.j.r.V.J.B.f.",
"R.w.A.~.w.c.!.w.b.u.u.Z.r.u.S.u.t.i.^.R.s.i.p.tXV.h.c.M.h.b.Q.f.",
"F.Y.G.Z.V.c.H.R.yXi.a.i.i.Y.F.i.s.tX4.s.O + + s.yXJ.m.B.n.l.x.f.",
"F.G.Z.r.c.J.Y.T.I.p.uXyXp.4.O.7.O # 9X9X$   O . 4.^.h.0.M.z.l.h.",
"^.t.D.!.w.t.o.2 # e 3.eX2. .q *.% O > P X > X $ # 5.K.0.f.h.A.G.",
"Z.~.b.0.H.i.8   O   3 M *.| > $ - * X j I -   X @ 7.^.D.z.w.K.E.",
"D.e.l.y.w.yX7.% % o b K J F > i : r - : < * * X 9XtXa.V.L.k.G.k.",
"b.m.m.b.i.eX| > $ $ ^ ( ^ I : i , p , 1 ; ( G N M =.+.G.K.L.k.E.",
"b.y.l.c.t.O.$.n 5XD 7X/ 4 i : u u p , , & >.>.Y v v ` #.V.G.k.L.",
"S.S.S.a.o.` H ' -.qX^ o o , r f p y y x 1 ~ T Y K M 0 [ 3.I.C.E.",
"S.Y.i.{ ` v H :.%.F h ; * r f r s s g %XS W W Y -.>.B M T 3.6.rX",
"s.t.O.w h ' ' 6X%.4 1 G j y d d &X&X+XOXg E E x G / U J T X.=.wX",
"s.` ' ' ' ' U ' 4 k l A Z d _.XX1X2X+XOXg R E x z L / / W Q X.1.",
"eX` ' ' U :.H H 4 l $XI f /.|.oX2X2X-X-X&X@XR m z / $X6X~ <.<.1.",
"eX' =.' D 5X5X' k m ~ Z .Xt /.iX4XpX<X+Xg g ) ~ x 6X6X:.W Q Y 1.",
"eX' ' ;.:.5X^ Q 4 M %.D  X).].:X4XsXiX}.`.%XA L D ^ $X5X6X6X,.,.",
"tX .,.,.:.6X5XF 5 c K G  X).oX;XsXsX3X[.a  XG x H b ' ' :.' =.8.",
"eX0 c b z U ^ ~ B c P $X X{.:X<XaXpX,X).s I ~ m J P H n n V ` ' ",
"tXw 7 c n G J 6X:.' J I  X(.=X<X=X,X[.).g I N v &.:.b z %.v 8 O.",
"U.4. .` *.Q l J ;.;.' I R _.+X>X=XoX]./. X( Y *.-.b k ~ ,.[ ] rX",
"u.R.p._ M Y c l K ,.;.5X%XS '.'.|.{.t t %X6X%.*.b h n Y v ..I.E.",
"m.Q.H.} q X.$.K P ' ' 5X( ) R g a a d .X0X$Xn h z H Y 0 9 6.E.@.",
"x.9.~.V.{ [ *.;.K c h b W $XqX) *X%X*X$XG h c l %.;.0 9 6.L.@.E.",
"b.b.H.G.C.1.T c ' *.B c m ( >.$X#X6X$XF c N *.*.5 v  .+.c.L.L.G.",
"u.c.A.A.C.6.3...v [ ` v T ( >.( ^ -.<.M c C w 7 [ O.6.V.v.h.A.U.",
"Z.Z.Z.Z.A.F.C.p.} { 9 6 6 6 C W J m 0 3 8 9 ] ] t.i.J.K.v.v.C.E.",
"H.S.v.k.v.v.A.H.~.k.@.#.] 9 6 5 c 0 8 _ { #.w.v.W.n.D.b.n.n.J.U.",
"S.b.v.z.h.d.z.l.v.l.h.L.C.@.4.7.3.=.#.a.T.A.c.m.N.m.u.u.m.m.S.H.",
"u.l.z.z.d.d.l.y.n.z.d.z.v.j.a.P.rXtXa.j.A.V.e.l.f.u.u.u.9.9.u.W.",
"u.b.v.z.z.k.c.Z.k.z.M.!.K.L.A.i.V.z.f.z.C.I.V.j.q.b.H.S.q.q.u.H.",
"b.N.M.L.v.c.F.Y.K.L.z.z.z.v.S.D.M.x.g.m.G.T.U.J.c.b.u.u.N.N.W.W."
};
