/* XPM */
static char *E_4[] = {
/* columns rows colors chars-per-pixel */
"32 32 235 2 ",
"   c #3F0400",
".  c #301407",
"X  c #480A03",
"o  c #49160C",
"O  c #551B10",
"+  c #73140B",
"@  c #512D1F",
"#  c #4F2412",
"$  c #61321E",
"%  c #483026",
"&  c #552822",
"*  c #77332A",
"=  c #69392B",
"-  c #645F1F",
";  c #5F4021",
":  c #5B5735",
">  c #664129",
",  c #625E2E",
"<  c #7D5B3F",
"1  c #6E4D39",
"2  c #69662C",
"3  c #636333",
"4  c #696837",
"5  c #74683C",
"6  c #75743C",
"7  c #797C3D",
"8  c #777533",
"9  c #787328",
"0  c #4D5645",
"q  c #585648",
"w  c #535349",
"e  c #64584A",
"r  c #665C55",
"t  c #765A56",
"y  c #5C6B54",
"u  c #6B6E44",
"i  c #6A644C",
"p  c #656549",
"a  c #74684A",
"s  c #7A7A42",
"d  c #787648",
"f  c #6A6652",
"g  c #6C6D54",
"h  c #6B6C5A",
"j  c #666657",
"k  c #746D5C",
"l  c #776956",
"z  c #747353",
"x  c #76745C",
"c  c #7B725B",
"v  c #7A795A",
"b  c #67745A",
"n  c #6B6D62",
"m  c #6C6761",
"M  c #736C62",
"N  c #796E67",
"B  c #6D7462",
"V  c #6E7767",
"C  c #747363",
"Z  c #7D7364",
"A  c #7C7A65",
"S  c #75756C",
"D  c #7A746C",
"F  c #7D7B6D",
"G  c #777868",
"H  c #7E7C74",
"J  c #797774",
"K  c #83170B",
"L  c #B7130A",
"P  c #AB1618",
"I  c #8F2114",
"U  c #B12413",
"Y  c #9B2D30",
"T  c #BE303E",
"R  c #AE2E2D",
"E  c #C32317",
"W  c #C9372B",
"Q  c #D83133",
"!  c #E23E35",
"~  c #8C493C",
"^  c #A24A3C",
"/  c #80673F",
"(  c #D4473F",
")  c #DA3C4B",
"_  c #984C45",
"`  c #855F55",
"'  c #905746",
"]  c #A64646",
"[  c #BB4545",
"{  c #A95957",
"}  c #B25854",
"|  c #B64F50",
" . c #806F43",
".. c #877A48",
"X. c #82675A",
"o. c #837C5A",
"O. c #847B57",
"+. c #926E5A",
"@. c #AE615B",
"#. c #817464",
"$. c #837C62",
"%. c #847D6C",
"&. c #8A7B6E",
"*. c #897969",
"=. c #947468",
"-. c #827D73",
";. c #887B75",
":. c #8D726D",
">. c #A67360",
",. c #C44A48",
"<. c #D24442",
"1. c #E74B49",
"2. c #E57069",
"3. c #7E8648",
"4. c #7F8557",
"5. c #7F8072",
"6. c #778466",
"7. c #81823E",
"8. c #868749",
"9. c #8D9044",
"0. c #8E914C",
"q. c #989A4D",
"w. c #92934A",
"e. c #848151",
"r. c #878D53",
"t. c #84825D",
"y. c #8A895B",
"u. c #948C56",
"i. c #9C9B59",
"p. c #969655",
"a. c #908D4A",
"s. c #A09C5C",
"d. c #9BA359",
"f. c #97A04D",
"g. c #A3AA5D",
"h. c #A3A759",
"j. c #B4B952",
"k. c #858265",
"l. c #8D8965",
"z. c #87836A",
"x. c #938B6F",
"c. c #918768",
"v. c #979367",
"b. c #848374",
"n. c #8A8473",
"m. c #85847A",
"M. c #8A857B",
"N. c #8C897D",
"B. c #8A8A79",
"V. c #968878",
"C. c #949276",
"Z. c #A19B72",
"A. c #A1856D",
"S. c #A4A962",
"D. c #B0AF6C",
"F. c #ACB364",
"G. c #B5BC65",
"H. c #BABE6B",
"J. c #B4B669",
"K. c #A8A777",
"L. c #C2BE6F",
"P. c #BACE5D",
"I. c #B5C856",
"U. c #BFD355",
"Y. c #BED25B",
"T. c #B6D65A",
"R. c #BACF4A",
"E. c #BDC26D",
"W. c #BAC766",
"Q. c #BFD166",
"!. c #BAC471",
"~. c #BDE367",
"^. c #C1CD4C",
"/. c #C4D34D",
"(. c #CAD54C",
"). c #C6DB4C",
"_. c #C4CD54",
"`. c #C4CE5C",
"'. c #CACE5B",
"]. c #CDCD53",
"[. c #C4D355",
"{. c #CAD455",
"}. c #C5DA55",
"|. c #CBD955",
" X c #C4D35A",
".X c #CAD45B",
"XX c #C5DB5C",
"oX c #CCDB5C",
"OX c #D3D25C",
"+X c #D3D85C",
"@X c #D1CE5B",
"#X c #C7E05D",
"$X c #D2E357",
"%X c #C4CC63",
"&X c #C9CF65",
"*X c #C4CB6B",
"=X c #C9CC6B",
"-X c #C5D363",
";X c #CAD363",
":X c #CADB64",
">X c #C6D16A",
",X c #CBD46A",
"<X c #CBDC6B",
"1X c #C3D86A",
"2X c #D1DA62",
"3X c #D5D565",
"4X c #CACD74",
"5X c #C4C974",
"6X c #C9D372",
"7X c #CCD976",
"8X c #CAD677",
"9X c #D2D373",
"0X c #D2DB74",
"qX c #D5DE7B",
"wX c #D8DA75",
"eX c #C7E165",
"rX c #D8E368",
"tX c #D1E378",
"yX c #8D8A83",
"uX c #888683",
"iX c #948B83",
"pX c #928D8B",
"aX c #9B9692",
"sX c #98948B",
"dX c #A28182",
"fX c #D98A83",
"gX c #E79D92",
"hX c #CCB18F",
"jX c #F5B8B4",
"kX c #BBC392",
"lX c #C8CB8A",
"zX c #D3DC89",
"xX c #F9BFC4",
"cX c #ECBDC3",
"vX c #FFCAC6",
/* pixels */
"(.|.|.|..X`.'.,X.X&X.X.X.X{.|.|.{.rX(.(./. XeXQ.1XQ. XU.}.}.|.oX",
"(.|.|..X{. X.X;X;X;X3X.X+X.X{.[._.[.^.(.+X}.<X<XQ.-X X X[.|..XoX",
".XoX.X.X X[. X X[. X XY.%X`.P.%X<X X^.oXeX[.Y.-XY.Y. XoXoX;X;X%X",
"-X;X;XoX X[.[.[.XXY.Q.Q.-X*X*X6X8X>XI.Y. XY. X X[.[. XoXoX;X>X>X",
",X-X'..X[. X[.U.eXeX7X7X4XL.D.J.D.J.G.I.W.1X;X`. X{._.{.`.;X>X6X",
";X.X`. X.X[.Y.Y.W.I.W.!.D.u.....5 8.q.h.F.*X>X-X&X.X_._._. X-X>X",
"|.[.^.[..X;X XW.tX!.S.i. .> # # $ = 5 ..p.S.G.*X=X%X`.`.[. X}..X",
")././._.;X>X*X!.d.3.u 5 ~ 1 ' @._ ~ ' < 5 6 s i.5X*X=X%XoX}./.U.",
").R.^._.9XL.9.e.u d O.+.O { } R [ + O >.A.o.v d s a.g.1X-X}./.$X",
").).2X&XL.S...k.A n.V.` * | ,.,.<.P + * =.V.c.6.z d 3.F.I.1X[./.",
":X<XqXE.i.O.z n.uXiX:.= _ [ ( 1.E W K + X.*.J N.b.v u r.d.*X;X+X",
"tXW.E.s...a M uXuXN t o } ,.( ! L W I X ` M n 5.m.5.g z 3.g.W.wX",
"zXS.i.e.a x H m.D w r X } ,.1.Q E U K X l M B n S F C x u r.i.G.",
"lXr.e.O.z &.-.S r w t # | [ ) Q L R ^ o Z b V j C -.b.n.A l.u.p.",
"kX4.t.k.c z.M.V 0 j Z & { [ ) Q P 2.gX@ g y V b C n.B.V.z.x.c.v.",
"kXt.l.l.l %.B.F w V Z # { | T T ,.jXvX. p b 6.p g n.n.b.k $.c.Z.",
"hXu.y.c.m.uXJ J 0 A a > _ _ Y ] vXcX=.@ : v c z g F b.b.C.C.v.C.",
"lXu.v.C.-.pXuXS 0 $.*.1 $ _ fXvXcXdXX.&.x.o.z i x h G B.z.4.v.K.",
"*X9 2 a f D ;.J m C %.l 1 X.hXjXdX:.l X.O.#.A f C F C h z d s r.",
"*X9 , 5 l M D pXH n G n.#.X.1 . % :.:.e f #.k M m.N.j e k.6 2 d.",
",Xj.9.8.l.#.r J aXuXS j j x A c r :.#.l ;.Z N sXyXj q $.v.8.9.zX",
"`.0XW./ ..$.r r M m.yXm.F V V H iXN f N %.M.N.m.m q k o.7 q.4X9X",
"-XeX7Xf.s y.k.%.k C F b.b.5.m.uXF ;.-.%.D m.D q r x O.4 9 J.wXj.",
"#XR.tXQ.0.8.y.l.o.p e j h H yX-.D aXuXM C f q c k.l.3 9 L.=X^.rX",
"XXXX,X6XE.d.3.4 e.y.O.i l n.iXiXH yXm.g p x l.l.3 6 0.F.%X,X2X{.",
".X.X;X;X*XW.h.q.7 ..s d O.n.V.V.F B.B.v u u 4 , a.d.G.*X%X[.[.|.",
"@X@X].&X;X>XQ.W.q.9.8 2 , 3 a l x g p : 3 6 a.q.H.*X0X0X-X[.}.oX",
"3XOX@X'.;X-X,X,XqX=XJ.h.a.8 , , 4 3 3 7 p.g.H.4X7X,X,X<X:XeXeX#X",
"OXOXOX.X_.Y.[.%X,X%X=X9X4XG.F.J.S.d.d.E.4X4X=X,X:X-X XY.XXT.eX~.",
"].].{.{.[.U.Y.[.2X'.'.&X;XW.W.>XzX1X*X>X=X'.`..X`. X:XU.I.R.T.~.",
"].{.|.}.U.Y.[.XX_.'.3XrXrX2X XU. X`.`. X.X.X_._._..XXXXXT.T.T.~.",
"$X+X#X}.}.[.}.oX2X2XOX].{..X|.oXoXoX+X.X{.OX+XoX{.[.XXXX~.eX~.~."
};
