/* XPM */
static char *E_4[] = {
/* columns rows colors chars-per-pixel */
"32 32 231 2 ",
"   c #0D0A00",
".  c #1C1803",
"X  c #150F15",
"o  c #251C18",
"O  c #23160D",
"+  c #292906",
"@  c #312B02",
"#  c #383A02",
"$  c #2C261D",
"%  c #1C1827",
"&  c #2A1B2C",
"*  c #271C36",
"=  c #2E282D",
"-  c #32253C",
";  c #362A38",
":  c #342A34",
">  c #463533",
",  c #443032",
"<  c #3E400F",
"1  c #444509",
"2  c #5F621F",
"3  c #6B711E",
"4  c #494128",
"5  c #585738",
"6  c #545033",
"7  c #615E27",
"8  c #5F612F",
"9  c #66652A",
"0  c #6B6B3B",
"q  c #676538",
"w  c #706D39",
"e  c #6A7137",
"r  c #757836",
"t  c #6F7428",
"y  c #372C46",
"u  c #3F334A",
"i  c #360564",
"p  c #390750",
"a  c #521C56",
"s  c #432C48",
"d  c #42374D",
"f  c #483355",
"g  c #533452",
"h  c #6A3D5C",
"j  c #4E1862",
"k  c #491476",
"l  c #5F1F7D",
"z  c #572767",
"x  c #4D3961",
"c  c #563465",
"v  c #592575",
"b  c #482370",
"n  c #6C3C69",
"m  c #64247A",
"M  c #575645",
"N  c #5B4E4D",
"B  c #635B4F",
"V  c #645C5B",
"C  c #645A54",
"Z  c #634756",
"A  c #5F6444",
"S  c #686647",
"D  c #726B49",
"F  c #7E7D43",
"G  c #76764A",
"H  c #6A6256",
"J  c #6A6858",
"K  c #726D53",
"L  c #75695B",
"P  c #7C7C52",
"I  c #75735B",
"U  c #797759",
"Y  c #6E7048",
"T  c #5F426E",
"R  c #67486A",
"E  c #7C5A6C",
"W  c #6D5471",
"Q  c #6B6967",
"!  c #756B66",
"~  c #7B756B",
"^  c #7E7C6C",
"/  c #777767",
"(  c #7A6778",
")  c #7C7776",
"_  c #817D5B",
"`  c #837F4F",
"'  c #81597B",
"]  c #827E64",
"[  c #867D6A",
"{  c #806A78",
"}  c #847E73",
"|  c #867A79",
" . c #8A6F6C",
".. c #79843D",
"X. c #7E8564",
"o. c #97973C",
"O. c #89893C",
"+. c #83844B",
"@. c #878848",
"#. c #8B9342",
"$. c #89904D",
"%. c #94984B",
"&. c #83835C",
"*. c #888657",
"=. c #928C57",
"-. c #9A9857",
";. c #A39D51",
":. c #9DA259",
">. c #98A04A",
",. c #A5AD4B",
"<. c #B8BE47",
"1. c #A6A858",
"2. c #AAB35C",
"3. c #BABB59",
"4. c #A7B64D",
"5. c #848563",
"6. c #8B856B",
"7. c #888868",
"8. c #938A67",
"9. c #979364",
"0. c #858374",
"q. c #898374",
"w. c #8C857B",
"e. c #8A8A79",
"r. c #918879",
"t. c #899278",
"y. c #979178",
"u. c #8E996E",
"i. c #A29A6B",
"p. c #9DA067",
"a. c #A5A665",
"s. c #AFB466",
"d. c #B4BC62",
"f. c #B7B965",
"g. c #BBBC79",
"h. c #C0BF6C",
"j. c #B9CB4D",
"k. c #BED24D",
"l. c #BCCF54",
"z. c #B9C75A",
"x. c #BDD45C",
"c. c #BDD457",
"v. c #BBC364",
"b. c #B9C664",
"n. c #BED365",
"m. c #BDC677",
"M. c #C6CC4D",
"N. c #C9D44B",
"B. c #C6D74B",
"V. c #C3CE54",
"C. c #CACC56",
"Z. c #C3CE5B",
"A. c #CACD5C",
"S. c #C6C65B",
"D. c #C4D354",
"F. c #C9DD54",
"G. c #C4D35C",
"H. c #C9D35C",
"J. c #C4DB5C",
"K. c #CCDC5C",
"L. c #C8D854",
"P. c #D1D456",
"I. c #D2D75B",
"U. c #D0D34E",
"Y. c #C7E45C",
"T. c #D3E75A",
"R. c #C4CD64",
"E. c #C4CC6A",
"W. c #C9CA65",
"Q. c #C5D362",
"!. c #CAD463",
"~. c #C5DB61",
"^. c #CADA63",
"/. c #C5D36B",
"(. c #CCD46C",
"). c #CBDB6C",
"_. c #C7DF6A",
"`. c #D5D867",
"'. c #C6CF78",
"]. c #CAD874",
"[. c #D7DC75",
"{. c #CCE268",
"}. c #D6E368",
"|. c #D5E372",
" X c #CEE070",
".X c #560C8B",
"XX c #600E94",
"oX c #662B99",
"OX c #752E94",
"+X c #6A0DB2",
"@X c #6A28A4",
"#X c #52239D",
"$X c #795886",
"%X c #7C5693",
"&X c #75478E",
"*X c #7E6291",
"=X c #5D1CC2",
"-X c #6527CC",
";X c #7B31EC",
":X c #8434B1",
">X c #894399",
",X c #887C88",
"<X c #907D8E",
"1X c #846294",
"2X c #966C99",
"3X c #8C718F",
"4X c #9275A2",
"5X c #8969A8",
"6X c #9B5AB2",
"7X c #8B2DCF",
"8X c #C53FFE",
"9X c #AF52D0",
"0X c #964FEA",
"qX c #B44DF3",
"wX c #AF76D5",
"eX c #CC4FFA",
"rX c #CE79F1",
"tX c #938984",
"yX c #8E9182",
"uX c #AEA489",
"iX c #BEC388",
"pX c #D6DC87",
"aX c #CDCE8C",
"sX c #DAE283",
"dX c #D48FE9",
"fX c #FA92FF",
"gX c #F9A8FF",
"hX c #FFB9FF",
"jX c #FFC7FF",
"kX c #FFC8FF",
"lX c #FFE0FF",
/* pixels */
"Q.^.^.J.G.D.J.H.`.H.A.[.`.A. Xk.B.T.Y.k.c.{.{.G.Q.Q.Q.Q.x.G.F.F.",
"H.!.^.~.c.c.D.J.M.C.`.`.Z.R._. Xc.j.c.{.Q.l.G.K.G.H.Q.Q.Q.J.J.L.",
"H.!.^.Q.Q.x.G.D.T.M.M.<.(.sXd.m.3.b.b.[.v.[.`.j.l.D.G.K.^.~.J.D.",
"H.!.!.Q.Q.x.D.B.N.N.C.`.pX1.# + < g.iXaX# f.R.Z.D.D.H.H.H.Q.G.G.",
"`.A.!.Q.Q.G.D.D.M.T.H.(.a.<   .   > uX@ @ @ pXz.C.D.D.C.G.Q.Q.!.",
"I.W.C.Z.Q.G.D.l.j.H.R.pX9.+ o = = . $ O . # g.[.H.D.D.V.V.H.!.(.",
"A.P.A.A.A.!.Z.z.[.s.:.*.>   & & ; & & ; o + 9.sXR.G.D.D.G.H.H.!.",
"I.C.C.C.!./.E.E.:.r 7.D = = - - - ; - - X $ X.$.m.b.R.Q.H.A.G.C.",
"P.C.C.S.(.h.O.@.e G U ] > & & ; d d y % X = X.8 ..O.4.'.Q.!.C.`.",
"U.P.`.W.h.a.+.+.P &.y.tXH > s a y y % u y % yXX.......2.z.(.C.U.",
"P.P.[.h.-.*.G 7.&.7.U / > , , g x y x y * y / yXX.I Y $.1.W.W.`.",
"}.C.h.;.G D I e.5.K 5 6 > g n >Xx %Xx x x * *X/ X.X.Y ..` 1.S.[.",
"`.,.%.+.D ! ^ 0./ S 4 M Z R a j b p c z n R N | ~ ] K U w =.;.3.",
"'.#.+.P K 0.) / M B V ) ( OXm OXOX:Xv j c g ( N ! } } q.` _ ` ;.",
"aX+.+.&.I 0.e./ 6 Q *X$Xv k .X:XrXrXdXv a ' E N ~ r.r.tX .i.8.;.",
"iX*.7.6.K [ e.^ N ( $X%XoXoX:XqX9X9XrX>Xn '  .L L | w.[  .[  .i.",
"m.*.7.r.q.e.X./ M ( %Xk XXeX8XeXgXjXdX6Xh  . .` H  .0.0.yXy.9.9.",
"aX%.9.y.| tXq./ 5 Q 1Xl XX7X8XfXhXlXkXdX' _ ` 6 L H / e.w.^ =.s.",
"z.3 9 D H ~ X./ I / | R l .X+XeXfXkXhXwX3X ._ D / ^ ! Q / K G =.",
"Q.t 2 D K ! Q yXX.U [ | 2X:X@XqX;X0X0XoX1XE [ U q.e.S S [ G q :.",
"_.4.#.+.6.[ V ) yXX.X.I ( %XoX=X;X;X=Xk %X*X,X[ tXH M _ 9.@.o.[.",
"G._.d.O.P ] V V X.X.u.X.~ 3X&X@X-X-X#XoX5XtXtX} Q M K ` r %.W.`.",
"~. X).>.F 5.X.,XQ / X.X.0.tX4X5Xp i b *XtX| ! V V ! _ q r 3.[.<.",
"~.j. XE.#.X.e.X.) J A A U 0.tX<X3X4X*XyXQ C C Q 0.e.q q h.(.S.[.",
"n.{.^./.v.1.` D _ 6.U S D 5.y.8.[ tX6.S q U 7.7.S Y =.s.E.(.`.W.",
"c.c.Q.Q.!.f.1.%.` ` ` G ` 7.8.=.] 8.=.F 0 0 Y 8 @.:.d.R.Z.Z.!.`.",
"x.x.J.Q.`.A.A.S.o.o.r 9 7 9 w G I K 9 2 9 r @.%.z.Z.^.T.F.D.Q.(.",
"{.x.J.Q.A.A.P.P.`.A.3.1.@.t 2 9 S q 9 ..%.a.v.Q.K.F.F.F.F.{.).(.",
"~.~.!.Q.A.V.N.U.P.V.Z.(./.v.s.s.a.-.,.z././.R.L.F.B.x.x.H._.].'.",
"R.Q.Q.Q.A.V.D.M.I.D.Z.Q.n.b.b./.pXE.V.C.H.Z.V.L.k.c.Y.n.z.z.n.].",
"Q./.!.Q.G.G.G.H.x.R._.|. X_.c.x.Q.P.N.B.H.G.l.k.k.F._.m.n.x.n._.",
"].].].!.H.G.!.).).)._.n.n.n.Y.J.^.F.B.B.H.!.K.Y.F.c.n._.n.Y.Y.Y."
};
