/* XPM */
static char *E_5[] = {
/* columns rows colors chars-per-pixel */
"32 32 231 2 ",
"   c #080903",
".  c #121402",
"X  c #1A1B04",
"o  c #1C1915",
"O  c #0E1208",
"+  c #231813",
"@  c #1D2400",
"#  c #252900",
"$  c #353B02",
"%  c #2A2616",
"&  c #2E350E",
"*  c #191325",
"=  c #1D1739",
"-  c #261E28",
";  c #331E2A",
":  c #3A1C33",
">  c #201B3B",
",  c #2B233B",
"<  c #292432",
"1  c #3D3637",
"2  c #352A2D",
"3  c #4D3532",
"4  c #43461B",
"5  c #5E5E31",
"6  c #615D30",
"7  c #5D623A",
"8  c #5A612B",
"9  c #61682A",
"0  c #6C752A",
"q  c #62633C",
"w  c #686838",
"e  c #767A3A",
"r  c #727731",
"t  c #312C46",
"y  c #571259",
"u  c #451C50",
"i  c #423549",
"p  c #523857",
"a  c #522C4C",
"s  c #633B5D",
"d  c #431868",
"f  c #4F1573",
"g  c #462168",
"h  c #562D6C",
"j  c #703172",
"k  c #4D4944",
"l  c #55484A",
"z  c #565945",
"x  c #675E49",
"c  c #68425E",
"v  c #6B5B56",
"b  c #755C58",
"n  c #5D6347",
"m  c #5F605A",
"M  c #6C6C47",
"N  c #6C6C4C",
"B  c #646349",
"V  c #6F7548",
"C  c #747749",
"Z  c #656953",
"A  c #686858",
"S  c #756958",
"D  c #6B7357",
"F  c #72735D",
"G  c #7B7B5C",
"H  c #787958",
"J  c #71674E",
"K  c #5C4668",
"L  c #695A6C",
"P  c #7A5A63",
"I  c #705077",
"U  c #6B6864",
"Y  c #7D6B6A",
"T  c #766667",
"R  c #727364",
"E  c #7B7364",
"W  c #7B7B65",
"Q  c #7C736B",
"!  c #7B7B6B",
"~  c #747569",
"^  c #7C7B73",
"/  c #767272",
"(  c #79657B",
")  c #817C3C",
"_  c #837B4D",
"`  c #857D5C",
"'  c #806A5F",
"]  c #895D77",
"[  c #827E65",
"{  c #847D6C",
"}  c #837665",
"|  c #837574",
" . c #847C73",
".. c #897C7B",
"X. c #876774",
"o. c #7A8247",
"O. c #7D8358",
"+. c #7D8369",
"@. c #8B8E3C",
"#. c #868847",
"$. c #8A9244",
"%. c #87914A",
"&. c #959B4A",
"*. c #818352",
"=. c #888758",
"-. c #979857",
";. c #8F8E51",
":. c #9CA35B",
">. c #97A448",
",. c #A3AB53",
"<. c #A6A759",
"1. c #ABB45A",
"2. c #B4BC59",
"3. c #B8BC4E",
"4. c #82846C",
"5. c #85896C",
"6. c #8A8768",
"7. c #928869",
"8. c #929266",
"9. c #848476",
"0. c #8C8474",
"q. c #8B8A72",
"w. c #8B8B7B",
"e. c #878578",
"r. c #948A77",
"t. c #979678",
"y. c #8C9075",
"u. c #A19D6B",
"i. c #9EA861",
"p. c #A3A867",
"a. c #ACB168",
"s. c #B5BB68",
"d. c #B5BB74",
"f. c #ACB179",
"g. c #B9C64D",
"h. c #BBC857",
"j. c #BDD55C",
"k. c #BED256",
"l. c #BCC261",
"z. c #BDC869",
"x. c #BDD661",
"c. c #BCC575",
"v. c #C4CB4F",
"b. c #C5D14E",
"n. c #C5CD54",
"m. c #C3CE5B",
"M. c #C8CB5D",
"N. c #C5D254",
"B. c #CBD354",
"V. c #CDDC56",
"C. c #C4D45C",
"Z. c #CAD35C",
"A. c #C5D95D",
"S. c #CCD95C",
"D. c #C5DA57",
"F. c #D2D55D",
"G. c #D2DB5D",
"H. c #D4D958",
"J. c #C8E054",
"K. c #C3CD62",
"L. c #C3CC6A",
"P. c #C8CB66",
"I. c #C4D363",
"U. c #CBD463",
"Y. c #C5DA62",
"T. c #CCD963",
"R. c #C5D26C",
"E. c #CCD56B",
"W. c #CBDA6C",
"Q. c #D3DA64",
"!. c #D2DA6B",
"~. c #D7D967",
"^. c #C3CD78",
"/. c #CCDC73",
"(. c #CBD578",
"). c #D3DD75",
"_. c #D5DB79",
"`. c #D8E36A",
"'. c #D7E379",
"]. c #E4EE7B",
"[. c #3E0483",
"{. c #4E198A",
"}. c #59258A",
"|. c #6E2D8E",
" X c #5512B6",
".X c #752DB8",
"XX c #7C538D",
"oX c #6E4B89",
"OX c #7C6088",
"+X c #7F2ADF",
"@X c #802DBD",
"#X c #935B85",
"$X c #8C5296",
"%X c #8A6988",
"&X c #946386",
"*X c #8B7785",
"=X c #957091",
"-X c #A06790",
";X c #924DA5",
":X c #A759B3",
">X c #A165A5",
",X c #832AC7",
"<X c #8B38D1",
"1X c #9438FB",
"2X c #8C4BD1",
"3X c #B45BC3",
"4X c #9440F8",
"5X c #AF4DF9",
"6X c #B665FF",
"7X c #B465D2",
"8X c #D576FC",
"9X c #D272EB",
"0X c #8C8C81",
"qX c #938982",
"wX c #959184",
"eX c #A48D9D",
"rX c #BBBD8C",
"tX c #BCC287",
"yX c #BDC490",
"uX c #C5CA88",
"iX c #D7DE84",
"pX c #CBD783",
"aX c #DBE994",
"sX c #E9EC95",
"dX c #DC80ED",
"fX c #F28DFF",
"gX c #ED86F9",
"hX c #FFB2FF",
"jX c #D492CF",
"kX c #FFC0FF",
"lX c #FFD4FF",
/* pixels */
"C.A.Y.Y.x.j.x.Y.g.Q.M.P._.L.aXtXuXuXpX).g.`.`.m.E.E.I.C.C.A.Y.T.",
"C.A.Y.Y.x.x.j.I.].2.K._.pXd.p.$ @ $ 1._.g.S.g.!.m.K.K.Y.Z.Z.A.Z.",
"C.Y.Y.A.j.j.j.Y.h.K.sXp.$ X & O . . # z.`.g.`.g.m.K.R.U.T.S.Z.N.",
"U.U.Z.A.C.j.j.C.'._.a.# . X O O <   @ c.Y.k.b.V.m.C.I.E.I.C.A.Z.",
"U.U.Z.C.N.j.N.j.2.iXuXX X - * t < o & uX/.j.k.A.C.K.K.m.C.M.Z.S.",
"U.U.n.C.N.C.m.x.(.c.yXX o < > = < 1   8.d.c.iXx.I.C.m.k.m.C.Z.S.",
"F.M.M.N.C.C.x.z.pXd.rX% o * , t * t % 2 4 p.:.(.L.I.m.C.N.Z.Z.U.",
"F.B.n.n.I.R.L.c.:.V B . 3 < , , 1 0Xl 1 % N *.-.c.z.K.U.Z.B.M.n.",
"B.v.v.M.(.z.$.#.o.7 W R 2 < p t : *XeX; 2 % { q e &.1.E.!.~.n.~.",
"B.B.~.P.z.p.C =.D O.wXwXL p p K p s ] : * 3 Y 7.H =.#.<.l.U.v.H.",
"F.F.).L.-.*.D q.5.0X^ / L t u h h s u s : ; ] |  .4.M ;.<.P.v.G.",
"`.K.z.-.C N F 0X0X^ l t K g f h j y j #X] P ' ] Y  .F ` ;.,.3.`.",
"_.,.:.o.M R ^ +.R z l K oXoX2X.X7X;X;Xy ] a 6 ' v Q Q E C ;.&.l.",
"^.%.O.G F 9.+.R z z U OXoX}.2X+X8X8X:Xy -Xa ' ' v  .| | ' =.;.<.",
"yXO.+.4.R 9.9.F 7 B ! ( oXf <X<X9X9XdXj -X] 3 3 S r...r.{ r.7.u.",
"yXO.q.5.U  .w.+.z Z W T XX}.6X8X8X8X3Xj j &X' ' b 0.r...' { ` u.",
"tX=.7.r.0.0.{ W z W S Y &X:X8XfXlXhXhXhXjX&XP ' S { *Xe.wXt.8.t.",
"uX;.r.wX0.r.q.F 7 R ! Y c f @X5XfX9X:X:X>X&XP S T S / 0Xe.W ;.a.",
"L.r w S v E  .Q / ~ W | &X$X+X1X5X5X@X|.$X=XT J E ^ / U R M e $.",
"P.r 6 J S T Y qX+.U 4.Q OX$X.X+X1X1X+X}.XX%XT F q.e.m m +.e 0 >.",
"(.1.;.[ { } b } 0X^ 9.F b I f [. X X[.d I | [ q.0Xm z +.t.o.@.'.",
"P.(.d._ _ ` q x 0X+.q.+.{ ..I d [.f g K *XwX5.9.D z D +.V &.x.W.",
"Y.`._.-.) =.=.[ m ~ +.5.H } qX*XOX%XOX..w.4.A n n +.O.9 0 l./.h.",
"Y.h._.P.@.@.;.6.Q A z Z C [ t.4.9.0Xy.G x 7 Z Z +.+.9 9 z.Y.g./.",
"D.S.T.E.M.<.@.w { e.! Z Z +.t.w.[ r.6.M B F 0.5.n o.&.1.n.G.S.B.",
"b.N.C.Z.M.2.<.-.C O.G H H 5.y.q.[ 0.7._ M M M q O.O.2.C.N.b.B.F.",
"D.N.N.C.F.U.P.l.&.$.e 9 8 7 N D E S q 6 9 r %.-.x.R.T.Q.B.B.F.Q.",
"S.S.Z.Z.M.M.~.P.!.C.2.,.$.r 8 7 M 7 w e &.,.l.E./.Y.S.V.H.F.Q.Q.",
"S.U.Z.Z.M.n.N.b.V.b.n.U.P.2.a.a.p.-.:.z.I.C.C.Z.S.Z.C.N.Z.U.Q.E.",
"M.M.Z.N.N.n.b.b.V.b.b.Z.U.M.P.P.iXR.z.C.C.n.n.N.n.C.Z.C.h.h.m.E.",
"B.U.S.Z.N.b.B.A.M.M.~._._.~.F.M.D.k.k.C.Y.C.h.m.m.R.W.R.x.j.I.W.",
"Q.~.G.V.B.N.A.T.!.!.E.P.P.F.F.F.J.J.D.D.Y.I.W.W.R.R.R.R.(./.W.W."
};
