/* XPM */
static char *E_5[] = {
/* columns rows colors chars-per-pixel */
"32 32 227 2 ",
"   c #59190C",
".  c #561E1C",
"X  c #46140C",
"o  c #740C0D",
"O  c #6B1C0E",
"+  c #59230D",
"@  c #5E3112",
"#  c #68281C",
"$  c #752C18",
"%  c #522924",
"&  c #6C3D3A",
"*  c #6F2E26",
"=  c #61601F",
"-  c #76452C",
";  c #665A2B",
":  c #6D4835",
">  c #6A5D38",
",  c #744936",
"<  c #67652C",
"1  c #787828",
"2  c #6B6436",
"3  c #716836",
"4  c #7C743E",
"5  c #7A7638",
"6  c #6E702E",
"7  c #59564A",
"8  c #5E5851",
"9  c #644E45",
"0  c #695747",
"q  c #695E52",
"w  c #5F634C",
"e  c #696949",
"r  c #746948",
"t  c #797A4A",
"y  c #626555",
"u  c #6B6A5D",
"i  c #68665A",
"p  c #726C54",
"a  c #7A6A53",
"s  c #74685B",
"d  c #7C6D5A",
"f  c #78635C",
"g  c #6D7257",
"h  c #7A735D",
"j  c #777758",
"k  c #6E7643",
"l  c #6C6B65",
"z  c #766D64",
"x  c #7D6E69",
"c  c #786B67",
"v  c #6F7563",
"b  c #6F766D",
"n  c #7C7B64",
"m  c #75726A",
"M  c #7B746C",
"N  c #797C6D",
"B  c #747764",
"V  c #7C7B73",
"C  c #7B7A77",
"Z  c #911C1C",
"A  c #882118",
"S  c #A5251A",
"D  c #8D3630",
"F  c #AF292A",
"G  c #B9382C",
"H  c #B83438",
"J  c #B22A2C",
"K  c #C33627",
"L  c #C63B31",
"P  c #BA413C",
"I  c #85693E",
"U  c #C24C3A",
"Y  c #D54738",
"T  c #C3412B",
"R  c #AF3E40",
"E  c #BA3F41",
"W  c #9D4B44",
"Q  c #895A54",
"!  c #90514C",
"~  c #A54B4F",
"^  c #BA4547",
"/  c #BA4F56",
"(  c #A75955",
")  c #B85A57",
"_  c #82684E",
"`  c #857A47",
"'  c #83695C",
"]  c #807B51",
"[  c #87775B",
"{  c #907653",
"}  c #B6635F",
"|  c #A85B61",
" . c #986964",
".. c #827465",
"X. c #857B64",
"o. c #837C6B",
"O. c #88796A",
"+. c #847975",
"@. c #8D7C76",
"#. c #937D79",
"$. c #8A6F69",
"%. c #AB7C74",
"&. c #BF6564",
"*. c #D44647",
"=. c #CD504B",
"-. c #C8635E",
";. c #CF706B",
":. c #EA7971",
">. c #7D864A",
",. c #7C8158",
"<. c #7B826C",
"1. c #7D8274",
"2. c #7C877B",
"3. c #81843D",
"4. c #878549",
"5. c #918D49",
"6. c #97974B",
"7. c #818255",
"8. c #8C8A53",
"9. c #8A8759",
"0. c #8A9353",
"q. c #999B58",
"w. c #A19F55",
"e. c #96A45A",
"r. c #93A959",
"t. c #A7A85A",
"y. c #A8B459",
"u. c #B7B75F",
"i. c #848264",
"p. c #84826D",
"a. c #8E896B",
"s. c #8A8668",
"d. c #928766",
"f. c #8A936C",
"g. c #979762",
"h. c #848375",
"j. c #8C8372",
"k. c #848279",
"l. c #88887A",
"z. c #948673",
"x. c #93847C",
"c. c #948A7B",
"v. c #89927C",
"b. c #97987B",
"n. c #A59470",
"m. c #96A274",
"M. c #A4A665",
"N. c #A8B665",
"B. c #BBBB64",
"V. c #B8B669",
"C. c #ABB274",
"Z. c #D8837E",
"A. c #F0847A",
"S. c #BCCB4B",
"D. c #B3C849",
"F. c #B8CA57",
"G. c #BCD354",
"H. c #BDD35B",
"J. c #BED95B",
"K. c #B7D153",
"L. c #B7CC54",
"P. c #ACC468",
"I. c #B6C669",
"U. c #BCD565",
"Y. c #BAC772",
"T. c #C5CD4E",
"R. c #C5D14D",
"E. c #C9D34D",
"W. c #C4CE54",
"Q. c #C9CF55",
"!. c #C5CD5B",
"~. c #C9CE5D",
"^. c #C2C55A",
"/. c #C4D454",
"(. c #CAD354",
"). c #CBD955",
"_. c #C4D35B",
"`. c #CBD35C",
"'. c #C5DA5B",
"]. c #CCDA5C",
"[. c #C7D856",
"{. c #D3D75C",
"}. c #C9E258",
"|. c #D1E25F",
" X c #C6CC63",
".X c #C9CC64",
"XX c #C5CB69",
"oX c #CACC6B",
"OX c #C5C569",
"+X c #C4D462",
"@X c #CBD363",
"#X c #C5D964",
"$X c #CADB64",
"%X c #C5D36B",
"&X c #CED46D",
"*X c #CCDA6A",
"=X c #C7DA6F",
"-X c #D1D563",
";X c #D3DA62",
":X c #D2D56B",
">X c #D4DA6A",
",X c #C8C976",
"<X c #CBD575",
"1X c #D3D572",
"2X c #D4DB7A",
"3X c #D1CD74",
"4X c #C7E268",
"5X c #D4E366",
"6X c #C6E276",
"7X c #927F81",
"8X c #E67D84",
"9X c #8D8984",
"0X c #948A86",
"qX c #8F9080",
"wX c #969289",
"eX c #D59694",
"rX c #F99B99",
"tX c #F89086",
"yX c #C3BD98",
"uX c #FFB29C",
"iX c #FCAEA7",
"pX c #C5C389",
"aX c #D8D98B",
"sX c #FFC4B4",
"dX c #FFC8C6",
"fX c #FFCDD0",
"gX c #FFD2D1",
/* pixels */
"/.].].@X+XU.+X%XU..X@X(._.5X|.).E.}.}.'.].>X>X`.#XU.+X+X_.@X#X$X",
"/.].].`._._.+X+X_._.@X$X/.G.G.[.`.].'.G.^.(.`.~._.U.+X+X@X@X+X#X",
"_.@X$X]._.W._._.}.L.D.J.4XJ.H.#X^..X_.!.`.-X{.(./././.@X;X@X+XU.",
"+X#X+X`././.(./.|.G.K.J.J.F.F.XX3X<X<X=X#X`.{.E.R.R.(.(.{.`.+X+X",
"+X+X+X_./.(.Q.W.G.'.6X6XI.y.N.V.V.V.P.I.U.U.`.{.E.E.E.T.Q.~.@X@X",
"#X_.H.H._.(.Q.Q.+XU.I.P.N.w.{ ` _ ` 0.y.P.F.L.S.(.E.T.T.W.Q.`.@X",
"`._.K.H._.+X.XOX<XN.r.0.8.I * @ O @ = I r.N.P.+X~.Q._./._.(.`.`.",
")./.K.H.%X,X,X,Xq.>.k k : # D ) ) W - ; = < 3.6.OXoXXX.X@X_.!./.",
").R.K.F.<XC.0.9.j e j a # -./ H E E D   , n.d.2 t 5.y.<XU.U./.5X",
"(.`.6XU.Y.M.] s.j p.0 Q ~ ^ H *.*.F E } n.O.d j.d t >.M.V.=X!._.",
";X$X6XP.e.>.p h.h.c.% W ^ G T Y F Z rXdX| c wX2.h.j k 0.r.Y.XX*X",
"2XY.Y.e.t p h c.wXm . W U L Y K S 8XdXiX .$.l 2.2.<.g t 4.t.Y.2X",
"aXN.e.>.e h $.@.M 9 . ~ U L L U tXiXrX;.! f 8 b b <.j j 6 >.e.Y.",
"pX8.7.j d O.@.x 7 7 . ~ E F U uXiXtX:.)   Q +.y v <.p.s.,.i.0.f.",
"yXX.i.X.' #.#...7 f . ~ E / tXiX:.:.=.H o ( { ' z z.z.z.9.f.f.f.",
"yXd.d.z.d @.x.+.8 ... | / 8XfXeXA.*.H H o (  .q p j.j.p.g <.2.b.",
"pX9.d.z.#.7X+.M 7 ..9 & eXfXrX-.G Y H $ * Q +.i l +.k.k.qXv.f.m.",
",X5.g.c.#.0X0Xm 7 n ..d %.eXZ.-.U G Z O & $.+.l l l M 9Xk.X.f.C.",
"I.6 < r q x +.M u g p.X.> & *   $ O # & Q x q 7 m M x f h a t 9.",
"_.1 = r d c m qXh.B <.n 0 : : + X   : Q +.m b M 9X#.q q X.r 2 M.",
"*Xy.6.` d...q M v.2.<.B j X.[ _ _ _ n z l m 9X9Xx.a 9 [ n.` 5.aX",
"_.=XB.4.] X.q y v v.v.<.B n h [ O.X.h l C 9X9Xl.f 9 a { I w.3X2X",
"'.2X<Xq.` s.i.<.g v 2.2.N 1.k.j.h n N V C C l 8 q d { 3 1 V.2XD.",
"$XF.2X,X8.4.d.s.<.w w y u 1.wX9XX.j.c.1.l 8 8 s X.d.3 6 V.%XF.>X",
"'.#X*X<XOXt.` 3 7.9.,.e i k.0X0XO.z.O.s e h s.s.2 4 5.u.oX&X$X_.",
"G._._.@XoXV.t.q.I 4.7.j j j.9Xx.O.z.z.X.r r 2 < 5.w.V.oXXX X+X#X",
"[.[.E./.{..XoXOX6.5.5 < ; 2 r d [ a 2 ; < 5 5.6.B.oX:X>X@X@X&X&X",
"'.).(.E.Q.Q.-X3X2XXXu.t.5.5 > ; r > < 5 5.t.B.&X1X:X-X-X>X>X1X&X",
"`.).).E.E.T.Q.~.@X X X&XoXB.V.V.M.q.t.B.oX&X.X@X-X`.(.Q.`.`.:X&X",
"(./.(.E.E.T.W._.:X+X!.`.~.F.OX,XaX,XXX%X.X!. X.X~.`.`.E.T.S._.@X",
"~.`.`.(././._.+XH._.].5X5X{.`.!.+XH.H._.`.~..X.X.X.X].).G.S./.}.",
">X>X;X]./._.#X=X4X$X'./.E.(.).].4X].'./.`.@X:X1X.X.X(.).}.}.}.}."
};
